<?xml version="1.0" standalone="no"?>
<!DOCTYPE svg PUBLIC "-//W3C//DTD SVG 20010904//EN"
 "http://www.w3.org/TR/2001/REC-SVG-20010904/DTD/svg10.dtd">
<svg version="1.0" xmlns="http://www.w3.org/2000/svg"
 width="700.000000pt" height="700.000000pt" viewBox="0 0 700.000000 700.000000"
 preserveAspectRatio="xMidYMid meet">
<metadata>
Created by potrace 1.11, written by Peter Selinger 2001-2013
</metadata>
<g transform="translate(0.000000,700.000000) scale(0.100000,-0.100000)"
fill="#000000" stroke="none">
<path d="M2098 5632 c-12 -16 -259 -502 -548 -1080 l-525 -1052 525 -1052
c289 -578 536 -1064 548 -1080 l24 -28 1378 0 1378 0 24 28 c12 16 259 502
548 1080 l525 1052 -525 1052 c-289 578 -536 1064 -548 1080 l-24 28 -1378 0
-1378 0 -24 -28z m3189 -1137 l498 -995 -498 -995 -497 -995 -1290 0 -1290 0
-497 995 -498 995 498 995 497 995 1290 0 1290 0 497 -995z"/>
<path d="M2492 4655 l3 -70 75 -6 c173 -14 202 -29 220 -112 7 -36 10 -363 8
-1057 -3 -1158 9 -1038 -114 -1108 -74 -42 -74 -43 -74 -85 l0 -42 783 -3
c430 -2 842 0 915 3 124 7 134 9 142 29 10 24 51 586 44 598 -9 13 -131 9
-141 -4 -5 -7 -27 -87 -48 -177 -31 -128 -44 -167 -61 -177 -57 -38 -354 -59
-678 -49 l-236 7 0 494 c0 462 1 495 18 501 9 4 141 7 292 8 274 0 275 0 325
-25 60 -30 69 -50 86 -197 l11 -103 73 0 72 0 0 405 0 405 -72 0 -73 0 -12
-116 c-10 -95 -17 -121 -35 -142 l-23 -27 -329 0 -328 0 0 445 0 445 215 9
c225 9 535 -3 617 -25 63 -17 70 -30 82 -159 17 -173 10 -160 89 -160 l68 0
26 263 c26 259 26 262 7 282 -19 20 -33 20 -985 20 l-965 0 3 -70z"/>
</g>
</svg>
