<?xml version="1.0" encoding="UTF-8"?>
<svg fill="none" stroke-linecap="square" stroke-miterlimit="10" version="1.1" viewBox="0 0 1e3 1e3" xmlns="http://www.w3.org/2000/svg">
<clipPath id="a">
<path d="m0 0h1e3v1e3h-1e3v-1e3z"/>
</clipPath>
<g clip-path="url(#a)">

<path d="m159.84 500 148.28-296.55h383.76l148.28 296.55-148.28 296.55h-383.76z" fill="#fff" fill-rule="evenodd"/>
<path d="m159.84 500 148.28-296.55h383.76l148.28 296.55-148.28 296.55h-383.76z" fill-rule="evenodd" stroke="#2f2f2f" stroke-linecap="butt" stroke-linejoin="round" stroke-width="24"/>
<path d="m159.84-145.05 148.28-296.55h383.76l148.28 296.55-148.28 296.55h-383.76z" fill="#fff" fill-rule="evenodd"/>
<path d="m159.84-145.05 148.28-296.55h383.76l148.28 296.55-148.28 296.55h-383.76z" fill-rule="evenodd" stroke="#eee" stroke-linecap="butt" stroke-linejoin="round" stroke-width="24"/>
<path d="m159.84 1145 148.28-296.55h383.76l148.28 296.55-148.28 296.55h-383.76z" fill="#fff" fill-rule="evenodd"/>
<path d="m159.84 1145 148.28-296.55h383.76l148.28 296.55-148.28 296.55h-383.76z" fill-rule="evenodd" stroke="#eee" stroke-linecap="butt" stroke-linejoin="round" stroke-width="24"/>
<path d="m-426.97 822.52 148.28-296.55h383.76l148.28 296.55-148.28 296.55h-383.76z" fill="#fff" fill-rule="evenodd"/>
<path d="m-426.97 822.52 148.28-296.55h383.76l148.28 296.55-148.28 296.55h-383.76z" fill-rule="evenodd" stroke="#eee" stroke-linecap="butt" stroke-linejoin="round" stroke-width="24"/>
<path d="m-426.97 177.48 148.28-296.55h383.76l148.28 296.55-148.28 296.55h-383.76z" fill="#fff" fill-rule="evenodd"/>
<path d="m-426.97 177.48 148.28-296.55h383.76l148.28 296.55-148.28 296.55h-383.76z" fill-rule="evenodd" stroke="#eee" stroke-linecap="butt" stroke-linejoin="round" stroke-width="24"/>
<path d="m747.66 822.52 148.28-296.55h383.76l148.28 296.55-148.28 296.55h-383.76z" fill="#fff" fill-rule="evenodd"/>
<path d="m747.66 822.52 148.28-296.55h383.76l148.28 296.55-148.28 296.55h-383.76z" fill-rule="evenodd" stroke="#eee" stroke-linecap="butt" stroke-linejoin="round" stroke-width="24"/>
<path d="m747.66 177.48 148.28-296.55h383.76l148.28 296.55-148.28 296.55h-383.76z" fill="#fff" fill-rule="evenodd"/>
<path d="m747.66 177.48 148.28-296.55h383.76l148.28 296.55-148.28 296.55h-383.76z" fill-rule="evenodd" stroke="#eee" stroke-linecap="butt" stroke-linejoin="round" stroke-width="24"/>
<path d="m325.68 167.1h421.98v665.8h-421.98z" fill="#000" fill-opacity="0" fill-rule="evenodd"/>
<path d="m584.27 324.37q8.5312 0 20 0.26562t29.062 1.875l3.2031 3.7344-7.4688 75.734h-19.188l-4.2656-40q-0.54688-2.6719-6.1406-4.7969-5.5938-2.1406-15.203-3.2031-9.5938-1.0781-20.266-1.6094-10.656-0.53125-21.328-0.53125-22.938 0-40.266 0.53125-17.328 0.53125-26.406 1.0781v127.98q5.875 0.54688 11.734 0.8125 5.875 0.26562 19.734 0.26562h38.406q15.469 0 22.922-1.8594 7.4688-1.875 8.5469-9.3438l3.1875-30.406h21.344q-0.54688 14.406-1.0781 28.547-0.53125 14.125-0.53125 28.531 0 14.391 0.53125 28.797 0.53125 14.391 1.0781 28.797h-21.344l-3.1875-26.672q-1.0781-11.734-9.0781-15.734t-21.859-4h-36.266q-11.734 0-20 0.54688-8.2656 0.53125-14.141 1.0625v142.39q3.7344 0 10.938 0.26562t16 0.54688q8.7969 0.26562 18.922 0.53125 10.141 0.26562 20.281 0.26562 10.656 0 22.391-0.79688 11.734-0.8125 21.594-2.1406 9.875-1.3281 16.266-2.9219 6.4062-1.6094 6.9375-3.2188l12.281-50.125h20.797l-5.875 84.266-2.6562 4.2656q-16.547 1.0625-39.484 1.5938-22.922 0.54688-49.594 0.54688-20.797 0-32.531-0.28125-11.734-0.26562-25.594-0.79688-14.406-0.53125-26.672-0.79688t-22.922-0.26562q-15.469 0-32.281 0.53125-16.797 0.53125-31.719 1.0625v-12.266l12.266-6.9219q4.2656-2.6719 6.6562-4 2.4062-1.3438 4-4 2.6719-4.2656 3.7344-9.8594 1.0625-5.6094 1.0625-15.75v-244.27q0-21.328-1.5938-29.594t-4.2656-10.938q-2.1406-2.125-6.1406-3.4531-3.9844-1.3438-13.594-2.4062l-19.734-1.6094v-19.734q22.406 0 43.734 0.8125 21.328 0.79688 43.734 0.79688 19.734 0 42.656-0.26562 22.938-0.26562 43.203-0.79688 20.266-0.54688 35.469-0.8125t20-0.26562z" fill="#2f2f2f"/>
</g>
</svg>