<svg version="1.1" viewBox="0.0 0.0 1000.0 1000.0" fill="none" stroke="none" stroke-linecap="square" stroke-miterlimit="10" xmlns:xlink="http://www.w3.org/1999/xlink" xmlns="http://www.w3.org/2000/svg"><clipPath id="gbf067d77f5_0_7.0"><path d="m0 0l1000.0 0l0 1000.0l-1000.0 0l0 -1000.0z" clip-rule="nonzero"/></clipPath><g clip-path="url(#gbf067d77f5_0_7.0)"><path fill="#ffffff" d="m0 0l1000.0 0l0 1000.0l-1000.0 0z" fill-rule="evenodd"/><path fill="#000000" fill-opacity="0.0" d="m18.897638 18.897638l962.2677 0l0 116.34646l-962.2677 0z" fill-rule="evenodd"/><path fill="#2f2f2f" d="m109.586174 50.463257q1.046875 0 2.640625 -0.03125q1.609375 -0.046875 3.25 -0.09375q1.640625 -0.046875 3.1875 -0.078125q1.5625 -0.046875 2.6875 -0.046875l0 3.203125l-2.953125 0.234375q-1.6875 0.171875 -2.328125 0.40625q-0.640625 0.234375 -0.796875 0.484375q-0.40625 0.390625 -0.5625 1.75q-0.15625 1.359375 -0.15625 4.171875l0 39.59375q1.515625 0.078125 3.90625 0.15625q2.40625 0.078125 5.765625 0.078125q1.921875 0 3.765625 -0.109375q1.8437576 -0.125 3.2812576 -0.328125q1.4375 -0.203125 2.3125 -0.4375q0.890625 -0.234375 0.96875 -0.484375l1.84375 -8.15625l3.109375 0l-0.875 13.28125l-0.40625 0.640625q-2.390625 0.15625 -5.953125 0.234375q-3.5625 0.078125 -7.6406326 0.078125q-2.875 0 -5.0 -0.046875q-2.125 -0.03125 -3.890625 -0.109375q-1.75 -0.078125 -3.390625 -0.125q-1.640625 -0.03125 -3.640625 -0.03125q-2.3125 0 -4.84375 0.078125q-2.515625 0.078125 -4.75 0.15625l0 -1.828125l1.828125 -1.046875q0.5625 -0.3125 0.921875 -0.546875q0.359375 -0.25 0.6875 -0.65625q0.71875 -1.03125 0.71875 -3.84375l0 -36.546875q0 -3.046875 -0.203125 -4.328125q-0.203125 -1.28125 -0.59375 -1.671875q-0.328125 -0.328125 -0.96875 -0.484375q-0.640625 -0.15625 -2.078125 -0.328125l-2.953125 -0.234375l0 -3.203125q2.796875 0.078125 5.875 0.171875q3.078125 0.078125 7.234375 0.078125zm54.004967 16.546875q3.203125 0 6.03125 0.84375q2.84375 0.84375 4.921875 2.609375q2.09375 1.75 3.328125 4.4375q1.234375 2.671875 1.234375 6.28125l0 4.078125q-3.1875 0.875 -6.671875 1.234375q-3.484375 0.359375 -5.796875 0.359375l-10.640625 0q0 2.96875 0.828125 5.453125q0.84375 2.46875 2.4375 4.28125q1.609375 1.796875 4.0 2.796875q2.40625 1.0 5.453125 1.0q2.0 0 4.359375 -0.84375q2.359375 -0.84375 4.28125 -1.96875l0.953125 1.203125l-1.765625 3.84375q-3.59375 1.921875 -6.4375 2.671875q-2.828125 0.765625 -6.359375 0.765625q-8.5625 0 -13.359375 -4.796875q-4.796875 -4.796875 -4.796875 -13.765625q0 -3.515625 0.4375 -5.953125q0.4375 -2.4375 1.328125 -4.28125q1.359375 -2.71875 3.03125 -4.109375q1.6875 -1.40625 4.0 -2.765625q1.28125 -0.8125 2.3125 -1.40625q1.046875 -0.59375 2.078125 -1.03125q1.046875 -0.453125 2.171875 -0.6875q1.125 -0.25 2.640625 -0.25zm-8.078125 15.609375q0.3125 0 1.078125 0.046875q0.765625 0.03125 1.71875 0.078125q0.96875 0.03125 2.046875 0.078125q1.078125 0.03125 1.953125 0.03125q1.359375 0 3.3125 -0.078125q1.96875 -0.078125 3.328125 -0.15625l0 -0.328125q0 -2.234375 -0.28125 -4.1875q-0.28125 -1.96875 -1.046875 -3.4375q-0.75 -1.484375 -2.03125 -2.328125q-1.28125 -0.84375 -3.203125 -0.84375q-3.4375 0 -5.15625 2.6875q-1.71875 2.671875 -1.71875 8.4375zm27.59372 -14.640625q2.5625 0.078125 5.125 0.15625q2.5625 0.078125 5.28125 0.078125q2.5625 0 5.15625 -0.078125q2.609375 -0.078125 5.15625 -0.15625l0 3.03125l-3.28125 0.171875q-1.828125 0.078125 -1.828125 1.4375q0 1.28125 1.28125 4.390625l6.875 17.28125q1.84375 -4.078125 3.28125 -7.625q1.4375 -3.5625 2.390625 -5.890625q1.046875 -2.5625 1.609375 -4.0q0.5625 -1.4375 0.71875 -1.84375q0.15625 -0.640625 0.28125 -1.15625q0.125 -0.515625 0.125 -1.15625q0 -1.28125 -1.84375 -1.4375l-3.046875 -0.171875l0 -3.03125q1.84375 0.078125 3.765625 0.15625q1.921875 0.078125 4.0 0.078125q1.921875 0 3.84375 -0.078125q1.921875 -0.078125 3.828125 -0.15625l0 3.03125l-1.90625 0.328125q-1.125 0.15625 -1.890625 0.6875q-0.75 0.515625 -1.484375 2.109375l-10.234375 23.046875q-0.390625 0.875 -0.84375 1.921875q-0.4375 1.03125 -0.84375 2.109375q-0.390625 1.078125 -0.75 2.046875q-0.359375 0.953125 -0.59375 1.671875l-6.890625 0l-11.109375 -28.0q-0.96875 -2.3125 -1.890625 -3.953125q-0.921875 -1.640625 -2.28125 -1.796875l-2.0 -0.171875l0 -3.03125zm64.96434 -0.96875q3.203125 0 6.03125 0.84375q2.84375 0.84375 4.921875 2.609375q2.09375 1.75 3.328125 4.4375q1.234375 2.671875 1.234375 6.28125l0 4.078125q-3.1875 0.875 -6.671875 1.234375q-3.484375 0.359375 -5.796875 0.359375l-10.640625 0q0 2.96875 0.828125 5.453125q0.84375 2.46875 2.4375 4.28125q1.609375 1.796875 4.0 2.796875q2.40625 1.0 5.453125 1.0q2.0 0 4.359375 -0.84375q2.359375 -0.84375 4.28125 -1.96875l0.953125 1.203125l-1.765625 3.84375q-3.59375 1.921875 -6.4375 2.671875q-2.828125 0.765625 -6.359375 0.765625q-8.5625 0 -13.359375 -4.796875q-4.796875 -4.796875 -4.796875 -13.765625q0 -3.515625 0.4375 -5.953125q0.4375 -2.4375 1.328125 -4.28125q1.359375 -2.71875 3.03125 -4.109375q1.6875 -1.40625 4.0 -2.765625q1.28125 -0.8125 2.3125 -1.40625q1.046875 -0.59375 2.078125 -1.03125q1.046875 -0.453125 2.171875 -0.6875q1.125 -0.25 2.640625 -0.25zm-8.078125 15.609375q0.3125 0 1.078125 0.046875q0.765625 0.03125 1.71875 0.078125q0.96875 0.03125 2.046875 0.078125q1.078125 0.03125 1.953125 0.03125q1.359375 0 3.3125 -0.078125q1.96875 -0.078125 3.328125 -0.15625l0 -0.328125q0 -2.234375 -0.28125 -4.1875q-0.28125 -1.96875 -1.046875 -3.4375q-0.75 -1.484375 -2.03125 -2.328125q-1.28125 -0.84375 -3.203125 -0.84375q-3.4375 0 -5.15625 2.6875q-1.71875 2.671875 -1.71875 8.4375zm44.71872 -35.046875l0 49.203125q0 1.359375 0.078125 2.53125q0.078125 1.15625 0.484375 1.625q0.484375 0.8125 2.390625 0.890625l2.734375 0.15625l0 2.953125q-0.96875 0 -2.328125 -0.046875q-1.359375 -0.03125 -2.890625 -0.078125q-1.515625 -0.03125 -2.953125 -0.078125q-1.4375 -0.03125 -2.5625 -0.03125q-1.109375 0 -2.875 0.03125q-1.765625 0.046875 -3.4375 0.125q-2.0 0.078125 -4.078125 0.078125l0 -2.953125l2.71875 -0.15625q1.921875 -0.078125 2.40625 -0.890625q0.234375 -0.3125 0.390625 -1.234375q0.15625 -0.921875 0.15625 -2.765625l0 -38.390625q0 -2.328125 -0.15625 -3.15625q-0.15625 -0.84375 -0.5625 -1.25q-0.15625 -0.15625 -0.40625 -0.265625q-0.234375 -0.125 -1.03125 -0.21875l-4.15625 -0.234375l0 -2.875q2.3125 -0.25 4.875 -0.640625q2.5625 -0.40625 4.796875 -1.046875l5.765625 -1.75l0.640625 0.46875zm28.233704 19.4375q2.71875 0 5.28125 0.375q2.5625 0.359375 4.71875 1.46875l-0.640625 9.765625l-2.875 0l-0.796875 -4.640625q-0.078125 -0.5625 -0.765625 -1.15625q-0.671875 -0.609375 -1.640625 -1.0q-0.953125 -0.40625 -2.078125 -0.6875q-1.109375 -0.28125 -2.15625 -0.28125q-3.4375 0 -5.40625 1.328125q-1.953125 1.3125 -1.953125 3.875q0 1.921875 1.03125 2.96875q1.046875 1.03125 3.046875 1.4375l7.203125 1.59375q5.59375 1.28125 7.71875 3.84375q2.125 2.5625 2.125 6.5625q0 6.078125 -4.71875 9.828125q-4.734375 3.765625 -12.09375 3.765625q-6.3125 0 -12.46875 -2.234375l0.5625 -11.28125l3.109375 0l0.40625 5.515625q1.671875 2.234375 4.109375 3.203125q2.453125 0.953125 5.328125 0.953125q2.71875 0 4.796875 -1.546875q2.078125 -1.5625 2.078125 -4.453125q0 -1.4375 -0.4375 -2.359375q-0.4375 -0.921875 -1.15625 -1.4375q-0.71875 -0.515625 -1.609375 -0.828125q-0.875 -0.328125 -1.828125 -0.578125l-6.890625 -1.671875q-4.546875 -1.125 -6.515625 -3.71875q-1.953125 -2.609375 -1.953125 -6.125q0 -6.234375 4.28125 -9.359375q4.28125 -3.125 12.1875 -3.125zm58.723083 0q9.203125 0 13.875 4.890625q4.6875 4.875 4.6875 13.84375q0 9.671875 -5.078125 15.0q-5.078125 5.3125 -15.15625 5.3125q-8.71875 0 -13.328125 -5.078125q-4.59375 -5.078125 -4.59375 -14.28125q0 -9.4375 5.0 -14.5625q5.0 -5.125 14.59375 -5.125zm-8.71875 17.375q0 2.953125 0.28125 6.109375q0.28125 3.15625 1.234375 5.765625q0.96875 2.59375 2.6875 4.28125q1.71875 1.671875 4.59375 1.671875q2.890625 0 4.40625 -1.515625q1.515625 -1.515625 2.234375 -3.71875q0.71875 -2.203125 0.84375 -4.59375q0.125 -2.40625 0.125 -4.25q0 -9.359375 -2.25 -13.3125q-2.234375 -3.96875 -6.234375 -3.96875q-2.5625 0 -4.125 1.203125q-1.5625 1.203125 -2.40625 3.125q-0.828125 1.921875 -1.109375 4.359375q-0.28125 2.4375 -0.28125 4.84375zm49.526855 12.0q0 3.515625 0.390625 4.234375q0.328125 0.5625 1.40625 0.84375q1.078125 0.28125 2.203125 0.359375l3.59375 0.15625l0 2.953125q-3.359375 -0.078125 -6.890625 -0.15625q-3.515625 -0.078125 -5.75 -0.078125q-2.234375 0 -5.40625 0.078125q-3.15625 0.078125 -5.953125 0.15625l0 -2.953125l3.359375 -0.15625q2.234375 -0.171875 2.796875 -1.046875q0.171875 -0.3125 0.328125 -1.109375q0.15625 -0.8125 0.15625 -2.734375l0 -22.0l-6.3125 0.40625l0 -1.921875q1.671875 -0.796875 3.265625 -1.671875q1.609375 -0.890625 3.046875 -1.921875l0 -3.84375q0 -2.640625 0.15625 -4.0q0.171875 -1.359375 0.5625 -2.234375q0.5625 -1.28125 1.4375 -2.234375q0.890625 -0.96875 2.71875 -2.5l5.453125 -4.546875q1.359375 -1.125 2.359375 -1.765625q1.0 -0.640625 1.875 -1.0q0.875 -0.359375 1.625 -0.46875q0.765625 -0.125 1.65625 -0.125q1.59375 0 3.28125 0.46875l0 7.765625l-1.28125 0.5625q-1.046875 -0.640625 -2.40625 -1.28125q-1.359375 -0.640625 -2.71875 -0.640625q-1.515625 0 -2.359375 0.359375q-0.84375 0.359375 -1.3125 0.84375q-0.640625 0.640625 -0.96875 1.796875q-0.3125 1.15625 -0.3125 3.640625l0 9.359375l0.71875 0q1.203125 0 2.59375 -0.03125q1.40625 -0.046875 2.796875 -0.078125q1.40625 -0.046875 2.5625 -0.125q1.15625 -0.09375 1.796875 -0.09375l0.328125 0.640625l-0.875 4.640625l-9.921875 0l0 21.453125zm67.838684 -47.28125q5.28125 0 10.71875 0.71875q5.4375 0.71875 11.203125 3.03125l0.46875 0.890625q-0.390625 1.265625 -0.796875 4.03125q-0.390625 2.765625 -1.03125 8.203125l-3.125 0l-0.40625 -6.875q-1.109375 -1.359375 -2.953125 -2.40625q-1.84375 -1.046875 -4.09375 -1.71875q-2.234375 -0.6875 -4.75 -1.046875q-2.515625 -0.359375 -5.0 -0.359375q-4.71875 0 -8.484375 1.5625q-3.75 1.5625 -6.390625 4.453125q-2.640625 2.875 -4.046875 6.953125q-1.390625 4.078125 -1.390625 9.109375q0 5.6875 1.46875 10.40625q1.484375 4.71875 4.234375 8.203125q2.765625 3.484375 6.765625 5.40625q4.0 1.90625 9.046875 1.90625q2.640625 0 5.109375 -0.515625q2.484375 -0.515625 5.046875 -1.484375l0 -10.5625q0 -1.828125 -1.328125 -2.34375q-1.3125 -0.53125 -3.234375 -0.609375l-4.234375 -0.15625l0 -3.28125q2.953125 0.078125 5.875 0.15625q2.921875 0.078125 5.890625 0.078125q2.953125 0 5.828125 -0.078125q2.890625 -0.078125 5.84375 -0.15625l0 2.71875q-2.3125 0.40625 -2.796875 1.0q-0.484375 0.59375 -0.484375 1.875l0 13.046875q-5.59375 2.15625 -11.359375 3.46875q-5.75 1.328125 -12.0 1.328125q-7.359375 0 -13.25 -2.078125q-5.875 -2.078125 -9.953125 -5.921875q-4.078125 -3.84375 -6.28125 -9.234375q-2.1875 -5.40625 -2.1875 -12.125q0 -6.484375 2.390625 -11.59375q2.40625 -5.125 6.640625 -8.6875q4.25 -3.5625 10.15625 -5.4375q5.921875 -1.875 12.890625 -1.875zm53.59308 17.90625q9.203125 0 13.875 4.890625q4.6875 4.875 4.6875 13.84375q0 9.671875 -5.078125 15.0q-5.078125 5.3125 -15.15625 5.3125q-8.71875 0 -13.328125 -5.078125q-4.59375 -5.078125 -4.59375 -14.28125q0 -9.4375 5.0 -14.5625q5.0 -5.125 14.59375 -5.125zm-8.71875 17.375q0 2.953125 0.28125 6.109375q0.28125 3.15625 1.234375 5.765625q0.96875 2.59375 2.6875 4.28125q1.71875 1.671875 4.59375 1.671875q2.890625 0 4.40625 -1.515625q1.515625 -1.515625 2.234375 -3.71875q0.71875 -2.203125 0.84375 -4.59375q0.125 -2.40625 0.125 -4.25q0 -9.359375 -2.25 -13.3125q-2.234375 -3.96875 -6.234375 -3.96875q-2.5625 0 -4.125 1.203125q-1.5625 1.203125 -2.40625 3.125q-0.828125 1.921875 -1.109375 4.359375q-0.28125 2.4375 -0.28125 4.84375zm31.276855 -16.40625q2.5625 0.078125 5.125 0.15625q2.5625 0.078125 5.28125 0.078125q2.5625 0 5.15625 -0.078125q2.609375 -0.078125 5.15625 -0.15625l0 3.03125l-3.28125 0.171875q-1.828125 0.078125 -1.828125 1.4375q0 1.28125 1.28125 4.390625l6.875 17.28125q1.84375 -4.078125 3.28125 -7.625q1.4375 -3.5625 2.390625 -5.890625q1.046875 -2.5625 1.609375 -4.0q0.5625 -1.4375 0.71875 -1.84375q0.15625 -0.640625 0.28125 -1.15625q0.125 -0.515625 0.125 -1.15625q0 -1.28125 -1.84375 -1.4375l-3.046875 -0.171875l0 -3.03125q1.84375 0.078125 3.765625 0.15625q1.921875 0.078125 4.0 0.078125q1.921875 0 3.84375 -0.078125q1.921875 -0.078125 3.828125 -0.15625l0 3.03125l-1.90625 0.328125q-1.125 0.15625 -1.890625 0.6875q-0.75 0.515625 -1.484375 2.109375l-10.234375 23.046875q-0.390625 0.875 -0.84375 1.921875q-0.4375 1.03125 -0.84375 2.109375q-0.390625 1.078125 -0.75 2.046875q-0.359375 0.953125 -0.59375 1.671875l-6.890625 0l-11.109375 -28.0q-0.96875 -2.3125 -1.890625 -3.953125q-0.921875 -1.640625 -2.28125 -1.796875l-2.0 -0.171875l0 -3.03125zm64.964355 -0.96875q3.203125 0 6.03125 0.84375q2.84375 0.84375 4.921875 2.609375q2.09375 1.75 3.328125 4.4375q1.234375 2.671875 1.234375 6.28125l0 4.078125q-3.1875 0.875 -6.671875 1.234375q-3.484375 0.359375 -5.796875 0.359375l-10.640625 0q0 2.96875 0.828125 5.453125q0.84375 2.46875 2.4375 4.28125q1.609375 1.796875 4.0 2.796875q2.40625 1.0 5.453125 1.0q2.0 0 4.359375 -0.84375q2.359375 -0.84375 4.28125 -1.96875l0.953125 1.203125l-1.765625 3.84375q-3.59375 1.921875 -6.4375 2.671875q-2.828125 0.765625 -6.359375 0.765625q-8.5625 0 -13.359375 -4.796875q-4.796875 -4.796875 -4.796875 -13.765625q0 -3.515625 0.4375 -5.953125q0.4375 -2.4375 1.328125 -4.28125q1.359375 -2.71875 3.03125 -4.109375q1.6875 -1.40625 4.0 -2.765625q1.28125 -0.8125 2.3125 -1.40625q1.046875 -0.59375 2.078125 -1.03125q1.046875 -0.453125 2.171875 -0.6875q1.125 -0.25 2.640625 -0.25zm-8.078125 15.609375q0.3125 0 1.078125 0.046875q0.765625 0.03125 1.71875 0.078125q0.96875 0.03125 2.046875 0.078125q1.078125 0.03125 1.953125 0.03125q1.359375 0 3.3125 -0.078125q1.96875 -0.078125 3.328125 -0.15625l0 -0.328125q0 -2.234375 -0.28125 -4.1875q-0.28125 -1.96875 -1.046875 -3.4375q-0.75 -1.484375 -2.03125 -2.328125q-1.28125 -0.84375 -3.203125 -0.84375q-3.4375 0 -5.15625 2.6875q-1.71875 2.671875 -1.71875 8.4375zm44.5625 -15.125l0 7.609375l3.515625 -3.84375q1.59375 -1.6875 3.078125 -2.96875q1.484375 -1.28125 3.25 -1.28125q0.953125 0 1.875 0.09375q0.921875 0.078125 1.5625 0.390625l-0.40625 10.328125l-1.921875 0.796875q-1.4375 -2.875 -4.71875 -2.875q-1.03125 0 -2.15625 0.4375q-1.125 0.4375 -2.15625 1.3125q-1.921875 1.6875 -1.921875 3.359375l0 15.53125q0 3.515625 0.390625 4.234375q0.328125 0.5625 1.328125 0.84375q1.0 0.28125 2.125 0.359375l3.109375 0.15625l0 2.953125q-3.03125 -0.078125 -6.390625 -0.15625q-3.359375 -0.078125 -5.609375 -0.078125q-2.234375 0 -5.203125 0.078125q-2.953125 0.078125 -5.1875 0.15625l0 -2.953125l2.71875 -0.15625q1.921875 -0.078125 2.390625 -0.890625q0.25 -0.3125 0.40625 -1.1875q0.15625 -0.890625 0.15625 -2.8125l0 -18.46875q0 -2.328125 -0.15625 -3.15625q-0.15625 -0.84375 -0.5625 -1.25q-0.15625 -0.15625 -0.40625 -0.28125q-0.234375 -0.125 -1.109375 -0.203125l-3.4375 -0.234375l0 -2.875q2.234375 -0.328125 4.46875 -0.640625q2.25 -0.328125 4.328125 -0.96875l5.84375 -1.84375l0.796875 0.484375zm30.63562 0l0 6.0l6.40625 -4.953125q1.1875 -0.890625 2.546875 -1.203125q1.375 -0.328125 3.53125 -0.328125q2.875 0 5.15625 0.96875q2.28125 0.953125 3.40625 2.15625q2.078125 2.15625 2.546875 5.15625q0.484375 3.0 0.484375 6.359375l0 15.453125q0 1.75 0.15625 2.59375q0.171875 0.84375 0.328125 1.15625q0.3125 0.484375 0.953125 0.6875q0.640625 0.203125 1.53125 0.28125l2.546875 0.15625l0 2.953125q-1.90625 -0.078125 -4.078125 -0.15625q-2.15625 -0.078125 -3.28125 -0.078125q-2.3125 0 -4.390625 0.078125q-2.078125 0.078125 -3.515625 0.15625l0 -22.078125q0 -4.5625 -1.734375 -6.75q-1.71875 -2.203125 -6.03125 -2.203125q-1.609375 0 -2.6875 0.515625q-1.078125 0.515625 -1.953125 1.328125q-0.96875 0.875 -1.453125 1.84375q-0.46875 0.953125 -0.46875 1.75l0 17.4375q0 1.359375 0.078125 2.53125q0.078125 1.15625 0.484375 1.625q0.484375 0.8125 2.390625 0.890625l2.734375 0.15625l0 2.953125q-0.96875 0 -2.328125 -0.046875q-1.359375 -0.03125 -2.890625 -0.078125q-1.515625 -0.03125 -2.953125 -0.078125q-1.4375 -0.03125 -2.5625 -0.03125q-2.234375 0 -5.125 0.078125q-2.875 0.078125 -5.265625 0.15625l0 -2.953125l2.71875 -0.15625q1.921875 -0.078125 2.40625 -0.890625q0.234375 -0.3125 0.390625 -1.234375q0.15625 -0.921875 0.15625 -2.765625l0 -18.46875q0 -2.328125 -0.15625 -3.15625q-0.15625 -0.84375 -0.5625 -1.25q-0.15625 -0.15625 -0.40625 -0.28125q-0.234375 -0.125 -1.03125 -0.203125l-3.515625 -0.234375l0 -2.875q3.671875 -0.078125 7.03125 -1.0q3.359375 -0.921875 7.921875 -2.453125l0.484375 0.484375zm72.004944 29.359375q0 1.359375 0.078125 2.484375q0.078125 1.125 0.484375 1.59375q0.46875 0.8125 2.390625 0.890625l2.71875 0.15625l0 2.953125q-1.03125 0 -2.4375 -0.046875q-1.40625 -0.03125 -2.890625 -0.078125q-1.46875 -0.03125 -2.875 -0.078125q-1.390625 -0.03125 -2.515625 -0.03125q-2.484375 0 -5.125 0.078125q-2.625 0.078125 -4.953125 0.15625l0 -2.953125l2.40625 -0.15625q1.109375 -0.078125 1.625 -0.28125q0.53125 -0.203125 0.765625 -0.609375q0.25 -0.3125 0.40625 -1.1875q0.15625 -0.890625 0.15625 -2.8125l0 -14.078125q0 -2.5625 -0.484375 -4.203125q-0.46875 -1.640625 -1.359375 -2.671875q-1.828125 -2.078125 -5.28125 -2.078125q-2.3125 0 -4.3125 1.84375q-1.921875 1.828125 -1.921875 3.59375l0 17.515625q0 1.359375 0.078125 2.484375q0.078125 1.125 0.484375 1.59375q0.484375 0.8125 2.390625 0.890625l2.09375 0.15625l0 2.953125q-0.890625 0 -2.171875 -0.046875q-1.28125 -0.03125 -2.6875 -0.078125q-1.390625 -0.03125 -2.75 -0.078125q-1.359375 -0.03125 -2.484375 -0.03125q-2.234375 0 -5.125 0.078125q-2.875 0.078125 -5.265625 0.15625l0 -2.953125l2.71875 -0.15625q1.921875 -0.078125 2.40625 -0.890625q0.234375 -0.3125 0.390625 -1.1875q0.15625 -0.890625 0.15625 -2.8125l0 -18.46875q0 -2.328125 -0.15625 -3.15625q-0.15625 -0.84375 -0.5625 -1.25q-0.15625 -0.15625 -0.40625 -0.28125q-0.234375 -0.125 -1.03125 -0.203125l-3.515625 -0.234375l0 -2.875q4.078125 -0.171875 7.640625 -1.203125q3.5625 -1.046875 7.3125 -2.25l0.484375 0.484375l0 6.0l6.40625 -4.953125q1.1875 -0.890625 2.546875 -1.203125q1.375 -0.328125 3.53125 -0.328125q3.515625 0 6.265625 1.5625q2.765625 1.5625 3.890625 4.921875l6.40625 -4.953125q1.109375 -0.890625 2.421875 -1.203125q1.328125 -0.328125 3.65625 -0.328125q3.03125 0 5.15625 0.765625q2.125 0.765625 3.4375 2.484375q1.328125 1.71875 1.921875 4.484375q0.59375 2.75 0.59375 6.75l0 15.609375q0 1.75 0.15625 2.59375q0.171875 0.84375 0.328125 1.15625q0.328125 0.484375 0.96875 0.6875q0.640625 0.203125 1.515625 0.28125l2.5625 0.15625l0 2.953125q-1.921875 -0.078125 -4.09375 -0.15625q-2.15625 -0.078125 -3.265625 -0.078125q-2.328125 0 -4.40625 0.078125q-2.078125 0.078125 -3.515625 0.15625l0 -21.75q0 -1.53125 -0.25 -3.609375q-0.234375 -2.078125 -1.59375 -3.59375q-0.71875 -0.796875 -1.96875 -1.4375q-1.234375 -0.640625 -3.3125 -0.640625q-2.3125 0 -4.3125 1.84375q-1.921875 1.75 -1.921875 3.671875l0 17.4375zm51.994934 -29.84375q3.203125 0 6.03125 0.84375q2.84375 0.84375 4.921875 2.609375q2.09375 1.75 3.328125 4.4375q1.234375 2.671875 1.234375 6.28125l0 4.078125q-3.1875 0.875 -6.671875 1.234375q-3.484375 0.359375 -5.796875 0.359375l-10.640625 0q0 2.96875 0.828125 5.453125q0.84375 2.46875 2.4375 4.28125q1.609375 1.796875 4.0 2.796875q2.40625 1.0 5.453125 1.0q2.0 0 4.359375 -0.84375q2.359375 -0.84375 4.28125 -1.96875l0.953125 1.203125l-1.765625 3.84375q-3.59375 1.921875 -6.4375 2.671875q-2.828125 0.765625 -6.359375 0.765625q-8.5625 0 -13.359375 -4.796875q-4.796875 -4.796875 -4.796875 -13.765625q0 -3.515625 0.4375 -5.953125q0.4375 -2.4375 1.328125 -4.28125q1.359375 -2.71875 3.03125 -4.109375q1.6875 -1.40625 4.0 -2.765625q1.28125 -0.8125 2.3125 -1.40625q1.046875 -0.59375 2.078125 -1.03125q1.046875 -0.453125 2.171875 -0.6875q1.125 -0.25 2.640625 -0.25zm-8.078125 15.609375q0.3125 0 1.078125 0.046875q0.765625 0.03125 1.71875 0.078125q0.96875 0.03125 2.046875 0.078125q1.078125 0.03125 1.953125 0.03125q1.359375 0 3.3125 -0.078125q1.96875 -0.078125 3.328125 -0.15625l0 -0.328125q0 -2.234375 -0.28125 -4.1875q-0.28125 -1.96875 -1.046875 -3.4375q-0.75 -1.484375 -2.03125 -2.328125q-1.28125 -0.84375 -3.203125 -0.84375q-3.4375 0 -5.15625 2.6875q-1.71875 2.671875 -1.71875 8.4375zm44.078125 -15.125l0 6.0l6.40625 -4.953125q1.1875 -0.890625 2.546875 -1.203125q1.375 -0.328125 3.53125 -0.328125q2.875 0 5.15625 0.96875q2.28125 0.953125 3.40625 2.15625q2.078125 2.15625 2.546875 5.15625q0.484375 3.0 0.484375 6.359375l0 15.453125q0 1.75 0.15625 2.59375q0.171875 0.84375 0.328125 1.15625q0.3125 0.484375 0.953125 0.6875q0.640625 0.203125 1.53125 0.28125l2.546875 0.15625l0 2.953125q-1.90625 -0.078125 -4.078125 -0.15625q-2.15625 -0.078125 -3.28125 -0.078125q-2.3125 0 -4.390625 0.078125q-2.078125 0.078125 -3.515625 0.15625l0 -22.078125q0 -4.5625 -1.734375 -6.75q-1.71875 -2.203125 -6.03125 -2.203125q-1.609375 0 -2.6875 0.515625q-1.078125 0.515625 -1.953125 1.328125q-0.96875 0.875 -1.453125 1.84375q-0.46875 0.953125 -0.46875 1.75l0 17.4375q0 1.359375 0.078125 2.53125q0.078125 1.15625 0.484375 1.625q0.484375 0.8125 2.390625 0.890625l2.734375 0.15625l0 2.953125q-0.96875 0 -2.328125 -0.046875q-1.359375 -0.03125 -2.890625 -0.078125q-1.515625 -0.03125 -2.953125 -0.078125q-1.4375 -0.03125 -2.5625 -0.03125q-2.234375 0 -5.125 0.078125q-2.875 0.078125 -5.265625 0.15625l0 -2.953125l2.71875 -0.15625q1.921875 -0.078125 2.40625 -0.890625q0.234375 -0.3125 0.390625 -1.234375q0.15625 -0.921875 0.15625 -2.765625l0 -18.46875q0 -2.328125 -0.15625 -3.15625q-0.15625 -0.84375 -0.5625 -1.25q-0.15625 -0.15625 -0.40625 -0.28125q-0.234375 -0.125 -1.03125 -0.203125l-3.515625 -0.234375l0 -2.875q3.671875 -0.078125 7.03125 -1.0q3.359375 -0.921875 7.921875 -2.453125l0.484375 0.484375zm49.11432 -12.5625q-0.546875 2.71875 -0.75 5.640625q-0.203125 2.921875 -0.203125 4.921875l0 4.96875l9.125 -0.484375l-0.640625 5.203125l-8.484375 0l0 18.953125q0 2.96875 1.03125 4.125q1.046875 1.15625 3.921875 1.15625q1.125 0 1.875 -0.234375q0.765625 -0.25 1.8125 -0.796875l0.640625 1.515625l-3.921875 4.71875q-0.640625 0.71875 -1.96875 1.078125q-1.3125 0.359375 -2.90625 0.359375q-5.6875 0 -7.96875 -2.515625q-2.28125 -2.53125 -2.28125 -7.71875l0 -20.640625l-5.109375 0.3125l0 -1.75l5.28125 -3.453125l0 -4.71875q0 -1.1875 -0.046875 -2.5q-0.046875 -1.328125 -0.125 -2.453125q-0.078125 -1.28125 -0.15625 -2.484375q2.640625 -0.953125 5.234375 -2.03125q2.609375 -1.09375 4.53125 -1.96875l1.109375 0.796875z" fill-rule="nonzero"/><path fill="#000000" fill-opacity="0.0" d="m122.708664 500.0l163.43306 -326.86597l427.71655 0l163.43304 326.86597l-163.43304 326.86597l-427.71655 0z" fill-rule="evenodd"/><path stroke="#0087dc" stroke-width="24.0" stroke-linejoin="round" stroke-linecap="butt" d="m122.708664 500.0l163.43306 -326.86597l427.71655 0l163.43304 326.86597l-163.43304 326.86597l-427.71655 0z" fill-rule="evenodd"/><path fill="#000000" fill-opacity="0.0" d="m294.37796 187.0105l411.2441 0l0 58.173233l-411.2441 0z" fill-rule="evenodd"/><path fill="#000000" d="m375.3532 222.88274q0.265625 0 0.46875 0.203125l1.21875 1.328125q-1.40625 1.640625 -3.421875 2.546875q-2.0 0.90625 -4.828125 0.90625q-2.484375 0 -4.5 -0.84375q-2.015625 -0.859375 -3.4375 -2.40625q-1.421875 -1.546875 -2.21875 -3.703125q-0.78125 -2.15625 -0.78125 -4.75q0 -2.59375 0.84375 -4.75q0.84375 -2.171875 2.359375 -3.71875q1.515625 -1.546875 3.640625 -2.40625q2.125 -0.859375 4.671875 -0.859375q2.53125 0 4.359375 0.796875q1.84375 0.78125 3.265625 2.125l-1.015625 1.421875q-0.109375 0.15625 -0.25 0.265625q-0.140625 0.09375 -0.421875 0.09375q-0.203125 0 -0.4375 -0.140625q-0.234375 -0.15625 -0.5625 -0.375q-0.3125 -0.234375 -0.75 -0.484375q-0.421875 -0.265625 -1.015625 -0.484375q-0.59375 -0.21875 -1.375 -0.375q-0.78125 -0.15625 -1.8125 -0.15625q-1.828125 0 -3.359375 0.640625q-1.53125 0.625 -2.640625 1.796875q-1.09375 1.171875 -1.71875 2.859375q-0.609375 1.671875 -0.609375 3.75q0 2.140625 0.609375 3.828125q0.625 1.671875 1.6875 2.84375q1.0625 1.15625 2.515625 1.765625q1.453125 0.59375 3.140625 0.59375q1.015625 0 1.828125 -0.109375q0.828125 -0.125 1.515625 -0.375q0.703125 -0.265625 1.296875 -0.65625q0.609375 -0.390625 1.21875 -0.9375q0.265625 -0.234375 0.515625 -0.234375zm11.873169 -11.734375q1.78125 0 3.203125 0.59375q1.4375 0.59375 2.4375 1.6875q1.0 1.078125 1.53125 2.625q0.546875 1.546875 0.546875 3.453125q0 1.921875 -0.546875 3.453125q-0.53125 1.53125 -1.53125 2.625q-1.0 1.09375 -2.4375 1.671875q-1.421875 0.578125 -3.203125 0.578125q-1.765625 0 -3.203125 -0.578125q-1.4375 -0.578125 -2.453125 -1.671875q-1.0 -1.09375 -1.546875 -2.625q-0.53125 -1.53125 -0.53125 -3.453125q0 -1.90625 0.53125 -3.453125q0.546875 -1.546875 1.546875 -2.625q1.015625 -1.09375 2.453125 -1.6875q1.4375 -0.59375 3.203125 -0.59375zm0 14.46875q2.40625 0 3.578125 -1.609375q1.1875 -1.609375 1.1875 -4.484375q0 -2.890625 -1.1875 -4.5q-1.171875 -1.625 -3.578125 -1.625q-1.203125 0 -2.109375 0.421875q-0.890625 0.40625 -1.5 1.1875q-0.59375 0.78125 -0.890625 1.9375q-0.296875 1.140625 -0.296875 2.578125q0 1.4375 0.296875 2.578125q0.296875 1.125 0.890625 1.90625q0.609375 0.78125 1.5 1.203125q0.90625 0.40625 2.109375 0.40625zm11.245148 2.0l0 -16.203125l1.6875 0q0.609375 0 0.765625 0.59375l0.21875 1.65625q0.890625 -1.109375 2.0 -1.8125q1.109375 -0.703125 2.578125 -0.703125q1.65625 0 2.671875 0.921875q1.015625 0.90625 1.46875 2.453125q0.328125 -0.875 0.875 -1.515625q0.5625 -0.640625 1.25 -1.046875q0.6875 -0.421875 1.453125 -0.609375q0.78125 -0.203125 1.578125 -0.203125q1.28125 0 2.28125 0.421875q1.0 0.40625 1.6875 1.1875q0.703125 0.78125 1.0625 1.921875q0.375 1.140625 0.375 2.625l0 10.3125l-2.84375 0l0 -10.3125q0 -1.90625 -0.828125 -2.890625q-0.828125 -0.984375 -2.421875 -0.984375q-0.703125 0 -1.34375 0.25q-0.625 0.234375 -1.109375 0.71875q-0.46875 0.484375 -0.75 1.21875q-0.28125 0.71875 -0.28125 1.6875l0 10.3125l-2.84375 0l0 -10.3125q0 -1.953125 -0.796875 -2.90625q-0.78125 -0.96875 -2.28125 -0.96875q-1.046875 0 -1.953125 0.5625q-0.90625 0.5625 -1.65625 1.546875l0 12.078125l-2.84375 0zm26.365814 0l0 -23.5625l2.859375 0l0 9.6875q1.0 -1.171875 2.296875 -1.875q1.3125 -0.71875 3.0 -0.71875q1.40625 0 2.53125 0.53125q1.140625 0.53125 1.9375 1.578125q0.8125 1.046875 1.234375 2.59375q0.4375 1.546875 0.4375 3.5625q0 1.78125 -0.484375 3.328125q-0.46875 1.546875 -1.375 2.671875q-0.90625 1.125 -2.21875 1.78125q-1.296875 0.640625 -2.921875 0.640625q-1.578125 0 -2.671875 -0.59375q-1.09375 -0.609375 -1.90625 -1.703125l-0.140625 1.46875q-0.140625 0.609375 -0.75 0.609375l-1.828125 0zm7.21875 -14.1875q-1.390625 0 -2.4375 0.640625q-1.046875 0.640625 -1.921875 1.796875l0 7.84375q0.765625 1.0625 1.703125 1.5q0.9375 0.421875 2.09375 0.421875q2.265625 0 3.484375 -1.609375q1.21875 -1.625 1.21875 -4.609375q0 -1.59375 -0.28125 -2.71875q-0.28125 -1.140625 -0.8125 -1.859375q-0.53125 -0.734375 -1.296875 -1.0625q-0.765625 -0.34375 -1.75 -0.34375zm13.731781 -2.015625l0 16.203125l-2.84375 0l0 -16.203125l2.84375 0zm0.640625 -5.09375q0 0.421875 -0.171875 0.78125q-0.15625 0.359375 -0.4375 0.640625q-0.28125 0.28125 -0.65625 0.4375q-0.359375 0.15625 -0.78125 0.15625q-0.40625 0 -0.78125 -0.15625q-0.359375 -0.15625 -0.640625 -0.4375q-0.265625 -0.28125 -0.4375 -0.640625q-0.15625 -0.359375 -0.15625 -0.78125q0 -0.421875 0.15625 -0.796875q0.171875 -0.375 0.4375 -0.65625q0.28125 -0.28125 0.640625 -0.4375q0.375 -0.15625 0.78125 -0.15625q0.421875 0 0.78125 0.15625q0.375 0.15625 0.65625 0.4375q0.28125 0.28125 0.4375 0.65625q0.171875 0.375 0.171875 0.796875zm4.3951416 21.296875l0 -16.203125l1.6875 0q0.609375 0 0.765625 0.59375l0.234375 1.75q1.046875 -1.171875 2.34375 -1.890625q1.3125 -0.71875 3.03125 -0.71875q1.328125 0 2.34375 0.453125q1.015625 0.4375 1.6875 1.25q0.6875 0.796875 1.03125 1.9375q0.359375 1.125 0.359375 2.515625l0 10.3125l-2.859375 0l0 -10.3125q0 -1.84375 -0.84375 -2.859375q-0.828125 -1.015625 -2.5625 -1.015625q-1.265625 0 -2.359375 0.609375q-1.09375 0.609375 -2.015625 1.640625l0 11.9375l-2.84375 0zm24.198273 -16.46875q1.453125 0 2.6875 0.5q1.234375 0.484375 2.125 1.40625q0.90625 0.921875 1.40625 2.28125q0.5 1.34375 0.5 3.0625q0 0.671875 -0.140625 0.90625q-0.140625 0.21875 -0.546875 0.21875l-10.78125 0q0.03125 1.53125 0.40625 2.671875q0.390625 1.140625 1.0625 1.90625q0.671875 0.75 1.59375 1.125q0.9375 0.375 2.09375 0.375q1.0625 0 1.84375 -0.25q0.78125 -0.25 1.328125 -0.53125q0.5625 -0.296875 0.9375 -0.53125q0.375 -0.25 0.65625 -0.25q0.34375 0 0.546875 0.265625l0.796875 1.046875q-0.53125 0.640625 -1.265625 1.109375q-0.734375 0.46875 -1.578125 0.78125q-0.84375 0.296875 -1.734375 0.4375q-0.890625 0.15625 -1.78125 0.15625q-1.671875 0 -3.09375 -0.5625q-1.40625 -0.5625 -2.4375 -1.65625q-1.03125 -1.109375 -1.609375 -2.71875q-0.578125 -1.625 -0.578125 -3.71875q0 -1.6875 0.515625 -3.15625q0.515625 -1.484375 1.484375 -2.5625q0.984375 -1.078125 2.390625 -1.6875q1.40625 -0.625 3.171875 -0.625zm0.0625 2.09375q-2.0625 0 -3.25 1.203125q-1.171875 1.1875 -1.46875 3.296875l8.8125 0q0 -0.984375 -0.265625 -1.8125q-0.265625 -0.828125 -0.796875 -1.421875q-0.53125 -0.609375 -1.296875 -0.9375q-0.75 -0.328125 -1.734375 -0.328125zm21.705536 14.375q-0.609375 0 -0.78125 -0.59375l-0.25 -1.96875q-1.03125 1.265625 -2.375 2.03125q-1.328125 0.75 -3.0625 0.75q-1.390625 0 -2.53125 -0.53125q-1.140625 -0.53125 -1.9375 -1.5625q-0.796875 -1.046875 -1.234375 -2.59375q-0.421875 -1.5625 -0.421875 -3.578125q0 -1.796875 0.46875 -3.328125q0.484375 -1.546875 1.390625 -2.6875q0.90625 -1.140625 2.203125 -1.78125q1.296875 -0.65625 2.9375 -0.65625q1.484375 0 2.546875 0.515625q1.0625 0.5 1.890625 1.40625l0 -8.984375l2.84375 0l0 23.5625l-1.6875 0zm-5.53125 -2.078125q1.390625 0 2.4375 -0.640625q1.0625 -0.640625 1.9375 -1.8125l0 -7.84375q-0.78125 -1.046875 -1.71875 -1.46875q-0.9375 -0.421875 -2.078125 -0.421875q-2.265625 0 -3.484375 1.609375q-1.21875 1.609375 -1.21875 4.609375q0 1.578125 0.265625 2.71875q0.28125 1.125 0.8125 1.859375q0.53125 0.71875 1.296875 1.0625q0.765625 0.328125 1.75 0.328125zm37.48593 2.078125l-2.390625 0q-0.421875 0 -0.6875 -0.203125q-0.25 -0.21875 -0.375 -0.53125l-2.140625 -5.53125l-10.28125 0l-2.15625 5.53125q-0.109375 0.28125 -0.390625 0.515625q-0.265625 0.21875 -0.65625 0.21875l-2.40625 0l9.171875 -22.921875l3.15625 0l9.15625 22.921875zm-15.015625 -8.515625l8.5625 0l-3.609375 -9.328125q-0.34375 -0.859375 -0.6875 -2.15625q-0.171875 0.65625 -0.34375 1.21875q-0.15625 0.546875 -0.328125 0.953125l-3.59375 9.3125zm19.931885 -7.6875l0 10.328125q0 1.84375 0.84375 2.859375q0.859375 1.0 2.5625 1.0q1.25 0 2.34375 -0.59375q1.109375 -0.59375 2.046875 -1.640625l0 -11.953125l2.84375 0l0 16.203125l-1.6875 0q-0.609375 0 -0.78125 -0.59375l-0.21875 -1.75q-1.046875 1.171875 -2.359375 1.890625q-1.3125 0.703125 -3.015625 0.703125q-1.328125 0 -2.34375 -0.4375q-1.015625 -0.4375 -1.703125 -1.234375q-0.6875 -0.796875 -1.03125 -1.9375q-0.34375 -1.140625 -0.34375 -2.515625l0 -10.328125l2.84375 0zm20.245178 16.453125q-1.921875 0 -2.953125 -1.0625q-1.03125 -1.078125 -1.03125 -3.09375l0 -9.921875l-1.953125 0q-0.25 0 -0.4375 -0.140625q-0.171875 -0.15625 -0.171875 -0.484375l0 -1.125l2.65625 -0.34375l0.65625 -5.0q0.03125 -0.25 0.203125 -0.390625q0.1875 -0.15625 0.453125 -0.15625l1.4375 0l0 5.578125l4.640625 0l0 2.0625l-4.640625 0l0 9.734375q0 1.015625 0.5 1.515625q0.5 0.5 1.28125 0.5q0.453125 0 0.765625 -0.109375q0.328125 -0.125 0.5625 -0.265625q0.25 -0.15625 0.421875 -0.265625q0.171875 -0.125 0.296875 -0.125q0.21875 0 0.40625 0.265625l0.828125 1.359375q-0.734375 0.6875 -1.78125 1.078125q-1.03125 0.390625 -2.140625 0.390625zm7.029785 -0.25l0 -23.5625l2.84375 0l0 9.53125q1.03125 -1.109375 2.296875 -1.765625q1.265625 -0.671875 2.921875 -0.671875q1.328125 0 2.34375 0.453125q1.015625 0.4375 1.6875 1.25q0.6875 0.796875 1.03125 1.9375q0.359375 1.125 0.359375 2.515625l0 10.3125l-2.859375 0l0 -10.3125q0 -1.84375 -0.84375 -2.859375q-0.828125 -1.015625 -2.5625 -1.015625q-1.265625 0 -2.359375 0.609375q-1.09375 0.609375 -2.015625 1.640625l0 11.9375l-2.84375 0zm24.338867 -16.46875q1.78125 0 3.203125 0.59375q1.4375 0.59375 2.4375 1.6875q1.0 1.078125 1.53125 2.625q0.546875 1.546875 0.546875 3.453125q0 1.921875 -0.546875 3.453125q-0.53125 1.53125 -1.53125 2.625q-1.0 1.09375 -2.4375 1.671875q-1.421875 0.578125 -3.203125 0.578125q-1.765625 0 -3.203125 -0.578125q-1.4375 -0.578125 -2.453125 -1.671875q-1.0 -1.09375 -1.546875 -2.625q-0.53125 -1.53125 -0.53125 -3.453125q0 -1.90625 0.53125 -3.453125q0.546875 -1.546875 1.546875 -2.625q1.015625 -1.09375 2.453125 -1.6875q1.4375 -0.59375 3.203125 -0.59375zm0 14.46875q2.40625 0 3.578125 -1.609375q1.1875 -1.609375 1.1875 -4.484375q0 -2.890625 -1.1875 -4.5q-1.171875 -1.625 -3.578125 -1.625q-1.203125 0 -2.109375 0.421875q-0.890625 0.40625 -1.5 1.1875q-0.59375 0.78125 -0.890625 1.9375q-0.296875 1.140625 -0.296875 2.578125q0 1.4375 0.296875 2.578125q0.296875 1.125 0.890625 1.90625q0.609375 0.78125 1.5 1.203125q0.90625 0.40625 2.109375 0.40625zm11.245178 2.0l0 -16.203125l1.625 0q0.46875 0 0.640625 0.171875q0.171875 0.171875 0.234375 0.609375l0.203125 2.53125q0.828125 -1.703125 2.046875 -2.65625q1.21875 -0.953125 2.875 -0.953125q0.671875 0 1.21875 0.15625q0.546875 0.15625 1.0 0.421875l-0.359375 2.125q-0.109375 0.40625 -0.5 0.40625q-0.21875 0 -0.6875 -0.15625q-0.46875 -0.15625 -1.296875 -0.15625q-1.484375 0 -2.484375 0.875q-1.0 0.859375 -1.671875 2.515625l0 10.3125l-2.84375 0zm16.052307 -16.203125l0 16.203125l-2.84375 0l0 -16.203125l2.84375 0zm0.640625 -5.09375q0 0.421875 -0.171875 0.78125q-0.15625 0.359375 -0.4375 0.640625q-0.28125 0.28125 -0.65625 0.4375q-0.359375 0.15625 -0.78125 0.15625q-0.40625 0 -0.78125 -0.15625q-0.359375 -0.15625 -0.640625 -0.4375q-0.265625 -0.28125 -0.4375 -0.640625q-0.15625 -0.359375 -0.15625 -0.78125q0 -0.421875 0.15625 -0.796875q0.171875 -0.375 0.4375 -0.65625q0.28125 -0.28125 0.640625 -0.4375q0.375 -0.15625 0.78125 -0.15625q0.421875 0 0.78125 0.15625q0.375 0.15625 0.65625 0.4375q0.28125 0.28125 0.4375 0.65625q0.171875 0.375 0.171875 0.796875zm9.301392 21.546875q-1.921875 0 -2.953125 -1.0625q-1.03125 -1.078125 -1.03125 -3.09375l0 -9.921875l-1.953125 0q-0.25 0 -0.4375 -0.140625q-0.171875 -0.15625 -0.171875 -0.484375l0 -1.125l2.65625 -0.34375l0.65625 -5.0q0.03125 -0.25 0.203125 -0.390625q0.1875 -0.15625 0.453125 -0.15625l1.4375 0l0 5.578125l4.640625 0l0 2.0625l-4.640625 0l0 9.734375q0 1.015625 0.5 1.515625q0.5 0.5 1.28125 0.5q0.453125 0 0.765625 -0.109375q0.328125 -0.125 0.5625 -0.265625q0.25 -0.15625 0.421875 -0.265625q0.171875 -0.125 0.296875 -0.125q0.21875 0 0.40625 0.265625l0.828125 1.359375q-0.734375 0.6875 -1.78125 1.078125q-1.03125 0.390625 -2.140625 0.390625zm11.779785 4.53125q-0.15625 0.328125 -0.375 0.515625q-0.203125 0.1875 -0.65625 0.1875l-2.109375 0l2.953125 -6.421875l-6.6875 -15.265625l2.46875 0q0.375 0 0.578125 0.1875q0.203125 0.171875 0.296875 0.40625l4.34375 10.203125q0.140625 0.34375 0.234375 0.703125q0.109375 0.34375 0.203125 0.71875q0.109375 -0.375 0.21875 -0.71875q0.109375 -0.359375 0.25 -0.71875l4.21875 -10.1875q0.09375 -0.265625 0.3125 -0.421875q0.234375 -0.171875 0.515625 -0.171875l2.265625 0l-9.03125 20.984375z" fill-rule="nonzero"/><path fill="#000000" fill-opacity="0.0" d="m215.37686 500.00107l123.30194 -246.60379l322.63834 0l123.30194 246.60379l-123.30194 246.60379l-322.63834 0z" fill-rule="evenodd"/><path stroke="#0087dc" stroke-width="16.0" stroke-linejoin="round" stroke-linecap="butt" d="m215.37686 500.00107l123.30194 -246.60379l322.63834 0l123.30194 246.60379l-123.30194 246.60379l-322.63834 0z" fill-rule="evenodd"/><path fill="#000000" fill-opacity="0.0" d="m346.12277 260.8623l307.7504 0l0 58.168884l-307.7504 0z" fill-rule="evenodd"/><path fill="#000000" d="m410.72723 296.7324q0.265625 0 0.46875 0.203125l1.21875 1.328125q-1.40625 1.640625 -3.421875 2.546875q-2.0 0.90625 -4.828125 0.90625q-2.484375 0 -4.5 -0.84375q-2.015625 -0.859375 -3.4375 -2.40625q-1.421875 -1.546875 -2.21875 -3.703125q-0.78125 -2.15625 -0.78125 -4.75q0 -2.59375 0.84375 -4.75q0.84375 -2.171875 2.359375 -3.71875q1.515625 -1.546875 3.640625 -2.40625q2.125 -0.859375 4.671875 -0.859375q2.53125 0 4.359375 0.796875q1.84375 0.78125 3.265625 2.125l-1.015625 1.421875q-0.109375 0.15625 -0.25 0.265625q-0.140625 0.09375 -0.421875 0.09375q-0.203125 0 -0.4375 -0.140625q-0.234375 -0.15625 -0.5625 -0.375q-0.3125 -0.234375 -0.75 -0.484375q-0.421875 -0.265625 -1.015625 -0.484375q-0.59375 -0.21875 -1.375 -0.375q-0.78125 -0.15625 -1.8125 -0.15625q-1.828125 0 -3.359375 0.640625q-1.53125 0.625 -2.640625 1.796875q-1.09375 1.171875 -1.71875 2.859375q-0.609375 1.671875 -0.609375 3.75q0 2.140625 0.609375 3.828125q0.625 1.671875 1.6875 2.84375q1.0625 1.15625 2.515625 1.765625q1.453125 0.59375 3.140625 0.59375q1.015625 0 1.828125 -0.109375q0.828125 -0.125 1.515625 -0.375q0.703125 -0.265625 1.296875 -0.65625q0.609375 -0.390625 1.21875 -0.9375q0.265625 -0.234375 0.515625 -0.234375zm11.873169 -11.734375q1.78125 0 3.203125 0.59375q1.4375 0.59375 2.4375 1.6875q1.0 1.078125 1.53125 2.625q0.546875 1.546875 0.546875 3.453125q0 1.921875 -0.546875 3.453125q-0.53125 1.53125 -1.53125 2.625q-1.0 1.09375 -2.4375 1.671875q-1.421875 0.578125 -3.203125 0.578125q-1.765625 0 -3.203125 -0.578125q-1.4375 -0.578125 -2.453125 -1.671875q-1.0 -1.09375 -1.546875 -2.625q-0.53125 -1.53125 -0.53125 -3.453125q0 -1.90625 0.53125 -3.453125q0.546875 -1.546875 1.546875 -2.625q1.015625 -1.09375 2.453125 -1.6875q1.4375 -0.59375 3.203125 -0.59375zm0 14.46875q2.40625 0 3.578125 -1.609375q1.1875 -1.609375 1.1875 -4.484375q0 -2.890625 -1.1875 -4.5q-1.171875 -1.625 -3.578125 -1.625q-1.203125 0 -2.109375 0.421875q-0.890625 0.40625 -1.5 1.1875q-0.59375 0.78125 -0.890625 1.9375q-0.296875 1.140625 -0.296875 2.578125q0 1.4375 0.296875 2.578125q0.296875 1.125 0.890625 1.90625q0.609375 0.78125 1.5 1.203125q0.90625 0.40625 2.109375 0.40625zm13.698303 -14.203125l0 10.328125q0 1.84375 0.84375 2.859375q0.859375 1.0 2.5625 1.0q1.25 0 2.34375 -0.59375q1.109375 -0.59375 2.046875 -1.640625l0 -11.953125l2.84375 0l0 16.203125l-1.6875 0q-0.609375 0 -0.78125 -0.59375l-0.21875 -1.75q-1.046875 1.171875 -2.359375 1.890625q-1.3125 0.703125 -3.015625 0.703125q-1.328125 0 -2.34375 -0.4375q-1.015625 -0.4375 -1.703125 -1.234375q-0.6875 -0.796875 -1.03125 -1.9375q-0.34375 -1.140625 -0.34375 -2.515625l0 -10.328125l2.84375 0zm15.338898 16.203125l0 -16.203125l1.6875 0q0.609375 0 0.765625 0.59375l0.234375 1.75q1.046875 -1.171875 2.34375 -1.890625q1.3125 -0.71875 3.03125 -0.71875q1.328125 0 2.34375 0.453125q1.015625 0.4375 1.6875 1.25q0.6875 0.796875 1.03125 1.9375q0.359375 1.125 0.359375 2.515625l0 10.3125l-2.859375 0l0 -10.3125q0 -1.84375 -0.84375 -2.859375q-0.828125 -1.015625 -2.5625 -1.015625q-1.265625 0 -2.359375 0.609375q-1.09375 0.609375 -2.015625 1.640625l0 11.9375l-2.84375 0zm22.698303 0.25q-1.921875 0 -2.953125 -1.0625q-1.03125 -1.078125 -1.03125 -3.09375l0 -9.921875l-1.953125 0q-0.25 0 -0.4375 -0.140625q-0.171875 -0.15625 -0.171875 -0.484375l0 -1.125l2.65625 -0.34375l0.65625 -5.0q0.03125 -0.25 0.203125 -0.390625q0.1875 -0.15625 0.453125 -0.15625l1.4375 0l0 5.578125l4.640625 0l0 2.0625l-4.640625 0l0 9.734375q0 1.015625 0.5 1.515625q0.5 0.5 1.28125 0.5q0.453125 0 0.765625 -0.109375q0.328125 -0.125 0.5625 -0.265625q0.25 -0.15625 0.421875 -0.265625q0.171875 -0.125 0.296875 -0.125q0.21875 0 0.40625 0.265625l0.828125 1.359375q-0.734375 0.6875 -1.78125 1.078125q-1.03125 0.390625 -2.140625 0.390625zm11.779755 4.53125q-0.15625 0.328125 -0.375 0.515625q-0.203125 0.1875 -0.65625 0.1875l-2.109375 0l2.953125 -6.421875l-6.6875 -15.265625l2.46875 0q0.375 0 0.578125 0.1875q0.203125 0.171875 0.296875 0.40625l4.34375 10.203125q0.140625 0.34375 0.234375 0.703125q0.109375 0.34375 0.203125 0.71875q0.109375 -0.375 0.21875 -0.71875q0.109375 -0.359375 0.25 -0.71875l4.21875 -10.1875q0.09375 -0.265625 0.3125 -0.421875q0.234375 -0.171875 0.515625 -0.171875l2.265625 0l-9.03125 20.984375zm34.40381 -9.515625q0.265625 0 0.46875 0.203125l1.21875 1.328125q-1.40625 1.640625 -3.421875 2.546875q-2.0 0.90625 -4.828125 0.90625q-2.484375 0 -4.5 -0.84375q-2.015625 -0.859375 -3.4375 -2.40625q-1.421875 -1.546875 -2.21875 -3.703125q-0.78125 -2.15625 -0.78125 -4.75q0 -2.59375 0.84375 -4.75q0.84375 -2.171875 2.359375 -3.71875q1.515625 -1.546875 3.640625 -2.40625q2.125 -0.859375 4.671875 -0.859375q2.53125 0 4.359375 0.796875q1.84375 0.78125 3.265625 2.125l-1.015625 1.421875q-0.109375 0.15625 -0.25 0.265625q-0.140625 0.09375 -0.421875 0.09375q-0.203125 0 -0.4375 -0.140625q-0.234375 -0.15625 -0.5625 -0.375q-0.3125 -0.234375 -0.75 -0.484375q-0.421875 -0.265625 -1.015625 -0.484375q-0.59375 -0.21875 -1.375 -0.375q-0.78125 -0.15625 -1.8125 -0.15625q-1.828125 0 -3.359375 0.640625q-1.53125 0.625 -2.640625 1.796875q-1.09375 1.171875 -1.71875 2.859375q-0.609375 1.671875 -0.609375 3.75q0 2.140625 0.609375 3.828125q0.625 1.671875 1.6875 2.84375q1.0625 1.15625 2.515625 1.765625q1.453125 0.59375 3.140625 0.59375q1.015625 0 1.828125 -0.109375q0.828125 -0.125 1.515625 -0.375q0.703125 -0.265625 1.296875 -0.65625q0.609375 -0.390625 1.21875 -0.9375q0.265625 -0.234375 0.515625 -0.234375zm11.873169 -11.734375q1.78125 0 3.203125 0.59375q1.4375 0.59375 2.4375 1.6875q1.0 1.078125 1.53125 2.625q0.546875 1.546875 0.546875 3.453125q0 1.921875 -0.546875 3.453125q-0.53125 1.53125 -1.53125 2.625q-1.0 1.09375 -2.4375 1.671875q-1.421875 0.578125 -3.203125 0.578125q-1.765625 0 -3.203125 -0.578125q-1.4375 -0.578125 -2.453125 -1.671875q-1.0 -1.09375 -1.546875 -2.625q-0.53125 -1.53125 -0.53125 -3.453125q0 -1.90625 0.53125 -3.453125q0.546875 -1.546875 1.546875 -2.625q1.015625 -1.09375 2.453125 -1.6875q1.4375 -0.59375 3.203125 -0.59375zm0 14.46875q2.40625 0 3.578125 -1.609375q1.1875 -1.609375 1.1875 -4.484375q0 -2.890625 -1.1875 -4.5q-1.171875 -1.625 -3.578125 -1.625q-1.203125 0 -2.109375 0.421875q-0.890625 0.40625 -1.5 1.1875q-0.59375 0.78125 -0.890625 1.9375q-0.296875 1.140625 -0.296875 2.578125q0 1.4375 0.296875 2.578125q0.296875 1.125 0.890625 1.90625q0.609375 0.78125 1.5 1.203125q0.90625 0.40625 2.109375 0.40625zm13.698303 -14.203125l0 10.328125q0 1.84375 0.84375 2.859375q0.859375 1.0 2.5625 1.0q1.25 0 2.34375 -0.59375q1.109375 -0.59375 2.046875 -1.640625l0 -11.953125l2.84375 0l0 16.203125l-1.6875 0q-0.609375 0 -0.78125 -0.59375l-0.21875 -1.75q-1.046875 1.171875 -2.359375 1.890625q-1.3125 0.703125 -3.015625 0.703125q-1.328125 0 -2.34375 -0.4375q-1.015625 -0.4375 -1.703125 -1.234375q-0.6875 -0.796875 -1.03125 -1.9375q-0.34375 -1.140625 -0.34375 -2.515625l0 -10.328125l2.84375 0zm15.338867 16.203125l0 -16.203125l1.6875 0q0.609375 0 0.765625 0.59375l0.234375 1.75q1.046875 -1.171875 2.34375 -1.890625q1.3125 -0.71875 3.03125 -0.71875q1.328125 0 2.34375 0.453125q1.015625 0.4375 1.6875 1.25q0.6875 0.796875 1.03125 1.9375q0.359375 1.125 0.359375 2.515625l0 10.3125l-2.859375 0l0 -10.3125q0 -1.84375 -0.84375 -2.859375q-0.828125 -1.015625 -2.5625 -1.015625q-1.265625 0 -2.359375 0.609375q-1.09375 0.609375 -2.015625 1.640625l0 11.9375l-2.84375 0zm28.838928 -13.328125q-0.125 0.171875 -0.25 0.28125q-0.125 0.09375 -0.375 0.09375q-0.234375 0 -0.515625 -0.203125q-0.28125 -0.203125 -0.71875 -0.4375q-0.421875 -0.25 -1.046875 -0.4375q-0.609375 -0.203125 -1.515625 -0.203125q-1.171875 0 -2.09375 0.421875q-0.90625 0.421875 -1.53125 1.21875q-0.609375 0.796875 -0.921875 1.9375q-0.3125 1.140625 -0.3125 2.546875q0 1.46875 0.328125 2.609375q0.34375 1.140625 0.953125 1.921875q0.609375 0.78125 1.484375 1.1875q0.875 0.40625 1.953125 0.40625q1.046875 0 1.71875 -0.25q0.671875 -0.25 1.109375 -0.546875q0.453125 -0.3125 0.734375 -0.546875q0.296875 -0.25 0.578125 -0.25q0.375 0 0.546875 0.265625l0.796875 1.046875q-1.046875 1.296875 -2.640625 1.890625q-1.578125 0.59375 -3.328125 0.59375q-1.53125 0 -2.84375 -0.546875q-1.296875 -0.5625 -2.265625 -1.625q-0.953125 -1.078125 -1.5 -2.625q-0.546875 -1.546875 -0.546875 -3.53125q0 -1.8125 0.5 -3.34375q0.5 -1.53125 1.46875 -2.640625q0.96875 -1.125 2.390625 -1.75q1.421875 -0.625 3.265625 -0.625q1.703125 0 3.015625 0.5625q1.3125 0.546875 2.3125 1.546875l-0.75 1.03125zm7.053406 -2.875l0 16.203125l-2.84375 0l0 -16.203125l2.84375 0zm0.640625 -5.09375q0 0.421875 -0.171875 0.78125q-0.15625 0.359375 -0.4375 0.640625q-0.28125 0.28125 -0.65625 0.4375q-0.359375 0.15625 -0.78125 0.15625q-0.40625 0 -0.78125 -0.15625q-0.359375 -0.15625 -0.640625 -0.4375q-0.265625 -0.28125 -0.4375 -0.640625q-0.15625 -0.359375 -0.15625 -0.78125q0 -0.421875 0.15625 -0.796875q0.171875 -0.375 0.4375 -0.65625q0.28125 -0.28125 0.640625 -0.4375q0.375 -0.15625 0.78125 -0.15625q0.421875 0 0.78125 0.15625q0.375 0.15625 0.65625 0.4375q0.28125 0.28125 0.4375 0.65625q0.171875 0.375 0.171875 0.796875zm7.5513916 -2.265625l0 23.5625l-2.84375 0l0 -23.5625l2.84375 0z" fill-rule="nonzero"/><path fill="#000000" fill-opacity="0.0" d="m298.9156 499.99985l87.127625 -174.25516l227.97662 0l87.127625 174.25516l-87.127625 174.25516l-227.97662 0z" fill-rule="evenodd"/><path stroke="#0087dc" stroke-width="12.0" stroke-linejoin="round" stroke-linecap="butt" d="m298.9156 499.99985l87.127625 -174.25516l227.97662 0l87.127625 174.25516l-87.127625 174.25516l-227.97662 0z" fill-rule="evenodd"/><path fill="#000000" fill-opacity="0.0" d="m367.88556 332.15677l264.34045 0l0 58.182037l-264.34045 0z" fill-rule="evenodd"/><path fill="#000000" d="m413.2718 361.31467q0 2.578125 -0.8125 4.6875q-0.8125 2.109375 -2.3125 3.625q-1.484375 1.5 -3.5625 2.328125q-2.078125 0.8125 -4.609375 0.8125l-8.578125 0l0 -22.921875l8.578125 0q2.53125 0 4.609375 0.828125q2.078125 0.8125 3.5625 2.328125q1.5 1.515625 2.3125 3.625q0.8125 2.109375 0.8125 4.6875zm-3.1875 0q0 -2.109375 -0.578125 -3.765625q-0.578125 -1.671875 -1.640625 -2.828125q-1.046875 -1.15625 -2.546875 -1.765625q-1.5 -0.609375 -3.34375 -0.609375l-5.453125 0l0 17.90625l5.453125 0q1.84375 0 3.34375 -0.609375q1.5 -0.609375 2.546875 -1.75q1.0625 -1.140625 1.640625 -2.796875q0.578125 -1.671875 0.578125 -3.78125zm10.127319 -4.75l0 16.203125l-2.84375 0l0 -16.203125l2.84375 0zm0.640625 -5.09375q0 0.421875 -0.171875 0.78125q-0.15625 0.359375 -0.4375 0.640625q-0.28125 0.28125 -0.65625 0.4375q-0.359375 0.15625 -0.78125 0.15625q-0.40625 0 -0.78125 -0.15625q-0.359375 -0.15625 -0.640625 -0.4375q-0.265625 -0.28125 -0.4375 -0.640625q-0.15625 -0.359375 -0.15625 -0.78125q0 -0.421875 0.15625 -0.796875q0.171875 -0.375 0.4375 -0.65625q0.28125 -0.28125 0.640625 -0.4375q0.375 -0.15625 0.78125 -0.15625q0.421875 0 0.78125 0.15625q0.375 0.15625 0.65625 0.4375q0.28125 0.28125 0.4375 0.65625q0.171875 0.375 0.171875 0.796875zm13.660767 7.765625q-0.1875 0.34375 -0.578125 0.34375q-0.25 0 -0.5625 -0.171875q-0.296875 -0.171875 -0.734375 -0.390625q-0.4375 -0.21875 -1.046875 -0.40625q-0.609375 -0.1875 -1.4375 -0.1875q-0.71875 0 -1.296875 0.1875q-0.578125 0.1875 -0.984375 0.515625q-0.40625 0.3125 -0.625 0.734375q-0.21875 0.421875 -0.21875 0.921875q0 0.625 0.359375 1.046875q0.359375 0.40625 0.953125 0.71875q0.59375 0.296875 1.34375 0.53125q0.75 0.234375 1.546875 0.5q0.796875 0.265625 1.546875 0.59375q0.75 0.3125 1.34375 0.796875q0.59375 0.46875 0.953125 1.171875q0.359375 0.6875 0.359375 1.671875q0 1.109375 -0.40625 2.0625q-0.390625 0.953125 -1.1875 1.65625q-0.78125 0.6875 -1.921875 1.09375q-1.125 0.390625 -2.609375 0.390625q-1.703125 0 -3.078125 -0.546875q-1.375 -0.546875 -2.34375 -1.421875l0.671875 -1.078125q0.140625 -0.21875 0.3125 -0.328125q0.171875 -0.109375 0.46875 -0.109375q0.28125 0 0.59375 0.234375q0.328125 0.21875 0.78125 0.5q0.453125 0.265625 1.09375 0.484375q0.65625 0.21875 1.640625 0.21875q0.828125 0 1.453125 -0.203125q0.625 -0.21875 1.03125 -0.578125q0.421875 -0.375 0.625 -0.859375q0.203125 -0.484375 0.203125 -1.03125q0 -0.671875 -0.359375 -1.109375q-0.359375 -0.4375 -0.953125 -0.75q-0.59375 -0.3125 -1.359375 -0.546875q-0.75 -0.234375 -1.546875 -0.484375q-0.796875 -0.25 -1.5625 -0.578125q-0.75 -0.328125 -1.34375 -0.828125q-0.59375 -0.5 -0.953125 -1.21875q-0.359375 -0.734375 -0.359375 -1.78125q0 -0.921875 0.375 -1.78125q0.390625 -0.859375 1.125 -1.5q0.734375 -0.65625 1.8125 -1.03125q1.078125 -0.390625 2.453125 -0.390625q1.59375 0 2.859375 0.515625q1.28125 0.5 2.203125 1.375l-0.640625 1.046875zm9.528656 13.78125q-1.921875 0 -2.953125 -1.0625q-1.03125 -1.078125 -1.03125 -3.09375l0 -9.921875l-1.953125 0q-0.25 0 -0.4375 -0.140625q-0.171875 -0.15625 -0.171875 -0.484375l0 -1.125l2.65625 -0.34375l0.65625 -5.0q0.03125 -0.25 0.203125 -0.390625q0.1875 -0.15625 0.453125 -0.15625l1.4375 0l0 5.578125l4.640625 0l0 2.0625l-4.640625 0l0 9.734375q0 1.015625 0.5 1.515625q0.5 0.5 1.28125 0.5q0.453125 0 0.765625 -0.109375q0.328125 -0.125 0.5625 -0.265625q0.25 -0.15625 0.421875 -0.265625q0.171875 -0.125 0.296875 -0.125q0.21875 0 0.40625 0.265625l0.828125 1.359375q-0.734375 0.6875 -1.78125 1.078125q-1.03125 0.390625 -2.140625 0.390625zm7.0297546 -0.25l0 -16.203125l1.625 0q0.46875 0 0.640625 0.171875q0.171875 0.171875 0.234375 0.609375l0.203125 2.53125q0.828125 -1.703125 2.046875 -2.65625q1.21875 -0.953125 2.875 -0.953125q0.671875 0 1.21875 0.15625q0.546875 0.15625 1.0 0.421875l-0.359375 2.125q-0.109375 0.40625 -0.5 0.40625q-0.21875 0 -0.6875 -0.15625q-0.46875 -0.15625 -1.296875 -0.15625q-1.484375 0 -2.484375 0.875q-1.0 0.859375 -1.671875 2.515625l0 10.3125l-2.84375 0zm16.052277 -16.203125l0 16.203125l-2.84375 0l0 -16.203125l2.84375 0zm0.640625 -5.09375q0 0.421875 -0.171875 0.78125q-0.15625 0.359375 -0.4375 0.640625q-0.28125 0.28125 -0.65625 0.4375q-0.359375 0.15625 -0.78125 0.15625q-0.40625 0 -0.78125 -0.15625q-0.359375 -0.15625 -0.640625 -0.4375q-0.265625 -0.28125 -0.4375 -0.640625q-0.15625 -0.359375 -0.15625 -0.78125q0 -0.421875 0.15625 -0.796875q0.171875 -0.375 0.4375 -0.65625q0.28125 -0.28125 0.640625 -0.4375q0.375 -0.15625 0.78125 -0.15625q0.421875 0 0.78125 0.15625q0.375 0.15625 0.65625 0.4375q0.28125 0.28125 0.4375 0.65625q0.171875 0.375 0.171875 0.796875zm15.442017 7.96875q-0.125 0.171875 -0.25 0.28125q-0.125 0.09375 -0.375 0.09375q-0.234375 0 -0.515625 -0.203125q-0.28125 -0.203125 -0.71875 -0.4375q-0.421875 -0.25 -1.046875 -0.4375q-0.609375 -0.203125 -1.515625 -0.203125q-1.171875 0 -2.09375 0.421875q-0.90625 0.421875 -1.53125 1.21875q-0.609375 0.796875 -0.921875 1.9375q-0.3125 1.140625 -0.3125 2.546875q0 1.46875 0.328125 2.609375q0.34375 1.140625 0.953125 1.921875q0.609375 0.78125 1.484375 1.1875q0.875 0.40625 1.953125 0.40625q1.046875 0 1.71875 -0.25q0.671875 -0.25 1.109375 -0.546875q0.453125 -0.3125 0.734375 -0.546875q0.296875 -0.25 0.578125 -0.25q0.375 0 0.546875 0.265625l0.796875 1.046875q-1.046875 1.296875 -2.640625 1.890625q-1.578125 0.59375 -3.328125 0.59375q-1.53125 0 -2.84375 -0.546875q-1.296875 -0.5625 -2.265625 -1.625q-0.953125 -1.078125 -1.5 -2.625q-0.546875 -1.546875 -0.546875 -3.53125q0 -1.8125 0.5 -3.34375q0.5 -1.53125 1.46875 -2.640625q0.96875 -1.125 2.390625 -1.75q1.421875 -0.625 3.265625 -0.625q1.703125 0 3.015625 0.5625q1.3125 0.546875 2.3125 1.546875l-0.75 1.03125zm8.803406 13.578125q-1.921875 0 -2.953125 -1.0625q-1.03125 -1.078125 -1.03125 -3.09375l0 -9.921875l-1.953125 0q-0.25 0 -0.4375 -0.140625q-0.171875 -0.15625 -0.171875 -0.484375l0 -1.125l2.65625 -0.34375l0.65625 -5.0q0.03125 -0.25 0.203125 -0.390625q0.1875 -0.15625 0.453125 -0.15625l1.4375 0l0 5.578125l4.640625 0l0 2.0625l-4.640625 0l0 9.734375q0 1.015625 0.5 1.515625q0.5 0.5 1.28125 0.5q0.453125 0 0.765625 -0.109375q0.328125 -0.125 0.5625 -0.265625q0.25 -0.15625 0.421875 -0.265625q0.171875 -0.125 0.296875 -0.125q0.21875 0 0.40625 0.265625l0.828125 1.359375q-0.734375 0.6875 -1.78125 1.078125q-1.03125 0.390625 -2.140625 0.390625zm29.79953 -4.984375q0.265625 0 0.46875 0.203125l1.21875 1.328125q-1.40625 1.640625 -3.421875 2.546875q-2.0 0.90625 -4.828125 0.90625q-2.484375 0 -4.5 -0.84375q-2.015625 -0.859375 -3.4375 -2.40625q-1.421875 -1.546875 -2.21875 -3.703125q-0.78125 -2.15625 -0.78125 -4.75q0 -2.59375 0.84375 -4.75q0.84375 -2.171875 2.359375 -3.71875q1.515625 -1.546875 3.640625 -2.40625q2.125 -0.859375 4.671875 -0.859375q2.53125 0 4.359375 0.796875q1.84375 0.78125 3.265625 2.125l-1.015625 1.421875q-0.109375 0.15625 -0.25 0.265625q-0.140625 0.09375 -0.421875 0.09375q-0.203125 0 -0.4375 -0.140625q-0.234375 -0.15625 -0.5625 -0.375q-0.3125 -0.234375 -0.75 -0.484375q-0.421875 -0.265625 -1.015625 -0.484375q-0.59375 -0.21875 -1.375 -0.375q-0.78125 -0.15625 -1.8125 -0.15625q-1.828125 0 -3.359375 0.640625q-1.53125 0.625 -2.640625 1.796875q-1.09375 1.171875 -1.71875 2.859375q-0.609375 1.671875 -0.609375 3.75q0 2.140625 0.609375 3.828125q0.625 1.671875 1.6875 2.84375q1.0625 1.15625 2.515625 1.765625q1.453125 0.59375 3.140625 0.59375q1.015625 0 1.828125 -0.109375q0.828125 -0.125 1.515625 -0.375q0.703125 -0.265625 1.296875 -0.65625q0.609375 -0.390625 1.21875 -0.9375q0.265625 -0.234375 0.515625 -0.234375zm11.873169 -11.734375q1.78125 0 3.203125 0.59375q1.4375 0.59375 2.4375 1.6875q1.0 1.078125 1.53125 2.625q0.546875 1.546875 0.546875 3.453125q0 1.921875 -0.546875 3.453125q-0.53125 1.53125 -1.53125 2.625q-1.0 1.09375 -2.4375 1.671875q-1.421875 0.578125 -3.203125 0.578125q-1.765625 0 -3.203125 -0.578125q-1.4375 -0.578125 -2.453125 -1.671875q-1.0 -1.09375 -1.546875 -2.625q-0.53125 -1.53125 -0.53125 -3.453125q0 -1.90625 0.53125 -3.453125q0.546875 -1.546875 1.546875 -2.625q1.015625 -1.09375 2.453125 -1.6875q1.4375 -0.59375 3.203125 -0.59375zm0 14.46875q2.40625 0 3.578125 -1.609375q1.1875 -1.609375 1.1875 -4.484375q0 -2.890625 -1.1875 -4.5q-1.171875 -1.625 -3.578125 -1.625q-1.203125 0 -2.109375 0.421875q-0.890625 0.40625 -1.5 1.1875q-0.59375 0.78125 -0.890625 1.9375q-0.296875 1.140625 -0.296875 2.578125q0 1.4375 0.296875 2.578125q0.296875 1.125 0.890625 1.90625q0.609375 0.78125 1.5 1.203125q0.90625 0.40625 2.109375 0.40625zm13.698303 -14.203125l0 10.328125q0 1.84375 0.84375 2.859375q0.859375 1.0 2.5625 1.0q1.25 0 2.34375 -0.59375q1.109375 -0.59375 2.046875 -1.640625l0 -11.953125l2.84375 0l0 16.203125l-1.6875 0q-0.609375 0 -0.78125 -0.59375l-0.21875 -1.75q-1.046875 1.171875 -2.359375 1.890625q-1.3125 0.703125 -3.015625 0.703125q-1.328125 0 -2.34375 -0.4375q-1.015625 -0.4375 -1.703125 -1.234375q-0.6875 -0.796875 -1.03125 -1.9375q-0.34375 -1.140625 -0.34375 -2.515625l0 -10.328125l2.84375 0zm15.338928 16.203125l0 -16.203125l1.6875 0q0.609375 0 0.765625 0.59375l0.234375 1.75q1.046875 -1.171875 2.34375 -1.890625q1.3125 -0.71875 3.03125 -0.71875q1.328125 0 2.34375 0.453125q1.015625 0.4375 1.6875 1.25q0.6875 0.796875 1.03125 1.9375q0.359375 1.125 0.359375 2.515625l0 10.3125l-2.859375 0l0 -10.3125q0 -1.84375 -0.84375 -2.859375q-0.828125 -1.015625 -2.5625 -1.015625q-1.265625 0 -2.359375 0.609375q-1.09375 0.609375 -2.015625 1.640625l0 11.9375l-2.84375 0zm28.838867 -13.328125q-0.125 0.171875 -0.25 0.28125q-0.125 0.09375 -0.375 0.09375q-0.234375 0 -0.515625 -0.203125q-0.28125 -0.203125 -0.71875 -0.4375q-0.421875 -0.25 -1.046875 -0.4375q-0.609375 -0.203125 -1.515625 -0.203125q-1.171875 0 -2.09375 0.421875q-0.90625 0.421875 -1.53125 1.21875q-0.609375 0.796875 -0.921875 1.9375q-0.3125 1.140625 -0.3125 2.546875q0 1.46875 0.328125 2.609375q0.34375 1.140625 0.953125 1.921875q0.609375 0.78125 1.484375 1.1875q0.875 0.40625 1.953125 0.40625q1.046875 0 1.71875 -0.25q0.671875 -0.25 1.109375 -0.546875q0.453125 -0.3125 0.734375 -0.546875q0.296875 -0.25 0.578125 -0.25q0.375 0 0.546875 0.265625l0.796875 1.046875q-1.046875 1.296875 -2.640625 1.890625q-1.578125 0.59375 -3.328125 0.59375q-1.53125 0 -2.84375 -0.546875q-1.296875 -0.5625 -2.265625 -1.625q-0.953125 -1.078125 -1.5 -2.625q-0.546875 -1.546875 -0.546875 -3.53125q0 -1.8125 0.5 -3.34375q0.5 -1.53125 1.46875 -2.640625q0.96875 -1.125 2.390625 -1.75q1.421875 -0.625 3.265625 -0.625q1.703125 0 3.015625 0.5625q1.3125 0.546875 2.3125 1.546875l-0.75 1.03125zm7.053406 -2.875l0 16.203125l-2.84375 0l0 -16.203125l2.84375 0zm0.640625 -5.09375q0 0.421875 -0.171875 0.78125q-0.15625 0.359375 -0.4375 0.640625q-0.28125 0.28125 -0.65625 0.4375q-0.359375 0.15625 -0.78125 0.15625q-0.40625 0 -0.78125 -0.15625q-0.359375 -0.15625 -0.640625 -0.4375q-0.265625 -0.28125 -0.4375 -0.640625q-0.15625 -0.359375 -0.15625 -0.78125q0 -0.421875 0.15625 -0.796875q0.171875 -0.375 0.4375 -0.65625q0.28125 -0.28125 0.640625 -0.4375q0.375 -0.15625 0.78125 -0.15625q0.421875 0 0.78125 0.15625q0.375 0.15625 0.65625 0.4375q0.28125 0.28125 0.4375 0.65625q0.171875 0.375 0.171875 0.796875zm7.5513916 -2.265625l0 23.5625l-2.84375 0l0 -23.5625l2.84375 0z" fill-rule="nonzero"/><path fill="#000000" fill-opacity="0.0" d="m18.897638 838.7139l962.2677 0l0 161.29132l-962.2677 0z" fill-rule="evenodd"/><path fill="#2f2f2f" d="m160.78946 930.54584q0 1.828125 0.09375 2.625q0.09375 0.78125 0.34375 1.015625q0.140625 0.203125 0.546875 0.328125q0.40625 0.109375 1.265625 0.203125l2.3125 0.140625l0 1.921875q-1.25 -0.046875 -3.4375 -0.09375q-2.1875 -0.046875 -4.390625 -0.046875q-0.859375 0 -1.921875 0.015625q-1.046875 0.03125 -2.109375 0.046875q-1.046875 0.03125 -1.984375 0.046875q-0.9375 0.03125 -1.5625 0.03125l0 -1.921875l1.828125 -0.140625q0.859375 -0.09375 1.265625 -0.203125q0.40625 -0.125 0.546875 -0.328125q0.25 -0.234375 0.34375 -1.046875q0.09375 -0.8125 0.09375 -2.5l0 -20.546875q0 -1.671875 -0.09375 -2.484375q-0.09375 -0.828125 -0.34375 -1.109375q-0.140625 -0.203125 -0.53125 -0.359375q-0.375 -0.171875 -1.34375 -0.265625l-1.765625 -0.140625l0 -1.78125q0.765625 0 1.765625 0.03125q1.015625 0.015625 2.0625 0.046875q1.0625 0.015625 2.015625 0.046875q0.96875 0.015625 1.640625 0.015625q2.546875 0 5.03125 -0.0625q2.5 -0.078125 5.046875 -0.078125q4.609375 0 6.84375 1.828125q2.234375 1.8125 2.234375 5.28125q0 2.4375 -0.890625 4.359375q-0.890625 1.921875 -2.40625 3.25q-1.5 1.3125 -3.515625 1.984375q-2.015625 0.671875 -4.234375 0.671875q-0.484375 0 -1.03125 -0.0625q-0.546875 -0.078125 -1.515625 -0.265625l-0.8125 -1.6875l0.484375 -0.484375q0.625 0.09375 1.09375 0.203125q0.484375 0.09375 0.921875 0.09375q1.203125 0 2.140625 -0.484375q0.9375 -0.484375 1.578125 -1.3125q0.640625 -0.84375 0.953125 -1.953125q0.3125 -1.109375 0.3125 -2.34375q0 -3.46875 -1.46875 -5.0625q-1.453125 -1.609375 -4.328125 -1.609375q-0.765625 0 -1.640625 0.078125q-0.859375 0.0625 -1.4375 0.34375l0 23.765625zm28.890564 -16.515625q1.640625 0 3.09375 0.390625q1.46875 0.375 2.515625 1.21875q1.0625 0.84375 1.6875 2.125q0.625 1.265625 0.625 3.03125q0 0.484375 -0.03125 1.234375q-0.015625 0.734375 -0.046875 1.5625q-0.015625 0.8125 -0.046875 1.703125q-0.015625 0.875 -0.015625 1.640625q0 0.671875 0 1.25q0 0.578125 0.015625 1.234375q0.03125 0.640625 0.046875 1.46875q0.03125 0.8125 0.078125 1.953125q0.046875 0.828125 0.265625 1.375q0.21875 0.546875 1.03125 0.640625l1.4375 0.15625l0 1.765625q-1.046875 -0.046875 -2.109375 -0.09375q-1.046875 -0.046875 -2.109375 -0.046875q-0.90625 0 -2.0625 0.046875q-1.15625 0.046875 -2.296875 0.09375l-0.25 -0.375l0.25 -2.984375l-4.28125 3.3125q-0.53125 0.4375 -1.109375 0.578125q-0.5625 0.140625 -1.71875 0.140625q-2.734375 0 -4.03125 -1.65625q-1.296875 -1.65625 -1.296875 -4.203125q0 -1.53125 0.453125 -2.75q0.453125 -1.234375 1.21875 -1.90625q0.921875 -0.8125 2.40625 -1.453125q1.484375 -0.65625 4.125 -1.1875l4.234375 -0.859375q0 -2.59375 -1.1875 -4.125q-1.171875 -1.53125 -3.765625 -1.53125q-0.375 0 -0.84375 0.046875q-0.453125 0.046875 -0.859375 0.140625q-0.40625 0.09375 -0.703125 0.21875q-0.28125 0.109375 -0.328125 0.265625l-1.0625 2.390625l-1.4375 -0.328125l0 -3.3125l2.640625 -1.59375q1.25 -0.765625 2.65625 -1.171875q1.421875 -0.40625 2.8125 -0.40625zm-4.5 16.375q0 1.484375 0.734375 2.1875q0.75 0.6875 1.859375 0.6875q0.46875 0 1.046875 -0.1875q0.578125 -0.203125 1.125 -0.484375q0.5625 -0.28125 1.03125 -0.671875q0.484375 -0.390625 0.78125 -0.8125l0 -5.671875q-0.78125 0.25 -1.953125 0.53125q-1.171875 0.28125 -2.1875 0.671875q-1.25 0.53125 -1.84375 1.375q-0.59375 0.828125 -0.59375 2.375zm26.92192 -16.078125l0 4.546875l2.109375 -2.296875q0.96875 -1.015625 1.84375 -1.78125q0.890625 -0.765625 1.953125 -0.765625q0.578125 0 1.125 0.046875q0.546875 0.046875 0.9375 0.25l-0.234375 6.1875l-1.15625 0.484375q-0.859375 -1.734375 -2.828125 -1.734375q-0.625 0 -1.296875 0.265625q-0.671875 0.265625 -1.296875 0.796875q-1.15625 1.0 -1.15625 2.015625l0 9.3125q0 2.109375 0.234375 2.53125q0.203125 0.34375 0.796875 0.515625q0.609375 0.15625 1.28125 0.203125l1.859375 0.109375l0 1.765625q-1.8125 -0.046875 -3.828125 -0.09375q-2.015625 -0.046875 -3.359375 -0.046875q-1.34375 0 -3.125 0.046875q-1.78125 0.046875 -3.125 0.09375l0 -1.765625l1.640625 -0.109375q1.140625 -0.046875 1.4375 -0.515625q0.140625 -0.203125 0.234375 -0.71875q0.09375 -0.53125 0.09375 -1.6875l0 -11.09375q0 -1.390625 -0.09375 -1.890625q-0.09375 -0.5 -0.328125 -0.75q-0.109375 -0.09375 -0.25 -0.15625q-0.140625 -0.078125 -0.671875 -0.125l-2.0625 -0.140625l0 -1.734375q1.34375 -0.1875 2.6875 -0.375q1.34375 -0.203125 2.59375 -0.578125l3.5 -1.109375l0.484375 0.296875zm15.750168 -11.578125q1.53125 0 2.5625 1.03125q1.03125 1.03125 1.03125 2.625q0 1.484375 -1.078125 2.515625q-1.078125 1.03125 -2.515625 1.03125q-1.4375 0 -2.53125 -1.03125q-1.078125 -1.03125 -1.078125 -2.515625q0 -1.59375 1.03125 -2.625q1.03125 -1.03125 2.578125 -1.03125zm3.109375 11.578125l0 17.5625q0 0.8125 0.046875 1.515625q0.046875 0.6875 0.296875 0.984375q0.28125 0.46875 1.4375 0.515625l1.625 0.109375l0 1.765625q-0.5625 0 -1.390625 -0.03125q-0.8125 -0.015625 -1.734375 -0.046875q-0.90625 -0.015625 -1.765625 -0.046875q-0.859375 -0.015625 -1.53125 -0.015625q-0.671875 0 -1.734375 0.015625q-1.046875 0.03125 -2.0625 0.078125q-1.203125 0.046875 -2.453125 0.046875l0 -1.765625l1.640625 -0.109375q1.15625 -0.046875 1.4375 -0.515625q0.140625 -0.203125 0.234375 -0.75q0.109375 -0.546875 0.109375 -1.65625l0 -11.09375q0 -1.390625 -0.109375 -1.890625q-0.09375 -0.5 -0.328125 -0.75q-0.09375 -0.09375 -0.25 -0.15625q-0.140625 -0.078125 -0.65625 -0.125l-2.078125 -0.140625l0 -1.734375q1.40625 -0.1875 2.75 -0.375q1.34375 -0.203125 2.6875 -0.625l3.359375 -1.0625l0.46875 0.296875zm16.85904 -0.296875q1.625 0 3.15625 0.21875q1.546875 0.21875 2.84375 0.890625l-0.390625 5.859375l-1.734375 0l-0.46875 -2.796875q-0.046875 -0.328125 -0.46875 -0.6875q-0.40625 -0.359375 -0.984375 -0.59375q-0.5625 -0.25 -1.234375 -0.40625q-0.671875 -0.171875 -1.296875 -0.171875q-2.0625 0 -3.25 0.796875q-1.171875 0.78125 -1.171875 2.3125q0 1.15625 0.625 1.78125q0.625 0.625 1.828125 0.859375l4.3125 0.96875q3.359375 0.765625 4.625 2.296875q1.28125 1.53125 1.28125 3.9375q0 3.640625 -2.828125 5.90625q-2.828125 2.25 -7.25 2.25q-3.796875 0 -7.484375 -1.34375l0.328125 -6.765625l1.875 0l0.234375 3.3125q1.015625 1.34375 2.46875 1.921875q1.46875 0.578125 3.203125 0.578125q1.625 0 2.875 -0.9375q1.25 -0.9375 1.25 -2.671875q0 -0.859375 -0.265625 -1.40625q-0.265625 -0.5625 -0.703125 -0.875q-0.421875 -0.3125 -0.953125 -0.5q-0.53125 -0.1875 -1.09375 -0.328125l-4.140625 -1.015625q-2.734375 -0.671875 -3.90625 -2.234375q-1.171875 -1.5625 -1.171875 -3.671875q0 -3.734375 2.5625 -5.609375q2.578125 -1.875 7.328125 -1.875zm19.968292 -11.65625l0 15.546875l3.828125 -2.984375q0.71875 -0.515625 1.53125 -0.703125q0.828125 -0.203125 2.125 -0.203125q1.71875 0 3.09375 0.578125q1.375 0.578125 2.046875 1.296875q1.234375 1.296875 1.515625 3.09375q0.296875 1.796875 0.296875 3.8125l0 9.265625q0 1.0625 0.09375 1.5625q0.109375 0.5 0.203125 0.703125q0.1875 0.28125 0.5625 0.40625q0.390625 0.109375 0.921875 0.15625l1.53125 0.109375l0 1.765625q-1.140625 -0.046875 -2.4375 -0.09375q-1.296875 -0.046875 -1.96875 -0.046875q-1.390625 0 -2.640625 0.046875q-1.25 0.046875 -2.109375 0.09375l0 -13.25q0 -2.734375 -1.046875 -4.046875q-1.03125 -1.328125 -3.609375 -1.328125q-0.96875 0 -1.625 0.3125q-0.640625 0.3125 -1.171875 0.796875q-0.578125 0.53125 -0.859375 1.109375q-0.28125 0.5625 -0.28125 1.046875l0 10.46875q0 0.8125 0.046875 1.515625q0.046875 0.6875 0.28125 0.984375q0.296875 0.46875 1.4375 0.515625l1.640625 0.109375l0 1.765625q-0.578125 0 -1.40625 -0.03125q-0.8125 -0.015625 -1.71875 -0.046875q-0.90625 -0.015625 -1.78125 -0.046875q-0.859375 -0.015625 -1.53125 -0.015625q-1.34375 0 -3.078125 0.046875q-1.71875 0.046875 -3.15625 0.09375l0 -1.765625l1.625 -0.109375q1.15625 -0.046875 1.4375 -0.515625q0.15625 -0.203125 0.25 -0.75q0.09375 -0.546875 0.09375 -1.65625l0 -23.046875q0 -1.390625 -0.09375 -1.890625q-0.09375 -0.5 -0.34375 -0.75q-0.09375 -0.09375 -0.234375 -0.15625q-0.140625 -0.078125 -0.625 -0.125l-2.109375 -0.140625l0 -1.734375q1.390625 -0.1875 2.734375 -0.40625q1.34375 -0.21875 2.6875 -0.59375l3.453125 -1.0625l0.390625 0.296875zm38.68747 0.375q1.53125 0 2.5625 1.03125q1.03125 1.03125 1.03125 2.625q0 1.484375 -1.078125 2.515625q-1.078125 1.03125 -2.515625 1.03125q-1.4375 0 -2.53125 -1.03125q-1.078125 -1.03125 -1.078125 -2.515625q0 -1.59375 1.03125 -2.625q1.03125 -1.03125 2.578125 -1.03125zm3.109375 11.578125l0 17.5625q0 0.8125 0.046875 1.515625q0.046875 0.6875 0.296875 0.984375q0.28125 0.46875 1.4375 0.515625l1.625 0.109375l0 1.765625q-0.5625 0 -1.390625 -0.03125q-0.8125 -0.015625 -1.734375 -0.046875q-0.90625 -0.015625 -1.765625 -0.046875q-0.859375 -0.015625 -1.53125 -0.015625q-0.671875 0 -1.734375 0.015625q-1.046875 0.03125 -2.0625 0.078125q-1.203125 0.046875 -2.453125 0.046875l0 -1.765625l1.640625 -0.109375q1.15625 -0.046875 1.4375 -0.515625q0.140625 -0.203125 0.234375 -0.75q0.109375 -0.546875 0.109375 -1.65625l0 -11.09375q0 -1.390625 -0.109375 -1.890625q-0.09375 -0.5 -0.328125 -0.75q-0.09375 -0.09375 -0.25 -0.15625q-0.140625 -0.078125 -0.65625 -0.125l-2.078125 -0.140625l0 -1.734375q1.40625 -0.1875 2.75 -0.375q1.34375 -0.203125 2.6875 -0.625l3.359375 -1.0625l0.46875 0.296875zm15.515289 0l0 3.59375l3.828125 -2.984375q0.71875 -0.515625 1.53125 -0.703125q0.828125 -0.203125 2.125 -0.203125q1.71875 0 3.09375 0.578125q1.375 0.578125 2.046875 1.296875q1.234375 1.296875 1.515625 3.09375q0.296875 1.796875 0.296875 3.8125l0 9.265625q0 1.0625 0.09375 1.5625q0.109375 0.5 0.203125 0.703125q0.1875 0.28125 0.5625 0.40625q0.390625 0.109375 0.921875 0.15625l1.53125 0.109375l0 1.765625q-1.140625 -0.046875 -2.4375 -0.09375q-1.296875 -0.046875 -1.96875 -0.046875q-1.390625 0 -2.640625 0.046875q-1.25 0.046875 -2.109375 0.09375l0 -13.25q0 -2.734375 -1.046875 -4.046875q-1.03125 -1.328125 -3.609375 -1.328125q-0.96875 0 -1.625 0.3125q-0.640625 0.3125 -1.171875 0.796875q-0.578125 0.53125 -0.859375 1.109375q-0.28125 0.5625 -0.28125 1.046875l0 10.46875q0 0.8125 0.046875 1.515625q0.046875 0.6875 0.28125 0.984375q0.296875 0.46875 1.4375 0.515625l1.640625 0.109375l0 1.765625q-0.578125 0 -1.40625 -0.03125q-0.8125 -0.015625 -1.71875 -0.046875q-0.90625 -0.015625 -1.78125 -0.046875q-0.859375 -0.015625 -1.53125 -0.015625q-1.34375 0 -3.078125 0.046875q-1.71875 0.046875 -3.15625 0.09375l0 -1.765625l1.625 -0.109375q1.15625 -0.046875 1.4375 -0.515625q0.15625 -0.203125 0.25 -0.75q0.09375 -0.546875 0.09375 -1.65625l0 -11.09375q0 -1.390625 -0.09375 -1.890625q-0.09375 -0.5 -0.34375 -0.75q-0.09375 -0.09375 -0.234375 -0.15625q-0.140625 -0.078125 -0.625 -0.125l-2.109375 -0.140625l0 -1.734375q2.203125 -0.046875 4.21875 -0.59375q2.015625 -0.5625 4.75 -1.46875l0.296875 0.296875zm43.18747 -0.296875q1.640625 0 3.09375 0.390625q1.46875 0.375 2.515625 1.21875q1.0625 0.84375 1.6875 2.125q0.625 1.265625 0.625 3.03125q0 0.484375 -0.03125 1.234375q-0.015625 0.734375 -0.046875 1.5625q-0.015625 0.8125 -0.046875 1.703125q-0.015625 0.875 -0.015625 1.640625q0 0.671875 0 1.25q0 0.578125 0.015625 1.234375q0.03125 0.640625 0.046875 1.46875q0.03125 0.8125 0.078125 1.953125q0.046875 0.828125 0.265625 1.375q0.21875 0.546875 1.03125 0.640625l1.4375 0.15625l0 1.765625q-1.046875 -0.046875 -2.109375 -0.09375q-1.046875 -0.046875 -2.109375 -0.046875q-0.90625 0 -2.0625 0.046875q-1.15625 0.046875 -2.296875 0.09375l-0.25 -0.375l0.25 -2.984375l-4.28125 3.3125q-0.53125 0.4375 -1.109375 0.578125q-0.5625 0.140625 -1.71875 0.140625q-2.734375 0 -4.03125 -1.65625q-1.296875 -1.65625 -1.296875 -4.203125q0 -1.53125 0.453125 -2.75q0.453125 -1.234375 1.21875 -1.90625q0.921875 -0.8125 2.40625 -1.453125q1.484375 -0.65625 4.125 -1.1875l4.234375 -0.859375q0 -2.59375 -1.1875 -4.125q-1.171875 -1.53125 -3.765625 -1.53125q-0.375 0 -0.84375 0.046875q-0.453125 0.046875 -0.859375 0.140625q-0.40625 0.09375 -0.703125 0.21875q-0.28125 0.109375 -0.328125 0.265625l-1.0625 2.390625l-1.4375 -0.328125l0 -3.3125l2.640625 -1.59375q1.25 -0.765625 2.65625 -1.171875q1.421875 -0.40625 2.8125 -0.40625zm-4.5 16.375q0 1.484375 0.734375 2.1875q0.75 0.6875 1.859375 0.6875q0.46875 0 1.046875 -0.1875q0.578125 -0.203125 1.125 -0.484375q0.5625 -0.28125 1.03125 -0.671875q0.484375 -0.390625 0.78125 -0.8125l0 -5.671875q-0.78125 0.25 -1.953125 0.53125q-1.171875 0.28125 -2.1875 0.671875q-1.25 0.53125 -1.84375 1.375q-0.59375 0.828125 -0.59375 2.375zm49.578217 -27.125q1.875 0 3.375 0.125q1.515625 0.109375 2.875 0.40625q1.375 0.28125 2.6875 0.71875q1.328125 0.421875 2.78125 1.0l0.28125 0.53125q-0.28125 1.109375 -0.53125 2.859375q-0.234375 1.75 -0.578125 4.484375l-1.859375 0l-0.25 -4.125q-1.71875 -1.828125 -3.90625 -2.5625q-2.1875 -0.75 -4.734375 -0.75q-2.78125 0 -5.046875 0.921875q-2.25 0.90625 -3.828125 2.640625q-1.578125 1.71875 -2.453125 4.171875q-0.859375 2.4375 -0.859375 5.515625q0 3.40625 0.984375 6.21875q0.984375 2.796875 2.796875 4.765625q1.828125 1.96875 4.4375 3.0625q2.625 1.078125 5.9375 1.078125q1.15625 0 2.375 -0.1875q1.234375 -0.203125 2.421875 -0.515625q1.203125 -0.3125 2.328125 -0.765625q1.140625 -0.453125 2.046875 -0.984375l0.578125 0.578125l-1.0625 2.34375q-2.5 1.546875 -5.328125 2.09375q-2.828125 0.546875 -5.703125 0.546875q-4.421875 0 -7.921875 -1.21875q-3.5 -1.21875 -5.984375 -3.515625q-2.46875 -2.3125 -3.796875 -5.578125q-1.3125 -3.265625 -1.3125 -7.296875q0 -4.03125 1.515625 -7.125q1.515625 -3.109375 4.125 -5.1875q2.625 -2.09375 6.125 -3.171875q3.5 -1.078125 7.484375 -1.078125zm26.984161 10.75q5.515625 0 8.3125 2.9375q2.8125 2.921875 2.8125 8.296875q0 5.8125 -3.046875 9.0q-3.046875 3.1875 -9.09375 3.1875q-5.234375 0 -8.0 -3.046875q-2.75 -3.046875 -2.75 -8.5625q0 -5.671875 3.0 -8.734375q3.0 -3.078125 8.765625 -3.078125zm-5.234375 10.421875q0 1.765625 0.15625 3.671875q0.171875 1.890625 0.75 3.453125q0.578125 1.5625 1.609375 2.578125q1.03125 1.0 2.765625 1.0q1.71875 0 2.625 -0.90625q0.921875 -0.921875 1.34375 -2.234375q0.4375 -1.328125 0.5 -2.765625q0.078125 -1.4375 0.078125 -2.546875q0 -5.609375 -1.34375 -7.984375q-1.34375 -2.375 -3.734375 -2.375q-1.546875 0 -2.484375 0.71875q-0.921875 0.71875 -1.4375 1.875q-0.5 1.140625 -0.671875 2.609375q-0.15625 1.46875 -0.15625 2.90625zm42.516174 7.484375q0 0.8125 0.046875 1.484375q0.0625 0.671875 0.296875 0.96875q0.28125 0.46875 1.4375 0.515625l1.640625 0.109375l0 1.765625q-0.625 0 -1.46875 -0.03125q-0.84375 -0.015625 -1.734375 -0.046875q-0.890625 -0.015625 -1.734375 -0.046875q-0.828125 -0.015625 -1.5 -0.015625q-1.484375 0 -3.078125 0.046875q-1.578125 0.046875 -2.96875 0.09375l0 -1.765625l1.4375 -0.109375q0.671875 -0.046875 0.984375 -0.15625q0.3125 -0.125 0.453125 -0.359375q0.140625 -0.203125 0.234375 -0.71875q0.109375 -0.53125 0.109375 -1.6875l0 -8.453125q0 -1.53125 -0.296875 -2.515625q-0.28125 -0.984375 -0.8125 -1.609375q-1.109375 -1.25 -3.171875 -1.25q-1.390625 0 -2.59375 1.109375q-1.140625 1.109375 -1.140625 2.15625l0 10.515625q0 0.8125 0.046875 1.484375q0.046875 0.671875 0.28125 0.96875q0.296875 0.46875 1.4375 0.515625l1.25 0.109375l0 1.765625q-0.53125 0 -1.296875 -0.03125q-0.765625 -0.015625 -1.609375 -0.046875q-0.828125 -0.015625 -1.65625 -0.046875q-0.8125 -0.015625 -1.484375 -0.015625q-1.34375 0 -3.078125 0.046875q-1.71875 0.046875 -3.15625 0.09375l0 -1.765625l1.625 -0.109375q1.15625 -0.046875 1.4375 -0.515625q0.15625 -0.203125 0.25 -0.71875q0.09375 -0.53125 0.09375 -1.6875l0 -11.09375q0 -1.390625 -0.09375 -1.890625q-0.09375 -0.5 -0.34375 -0.75q-0.09375 -0.09375 -0.234375 -0.15625q-0.140625 -0.078125 -0.625 -0.125l-2.109375 -0.140625l0 -1.734375q2.4375 -0.09375 4.578125 -0.71875q2.140625 -0.625 4.390625 -1.34375l0.296875 0.296875l0 3.59375l3.828125 -2.984375q0.71875 -0.515625 1.53125 -0.703125q0.828125 -0.203125 2.125 -0.203125q2.109375 0 3.765625 0.9375q1.65625 0.9375 2.328125 2.953125l3.84375 -2.984375q0.671875 -0.515625 1.453125 -0.703125q0.796875 -0.203125 2.1875 -0.203125q1.828125 0 3.09375 0.453125q1.28125 0.453125 2.0625 1.5q0.796875 1.03125 1.15625 2.6875q0.359375 1.65625 0.359375 4.046875l0 9.359375q0 1.0625 0.09375 1.5625q0.109375 0.5 0.203125 0.703125q0.1875 0.28125 0.5625 0.40625q0.390625 0.109375 0.921875 0.15625l1.53125 0.109375l0 1.765625q-1.15625 -0.046875 -2.453125 -0.09375q-1.28125 -0.046875 -1.953125 -0.046875q-1.390625 0 -2.640625 0.046875q-1.25 0.046875 -2.125 0.09375l0 -13.046875q0 -0.921875 -0.140625 -2.15625q-0.140625 -1.25 -0.953125 -2.171875q-0.4375 -0.484375 -1.1875 -0.859375q-0.734375 -0.390625 -1.984375 -0.390625q-1.390625 0 -2.59375 1.109375q-1.15625 1.0625 -1.15625 2.203125l0 10.46875zm28.515839 -29.5625l0 15.875l2.9375 -2.34375q1.046875 -0.859375 2.171875 -1.359375q1.140625 -0.515625 2.8125 -0.515625q1.921875 0 3.5 0.703125q1.59375 0.6875 2.734375 1.890625q1.15625 1.203125 1.78125 2.84375q0.625 1.625 0.625 3.484375q0 2.640625 -0.921875 5.1875q-0.90625 2.546875 -2.875 4.234375q-1.0 0.90625 -2.296875 1.75q-1.296875 0.828125 -2.59375 1.703125q-1.25 0.8125 -2.375 1.21875q-1.125 0.40625 -2.375 0.40625q-2.015625 0 -3.578125 -0.5q-1.5625 -0.5 -2.90625 -1.265625l-1.875 1.53125l-1.046875 -0.390625q0.28125 -2.546875 0.34375 -4.75q0.078125 -2.203125 0.078125 -3.734375l0 -19.34375q0 -1.25 -0.09375 -1.84375q-0.09375 -0.609375 -0.328125 -0.859375q-0.203125 -0.1875 -0.546875 -0.234375q-0.328125 -0.046875 -1.140625 -0.09375l-1.671875 -0.09375l0 -1.734375q1.578125 -0.1875 2.9375 -0.375q1.375 -0.203125 2.859375 -0.625l3.46875 -1.0625l0.375 0.296875zm0 29.171875q0.8125 1.25 2.078125 1.953125q1.28125 0.6875 2.828125 0.6875q1.53125 0 2.578125 -0.6875q1.0625 -0.703125 1.734375 -1.875q0.671875 -1.171875 0.984375 -2.6875q0.3125 -1.515625 0.3125 -3.140625q0 -1.5 -0.359375 -2.859375q-0.359375 -1.375 -1.078125 -2.375q-0.71875 -1.015625 -1.859375 -1.609375q-1.125 -0.59375 -2.703125 -0.59375q-1.296875 0 -2.578125 0.65625q-1.265625 0.640625 -1.9375 1.734375l0 10.796875zm26.984314 -28.796875q1.53125 0 2.5625 1.03125q1.03125 1.03125 1.03125 2.625q0 1.484375 -1.078125 2.515625q-1.078125 1.03125 -2.515625 1.03125q-1.4375 0 -2.53125 -1.03125q-1.078125 -1.03125 -1.078125 -2.515625q0 -1.59375 1.03125 -2.625q1.03125 -1.03125 2.578125 -1.03125zm3.109375 11.578125l0 17.5625q0 0.8125 0.046875 1.515625q0.046875 0.6875 0.296875 0.984375q0.28125 0.46875 1.4375 0.515625l1.625 0.109375l0 1.765625q-0.5625 0 -1.390625 -0.03125q-0.8125 -0.015625 -1.734375 -0.046875q-0.90625 -0.015625 -1.765625 -0.046875q-0.859375 -0.015625 -1.53125 -0.015625q-0.671875 0 -1.734375 0.015625q-1.046875 0.03125 -2.0625 0.078125q-1.203125 0.046875 -2.453125 0.046875l0 -1.765625l1.640625 -0.109375q1.15625 -0.046875 1.4375 -0.515625q0.140625 -0.203125 0.234375 -0.75q0.109375 -0.546875 0.109375 -1.65625l0 -11.09375q0 -1.390625 -0.109375 -1.890625q-0.09375 -0.5 -0.328125 -0.75q-0.09375 -0.09375 -0.25 -0.15625q-0.140625 -0.078125 -0.65625 -0.125l-2.078125 -0.140625l0 -1.734375q1.40625 -0.1875 2.75 -0.375q1.34375 -0.203125 2.6875 -0.625l3.359375 -1.0625l0.46875 0.296875zm15.515259 0l0 3.59375l3.828125 -2.984375q0.71875 -0.515625 1.53125 -0.703125q0.828125 -0.203125 2.125 -0.203125q1.71875 0 3.09375 0.578125q1.375 0.578125 2.046875 1.296875q1.234375 1.296875 1.515625 3.09375q0.296875 1.796875 0.296875 3.8125l0 9.265625q0 1.0625 0.09375 1.5625q0.109375 0.5 0.203125 0.703125q0.1875 0.28125 0.5625 0.40625q0.390625 0.109375 0.921875 0.15625l1.53125 0.109375l0 1.765625q-1.140625 -0.046875 -2.4375 -0.09375q-1.296875 -0.046875 -1.96875 -0.046875q-1.390625 0 -2.640625 0.046875q-1.25 0.046875 -2.109375 0.09375l0 -13.25q0 -2.734375 -1.046875 -4.046875q-1.03125 -1.328125 -3.609375 -1.328125q-0.96875 0 -1.625 0.3125q-0.640625 0.3125 -1.171875 0.796875q-0.578125 0.53125 -0.859375 1.109375q-0.28125 0.5625 -0.28125 1.046875l0 10.46875q0 0.8125 0.046875 1.515625q0.046875 0.6875 0.28125 0.984375q0.296875 0.46875 1.4375 0.515625l1.640625 0.109375l0 1.765625q-0.578125 0 -1.40625 -0.03125q-0.8125 -0.015625 -1.71875 -0.046875q-0.90625 -0.015625 -1.78125 -0.046875q-0.859375 -0.015625 -1.53125 -0.015625q-1.34375 0 -3.078125 0.046875q-1.71875 0.046875 -3.15625 0.09375l0 -1.765625l1.625 -0.109375q1.15625 -0.046875 1.4375 -0.515625q0.15625 -0.203125 0.25 -0.75q0.09375 -0.546875 0.09375 -1.65625l0 -11.09375q0 -1.390625 -0.09375 -1.890625q-0.09375 -0.5 -0.34375 -0.75q-0.09375 -0.09375 -0.234375 -0.15625q-0.140625 -0.078125 -0.625 -0.125l-2.109375 -0.140625l0 -1.734375q2.203125 -0.046875 4.21875 -0.59375q2.015625 -0.5625 4.75 -1.46875l0.296875 0.296875zm31.71875 -0.296875q1.921875 0 3.625 0.515625q1.703125 0.5 2.953125 1.5625q1.25 1.046875 1.984375 2.65625q0.75 1.609375 0.75 3.765625l0 2.453125q-1.921875 0.515625 -4.015625 0.734375q-2.078125 0.21875 -3.46875 0.21875l-6.390625 0q0 1.78125 0.5 3.265625q0.515625 1.484375 1.46875 2.5625q0.96875 1.078125 2.40625 1.6875q1.4375 0.59375 3.265625 0.59375q1.203125 0 2.609375 -0.5q1.421875 -0.5 2.578125 -1.171875l0.5625 0.71875l-1.046875 2.296875q-2.15625 1.15625 -3.859375 1.609375q-1.703125 0.453125 -3.828125 0.453125q-5.125 0 -8.015625 -2.875q-2.875 -2.875 -2.875 -8.25q0 -2.125 0.265625 -3.578125q0.265625 -1.46875 0.796875 -2.578125q0.8125 -1.625 1.8125 -2.46875q1.015625 -0.84375 2.40625 -1.65625q0.765625 -0.484375 1.390625 -0.84375q0.625 -0.359375 1.25 -0.609375q0.625 -0.265625 1.296875 -0.40625q0.671875 -0.15625 1.578125 -0.15625zm-4.84375 9.359375q0.1875 0 0.640625 0.03125q0.46875 0.015625 1.03125 0.046875q0.578125 0.015625 1.21875 0.046875q0.65625 0.015625 1.1875 0.015625q0.8125 0 1.984375 -0.046875q1.1875 -0.046875 2.0 -0.09375l0 -0.1875q0 -1.34375 -0.171875 -2.515625q-0.15625 -1.1875 -0.625 -2.0625q-0.453125 -0.890625 -1.21875 -1.390625q-0.765625 -0.515625 -1.921875 -0.515625q-2.0625 0 -3.09375 1.609375q-1.03125 1.609375 -1.03125 5.0625zm40.421875 -21.015625l0 29.703125q0 1.0625 0.0625 1.546875q0.078125 0.46875 0.171875 0.609375q0.1875 0.390625 0.640625 0.515625q0.46875 0.109375 0.890625 0.15625l1.546875 0.109375l0 1.765625q-1.34375 -0.046875 -2.890625 -0.09375q-1.53125 -0.046875 -2.390625 -0.046875q-0.671875 0 -1.65625 0.046875q-0.984375 0.046875 -2.234375 0.09375l-0.25 -0.375l0.25 -3.609375l-5.0 4.078125q-0.515625 0.4375 -1.25 0.5q-0.71875 0.078125 -1.390625 0.078125q-2.15625 0 -3.8125 -0.90625q-1.65625 -0.921875 -2.78125 -2.40625q-1.125 -1.484375 -1.703125 -3.421875q-0.578125 -1.953125 -0.578125 -3.96875q0 -3.453125 0.90625 -5.578125q0.921875 -2.140625 2.984375 -3.546875l3.453125 -2.25q2.015625 -1.34375 4.265625 -1.34375q1.40625 0 2.484375 0.34375q1.078125 0.328125 2.421875 0.859375l0 -6.296875q0 -1.234375 -0.078125 -1.78125q-0.0625 -0.5625 -0.3125 -0.796875q-0.140625 -0.15625 -0.3125 -0.21875q-0.171875 -0.078125 -0.546875 -0.125l-2.546875 -0.140625l0 -1.734375q1.296875 -0.140625 2.828125 -0.359375q1.546875 -0.21875 2.984375 -0.640625l3.453125 -1.0625l0.390625 0.296875zm-16.328125 22.265625q0 1.4375 0.3125 2.9375q0.3125 1.484375 0.953125 2.65625q0.65625 1.171875 1.703125 1.921875q1.0625 0.734375 2.546875 0.734375q1.0625 0 1.96875 -0.328125q0.921875 -0.34375 1.59375 -0.859375q0.625 -0.53125 1.0 -1.171875q0.390625 -0.65625 0.390625 -1.625l0 -8.78125q-0.96875 -1.34375 -2.359375 -2.171875q-1.390625 -0.84375 -3.015625 -0.84375q-1.640625 0 -2.625 0.65625q-0.984375 0.640625 -1.53125 1.703125q-0.546875 1.046875 -0.75 2.421875q-0.1875 1.359375 -0.1875 2.75zm53.375 -20.921875l12.484375 29.125q0.53125 1.15625 1.171875 1.546875q0.65625 0.375 1.421875 0.46875l1.15625 0.15625l0 1.765625q-2.453125 -0.046875 -4.140625 -0.09375q-1.671875 -0.046875 -3.3125 -0.046875q-1.625 0 -3.484375 0.046875q-1.84375 0.046875 -3.953125 0.09375l0 -1.765625l2.40625 -0.15625q1.09375 -0.046875 1.09375 -1.390625q0 -0.578125 -0.375 -1.484375l-2.0625 -5.234375l-12.046875 0l-1.875 5.0q-0.140625 0.375 -0.265625 0.765625q-0.125 0.375 -0.125 0.765625q0 1.484375 1.546875 1.578125l2.25 0.15625l0 1.765625q-1.484375 -0.046875 -2.984375 -0.09375q-1.484375 -0.046875 -2.4375 -0.046875q-1.15625 0 -2.546875 0.046875q-1.390625 0.046875 -2.875 0.09375l0 -1.765625l1.390625 -0.15625q0.953125 -0.140625 1.671875 -1.0q0.390625 -0.53125 0.671875 -1.109375q0.296875 -0.578125 0.71875 -1.578125l8.078125 -19.546875q0.375 -0.953125 0.875 -2.296875q0.515625 -1.34375 0.984375 -2.59375q0.53125 -1.484375 1.15625 -3.015625l3.40625 0zm-8.5 20.34375l9.796875 0l-4.984375 -12.1875l-4.8125 12.1875zm36.20349 -9.734375l0 12.953125q0 1.296875 0.140625 2.359375q0.140625 1.046875 0.5625 1.84375q0.4375 0.78125 1.1875 1.21875q0.75 0.4375 2.0 0.4375q1.625 0 3.015625 -1.25q0.671875 -0.578125 1.046875 -1.265625q0.390625 -0.703125 0.390625 -1.71875l0 -8.015625q0 -1.390625 -0.09375 -1.890625q-0.09375 -0.5 -0.328125 -0.75q-0.109375 -0.09375 -0.25 -0.15625q-0.140625 -0.078125 -0.671875 -0.125l-2.0625 -0.140625l0 -1.734375q1.390625 -0.1875 2.734375 -0.375q1.34375 -0.203125 2.6875 -0.625l3.359375 -1.0625l0.484375 0.296875l0 17.75q0 1.0625 0.09375 1.59375q0.09375 0.515625 0.25 0.71875q0.28125 0.46875 1.484375 0.515625l1.484375 0.109375l0 1.765625q-1.4375 -0.046875 -2.8125 -0.09375q-1.359375 -0.046875 -2.46875 -0.046875q-0.671875 0 -1.703125 0.046875q-1.03125 0.046875 -2.421875 0.09375l0.234375 -3.984375l-3.640625 3.5625q-1.203125 1.09375 -3.125 1.09375q-3.9375 0 -5.6875 -2.0625q-1.75 -2.0625 -1.75 -5.421875l0 -9.078125q0 -1.390625 -0.09375 -1.890625q-0.09375 -0.5 -0.34375 -0.75q-0.09375 -0.09375 -0.234375 -0.15625q-0.140625 -0.078125 -0.671875 -0.125l-2.0625 -0.140625l0 -1.734375q1.390625 -0.1875 2.734375 -0.375q1.34375 -0.203125 2.6875 -0.625l3.359375 -1.0625l0.484375 0.296875zm29.421753 -7.546875q-0.34375 1.640625 -0.46875 3.390625q-0.109375 1.75 -0.109375 2.953125l0 2.96875l5.46875 -0.28125l-0.375 3.109375l-5.09375 0l0 11.375q0 1.78125 0.625 2.484375q0.625 0.6875 2.34375 0.6875q0.671875 0 1.125 -0.140625q0.46875 -0.140625 1.09375 -0.484375l0.375 0.921875l-2.34375 2.828125q-0.390625 0.4375 -1.1875 0.640625q-0.78125 0.21875 -1.75 0.21875q-3.40625 0 -4.78125 -1.5q-1.359375 -1.515625 -1.359375 -4.640625l0 -12.390625l-3.0625 0.203125l0 -1.0625l3.15625 -2.0625l0 -2.828125q0 -0.71875 -0.03125 -1.515625q-0.015625 -0.796875 -0.0625 -1.46875q-0.046875 -0.765625 -0.09375 -1.484375q1.578125 -0.578125 3.140625 -1.21875q1.5625 -0.65625 2.71875 -1.1875l0.671875 0.484375zm15.843506 -4.40625l0 15.546875l3.828125 -2.984375q0.71875 -0.515625 1.53125 -0.703125q0.828125 -0.203125 2.125 -0.203125q1.71875 0 3.09375 0.578125q1.375 0.578125 2.046875 1.296875q1.234375 1.296875 1.515625 3.09375q0.296875 1.796875 0.296875 3.8125l0 9.265625q0 1.0625 0.09375 1.5625q0.109375 0.5 0.203125 0.703125q0.1875 0.28125 0.5625 0.40625q0.390625 0.109375 0.921875 0.15625l1.53125 0.109375l0 1.765625q-1.140625 -0.046875 -2.4375 -0.09375q-1.296875 -0.046875 -1.96875 -0.046875q-1.390625 0 -2.640625 0.046875q-1.25 0.046875 -2.109375 0.09375l0 -13.25q0 -2.734375 -1.046875 -4.046875q-1.03125 -1.328125 -3.609375 -1.328125q-0.96875 0 -1.625 0.3125q-0.640625 0.3125 -1.171875 0.796875q-0.578125 0.53125 -0.859375 1.109375q-0.28125 0.5625 -0.28125 1.046875l0 10.46875q0 0.8125 0.046875 1.515625q0.046875 0.6875 0.28125 0.984375q0.296875 0.46875 1.4375 0.515625l1.640625 0.109375l0 1.765625q-0.578125 0 -1.40625 -0.03125q-0.8125 -0.015625 -1.71875 -0.046875q-0.90625 -0.015625 -1.78125 -0.046875q-0.859375 -0.015625 -1.53125 -0.015625q-1.34375 0 -3.078125 0.046875q-1.71875 0.046875 -3.15625 0.09375l0 -1.765625l1.625 -0.109375q1.15625 -0.046875 1.4375 -0.515625q0.15625 -0.203125 0.25 -0.75q0.09375 -0.546875 0.09375 -1.65625l0 -23.046875q0 -1.390625 -0.09375 -1.890625q-0.09375 -0.5 -0.34375 -0.75q-0.09375 -0.09375 -0.234375 -0.15625q-0.140625 -0.078125 -0.625 -0.125l-2.109375 -0.140625l0 -1.734375q1.390625 -0.1875 2.734375 -0.40625q1.34375 -0.21875 2.6875 -0.59375l3.453125 -1.0625l0.390625 0.296875zm32.593628 11.65625q5.515625 0 8.3125 2.9375q2.8125 2.921875 2.8125 8.296875q0 5.8125 -3.046875 9.0q-3.046875 3.1875 -9.09375 3.1875q-5.234375 0 -8.0 -3.046875q-2.75 -3.046875 -2.75 -8.5625q0 -5.671875 3.0 -8.734375q3.0 -3.078125 8.765625 -3.078125zm-5.234375 10.421875q0 1.765625 0.15625 3.671875q0.171875 1.890625 0.75 3.453125q0.578125 1.5625 1.609375 2.578125q1.03125 1.0 2.765625 1.0q1.71875 0 2.625 -0.90625q0.921875 -0.921875 1.34375 -2.234375q0.4375 -1.328125 0.5 -2.765625q0.078125 -1.4375 0.078125 -2.546875q0 -5.609375 -1.34375 -7.984375q-1.34375 -2.375 -3.734375 -2.375q-1.546875 0 -2.484375 0.71875q-0.921875 0.71875 -1.4375 1.875q-0.5 1.140625 -0.671875 2.609375q-0.15625 1.46875 -0.15625 2.90625zm28.93811 -10.125l0 4.546875l2.109375 -2.296875q0.96875 -1.015625 1.84375 -1.78125q0.890625 -0.765625 1.953125 -0.765625q0.578125 0 1.125 0.046875q0.546875 0.046875 0.9375 0.25l-0.234375 6.1875l-1.15625 0.484375q-0.859375 -1.734375 -2.828125 -1.734375q-0.625 0 -1.296875 0.265625q-0.671875 0.265625 -1.296875 0.796875q-1.15625 1.0 -1.15625 2.015625l0 9.3125q0 2.109375 0.234375 2.53125q0.203125 0.34375 0.796875 0.515625q0.609375 0.15625 1.28125 0.203125l1.859375 0.109375l0 1.765625q-1.8125 -0.046875 -3.828125 -0.09375q-2.015625 -0.046875 -3.359375 -0.046875q-1.34375 0 -3.125 0.046875q-1.78125 0.046875 -3.125 0.09375l0 -1.765625l1.640625 -0.109375q1.140625 -0.046875 1.4375 -0.515625q0.140625 -0.203125 0.234375 -0.71875q0.09375 -0.53125 0.09375 -1.6875l0 -11.09375q0 -1.390625 -0.09375 -1.890625q-0.09375 -0.5 -0.328125 -0.75q-0.109375 -0.09375 -0.25 -0.15625q-0.140625 -0.078125 -0.671875 -0.125l-2.0625 -0.140625l0 -1.734375q1.34375 -0.1875 2.6875 -0.375q1.34375 -0.203125 2.59375 -0.578125l3.5 -1.109375l0.484375 0.296875zm15.750122 -11.578125q1.53125 0 2.5625 1.03125q1.03125 1.03125 1.03125 2.625q0 1.484375 -1.078125 2.515625q-1.078125 1.03125 -2.515625 1.03125q-1.4375 0 -2.53125 -1.03125q-1.078125 -1.03125 -1.078125 -2.515625q0 -1.59375 1.03125 -2.625q1.03125 -1.03125 2.578125 -1.03125zm3.109375 11.578125l0 17.5625q0 0.8125 0.046875 1.515625q0.046875 0.6875 0.296875 0.984375q0.28125 0.46875 1.4375 0.515625l1.625 0.109375l0 1.765625q-0.5625 0 -1.390625 -0.03125q-0.8125 -0.015625 -1.734375 -0.046875q-0.90625 -0.015625 -1.765625 -0.046875q-0.859375 -0.015625 -1.53125 -0.015625q-0.671875 0 -1.734375 0.015625q-1.046875 0.03125 -2.0625 0.078125q-1.203125 0.046875 -2.453125 0.046875l0 -1.765625l1.640625 -0.109375q1.15625 -0.046875 1.4375 -0.515625q0.140625 -0.203125 0.234375 -0.75q0.109375 -0.546875 0.109375 -1.65625l0 -11.09375q0 -1.390625 -0.109375 -1.890625q-0.09375 -0.5 -0.328125 -0.75q-0.09375 -0.09375 -0.25 -0.15625q-0.140625 -0.078125 -0.65625 -0.125l-2.078125 -0.140625l0 -1.734375q1.40625 -0.1875 2.75 -0.375q1.34375 -0.203125 2.6875 -0.625l3.359375 -1.0625l0.46875 0.296875zm15.656006 -7.546875q-0.34375 1.640625 -0.46875 3.390625q-0.109375 1.75 -0.109375 2.953125l0 2.96875l5.46875 -0.28125l-0.375 3.109375l-5.09375 0l0 11.375q0 1.78125 0.625 2.484375q0.625 0.6875 2.34375 0.6875q0.671875 0 1.125 -0.140625q0.46875 -0.140625 1.09375 -0.484375l0.375 0.921875l-2.34375 2.828125q-0.390625 0.4375 -1.1875 0.640625q-0.78125 0.21875 -1.75 0.21875q-3.40625 0 -4.78125 -1.5q-1.359375 -1.515625 -1.359375 -4.640625l0 -12.390625l-3.0625 0.203125l0 -1.0625l3.15625 -2.0625l0 -2.828125q0 -0.71875 -0.03125 -1.515625q-0.015625 -0.796875 -0.0625 -1.46875q-0.046875 -0.765625 -0.09375 -1.484375q1.578125 -0.578125 3.140625 -1.21875q1.5625 -0.65625 2.71875 -1.1875l0.671875 0.484375zm5.905884 7.828125q1.53125 0.046875 3.15625 0.09375q1.640625 0.046875 3.21875 0.046875q1.59375 0 3.171875 -0.046875q1.578125 -0.046875 3.171875 -0.09375l0 1.828125l-1.640625 0.09375q-0.671875 0.046875 -0.984375 0.390625q-0.3125 0.328125 -0.3125 0.703125q0 0.53125 0.234375 1.109375q0.25 0.578125 0.6875 1.6875l3.9375 10.21875l4.5625 -11.375q0.234375 -0.625 0.34375 -1.0q0.125 -0.390625 0.125 -0.828125q0 -0.328125 -0.34375 -0.59375q-0.328125 -0.265625 -1.0 -0.3125l-1.53125 -0.09375l0 -1.828125q1.109375 0.046875 2.234375 0.09375q1.125 0.046875 2.234375 0.046875q1.09375 0 2.21875 -0.046875q1.140625 -0.046875 2.234375 -0.09375l0 1.828125l-1.0 0.1875q-0.765625 0.140625 -1.296875 0.75q-0.53125 0.59375 -1.0625 1.890625l-9.6875 22.5625q-0.671875 1.484375 -1.46875 2.828125q-0.796875 1.34375 -1.796875 2.453125q-1.015625 1.046875 -2.234375 1.671875q-1.21875 0.625 -2.671875 0.625q-0.859375 0 -1.796875 -0.21875q-0.9375 -0.203125 -1.703125 -0.59375l0.875 -4.5625l0.515625 -0.1875q0.671875 0.8125 1.515625 1.28125q0.84375 0.484375 1.953125 0.484375q0.71875 0 1.390625 -0.40625q0.671875 -0.40625 1.21875 -1.078125q0.546875 -0.671875 1.0 -1.484375q0.46875 -0.8125 0.796875 -1.625l1.015625 -2.453125l-7.5 -19.15625q-0.375 -1.046875 -0.90625 -1.9375q-0.53125 -0.890625 -1.203125 -0.9375l-1.671875 -0.09375l0 -1.828125z" fill-rule="nonzero"/><path fill="#2f2f2f" d="m398.83466 500.0l43.46457 -86.92911l115.40158 0l43.46454 86.92911l-43.46454 86.92908l-115.40158 0z" fill-rule="evenodd"/><path fill="#ffffff" d="m408.9134 500.0l39.141724 -78.28342l103.82678 0l39.141724 78.28342l-39.141724 78.28345l-103.82678 0z" fill-rule="evenodd"/><path fill="#000000" fill-opacity="0.0" d="m398.86615 478.96063l202.33069 0l0 42.015747l-202.33069 0z" fill-rule="evenodd"/><path fill="#000000" d="m462.3469 483.7104l0 8.578125l-3.078125 0l0 -22.921875l6.765625 0q2.171875 0 3.78125 0.5q1.609375 0.5 2.65625 1.4375q1.0625 0.921875 1.578125 2.234375q0.53125 1.3125 0.53125 2.921875q0 1.609375 -0.5625 2.9375q-0.5625 1.328125 -1.640625 2.296875q-1.078125 0.953125 -2.6875 1.484375q-1.59375 0.53125 -3.65625 0.53125l-3.6875 0zm0 -2.46875l3.6875 0q1.328125 0 2.34375 -0.34375q1.015625 -0.359375 1.703125 -0.984375q0.6875 -0.640625 1.03125 -1.515625q0.359375 -0.875 0.359375 -1.9375q0 -2.1875 -1.359375 -3.421875q-1.34375 -1.234375 -4.078125 -1.234375l-3.6875 0l0 9.4375zm26.79892 11.046875l-1.265625 0q-0.40625 0 -0.671875 -0.125q-0.25 -0.125 -0.328125 -0.546875l-0.328125 -1.5q-0.625 0.578125 -1.234375 1.03125q-0.609375 0.453125 -1.28125 0.765625q-0.671875 0.3125 -1.4375 0.46875q-0.765625 0.15625 -1.6875 0.15625q-0.9375 0 -1.765625 -0.25q-0.828125 -0.265625 -1.4375 -0.796875q-0.609375 -0.53125 -0.96875 -1.328125q-0.359375 -0.8125 -0.359375 -1.921875q0 -0.96875 0.53125 -1.84375q0.53125 -0.890625 1.703125 -1.578125q1.171875 -0.6875 3.078125 -1.125q1.90625 -0.453125 4.65625 -0.515625l0 -1.265625q0 -1.875 -0.8125 -2.84375q-0.796875 -0.96875 -2.390625 -0.96875q-1.03125 0 -1.75 0.265625q-0.703125 0.265625 -1.234375 0.59375q-0.515625 0.3125 -0.890625 0.578125q-0.375 0.265625 -0.75 0.265625q-0.28125 0 -0.5 -0.140625q-0.21875 -0.15625 -0.34375 -0.390625l-0.515625 -0.90625q1.34375 -1.296875 2.890625 -1.9375q1.5625 -0.640625 3.453125 -0.640625q1.359375 0 2.40625 0.453125q1.0625 0.453125 1.78125 1.25q0.71875 0.796875 1.078125 1.9375q0.375 1.125 0.375 2.484375l0 10.375zm-7.390625 -1.75q0.75 0 1.375 -0.140625q0.625 -0.15625 1.171875 -0.4375q0.5625 -0.28125 1.0625 -0.671875q0.5 -0.40625 0.984375 -0.921875l0 -3.375q-1.96875 0.0625 -3.34375 0.3125q-1.375 0.25 -2.25 0.65625q-0.859375 0.390625 -1.25 0.9375q-0.390625 0.546875 -0.390625 1.21875q0 0.640625 0.203125 1.109375q0.21875 0.453125 0.5625 0.75q0.359375 0.296875 0.828125 0.4375q0.484375 0.125 1.046875 0.125zm11.72403 1.75l0 -16.203125l1.625 0q0.46875 0 0.640625 0.171875q0.171875 0.171875 0.234375 0.609375l0.203125 2.53125q0.828125 -1.703125 2.046875 -2.65625q1.21875 -0.953125 2.875 -0.953125q0.671875 0 1.21875 0.15625q0.546875 0.15625 1.0 0.421875l-0.359375 2.125q-0.109375 0.40625 -0.5 0.40625q-0.21875 0 -0.6875 -0.15625q-0.46875 -0.15625 -1.296875 -0.15625q-1.484375 0 -2.484375 0.875q-1.0 0.859375 -1.671875 2.515625l0 10.3125l-2.84375 0zm16.052277 -16.203125l0 16.203125l-2.84375 0l0 -16.203125l2.84375 0zm0.640625 -5.09375q0 0.421875 -0.171875 0.78125q-0.15625 0.359375 -0.4375 0.640625q-0.28125 0.28125 -0.65625 0.4375q-0.359375 0.15625 -0.78125 0.15625q-0.40625 0 -0.78125 -0.15625q-0.359375 -0.15625 -0.640625 -0.4375q-0.265625 -0.28125 -0.4375 -0.640625q-0.15625 -0.359375 -0.15625 -0.78125q0 -0.421875 0.15625 -0.796875q0.171875 -0.375 0.4375 -0.65625q0.28125 -0.28125 0.640625 -0.4375q0.375 -0.15625 0.78125 -0.15625q0.421875 0 0.78125 0.15625q0.375 0.15625 0.65625 0.4375q0.28125 0.28125 0.4375 0.65625q0.171875 0.375 0.171875 0.796875zm13.660767 7.765625q-0.1875 0.34375 -0.578125 0.34375q-0.25 0 -0.5625 -0.171875q-0.296875 -0.171875 -0.734375 -0.390625q-0.4375 -0.21875 -1.046875 -0.40625q-0.609375 -0.1875 -1.4375 -0.1875q-0.71875 0 -1.296875 0.1875q-0.578125 0.1875 -0.984375 0.515625q-0.40625 0.3125 -0.625 0.734375q-0.21875 0.421875 -0.21875 0.921875q0 0.625 0.359375 1.046875q0.359375 0.40625 0.953125 0.71875q0.59375 0.296875 1.34375 0.53125q0.75 0.234375 1.546875 0.5q0.796875 0.265625 1.546875 0.59375q0.75 0.3125 1.34375 0.796875q0.59375 0.46875 0.953125 1.171875q0.359375 0.6875 0.359375 1.671875q0 1.109375 -0.40625 2.0625q-0.390625 0.953125 -1.1875 1.65625q-0.78125 0.6875 -1.921875 1.09375q-1.125 0.390625 -2.609375 0.390625q-1.703125 0 -3.078125 -0.546875q-1.375 -0.546875 -2.34375 -1.421875l0.671875 -1.078125q0.140625 -0.21875 0.3125 -0.328125q0.171875 -0.109375 0.46875 -0.109375q0.28125 0 0.59375 0.234375q0.328125 0.21875 0.78125 0.5q0.453125 0.265625 1.09375 0.484375q0.65625 0.21875 1.640625 0.21875q0.828125 0 1.453125 -0.203125q0.625 -0.21875 1.03125 -0.578125q0.421875 -0.375 0.625 -0.859375q0.203125 -0.484375 0.203125 -1.03125q0 -0.671875 -0.359375 -1.109375q-0.359375 -0.4375 -0.953125 -0.75q-0.59375 -0.3125 -1.359375 -0.546875q-0.75 -0.234375 -1.546875 -0.484375q-0.796875 -0.25 -1.5625 -0.578125q-0.75 -0.328125 -1.34375 -0.828125q-0.59375 -0.5 -0.953125 -1.21875q-0.359375 -0.734375 -0.359375 -1.78125q0 -0.921875 0.375 -1.78125q0.390625 -0.859375 1.125 -1.5q0.734375 -0.65625 1.8125 -1.03125q1.078125 -0.390625 2.453125 -0.390625q1.59375 0 2.859375 0.515625q1.28125 0.5 2.203125 1.375l-0.640625 1.046875zm4.6223755 13.53125l0 -23.5625l2.84375 0l0 9.53125q1.03125 -1.109375 2.296875 -1.765625q1.265625 -0.671875 2.921875 -0.671875q1.328125 0 2.34375 0.453125q1.015625 0.4375 1.6875 1.25q0.6875 0.796875 1.03125 1.9375q0.359375 1.125 0.359375 2.515625l0 10.3125l-2.859375 0l0 -10.3125q0 -1.84375 -0.84375 -2.859375q-0.828125 -1.015625 -2.5625 -1.015625q-1.265625 0 -2.359375 0.609375q-1.09375 0.609375 -2.015625 1.640625l0 11.9375l-2.84375 0z" fill-rule="nonzero"/><path fill="#000000" d="m465.6569 525.9541q0.265625 0 0.46875 0.203125l1.21875 1.328125q-1.40625 1.640625 -3.421875 2.546875q-2.0 0.90625 -4.828125 0.90625q-2.484375 0 -4.5 -0.84375q-2.015625 -0.859375 -3.4375 -2.40625q-1.421875 -1.546875 -2.21875 -3.703125q-0.78125 -2.15625 -0.78125 -4.75q0 -2.59375 0.84375 -4.75q0.84375 -2.171875 2.359375 -3.7187195q1.515625 -1.546875 3.640625 -2.40625q2.125 -0.859375 4.671875 -0.859375q2.53125 0 4.359375 0.796875q1.84375 0.78125 3.265625 2.125l-1.015625 1.421875q-0.109375 0.15621948 -0.25 0.26559448q-0.140625 0.09375 -0.421875 0.09375q-0.203125 0 -0.4375 -0.140625q-0.234375 -0.15621948 -0.5625 -0.37496948q-0.3125 -0.234375 -0.75 -0.484375q-0.421875 -0.265625 -1.015625 -0.484375q-0.59375 -0.21875 -1.375 -0.375q-0.78125 -0.15625 -1.8125 -0.15625q-1.828125 0 -3.359375 0.640625q-1.53125 0.625 -2.640625 1.7968445q-1.09375 1.171875 -1.71875 2.859375q-0.609375 1.671875 -0.609375 3.75q0 2.140625 0.609375 3.828125q0.625 1.671875 1.6875 2.84375q1.0625 1.15625 2.515625 1.765625q1.453125 0.59375 3.140625 0.59375q1.015625 0 1.828125 -0.109375q0.828125 -0.125 1.515625 -0.375q0.703125 -0.265625 1.296875 -0.65625q0.609375 -0.390625 1.21875 -0.9375q0.265625 -0.234375 0.515625 -0.234375zm11.873169 -11.734375q1.78125 0 3.203125 0.59375q1.4375 0.59375 2.4375 1.6875q1.0 1.078125 1.53125 2.625q0.546875 1.546875 0.546875 3.453125q0 1.921875 -0.546875 3.453125q-0.53125 1.53125 -1.53125 2.625q-1.0 1.09375 -2.4375 1.671875q-1.421875 0.578125 -3.203125 0.578125q-1.765625 0 -3.203125 -0.578125q-1.4375 -0.578125 -2.453125 -1.671875q-1.0 -1.09375 -1.546875 -2.625q-0.53125 -1.53125 -0.53125 -3.453125q0 -1.90625 0.53125 -3.453125q0.546875 -1.546875 1.546875 -2.625q1.015625 -1.09375 2.453125 -1.6875q1.4375 -0.59375 3.203125 -0.59375zm0 14.46875q2.40625 0 3.578125 -1.609375q1.1875 -1.609375 1.1875 -4.484375q0 -2.890625 -1.1875 -4.5q-1.171875 -1.625 -3.578125 -1.625q-1.203125 0 -2.109375 0.421875q-0.890625 0.40625 -1.5 1.1875q-0.59375 0.78125 -0.890625 1.9375q-0.296875 1.140625 -0.296875 2.578125q0 1.4375 0.296875 2.578125q0.296875 1.125 0.890625 1.90625q0.609375 0.78125 1.5 1.203125q0.90625 0.40625 2.109375 0.40625zm13.698273 -14.203125l0 10.328125q0 1.84375 0.84375 2.859375q0.859375 1.0 2.5625 1.0q1.25 0 2.34375 -0.59375q1.109375 -0.59375 2.046875 -1.640625l0 -11.953125l2.84375 0l0 16.203125l-1.6875 0q-0.609375 0 -0.78125 -0.59375l-0.21875 -1.75q-1.046875 1.171875 -2.359375 1.890625q-1.3125 0.703125 -3.015625 0.703125q-1.328125 0 -2.34375 -0.4375q-1.015625 -0.4375 -1.703125 -1.234375q-0.6875 -0.796875 -1.03125 -1.9375q-0.34375 -1.140625 -0.34375 -2.515625l0 -10.328125l2.84375 0zm15.338928 16.203125l0 -16.203125l1.6875 0q0.609375 0 0.765625 0.59375l0.234375 1.75q1.046875 -1.171875 2.34375 -1.890625q1.3125 -0.71875 3.03125 -0.71875q1.328125 0 2.34375 0.453125q1.015625 0.4375 1.6875 1.25q0.6875 0.796875 1.03125 1.9375q0.359375 1.125 0.359375 2.515625l0 10.3125l-2.859375 0l0 -10.3125q0 -1.84375 -0.84375 -2.859375q-0.828125 -1.015625 -2.5625 -1.015625q-1.265625 0 -2.359375 0.609375q-1.09375 0.609375 -2.015625 1.640625l0 11.9375l-2.84375 0zm28.838928 -13.328125q-0.125 0.171875 -0.25 0.28125q-0.125 0.09375 -0.375 0.09375q-0.234375 0 -0.515625 -0.203125q-0.28125 -0.203125 -0.71875 -0.4375q-0.421875 -0.25 -1.046875 -0.4375q-0.609375 -0.203125 -1.515625 -0.203125q-1.171875 0 -2.09375 0.421875q-0.90625 0.421875 -1.53125 1.21875q-0.609375 0.796875 -0.921875 1.9375q-0.3125 1.140625 -0.3125 2.546875q0 1.46875 0.328125 2.609375q0.34375 1.140625 0.953125 1.921875q0.609375 0.78125 1.484375 1.1875q0.875 0.40625 1.953125 0.40625q1.046875 0 1.71875 -0.25q0.671875 -0.25 1.109375 -0.546875q0.453125 -0.3125 0.734375 -0.546875q0.296875 -0.25 0.578125 -0.25q0.375 0 0.546875 0.265625l0.796875 1.046875q-1.046875 1.296875 -2.640625 1.890625q-1.578125 0.59375 -3.328125 0.59375q-1.53125 0 -2.84375 -0.546875q-1.296875 -0.5625 -2.265625 -1.625q-0.953125 -1.078125 -1.5 -2.625q-0.546875 -1.546875 -0.546875 -3.53125q0 -1.8125 0.5 -3.34375q0.5 -1.53125 1.46875 -2.640625q0.96875 -1.125 2.390625 -1.75q1.421875 -0.625 3.265625 -0.625q1.703125 0 3.015625 0.5625q1.3125 0.546875 2.3125 1.546875l-0.75 1.03125zm7.053406 -2.875l0 16.203125l-2.84375 0l0 -16.203125l2.84375 0zm0.640625 -5.0937195q0 0.421875 -0.171875 0.78125q-0.15625 0.359375 -0.4375 0.640625q-0.28125 0.28125 -0.65625 0.4375q-0.359375 0.15625 -0.78125 0.15625q-0.40625 0 -0.78125 -0.15625q-0.359375 -0.15625 -0.640625 -0.4375q-0.265625 -0.28125 -0.4375 -0.640625q-0.15625 -0.359375 -0.15625 -0.78125q0 -0.421875 0.15625 -0.796875q0.171875 -0.375 0.4375 -0.65625q0.28125 -0.28125 0.640625 -0.4375q0.375 -0.15625 0.78125 -0.15625q0.421875 0 0.78125 0.15625q0.375 0.15625 0.65625 0.4375q0.28125 0.28125 0.4375 0.65625q0.171875 0.375 0.171875 0.796875zm7.5513916 -2.265625l0 23.56247l-2.84375 0l0 -23.56247l2.84375 0z" fill-rule="nonzero"/></g></svg>