<svg version="1.1" viewBox="0.0 0.0 1000.0 1000.0" fill="none" stroke="none" stroke-linecap="square" stroke-miterlimit="10" xmlns:xlink="http://www.w3.org/1999/xlink" xmlns="http://www.w3.org/2000/svg"><clipPath id="gc0d745238d_0_2.0"><path d="m0 0l1000.0 0l0 1000.0l-1000.0 0l0 -1000.0z" clip-rule="nonzero"/></clipPath><g clip-path="url(#gc0d745238d_0_2.0)"><path fill="#ffffff" d="m0 0l1000.0 0l0 1000.0l-1000.0 0z" fill-rule="evenodd"/><path fill="#000000" fill-opacity="0.0" d="m18.897638 18.897638l962.2677 0l0 116.34646l-962.2677 0z" fill-rule="evenodd"/><path fill="#2f2f2f" d="m158.54623 50.463257q1.046875 0 2.640625 -0.03125q1.609375 -0.046875 3.25 -0.09375q1.640625 -0.046875 3.1875 -0.078125q1.5625 -0.046875 2.6875 -0.046875l0 3.203125l-2.953125 0.234375q-1.6875 0.171875 -2.328125 0.40625q-0.640625 0.234375 -0.796875 0.484375q-0.40625 0.390625 -0.5625 1.75q-0.15625 1.359375 -0.15625 4.171875l0 39.59375q1.515625 0.078125 3.90625 0.15625q2.40625 0.078125 5.765625 0.078125q1.921875 0 3.765625 -0.109375q1.84375 -0.125 3.28125 -0.328125q1.4375 -0.203125 2.3125 -0.4375q0.890625 -0.234375 0.96875 -0.484375l1.84375 -8.15625l3.109375 0l-0.875 13.28125l-0.40625 0.640625q-2.390625 0.15625 -5.953125 0.234375q-3.5625 0.078125 -7.640625 0.078125q-2.875 0 -5.0 -0.046875q-2.125 -0.03125 -3.890625 -0.109375q-1.75 -0.078125 -3.390625 -0.125q-1.640625 -0.03125 -3.640625 -0.03125q-2.3125 0 -4.84375 0.078125q-2.515625 0.078125 -4.75 0.15625l0 -1.828125l1.828125 -1.046875q0.5625 -0.3125 0.921875 -0.546875q0.359375 -0.25 0.6875 -0.65625q0.71875 -1.03125 0.71875 -3.84375l0 -36.546875q0 -3.046875 -0.203125 -4.328125q-0.203125 -1.28125 -0.59375 -1.671875q-0.328125 -0.328125 -0.96875 -0.484375q-0.640625 -0.15625 -2.078125 -0.328125l-2.953125 -0.234375l0 -3.203125q2.796875 0.078125 5.875 0.171875q3.078125 0.078125 7.234375 0.078125zm54.00496 16.546875q3.203125 0 6.03125 0.84375q2.84375 0.84375 4.921875 2.609375q2.09375 1.75 3.328125 4.4375q1.234375 2.671875 1.234375 6.28125l0 4.078125q-3.1875 0.875 -6.671875 1.234375q-3.484375 0.359375 -5.796875 0.359375l-10.640625 0q0 2.96875 0.828125 5.453125q0.84375 2.46875 2.4375 4.28125q1.609375 1.796875 4.0 2.796875q2.40625 1.0 5.453125 1.0q2.0 0 4.359375 -0.84375q2.359375 -0.84375 4.28125 -1.96875l0.953125 1.203125l-1.765625 3.84375q-3.59375 1.921875 -6.4375 2.671875q-2.828125 0.765625 -6.359375 0.765625q-8.5625 0 -13.359375 -4.796875q-4.796875 -4.796875 -4.796875 -13.765625q0 -3.515625 0.4375 -5.953125q0.4375 -2.4375 1.328125 -4.28125q1.359375 -2.71875 3.03125 -4.109375q1.6875 -1.40625 4.0 -2.765625q1.28125 -0.8125 2.3125 -1.40625q1.046875 -0.59375 2.078125 -1.03125q1.046875 -0.453125 2.171875 -0.6875q1.125 -0.25 2.640625 -0.25zm-8.078125 15.609375q0.3125 0 1.078125 0.046875q0.765625 0.03125 1.71875 0.078125q0.96875 0.03125 2.046875 0.078125q1.078125 0.03125 1.953125 0.03125q1.359375 0 3.3125 -0.078125q1.96875 -0.078125 3.328125 -0.15625l0 -0.328125q0 -2.234375 -0.28125 -4.1875q-0.28125 -1.96875 -1.046875 -3.4375q-0.75 -1.484375 -2.03125 -2.328125q-1.28125 -0.84375 -3.203125 -0.84375q-3.4375 0 -5.15625 2.6875q-1.71875 2.671875 -1.71875 8.4375zm47.203094 -15.609375q2.71875 0 5.1562347 0.640625q2.4375 0.640625 4.1875 2.046875q1.765625 1.40625 2.8125 3.53125q1.046875 2.109375 1.046875 5.0625q0 0.8125 -0.046875 2.046875q-0.046875 1.234375 -0.09375 2.59375q-0.03125 1.359375 -0.078125 2.84375q-0.03125 1.484375 -0.03125 2.765625q0 1.109375 0 2.078125q0 0.953125 0.03125 2.046875q0.046875 1.078125 0.078125 2.4375q0.046875 1.359375 0.140625 3.28125q0.078125 1.359375 0.4375 2.28125q0.359375 0.90625 1.71875 1.078125l2.390625 0.234375l0 2.953125q-1.75 -0.078125 -3.515625 -0.15625q-1.765625 -0.078125 -3.515625 -0.078125q-1.515625 0 -3.4375 0.078125q-1.921875 0.078125 -3.8437347 0.15625l-0.40625 -0.640625l0.40625 -4.953125l-7.125 5.515625q-0.875 0.71875 -1.84375 0.953125q-0.953125 0.25 -2.875 0.25q-4.5625 0 -6.71875 -2.75q-2.15625 -2.765625 -2.15625 -7.015625q0 -2.546875 0.75 -4.59375q0.765625 -2.046875 2.046875 -3.15625q1.515625 -1.359375 4.0 -2.4375q2.484375 -1.09375 6.875 -1.96875l7.046875 -1.4375q0 -4.3125 -1.96875 -6.875q-1.953125 -2.5625 -6.265625 -2.5625q-0.640625 0 -1.40625 0.078125q-0.765625 0.078125 -1.453125 0.25q-0.671875 0.15625 -1.15625 0.359375q-0.46875 0.1875 -0.546875 0.4375l-1.765625 4.0l-2.40625 -0.5625l0 -5.53125l4.40625 -2.640625q2.078125 -1.265625 4.4375 -1.953125q2.359375 -0.6875 4.6875 -0.6875zm-7.53125 27.28125q0 2.484375 1.234375 3.65625q1.25 1.15625 3.09375 1.15625q0.796875 0 1.75 -0.3125q0.96875 -0.328125 1.890625 -0.8125q0.921875 -0.484375 1.71875 -1.125q0.796875 -0.640625 1.28125 -1.359375l0 -9.4375q-1.28125 0.40625 -3.25 0.890625q-1.953125 0.46875 -3.625 1.109375q-2.09375 0.875 -3.09375 2.28125q-1.0 1.40625 -1.0 3.953125zm67.687485 -46.71875l0 49.53125q0 1.75 0.109375 2.5625q0.125 0.796875 0.296875 1.03125q0.3125 0.640625 1.0625 0.84375q0.765625 0.203125 1.484375 0.28125l2.5625 0.15625l0 2.953125q-2.234375 -0.078125 -4.796875 -0.15625q-2.5625 -0.078125 -4.0 -0.078125q-1.125 0 -2.765625 0.078125q-1.640625 0.078125 -3.71875 0.15625l-0.390625 -0.640625l0.390625 -6.0l-8.3125 6.8125q-0.875 0.71875 -2.078125 0.828125q-1.203125 0.125 -2.328125 0.125q-3.59375 0 -6.359375 -1.515625q-2.75 -1.53125 -4.640625 -4.0q-1.875 -2.484375 -2.84375 -5.71875q-0.9531555 -3.25 -0.9531555 -6.609375q0 -5.75 1.5156555 -9.3125q1.53125 -3.5625 4.96875 -5.890625l5.75 -3.75q3.359375 -2.25 7.125 -2.25q2.328125 0 4.125 0.5625q1.796875 0.5625 4.03125 1.4375l0 -10.46875q0 -2.078125 -0.125 -3.0q-0.109375 -0.921875 -0.515625 -1.328125q-0.234375 -0.234375 -0.515625 -0.34375q-0.28125 -0.125 -0.921875 -0.21875l-4.234375 -0.234375l0 -2.875q2.15625 -0.25 4.71875 -0.609375q2.5625 -0.359375 4.953125 -1.078125l5.765625 -1.75l0.640625 0.46875zm-27.203125 37.125q0 2.40625 0.515625 4.890625q0.53125 2.46875 1.609375 4.4375q1.078125 1.953125 2.828125 3.203125q1.765625 1.234375 4.25 1.234375q1.765625 0 3.28125 -0.5625q1.515625 -0.5625 2.640625 -1.4375q1.03125 -0.890625 1.671875 -1.96875q0.640625 -1.078125 0.640625 -2.671875l0 -14.640625q-1.59375 -2.25 -3.921875 -3.640625q-2.3125 -1.40625 -5.03125 -1.40625q-2.71875 0 -4.359375 1.078125q-1.640625 1.078125 -2.5625 2.84375q-0.921875 1.765625 -1.25 4.046875q-0.3125 2.28125 -0.3125 4.59375zm56.80182 -17.6875q3.203125 0 6.03125 0.84375q2.84375 0.84375 4.921875 2.609375q2.09375 1.75 3.328125 4.4375q1.234375 2.671875 1.234375 6.28125l0 4.078125q-3.1875 0.875 -6.671875 1.234375q-3.484375 0.359375 -5.796875 0.359375l-10.640625 0q0 2.96875 0.828125 5.453125q0.84375 2.46875 2.4375 4.28125q1.609375 1.796875 4.0 2.796875q2.40625 1.0 5.453125 1.0q2.0 0 4.359375 -0.84375q2.359375 -0.84375 4.28125 -1.96875l0.953125 1.203125l-1.765625 3.84375q-3.59375 1.921875 -6.4375 2.671875q-2.828125 0.765625 -6.359375 0.765625q-8.5625 0 -13.359375 -4.796875q-4.796875 -4.796875 -4.796875 -13.765625q0 -3.515625 0.4375 -5.953125q0.4375 -2.4375 1.328125 -4.28125q1.359375 -2.71875 3.03125 -4.109375q1.6875 -1.40625 4.0 -2.765625q1.28125 -0.8125 2.3125 -1.40625q1.046875 -0.59375 2.078125 -1.03125q1.046875 -0.453125 2.171875 -0.6875q1.125 -0.25 2.640625 -0.25zm-8.078125 15.609375q0.3125 0 1.078125 0.046875q0.765625 0.03125 1.71875 0.078125q0.96875 0.03125 2.046875 0.078125q1.078125 0.03125 1.953125 0.03125q1.359375 0 3.3125 -0.078125q1.96875 -0.078125 3.328125 -0.15625l0 -0.328125q0 -2.234375 -0.28125 -4.1875q-0.28125 -1.96875 -1.046875 -3.4375q-0.75 -1.484375 -2.03125 -2.328125q-1.28125 -0.84375 -3.203125 -0.84375q-3.4375 0 -5.15625 2.6875q-1.71875 2.671875 -1.71875 8.4375zm44.56247 -15.125l0 7.609375l3.515625 -3.84375q1.59375 -1.6875 3.078125 -2.96875q1.484375 -1.28125 3.25 -1.28125q0.953125 0 1.875 0.09375q0.921875 0.078125 1.5625 0.390625l-0.40625 10.328125l-1.921875 0.796875q-1.4375 -2.875 -4.71875 -2.875q-1.03125 0 -2.15625 0.4375q-1.125 0.4375 -2.15625 1.3125q-1.921875 1.6875 -1.921875 3.359375l0 15.53125q0 3.515625 0.390625 4.234375q0.328125 0.5625 1.328125 0.84375q1.0 0.28125 2.125 0.359375l3.109375 0.15625l0 2.953125q-3.03125 -0.078125 -6.390625 -0.15625q-3.359375 -0.078125 -5.609375 -0.078125q-2.234375 0 -5.203125 0.078125q-2.953125 0.078125 -5.1875 0.15625l0 -2.953125l2.71875 -0.15625q1.921875 -0.078125 2.390625 -0.890625q0.25 -0.3125 0.40625 -1.1875q0.15625 -0.890625 0.15625 -2.8125l0 -18.46875q0 -2.328125 -0.15625 -3.15625q-0.15625 -0.84375 -0.5625 -1.25q-0.15625 -0.15625 -0.40625 -0.28125q-0.234375 -0.125 -1.109375 -0.203125l-3.4375 -0.234375l0 -2.875q2.234375 -0.328125 4.46875 -0.640625q2.25 -0.328125 4.328125 -0.96875l5.84375 -1.84375l0.796875 0.484375zm53.76056 -0.484375q2.71875 0 5.15625 0.640625q2.4375 0.640625 4.1875 2.046875q1.765625 1.40625 2.8125 3.53125q1.046875 2.109375 1.046875 5.0625q0 0.8125 -0.046875 2.046875q-0.046875 1.234375 -0.09375 2.59375q-0.03125 1.359375 -0.078125 2.84375q-0.03125 1.484375 -0.03125 2.765625q0 1.109375 0 2.078125q0 0.953125 0.03125 2.046875q0.046875 1.078125 0.078125 2.4375q0.046875 1.359375 0.140625 3.28125q0.078125 1.359375 0.4375 2.28125q0.359375 0.90625 1.71875 1.078125l2.390625 0.234375l0 2.953125q-1.75 -0.078125 -3.515625 -0.15625q-1.765625 -0.078125 -3.515625 -0.078125q-1.515625 0 -3.4375 0.078125q-1.921875 0.078125 -3.84375 0.15625l-0.40625 -0.640625l0.40625 -4.953125l-7.125 5.515625q-0.875 0.71875 -1.84375 0.953125q-0.953125 0.25 -2.875 0.25q-4.5625 0 -6.71875 -2.75q-2.15625 -2.765625 -2.15625 -7.015625q0 -2.546875 0.75 -4.59375q0.765625 -2.046875 2.046875 -3.15625q1.515625 -1.359375 4.0 -2.4375q2.484375 -1.09375 6.875 -1.96875l7.046875 -1.4375q0 -4.3125 -1.96875 -6.875q-1.953125 -2.5625 -6.265625 -2.5625q-0.640625 0 -1.40625 0.078125q-0.765625 0.078125 -1.453125 0.25q-0.671875 0.15625 -1.15625 0.359375q-0.46875 0.1875 -0.546875 0.4375l-1.765625 4.0l-2.40625 -0.5625l0 -5.53125l4.40625 -2.640625q2.078125 -1.265625 4.4375 -1.953125q2.359375 -0.6875 4.6875 -0.6875zm-7.53125 27.28125q0 2.484375 1.234375 3.65625q1.25 1.15625 3.09375 1.15625q0.796875 0 1.75 -0.3125q0.96875 -0.328125 1.890625 -0.8125q0.921875 -0.484375 1.71875 -1.125q0.796875 -0.640625 1.28125 -1.359375l0 -9.4375q-1.28125 0.40625 -3.25 0.890625q-1.953125 0.46875 -3.625 1.109375q-2.09375 0.875 -3.09375 2.28125q-1.0 1.40625 -1.0 3.953125zm44.40622 -26.796875l0 6.0l6.40625 -4.953125q1.1875 -0.890625 2.546875 -1.203125q1.375 -0.328125 3.53125 -0.328125q2.875 0 5.15625 0.96875q2.28125 0.953125 3.40625 2.15625q2.078125 2.15625 2.546875 5.15625q0.484375 3.0 0.484375 6.359375l0 15.453125q0 1.75 0.15625 2.59375q0.171875 0.84375 0.328125 1.15625q0.3125 0.484375 0.953125 0.6875q0.640625 0.203125 1.53125 0.28125l2.546875 0.15625l0 2.953125q-1.90625 -0.078125 -4.078125 -0.15625q-2.15625 -0.078125 -3.28125 -0.078125q-2.3125 0 -4.390625 0.078125q-2.078125 0.078125 -3.515625 0.15625l0 -22.078125q0 -4.5625 -1.734375 -6.75q-1.71875 -2.203125 -6.03125 -2.203125q-1.609375 0 -2.6875 0.515625q-1.078125 0.515625 -1.953125 1.328125q-0.96875 0.875 -1.453125 1.84375q-0.46875 0.953125 -0.46875 1.75l0 17.4375q0 1.359375 0.078125 2.53125q0.078125 1.15625 0.484375 1.625q0.484375 0.8125 2.390625 0.890625l2.734375 0.15625l0 2.953125q-0.96875 0 -2.328125 -0.046875q-1.359375 -0.03125 -2.890625 -0.078125q-1.515625 -0.03125 -2.953125 -0.078125q-1.4375 -0.03125 -2.5625 -0.03125q-2.234375 0 -5.125 0.078125q-2.875 0.078125 -5.265625 0.15625l0 -2.953125l2.71875 -0.15625q1.921875 -0.078125 2.40625 -0.890625q0.234375 -0.3125 0.390625 -1.234375q0.15625 -0.921875 0.15625 -2.765625l0 -18.46875q0 -2.328125 -0.15625 -3.15625q-0.15625 -0.84375 -0.5625 -1.25q-0.15625 -0.15625 -0.40625 -0.28125q-0.234375 -0.125 -1.03125 -0.203125l-3.515625 -0.234375l0 -2.875q3.671875 -0.078125 7.03125 -1.0q3.359375 -0.921875 7.921875 -2.453125l0.484375 0.484375zm72.161255 -19.921875l0 49.53125q0 1.75 0.109375 2.5625q0.125 0.796875 0.296875 1.03125q0.3125 0.640625 1.0625 0.84375q0.765625 0.203125 1.484375 0.28125l2.5625 0.15625l0 2.953125q-2.234375 -0.078125 -4.796875 -0.15625q-2.5625 -0.078125 -4.0 -0.078125q-1.125 0 -2.765625 0.078125q-1.640625 0.078125 -3.71875 0.15625l-0.39068604 -0.640625l0.39068604 -6.0l-8.312561 6.8125q-0.875 0.71875 -2.078125 0.828125q-1.203125 0.125 -2.328125 0.125q-3.59375 0 -6.3593445 -1.515625q-2.75 -1.53125 -4.640625 -4.0q-1.875 -2.484375 -2.84375 -5.71875q-0.953125 -3.25 -0.953125 -6.609375q0 -5.75 1.515625 -9.3125q1.53125 -3.5625 4.96875 -5.890625l5.7499695 -3.75q3.359375 -2.25 7.125 -2.25q2.328125 0 4.125 0.5625q1.796875 0.5625 4.031311 1.4375l0 -10.46875q0 -2.078125 -0.12506104 -3.0q-0.109375 -0.921875 -0.515625 -1.328125q-0.234375 -0.234375 -0.515625 -0.34375q-0.28125 -0.125 -0.921875 -0.21875l-4.234375 -0.234375l0 -2.875q2.15625 -0.25 4.71875 -0.609375q2.562561 -0.359375 4.953186 -1.078125l5.765625 -1.75l0.640625 0.46875zm-27.203186 37.125q0 2.40625 0.515625 4.890625q0.53125 2.46875 1.609375 4.4375q1.078125 1.953125 2.828125 3.203125q1.765625 1.234375 4.25 1.234375q1.765625 0 3.28125 -0.5625q1.515625 -0.5625 2.640625 -1.4375q1.03125 -0.890625 1.671875 -1.96875q0.64068604 -1.078125 0.64068604 -2.671875l0 -14.640625q-1.593811 -2.25 -3.921936 -3.640625q-2.3125 -1.40625 -5.03125 -1.40625q-2.71875 0 -4.359375 1.078125q-1.640625 1.078125 -2.5625 2.84375q-0.921875 1.765625 -1.25 4.046875q-0.3125 2.28125 -0.3125 4.59375zm91.036194 -35.59375q3.125 0 5.640625 0.203125q2.53125 0.1875 4.796875 0.671875q2.28125 0.484375 4.484375 1.203125q2.203125 0.71875 4.609375 1.671875l0.46875 0.890625q-0.46875 1.828125 -0.875 4.75q-0.40625 2.921875 -0.953125 7.484375l-3.125 0l-0.40625 -6.875q-2.875 -3.046875 -6.515625 -4.28125q-3.640625 -1.25 -7.875 -1.25q-4.640625 0 -8.40625 1.53125q-3.75 1.515625 -6.390625 4.40625q-2.640625 2.875 -4.09375 6.953125q-1.4375 4.078125 -1.4375 9.1875q0 5.6875 1.640625 10.375q1.640625 4.671875 4.671875 7.953125q3.046875 3.28125 7.40625 5.078125q4.359375 1.796875 9.890625 1.796875q1.921875 0 3.953125 -0.3125q2.046875 -0.328125 4.046875 -0.84375q2.0 -0.515625 3.875 -1.28125q1.875 -0.765625 3.40625 -1.640625l0.953125 0.96875l-1.765625 3.90625q-4.15625 2.5625 -8.875 3.484375q-4.71875 0.921875 -9.515625 0.921875q-7.359375 0 -13.203125 -2.03125q-5.84375 -2.046875 -9.96875 -5.890625q-4.109375 -3.84375 -6.3125 -9.28125q-2.203125 -5.4375 -2.203125 -12.15625q0 -6.71875 2.515625 -11.875q2.53125 -5.171875 6.890625 -8.640625q4.359375 -3.484375 10.1875 -5.28125q5.84375 -1.796875 12.484375 -1.796875zm42.650635 17.90625q2.71875 0 5.15625 0.640625q2.4375 0.640625 4.1875 2.046875q1.765625 1.40625 2.8125 3.53125q1.046875 2.109375 1.046875 5.0625q0 0.8125 -0.046875 2.046875q-0.046875 1.234375 -0.09375 2.59375q-0.03125 1.359375 -0.078125 2.84375q-0.03125 1.484375 -0.03125 2.765625q0 1.109375 0 2.078125q0 0.953125 0.03125 2.046875q0.046875 1.078125 0.078125 2.4375q0.046875 1.359375 0.140625 3.28125q0.078125 1.359375 0.4375 2.28125q0.359375 0.90625 1.71875 1.078125l2.390625 0.234375l0 2.953125q-1.75 -0.078125 -3.515625 -0.15625q-1.765625 -0.078125 -3.515625 -0.078125q-1.515625 0 -3.4375 0.078125q-1.921875 0.078125 -3.84375 0.15625l-0.40625 -0.640625l0.40625 -4.953125l-7.125 5.515625q-0.875 0.71875 -1.84375 0.953125q-0.953125 0.25 -2.875 0.25q-4.5625 0 -6.71875 -2.75q-2.15625 -2.765625 -2.15625 -7.015625q0 -2.546875 0.75 -4.59375q0.765625 -2.046875 2.046875 -3.15625q1.515625 -1.359375 4.0 -2.4375q2.484375 -1.09375 6.875 -1.96875l7.046875 -1.4375q0 -4.3125 -1.96875 -6.875q-1.953125 -2.5625 -6.265625 -2.5625q-0.640625 0 -1.40625 0.078125q-0.765625 0.078125 -1.453125 0.25q-0.671875 0.15625 -1.15625 0.359375q-0.46875 0.1875 -0.546875 0.4375l-1.765625 4.0l-2.40625 -0.5625l0 -5.53125l4.40625 -2.640625q2.078125 -1.265625 4.4375 -1.953125q2.359375 -0.6875 4.6875 -0.6875zm-7.53125 27.28125q0 2.484375 1.234375 3.65625q1.25 1.15625 3.09375 1.15625q0.796875 0 1.75 -0.3125q0.96875 -0.328125 1.890625 -0.8125q0.921875 -0.484375 1.71875 -1.125q0.796875 -0.640625 1.28125 -1.359375l0 -9.4375q-1.28125 0.40625 -3.25 0.890625q-1.953125 0.46875 -3.625 1.109375q-2.09375 0.875 -3.09375 2.28125q-1.0 1.40625 -1.0 3.953125zm43.921753 -46.71875l0 26.484375l4.890625 -3.921875q1.75 -1.4375 3.625 -2.28125q1.890625 -0.84375 4.6875 -0.84375q3.203125 0 5.84375 1.171875q2.640625 1.15625 4.5625 3.15625q1.921875 2.0 2.953125 4.71875q1.046875 2.71875 1.046875 5.84375q0 4.390625 -1.53125 8.640625q-1.515625 4.234375 -4.796875 7.03125q-1.671875 1.53125 -3.84375 2.9375q-2.15625 1.390625 -4.3125 2.828125q-2.078125 1.359375 -3.96875 2.03125q-1.875 0.6875 -3.953125 0.6875q-3.359375 0 -5.96875 -0.84375q-2.59375 -0.828125 -4.828125 -2.109375l-3.125 2.546875l-1.75 -0.640625q0.46875 -4.234375 0.59375 -7.90625q0.125 -3.6875 0.125 -6.25l0 -32.234375q0 -2.078125 -0.171875 -3.078125q-0.15625 -1.0 -0.546875 -1.40625q-0.328125 -0.3125 -0.890625 -0.390625q-0.5625 -0.09375 -1.921875 -0.171875l-2.796875 -0.15625l0 -2.875q2.640625 -0.328125 4.921875 -0.640625q2.28125 -0.328125 4.765625 -1.046875l5.75 -1.75l0.640625 0.46875zm0 48.640625q1.359375 2.078125 3.484375 3.25q2.125 1.15625 4.6875 1.15625q2.546875 0 4.3125 -1.15625q1.765625 -1.171875 2.875 -3.125q1.125 -1.953125 1.640625 -4.46875q0.53125 -2.53125 0.53125 -5.25q0 -2.484375 -0.609375 -4.765625q-0.59375 -2.28125 -1.796875 -3.953125q-1.203125 -1.6875 -3.078125 -2.6875q-1.875 -1.0 -4.515625 -1.0q-2.171875 0 -4.296875 1.09375q-2.109375 1.078125 -3.234375 2.90625l0 18.0zm44.95813 -48.0q2.5625 0 4.28125 1.71875q1.71875 1.71875 1.71875 4.359375q0 2.484375 -1.796875 4.203125q-1.796875 1.71875 -4.203125 1.71875q-2.390625 0 -4.203125 -1.71875q-1.796875 -1.71875 -1.796875 -4.203125q0 -2.640625 1.71875 -4.359375q1.734375 -1.71875 4.28125 -1.71875zm5.203125 19.28125l0 29.28125q0 1.359375 0.078125 2.53125q0.078125 1.15625 0.484375 1.625q0.484375 0.8125 2.40625 0.890625l2.71875 0.15625l0 2.953125q-0.96875 0 -2.328125 -0.046875q-1.359375 -0.03125 -2.875 -0.078125q-1.515625 -0.03125 -2.96875 -0.078125q-1.4375 -0.03125 -2.546875 -0.03125q-1.125 0 -2.890625 0.03125q-1.75 0.046875 -3.4375 0.125q-2.0 0.078125 -4.078125 0.078125l0 -2.953125l2.71875 -0.15625q1.921875 -0.078125 2.40625 -0.890625q0.234375 -0.3125 0.390625 -1.234375q0.171875 -0.921875 0.171875 -2.765625l0 -18.46875q0 -2.328125 -0.171875 -3.15625q-0.15625 -0.84375 -0.546875 -1.25q-0.171875 -0.15625 -0.40625 -0.28125q-0.234375 -0.125 -1.125 -0.203125l-3.4375 -0.234375l0 -2.875q2.328125 -0.328125 4.5625 -0.640625q2.234375 -0.328125 4.484375 -1.046875l5.59375 -1.765625l0.796875 0.484375zm25.843018 0l0 6.0l6.40625 -4.953125q1.1875 -0.890625 2.546875 -1.203125q1.375 -0.328125 3.53125 -0.328125q2.875 0 5.15625 0.96875q2.28125 0.953125 3.40625 2.15625q2.078125 2.15625 2.546875 5.15625q0.484375 3.0 0.484375 6.359375l0 15.453125q0 1.75 0.15625 2.59375q0.171875 0.84375 0.328125 1.15625q0.3125 0.484375 0.953125 0.6875q0.640625 0.203125 1.53125 0.28125l2.546875 0.15625l0 2.953125q-1.90625 -0.078125 -4.078125 -0.15625q-2.15625 -0.078125 -3.28125 -0.078125q-2.3125 0 -4.390625 0.078125q-2.078125 0.078125 -3.515625 0.15625l0 -22.078125q0 -4.5625 -1.734375 -6.75q-1.71875 -2.203125 -6.03125 -2.203125q-1.609375 0 -2.6875 0.515625q-1.078125 0.515625 -1.953125 1.328125q-0.96875 0.875 -1.453125 1.84375q-0.46875 0.953125 -0.46875 1.75l0 17.4375q0 1.359375 0.078125 2.53125q0.078125 1.15625 0.484375 1.625q0.484375 0.8125 2.390625 0.890625l2.734375 0.15625l0 2.953125q-0.96875 0 -2.328125 -0.046875q-1.359375 -0.03125 -2.890625 -0.078125q-1.515625 -0.03125 -2.953125 -0.078125q-1.4375 -0.03125 -2.5625 -0.03125q-2.234375 0 -5.125 0.078125q-2.875 0.078125 -5.265625 0.15625l0 -2.953125l2.71875 -0.15625q1.921875 -0.078125 2.40625 -0.890625q0.234375 -0.3125 0.390625 -1.234375q0.15625 -0.921875 0.15625 -2.765625l0 -18.46875q0 -2.328125 -0.15625 -3.15625q-0.15625 -0.84375 -0.5625 -1.25q-0.15625 -0.15625 -0.40625 -0.28125q-0.234375 -0.125 -1.03125 -0.203125l-3.515625 -0.234375l0 -2.875q3.671875 -0.078125 7.03125 -1.0q3.359375 -0.921875 7.921875 -2.453125l0.484375 0.484375zm52.880005 -0.484375q3.203125 0 6.03125 0.84375q2.84375 0.84375 4.921875 2.609375q2.09375 1.75 3.328125 4.4375q1.234375 2.671875 1.234375 6.28125l0 4.078125q-3.1875 0.875 -6.671875 1.234375q-3.484375 0.359375 -5.796875 0.359375l-10.640625 0q0 2.96875 0.828125 5.453125q0.84375 2.46875 2.4375 4.28125q1.609375 1.796875 4.0 2.796875q2.40625 1.0 5.453125 1.0q2.0 0 4.359375 -0.84375q2.359375 -0.84375 4.28125 -1.96875l0.953125 1.203125l-1.765625 3.84375q-3.59375 1.921875 -6.4375 2.671875q-2.828125 0.765625 -6.359375 0.765625q-8.5625 0 -13.359375 -4.796875q-4.796875 -4.796875 -4.796875 -13.765625q0 -3.515625 0.4375 -5.953125q0.4375 -2.4375 1.328125 -4.28125q1.359375 -2.71875 3.03125 -4.109375q1.6875 -1.40625 4.0 -2.765625q1.28125 -0.8125 2.3125 -1.40625q1.046875 -0.59375 2.078125 -1.03125q1.046875 -0.453125 2.171875 -0.6875q1.125 -0.25 2.640625 -0.25zm-8.078125 15.609375q0.3125 0 1.078125 0.046875q0.765625 0.03125 1.71875 0.078125q0.96875 0.03125 2.046875 0.078125q1.078125 0.03125 1.953125 0.03125q1.359375 0 3.3125 -0.078125q1.96875 -0.078125 3.328125 -0.15625l0 -0.328125q0 -2.234375 -0.28125 -4.1875q-0.28125 -1.96875 -1.046875 -3.4375q-0.75 -1.484375 -2.03125 -2.328125q-1.28125 -0.84375 -3.203125 -0.84375q-3.4375 0 -5.15625 2.6875q-1.71875 2.671875 -1.71875 8.4375zm44.312378 -27.6875q-0.546875 2.71875 -0.75 5.640625q-0.203125 2.921875 -0.203125 4.921875l0 4.96875l9.125 -0.484375l-0.640625 5.203125l-8.484375 0l0 18.953125q0 2.96875 1.03125 4.125q1.046875 1.15625 3.921875 1.15625q1.125 0 1.875 -0.234375q0.765625 -0.25 1.8125 -0.796875l0.640625 1.515625l-3.921875 4.71875q-0.640625 0.71875 -1.96875 1.078125q-1.3125 0.359375 -2.90625 0.359375q-5.6875 0 -7.96875 -2.515625q-2.28125 -2.53125 -2.28125 -7.71875l0 -20.640625l-5.109375 0.3125l0 -1.75l5.28125 -3.453125l0 -4.71875q0 -1.1875 -0.046875 -2.5q-0.046875 -1.328125 -0.125 -2.453125q-0.078125 -1.28125 -0.15625 -2.484375q2.640625 -0.953125 5.234375 -2.03125q2.609375 -1.09375 4.53125 -1.96875l1.109375 0.796875z" fill-rule="nonzero"/><path fill="#000000" fill-opacity="0.0" d="m18.897638 838.7139l962.2677 0l0 161.29132l-962.2677 0z" fill-rule="evenodd"/><path fill="#2f2f2f" d="m252.64493 903.2802q2.296875 0 4.53125 0.40625q2.234375 0.40625 4.390625 1.21875l0.234375 0.578125q-0.328125 1.015625 -0.5 2.890625q-0.171875 1.859375 -0.171875 3.921875l-1.96875 0l-0.28125 -3.921875q-1.109375 -1.203125 -2.90625 -1.921875q-1.796875 -0.71875 -3.484375 -0.71875q-3.3125 0 -4.9375 1.6875q-1.625 1.671875 -1.625 4.109375q0 1.546875 1.140625 2.75q1.15625 1.1875 3.9375 1.90625l5.46875 1.4375q3.3125 0.875 5.28125 2.921875q1.96875 2.03125 1.96875 5.34375q0 3.0625 -1.171875 5.25q-1.171875 2.1875 -3.140625 3.609375q-1.96875 1.40625 -4.5 2.046875q-2.515625 0.65625 -5.25 0.65625q-2.59375 0 -5.15625 -0.546875q-2.5625 -0.546875 -4.875 -1.65625q0.234375 -1.0625 0.46875 -3.0q0.25 -1.953125 0.25 -5.3125l1.921875 0l0.34375 4.234375q0.421875 0.8125 1.3125 1.484375q0.890625 0.671875 1.9375 1.15625q1.0625 0.46875 2.1875 0.765625q1.125 0.28125 2.09375 0.28125q1.578125 0 2.9375 -0.40625q1.375 -0.40625 2.40625 -1.21875q1.03125 -0.8125 1.609375 -1.984375q0.578125 -1.1875 0.578125 -2.71875q0 -3.265625 -3.984375 -4.46875l-6.71875 -2.015625q-1.484375 -0.4375 -2.78125 -1.171875q-1.296875 -0.75 -2.234375 -1.78125q-0.9375 -1.03125 -1.46875 -2.34375q-0.515625 -1.328125 -0.515625 -2.90625q0 -5.1875 3.375 -7.875q3.390625 -2.6875 9.296875 -2.6875zm27.265564 10.75q5.515625 0 8.3125 2.9375q2.8125 2.921875 2.8125 8.296875q0 5.8125 -3.046875 9.0q-3.046875 3.1875 -9.09375 3.1875q-5.234375 0 -8.0 -3.046875q-2.75 -3.046875 -2.75 -8.5625q0 -5.671875 3.0 -8.734375q3.0 -3.078125 8.765625 -3.078125zm-5.234375 10.421875q0 1.765625 0.15625 3.671875q0.171875 1.890625 0.75 3.453125q0.578125 1.5625 1.609375 2.578125q1.03125 1.0 2.765625 1.0q1.71875 0 2.625 -0.90625q0.921875 -0.921875 1.34375 -2.234375q0.4375 -1.328125 0.5 -2.765625q0.078125 -1.4375 0.078125 -2.546875q0 -5.609375 -1.34375 -7.984375q-1.34375 -2.375 -3.734375 -2.375q-1.546875 0 -2.484375 0.71875q-0.921875 0.71875 -1.4375 1.875q-0.5 1.140625 -0.671875 2.609375q-0.15625 1.46875 -0.15625 2.90625zm28.703674 -10.125l0 12.953125q0 1.296875 0.140625 2.359375q0.140625 1.046875 0.5625 1.84375q0.4375 0.78125 1.1875 1.21875q0.75 0.4375 2.0 0.4375q1.625 0 3.015625 -1.25q0.671875 -0.578125 1.046875 -1.265625q0.390625 -0.703125 0.390625 -1.71875l0 -8.015625q0 -1.390625 -0.09375 -1.890625q-0.09375 -0.5 -0.328125 -0.75q-0.109375 -0.09375 -0.25 -0.15625q-0.140625 -0.078125 -0.671875 -0.125l-2.0625 -0.140625l0 -1.734375q1.390625 -0.1875 2.734375 -0.375q1.34375 -0.203125 2.6875 -0.625l3.359375 -1.0625l0.484375 0.296875l0 17.75q0 1.0625 0.09375 1.59375q0.09375 0.515625 0.25 0.71875q0.28125 0.46875 1.484375 0.515625l1.484375 0.109375l0 1.765625q-1.4375 -0.046875 -2.8125 -0.09375q-1.359375 -0.046875 -2.46875 -0.046875q-0.671875 0 -1.703125 0.046875q-1.03125 0.046875 -2.421875 0.09375l0.234375 -3.984375l-3.640625 3.5625q-1.203125 1.09375 -3.125 1.09375q-3.9375 0 -5.6875 -2.0625q-1.75 -2.0625 -1.75 -5.421875l0 -9.078125q0 -1.390625 -0.09375 -1.890625q-0.09375 -0.5 -0.34375 -0.75q-0.09375 -0.09375 -0.234375 -0.15625q-0.140625 -0.078125 -0.671875 -0.125l-2.0625 -0.140625l0 -1.734375q1.390625 -0.1875 2.734375 -0.375q1.34375 -0.203125 2.6875 -0.625l3.359375 -1.0625l0.484375 0.296875zm29.421814 -7.546875q-0.34375 1.640625 -0.46875 3.390625q-0.109375 1.75 -0.109375 2.953125l0 2.96875l5.46875 -0.28125l-0.375 3.109375l-5.09375 0l0 11.375q0 1.78125 0.625 2.484375q0.625 0.6875 2.34375 0.6875q0.671875 0 1.125 -0.140625q0.46875 -0.140625 1.09375 -0.484375l0.375 0.921875l-2.34375 2.828125q-0.390625 0.4375 -1.1875 0.640625q-0.78125 0.21875 -1.75 0.21875q-3.40625 0 -4.78125 -1.5q-1.359375 -1.515625 -1.359375 -4.640625l0 -12.390625l-3.0625 0.203125l0 -1.0625l3.15625 -2.0625l0 -2.828125q0 -0.71875 -0.03125 -1.515625q-0.015625 -0.796875 -0.0625 -1.46875q-0.046875 -0.765625 -0.09375 -1.484375q1.578125 -0.578125 3.140625 -1.21875q1.5625 -0.65625 2.71875 -1.1875l0.671875 0.484375zm15.843414 -4.40625l0 15.546875l3.828125 -2.984375q0.71875 -0.515625 1.53125 -0.703125q0.828125 -0.203125 2.125 -0.203125q1.71875 0 3.09375 0.578125q1.375 0.578125 2.046875 1.296875q1.234375 1.296875 1.515625 3.09375q0.296875 1.796875 0.296875 3.8125l0 9.265625q0 1.0625 0.09375 1.5625q0.109375 0.5 0.203125 0.703125q0.1875 0.28125 0.5625 0.40625q0.390625 0.109375 0.921875 0.15625l1.53125 0.109375l0 1.765625q-1.140625 -0.046875 -2.4375 -0.09375q-1.296875 -0.046875 -1.96875 -0.046875q-1.390625 0 -2.640625 0.046875q-1.25 0.046875 -2.109375 0.09375l0 -13.25q0 -2.734375 -1.046875 -4.046875q-1.03125 -1.328125 -3.609375 -1.328125q-0.96875 0 -1.625 0.3125q-0.640625 0.3125 -1.171875 0.796875q-0.578125 0.53125 -0.859375 1.109375q-0.28125 0.5625 -0.28125 1.046875l0 10.46875q0 0.8125 0.046875 1.515625q0.046875 0.6875 0.28125 0.984375q0.296875 0.46875 1.4375 0.515625l1.640625 0.109375l0 1.765625q-0.578125 0 -1.40625 -0.03125q-0.8125 -0.015625 -1.71875 -0.046875q-0.90625 -0.015625 -1.78125 -0.046875q-0.859375 -0.015625 -1.53125 -0.015625q-1.34375 0 -3.078125 0.046875q-1.71875 0.046875 -3.15625 0.09375l0 -1.765625l1.625 -0.109375q1.15625 -0.046875 1.4375 -0.515625q0.15625 -0.203125 0.25 -0.75q0.09375 -0.546875 0.09375 -1.65625l0 -23.046875q0 -1.390625 -0.09375 -1.890625q-0.09375 -0.5 -0.34375 -0.75q-0.09375 -0.09375 -0.234375 -0.15625q-0.140625 -0.078125 -0.625 -0.125l-2.109375 -0.140625l0 -1.734375q1.390625 -0.1875 2.734375 -0.40625q1.34375 -0.21875 2.6875 -0.59375l3.453125 -1.0625l0.390625 0.296875zm50.296844 28.21875q0 1.828125 0.09375 2.59375q0.09375 0.765625 0.34375 1.0q0.140625 0.203125 0.546875 0.328125q0.40625 0.109375 1.265625 0.203125l1.828125 0.140625l0 1.921875q-1.25 -0.046875 -3.1875 -0.09375q-1.9375 -0.046875 -4.15625 -0.046875q-0.859375 0 -1.921875 0.015625q-1.046875 0.03125 -2.109375 0.046875q-1.046875 0.03125 -1.984375 0.046875q-0.9375 0.03125 -1.5625 0.03125l0 -1.921875l1.828125 -0.140625q0.859375 -0.09375 1.265625 -0.203125q0.40625 -0.125 0.546875 -0.328125q0.25 -0.234375 0.34375 -1.046875q0.09375 -0.8125 0.09375 -2.5l0 -23.71875l-5.671875 0q-1.1875 0 -1.890625 0.078125q-0.6875 0.078125 -0.984375 0.3125q-0.234375 0.1875 -0.34375 0.5q-0.09375 0.3125 -0.140625 0.703125l-0.234375 3.3125l-1.921875 0q-0.09375 -3.125 -0.296875 -4.9375q-0.1875 -1.828125 -0.328125 -2.703125l0.296875 -0.234375q3.734375 0.046875 7.484375 0.09375q3.75 0.046875 7.390625 0.046875q3.75 0 7.46875 -0.046875q3.71875 -0.046875 7.453125 -0.09375l0.296875 0.234375q-0.34375 1.875 -0.4375 3.734375q-0.09375 1.84375 -0.1875 3.90625l-1.921875 0l-0.234375 -3.265625q-0.109375 -1.203125 -0.828125 -1.4375q-0.421875 -0.140625 -1.09375 -0.171875q-0.671875 -0.03125 -1.34375 -0.03125l-5.765625 0l0 23.671875zm8.789825 -15.984375q1.53125 0.046875 3.15625 0.09375q1.640625 0.046875 3.21875 0.046875q1.59375 0 3.171875 -0.046875q1.578125 -0.046875 3.171875 -0.09375l0 1.828125l-1.640625 0.09375q-0.671875 0.046875 -0.984375 0.390625q-0.3125 0.328125 -0.3125 0.703125q0 0.53125 0.234375 1.109375q0.25 0.578125 0.6875 1.6875l3.9375 10.21875l4.5625 -11.375q0.234375 -0.625 0.34375 -1.0q0.125 -0.390625 0.125 -0.828125q0 -0.328125 -0.34375 -0.59375q-0.328125 -0.265625 -1.0 -0.3125l-1.53125 -0.09375l0 -1.828125q1.109375 0.046875 2.234375 0.09375q1.125 0.046875 2.234375 0.046875q1.09375 0 2.21875 -0.046875q1.140625 -0.046875 2.234375 -0.09375l0 1.828125l-1.0 0.1875q-0.765625 0.140625 -1.296875 0.75q-0.53125 0.59375 -1.0625 1.890625l-9.6875 22.5625q-0.671875 1.484375 -1.46875 2.828125q-0.796875 1.34375 -1.796875 2.453125q-1.015625 1.046875 -2.234375 1.671875q-1.21875 0.625 -2.671875 0.625q-0.859375 0 -1.796875 -0.21875q-0.9375 -0.203125 -1.703125 -0.59375l0.875 -4.5625l0.515625 -0.1875q0.671875 0.8125 1.515625 1.28125q0.84375 0.484375 1.953125 0.484375q0.71875 0 1.390625 -0.40625q0.671875 -0.40625 1.21875 -1.078125q0.546875 -0.671875 1.0 -1.484375q0.46875 -0.8125 0.796875 -1.625l1.015625 -2.453125l-7.5 -19.15625q-0.375 -1.046875 -0.90625 -1.9375q-0.53125 -0.890625 -1.203125 -0.9375l-1.671875 -0.09375l0 -1.828125zm36.62555 -0.28125l0 3.59375l3.828125 -2.984375q0.71875 -0.515625 1.53125 -0.703125q0.828125 -0.203125 2.125 -0.203125q1.71875 0 3.09375 0.578125q1.375 0.578125 2.046875 1.296875q1.234375 1.296875 1.515625 3.09375q0.296875 1.796875 0.296875 3.8125l0 9.265625q0 1.0625 0.09375 1.5625q0.109375 0.5 0.203125 0.703125q0.1875 0.28125 0.5625 0.40625q0.390625 0.109375 0.921875 0.15625l1.53125 0.109375l0 1.765625q-1.140625 -0.046875 -2.4375 -0.09375q-1.296875 -0.046875 -1.96875 -0.046875q-1.390625 0 -2.640625 0.046875q-1.25 0.046875 -2.109375 0.09375l0 -13.25q0 -2.734375 -1.046875 -4.046875q-1.03125 -1.328125 -3.609375 -1.328125q-0.96875 0 -1.625 0.3125q-0.640625 0.3125 -1.171875 0.796875q-0.578125 0.53125 -0.859375 1.109375q-0.28125 0.5625 -0.28125 1.046875l0 10.46875q0 0.8125 0.046875 1.515625q0.046875 0.6875 0.28125 0.984375q0.296875 0.46875 1.4375 0.515625l1.640625 0.109375l0 1.765625q-0.578125 0 -1.40625 -0.03125q-0.8125 -0.015625 -1.71875 -0.046875q-0.90625 -0.015625 -1.78125 -0.046875q-0.859375 -0.015625 -1.53125 -0.015625q-1.34375 0 -3.078125 0.046875q-1.71875 0.046875 -3.15625 0.09375l0 -1.765625l1.625 -0.109375q1.15625 -0.046875 1.4375 -0.515625q0.15625 -0.203125 0.25 -0.75q0.09375 -0.546875 0.09375 -1.65625l0 -11.09375q0 -1.390625 -0.09375 -1.890625q-0.09375 -0.5 -0.34375 -0.75q-0.09375 -0.09375 -0.234375 -0.15625q-0.140625 -0.078125 -0.625 -0.125l-2.109375 -0.140625l0 -1.734375q2.203125 -0.046875 4.21875 -0.59375q2.015625 -0.5625 4.75 -1.46875l0.296875 0.296875zm31.718689 -0.296875q1.921875 0 3.625 0.515625q1.703125 0.5 2.953125 1.5625q1.25 1.046875 1.984375 2.65625q0.75 1.609375 0.75 3.765625l0 2.453125q-1.921875 0.515625 -4.015625 0.734375q-2.078125 0.21875 -3.46875 0.21875l-6.390625 0q0 1.78125 0.5 3.265625q0.515625 1.484375 1.46875 2.5625q0.96875 1.078125 2.40625 1.6875q1.4375 0.59375 3.265625 0.59375q1.203125 0 2.609375 -0.5q1.421875 -0.5 2.578125 -1.171875l0.5625 0.71875l-1.046875 2.296875q-2.15625 1.15625 -3.859375 1.609375q-1.703125 0.453125 -3.828125 0.453125q-5.125 0 -8.015625 -2.875q-2.875 -2.875 -2.875 -8.25q0 -2.125 0.265625 -3.578125q0.265625 -1.46875 0.796875 -2.578125q0.8125 -1.625 1.8125 -2.46875q1.015625 -0.84375 2.40625 -1.65625q0.765625 -0.484375 1.390625 -0.84375q0.625 -0.359375 1.25 -0.609375q0.625 -0.265625 1.296875 -0.40625q0.671875 -0.15625 1.578125 -0.15625zm-4.84375 9.359375q0.1875 0 0.640625 0.03125q0.46875 0.015625 1.03125 0.046875q0.578125 0.015625 1.21875 0.046875q0.65625 0.015625 1.1875 0.015625q0.8125 0 1.984375 -0.046875q1.1875 -0.046875 2.0 -0.09375l0 -0.1875q0 -1.34375 -0.171875 -2.515625q-0.15625 -1.1875 -0.625 -2.0625q-0.453125 -0.890625 -1.21875 -1.390625q-0.765625 -0.515625 -1.921875 -0.515625q-2.0625 0 -3.09375 1.609375q-1.03125 1.609375 -1.03125 5.0625zm27.796906 -9.359375q1.625 0 3.15625 0.21875q1.546875 0.21875 2.84375 0.890625l-0.390625 5.859375l-1.734375 0l-0.46875 -2.796875q-0.046875 -0.328125 -0.46875 -0.6875q-0.40625 -0.359375 -0.984375 -0.59375q-0.5625 -0.25 -1.234375 -0.40625q-0.671875 -0.171875 -1.296875 -0.171875q-2.0625 0 -3.25 0.796875q-1.171875 0.78125 -1.171875 2.3125q0 1.15625 0.625 1.78125q0.625 0.625 1.828125 0.859375l4.3125 0.96875q3.359375 0.765625 4.625 2.296875q1.28125 1.53125 1.28125 3.9375q0 3.640625 -2.828125 5.90625q-2.828125 2.25 -7.25 2.25q-3.796875 0 -7.484375 -1.34375l0.328125 -6.765625l1.875 0l0.234375 3.3125q1.015625 1.34375 2.46875 1.921875q1.46875 0.578125 3.203125 0.578125q1.625 0 2.875 -0.9375q1.25 -0.9375 1.25 -2.671875q0 -0.859375 -0.265625 -1.40625q-0.265625 -0.5625 -0.703125 -0.875q-0.421875 -0.3125 -0.953125 -0.5q-0.53125 -0.1875 -1.09375 -0.328125l-4.140625 -1.015625q-2.734375 -0.671875 -3.90625 -2.234375q-1.171875 -1.5625 -1.171875 -3.671875q0 -3.734375 2.5625 -5.609375q2.578125 -1.875 7.328125 -1.875zm17.327667 -11.28125q1.53125 0 2.5625 1.03125q1.03125 1.03125 1.03125 2.625q0 1.484375 -1.078125 2.515625q-1.078125 1.03125 -2.515625 1.03125q-1.4375 0 -2.53125 -1.03125q-1.078125 -1.03125 -1.078125 -2.515625q0 -1.59375 1.03125 -2.625q1.03125 -1.03125 2.578125 -1.03125zm3.109375 11.578125l0 17.5625q0 0.8125 0.046875 1.515625q0.046875 0.6875 0.296875 0.984375q0.28125 0.46875 1.4375 0.515625l1.625 0.109375l0 1.765625q-0.5625 0 -1.390625 -0.03125q-0.8125 -0.015625 -1.734375 -0.046875q-0.90625 -0.015625 -1.765625 -0.046875q-0.859375 -0.015625 -1.53125 -0.015625q-0.671875 0 -1.734375 0.015625q-1.046875 0.03125 -2.0625 0.078125q-1.203125 0.046875 -2.453125 0.046875l0 -1.765625l1.640625 -0.109375q1.15625 -0.046875 1.4375 -0.515625q0.140625 -0.203125 0.234375 -0.75q0.109375 -0.546875 0.109375 -1.65625l0 -11.09375q0 -1.390625 -0.109375 -1.890625q-0.09375 -0.5 -0.328125 -0.75q-0.09375 -0.09375 -0.25 -0.15625q-0.140625 -0.078125 -0.65625 -0.125l-2.078125 -0.140625l0 -1.734375q1.40625 -0.1875 2.75 -0.375q1.34375 -0.203125 2.6875 -0.625l3.359375 -1.0625l0.46875 0.296875zm29.484009 -11.953125l0 29.703125q0 1.0625 0.0625 1.546875q0.078125 0.46875 0.171875 0.609375q0.1875 0.390625 0.640625 0.515625q0.46875 0.109375 0.890625 0.15625l1.546875 0.109375l0 1.765625q-1.34375 -0.046875 -2.890625 -0.09375q-1.53125 -0.046875 -2.390625 -0.046875q-0.671875 0 -1.65625 0.046875q-0.984375 0.046875 -2.234375 0.09375l-0.25 -0.375l0.25 -3.609375l-5.0 4.078125q-0.515625 0.4375 -1.25 0.5q-0.71875 0.078125 -1.390625 0.078125q-2.15625 0 -3.8125 -0.90625q-1.65625 -0.921875 -2.78125 -2.40625q-1.125 -1.484375 -1.703125 -3.421875q-0.578125 -1.953125 -0.578125 -3.96875q0 -3.453125 0.90625 -5.578125q0.921875 -2.140625 2.984375 -3.546875l3.453125 -2.25q2.015625 -1.34375 4.265625 -1.34375q1.40625 0 2.484375 0.34375q1.078125 0.328125 2.421875 0.859375l0 -6.296875q0 -1.234375 -0.078125 -1.78125q-0.0625 -0.5625 -0.3125 -0.796875q-0.140625 -0.15625 -0.3125 -0.21875q-0.171875 -0.078125 -0.546875 -0.125l-2.546875 -0.140625l0 -1.734375q1.296875 -0.140625 2.828125 -0.359375q1.546875 -0.21875 2.984375 -0.640625l3.453125 -1.0625l0.390625 0.296875zm-16.328125 22.265625q0 1.4375 0.3125 2.9375q0.3125 1.484375 0.953125 2.65625q0.65625 1.171875 1.703125 1.921875q1.0625 0.734375 2.546875 0.734375q1.0625 0 1.96875 -0.328125q0.921875 -0.34375 1.59375 -0.859375q0.625 -0.53125 1.0 -1.171875q0.390625 -0.65625 0.390625 -1.625l0 -8.78125q-0.96875 -1.34375 -2.359375 -2.171875q-1.390625 -0.84375 -3.015625 -0.84375q-1.640625 0 -2.625 0.65625q-0.984375 0.640625 -1.53125 1.703125q-0.546875 1.046875 -0.75 2.421875q-0.1875 1.359375 -0.1875 2.75zm34.078125 -10.609375q1.921875 0 3.625 0.515625q1.703125 0.5 2.953125 1.5625q1.25 1.046875 1.984375 2.65625q0.75 1.609375 0.75 3.765625l0 2.453125q-1.921875 0.515625 -4.015625 0.734375q-2.078125 0.21875 -3.46875 0.21875l-6.390625 0q0 1.78125 0.5 3.265625q0.515625 1.484375 1.46875 2.5625q0.96875 1.078125 2.40625 1.6875q1.4375 0.59375 3.265625 0.59375q1.203125 0 2.609375 -0.5q1.421875 -0.5 2.578125 -1.171875l0.5625 0.71875l-1.046875 2.296875q-2.15625 1.15625 -3.859375 1.609375q-1.703125 0.453125 -3.828125 0.453125q-5.125 0 -8.015625 -2.875q-2.875 -2.875 -2.875 -8.25q0 -2.125 0.265625 -3.578125q0.265625 -1.46875 0.796875 -2.578125q0.8125 -1.625 1.8125 -2.46875q1.015625 -0.84375 2.40625 -1.65625q0.765625 -0.484375 1.390625 -0.84375q0.625 -0.359375 1.25 -0.609375q0.625 -0.265625 1.296875 -0.40625q0.671875 -0.15625 1.578125 -0.15625zm-4.84375 9.359375q0.1875 0 0.640625 0.03125q0.46875 0.015625 1.03125 0.046875q0.578125 0.015625 1.21875 0.046875q0.65625 0.015625 1.1875 0.015625q0.8125 0 1.984375 -0.046875q1.1875 -0.046875 2.0 -0.09375l0 -0.1875q0 -1.34375 -0.171875 -2.515625q-0.15625 -1.1875 -0.625 -2.0625q-0.453125 -0.890625 -1.21875 -1.390625q-0.765625 -0.515625 -1.921875 -0.515625q-2.0625 0 -3.09375 1.609375q-1.03125 1.609375 -1.03125 5.0625zm49.390686 -20.109375q1.875 0 3.375 0.125q1.515625 0.109375 2.875 0.40625q1.375 0.28125 2.6875 0.71875q1.328125 0.421875 2.78125 1.0l0.28125 0.53125q-0.28125 1.109375 -0.53125 2.859375q-0.234375 1.75 -0.578125 4.484375l-1.859375 0l-0.25 -4.125q-1.71875 -1.828125 -3.90625 -2.5625q-2.1875 -0.75 -4.734375 -0.75q-2.78125 0 -5.046875 0.921875q-2.25 0.90625 -3.828125 2.640625q-1.578125 1.71875 -2.453125 4.171875q-0.859375 2.4375 -0.859375 5.515625q0 3.40625 0.984375 6.21875q0.984375 2.796875 2.796875 4.765625q1.828125 1.96875 4.4375 3.0625q2.625 1.078125 5.9375 1.078125q1.15625 0 2.375 -0.1875q1.234375 -0.203125 2.421875 -0.515625q1.203125 -0.3125 2.328125 -0.765625q1.140625 -0.453125 2.046875 -0.984375l0.578125 0.578125l-1.0625 2.34375q-2.5 1.546875 -5.328125 2.09375q-2.828125 0.546875 -5.703125 0.546875q-4.421875 0 -7.921875 -1.21875q-3.5 -1.21875 -5.984375 -3.515625q-2.46875 -2.3125 -3.796875 -5.578125q-1.3125 -3.265625 -1.3125 -7.296875q0 -4.03125 1.515625 -7.125q1.515625 -3.109375 4.125 -5.1875q2.625 -2.09375 6.125 -3.171875q3.5 -1.078125 7.484375 -1.078125zm26.984192 10.75q5.515625 0 8.3125 2.9375q2.8125 2.921875 2.8125 8.296875q0 5.8125 -3.046875 9.0q-3.046875 3.1875 -9.09375 3.1875q-5.234375 0 -8.0 -3.046875q-2.75 -3.046875 -2.75 -8.5625q0 -5.671875 3.0 -8.734375q3.0 -3.078125 8.765625 -3.078125zm-5.234375 10.421875q0 1.765625 0.15625 3.671875q0.171875 1.890625 0.75 3.453125q0.578125 1.5625 1.609375 2.578125q1.03125 1.0 2.765625 1.0q1.71875 0 2.625 -0.90625q0.921875 -0.921875 1.34375 -2.234375q0.4375 -1.328125 0.5 -2.765625q0.078125 -1.4375 0.078125 -2.546875q0 -5.609375 -1.34375 -7.984375q-1.34375 -2.375 -3.734375 -2.375q-1.546875 0 -2.484375 0.71875q-0.921875 0.71875 -1.4375 1.875q-0.5 1.140625 -0.671875 2.609375q-0.15625 1.46875 -0.15625 2.90625zm28.703674 -10.125l0 12.953125q0 1.296875 0.140625 2.359375q0.140625 1.046875 0.5625 1.84375q0.4375 0.78125 1.1875 1.21875q0.75 0.4375 2.0 0.4375q1.625 0 3.015625 -1.25q0.671875 -0.578125 1.046875 -1.265625q0.390625 -0.703125 0.390625 -1.71875l0 -8.015625q0 -1.390625 -0.09375 -1.890625q-0.09375 -0.5 -0.328125 -0.75q-0.109375 -0.09375 -0.25 -0.15625q-0.140625 -0.078125 -0.671875 -0.125l-2.0625 -0.140625l0 -1.734375q1.390625 -0.1875 2.734375 -0.375q1.34375 -0.203125 2.6875 -0.625l3.359375 -1.0625l0.484375 0.296875l0 17.75q0 1.0625 0.09375 1.59375q0.09375 0.515625 0.25 0.71875q0.28125 0.46875 1.484375 0.515625l1.484375 0.109375l0 1.765625q-1.4375 -0.046875 -2.8125 -0.09375q-1.359375 -0.046875 -2.46875 -0.046875q-0.671875 0 -1.703125 0.046875q-1.03125 0.046875 -2.421875 0.09375l0.234375 -3.984375l-3.640625 3.5625q-1.203125 1.09375 -3.125 1.09375q-3.9375 0 -5.6875 -2.0625q-1.75 -2.0625 -1.75 -5.421875l0 -9.078125q0 -1.390625 -0.09375 -1.890625q-0.09375 -0.5 -0.34375 -0.75q-0.09375 -0.09375 -0.234375 -0.15625q-0.140625 -0.078125 -0.671875 -0.125l-2.0625 -0.140625l0 -1.734375q1.390625 -0.1875 2.734375 -0.375q1.34375 -0.203125 2.6875 -0.625l3.359375 -1.0625l0.484375 0.296875zm29.281189 0l0 3.59375l3.828125 -2.984375q0.71875 -0.515625 1.53125 -0.703125q0.828125 -0.203125 2.125 -0.203125q1.71875 0 3.09375 0.578125q1.375 0.578125 2.046875 1.296875q1.234375 1.296875 1.515625 3.09375q0.296875 1.796875 0.296875 3.8125l0 9.265625q0 1.0625 0.09375 1.5625q0.109375 0.5 0.203125 0.703125q0.1875 0.28125 0.5625 0.40625q0.390625 0.109375 0.921875 0.15625l1.53125 0.109375l0 1.765625q-1.140625 -0.046875 -2.4375 -0.09375q-1.296875 -0.046875 -1.96875 -0.046875q-1.390625 0 -2.640625 0.046875q-1.25 0.046875 -2.109375 0.09375l0 -13.25q0 -2.734375 -1.046875 -4.046875q-1.03125 -1.328125 -3.609375 -1.328125q-0.96875 0 -1.625 0.3125q-0.640625 0.3125 -1.171875 0.796875q-0.578125 0.53125 -0.859375 1.109375q-0.28125 0.5625 -0.28125 1.046875l0 10.46875q0 0.8125 0.046875 1.515625q0.046875 0.6875 0.28125 0.984375q0.296875 0.46875 1.4375 0.515625l1.640625 0.109375l0 1.765625q-0.578125 0 -1.40625 -0.03125q-0.8125 -0.015625 -1.71875 -0.046875q-0.90625 -0.015625 -1.78125 -0.046875q-0.859375 -0.015625 -1.53125 -0.015625q-1.34375 0 -3.078125 0.046875q-1.71875 0.046875 -3.15625 0.09375l0 -1.765625l1.625 -0.109375q1.15625 -0.046875 1.4375 -0.515625q0.15625 -0.203125 0.25 -0.75q0.09375 -0.546875 0.09375 -1.65625l0 -11.09375q0 -1.390625 -0.09375 -1.890625q-0.09375 -0.5 -0.34375 -0.75q-0.09375 -0.09375 -0.234375 -0.15625q-0.140625 -0.078125 -0.625 -0.125l-2.109375 -0.140625l0 -1.734375q2.203125 -0.046875 4.21875 -0.59375q2.015625 -0.5625 4.75 -1.46875l0.296875 0.296875zm33.68744 -0.296875q1.109375 0 2.1875 0.25q1.078125 0.234375 2.375 0.71875l0.34375 0.609375q-0.34375 1.546875 -0.546875 3.140625q-0.1875 1.578125 -0.421875 3.640625l-1.734375 0l-0.328125 -2.890625q-0.046875 -0.515625 -0.5 -0.90625q-0.453125 -0.390625 -1.0625 -0.640625q-0.59375 -0.265625 -1.296875 -0.390625q-0.6875 -0.125 -1.265625 -0.125q-4.796875 0 -4.796875 6.765625q0 1.96875 0.421875 3.75q0.4375 1.78125 1.375 3.15625q0.9375 1.359375 2.421875 2.15625q1.484375 0.78125 3.546875 0.78125q1.015625 0 1.96875 -0.234375q0.96875 -0.25 1.96875 -0.671875l0.4375 0.46875l-1.015625 2.21875q-2.875 1.625 -6.234375 1.625q-5.0 0 -7.921875 -2.84375q-2.921875 -2.859375 -2.921875 -8.625q0 -2.296875 0.359375 -3.421875q0.359375 -1.140625 0.890625 -2.0q0.671875 -1.015625 1.53125 -1.828125q0.859375 -0.8125 2.109375 -1.625q0.34375 -0.203125 0.9375 -0.578125q0.59375 -0.390625 1.171875 -0.75q0.578125 -0.359375 1.03125 -0.625q0.453125 -0.265625 0.5 -0.265625q0.828125 -0.421875 1.8125 -0.640625q0.984375 -0.21875 2.65625 -0.21875zm14.312073 -11.28125q1.53125 0 2.5625 1.03125q1.03125 1.03125 1.03125 2.625q0 1.484375 -1.078125 2.515625q-1.078125 1.03125 -2.515625 1.03125q-1.4375 0 -2.53125 -1.03125q-1.078125 -1.03125 -1.078125 -2.515625q0 -1.59375 1.03125 -2.625q1.03125 -1.03125 2.578125 -1.03125zm3.109375 11.578125l0 17.5625q0 0.8125 0.046875 1.515625q0.046875 0.6875 0.296875 0.984375q0.28125 0.46875 1.4375 0.515625l1.625 0.109375l0 1.765625q-0.5625 0 -1.390625 -0.03125q-0.8125 -0.015625 -1.734375 -0.046875q-0.90625 -0.015625 -1.765625 -0.046875q-0.859375 -0.015625 -1.53125 -0.015625q-0.671875 0 -1.734375 0.015625q-1.046875 0.03125 -2.0625 0.078125q-1.203125 0.046875 -2.453125 0.046875l0 -1.765625l1.640625 -0.109375q1.15625 -0.046875 1.4375 -0.515625q0.140625 -0.203125 0.234375 -0.75q0.109375 -0.546875 0.109375 -1.65625l0 -11.09375q0 -1.390625 -0.109375 -1.890625q-0.09375 -0.5 -0.328125 -0.75q-0.09375 -0.09375 -0.25 -0.15625q-0.140625 -0.078125 -0.65625 -0.125l-2.078125 -0.140625l0 -1.734375q1.40625 -0.1875 2.75 -0.375q1.34375 -0.203125 2.6875 -0.625l3.359375 -1.0625l0.46875 0.296875zm15.890259 -11.953125l0 29.515625q0 0.8125 0.046875 1.515625q0.046875 0.6875 0.296875 0.984375q0.28125 0.46875 1.4375 0.515625l1.625 0.109375l0 1.765625q-0.578125 0 -1.390625 -0.03125q-0.8125 -0.015625 -1.734375 -0.046875q-0.90625 -0.015625 -1.765625 -0.046875q-0.859375 -0.015625 -1.53125 -0.015625q-0.671875 0 -1.734375 0.015625q-1.0625 0.03125 -2.0625 0.078125q-1.203125 0.046875 -2.453125 0.046875l0 -1.765625l1.640625 -0.109375q1.140625 -0.046875 1.4375 -0.515625q0.140625 -0.203125 0.234375 -0.75q0.09375 -0.546875 0.09375 -1.65625l0 -23.046875q0 -1.390625 -0.09375 -1.890625q-0.09375 -0.5 -0.328125 -0.75q-0.09375 -0.09375 -0.25 -0.15625q-0.140625 -0.078125 -0.625 -0.125l-2.484375 -0.140625l0 -1.734375q1.390625 -0.140625 2.921875 -0.375q1.53125 -0.25 2.875 -0.625l3.46875 -1.0625l0.375 0.296875z" fill-rule="nonzero"/><path fill="#000000" fill-opacity="0.0" d="m122.708664 500.0l163.43306 -326.86597l427.71655 0l163.43304 326.86597l-163.43304 326.86597l-427.71655 0z" fill-rule="evenodd"/><path stroke="#e4003b" stroke-width="24.0" stroke-linejoin="round" stroke-linecap="butt" d="m122.708664 500.0l163.43306 -326.86597l427.71655 0l163.43304 326.86597l-163.43304 326.86597l-427.71655 0z" fill-rule="evenodd"/><path fill="#e4003b" d="m399.54855 589.41864l18.897644 0l0 18.897644l-18.897644 0z" fill-rule="evenodd"/><path fill="#e4003b" d="m422.29922 589.41864l18.897614 0l0 18.897644l-18.897614 0z" fill-rule="evenodd"/><path fill="#e4003b" d="m399.54855 612.1011l18.897644 0l0 18.897583l-18.897644 0z" fill-rule="evenodd"/><path fill="#e4003b" d="m422.29922 612.1011l18.897614 0l0 18.897583l-18.897614 0z" fill-rule="evenodd"/><path fill="#e4003b" d="m445.04987 589.41864l18.897644 0l0 18.897644l-18.897644 0z" fill-rule="evenodd"/><path fill="#e4003b" d="m445.04987 612.1011l18.897644 0l0 18.897583l-18.897644 0z" fill-rule="evenodd"/><path fill="#e4003b" d="m467.80054 589.41864l18.897614 0l0 18.897644l-18.897614 0z" fill-rule="evenodd"/><path fill="#e4003b" d="m490.55118 589.41864l18.897644 0l0 18.897644l-18.897644 0z" fill-rule="evenodd"/><path fill="#e4003b" d="m467.80054 612.1011l18.897614 0l0 18.897583l-18.897614 0z" fill-rule="evenodd"/><path fill="#e4003b" d="m490.55118 612.1011l18.897644 0l0 18.897583l-18.897644 0z" fill-rule="evenodd"/><path fill="#e4003b" d="m513.3018 589.41864l18.897644 0l0 18.897644l-18.897644 0z" fill-rule="evenodd"/><path fill="#e4003b" d="m513.3018 612.1011l18.897644 0l0 18.897583l-18.897644 0z" fill-rule="evenodd"/><path fill="#e4003b" d="m536.0525 589.41864l18.897644 0l0 18.897644l-18.897644 0z" fill-rule="evenodd"/><path fill="#e4003b" d="m558.80316 589.41864l18.897644 0l0 18.897644l-18.897644 0z" fill-rule="evenodd"/><path fill="#e4003b" d="m536.0525 612.1011l18.897644 0l0 18.897583l-18.897644 0z" fill-rule="evenodd"/><path fill="#e4003b" d="m558.80316 612.1011l18.897644 0l0 18.897583l-18.897644 0z" fill-rule="evenodd"/><path fill="#e4003b" d="m581.55383 589.41864l18.897583 0l0 18.897644l-18.897583 0z" fill-rule="evenodd"/><path fill="#e4003b" d="m581.55383 612.1011l18.897583 0l0 18.897583l-18.897583 0z" fill-rule="evenodd"/><path fill="#e4003b" d="m399.54855 635.32153l18.897644 0l0 18.897644l-18.897644 0z" fill-rule="evenodd"/><path fill="#e4003b" d="m422.29922 635.32153l18.897614 0l0 18.897644l-18.897614 0z" fill-rule="evenodd"/><path fill="#e4003b" d="m399.54855 658.00397l18.897644 0l0 18.897583l-18.897644 0z" fill-rule="evenodd"/><path fill="#e4003b" d="m422.29922 658.00397l18.897614 0l0 18.897583l-18.897614 0z" fill-rule="evenodd"/><path fill="#e4003b" d="m445.04987 635.32153l18.897644 0l0 18.897644l-18.897644 0z" fill-rule="evenodd"/><path fill="#e4003b" d="m445.04987 658.00397l18.897644 0l0 18.897583l-18.897644 0z" fill-rule="evenodd"/><path fill="#e4003b" d="m467.80054 635.32153l18.897614 0l0 18.897644l-18.897614 0z" fill-rule="evenodd"/><path fill="#e4003b" d="m490.55118 635.32153l18.897644 0l0 18.897644l-18.897644 0z" fill-rule="evenodd"/><path fill="#e4003b" d="m467.80054 658.00397l18.897614 0l0 18.897583l-18.897614 0z" fill-rule="evenodd"/><path fill="#e4003b" d="m490.55118 658.00397l18.897644 0l0 18.897583l-18.897644 0z" fill-rule="evenodd"/><path fill="#e4003b" d="m513.3018 635.32153l18.897644 0l0 18.897644l-18.897644 0z" fill-rule="evenodd"/><path fill="#e4003b" d="m513.3018 658.00397l18.897644 0l0 18.897583l-18.897644 0z" fill-rule="evenodd"/><path fill="#e4003b" d="m536.0525 635.32153l18.897644 0l0 18.897644l-18.897644 0z" fill-rule="evenodd"/><path fill="#e4003b" d="m558.80316 635.32153l18.897644 0l0 18.897644l-18.897644 0z" fill-rule="evenodd"/><path fill="#e4003b" d="m536.0525 658.00397l18.897644 0l0 18.897583l-18.897644 0z" fill-rule="evenodd"/><path fill="#e4003b" d="m558.80316 658.00397l18.897644 0l0 18.897583l-18.897644 0z" fill-rule="evenodd"/><path fill="#e4003b" d="m581.55383 635.32153l18.897583 0l0 18.897644l-18.897583 0z" fill-rule="evenodd"/><path fill="#e4003b" d="m581.55383 658.00397l18.897583 0l0 18.897583l-18.897583 0z" fill-rule="evenodd"/><path fill="#e4003b" d="m399.54855 680.68634l18.897644 0l0 18.897644l-18.897644 0z" fill-rule="evenodd"/><path fill="#e4003b" d="m422.29922 680.68634l18.897614 0l0 18.897644l-18.897614 0z" fill-rule="evenodd"/><path fill="#ffc0cb" d="m399.54855 703.3688l18.897644 0l0 18.897644l-18.897644 0z" fill-rule="evenodd"/><path fill="#ffc0cb" d="m422.29922 703.3688l18.897614 0l0 18.897644l-18.897614 0z" fill-rule="evenodd"/><path fill="#e4003b" d="m445.04987 680.68634l18.897644 0l0 18.897644l-18.897644 0z" fill-rule="evenodd"/><path fill="#ffc0cb" d="m445.04987 703.3688l18.897644 0l0 18.897644l-18.897644 0z" fill-rule="evenodd"/><path fill="#e4003b" d="m467.80054 680.68634l18.897614 0l0 18.897644l-18.897614 0z" fill-rule="evenodd"/><path fill="#e4003b" d="m490.55118 680.68634l18.897644 0l0 18.897644l-18.897644 0z" fill-rule="evenodd"/><path fill="#0087dc" d="m467.80054 703.3688l18.897614 0l0 18.897644l-18.897614 0z" fill-rule="evenodd"/><path fill="#6ab023" d="m490.55118 703.3688l18.897644 0l0 18.897644l-18.897644 0z" fill-rule="evenodd"/><path fill="#e4003b" d="m513.3018 680.68634l18.897644 0l0 18.897644l-18.897644 0z" fill-rule="evenodd"/><path fill="#ffc0cb" d="m513.3018 703.3688l18.897644 0l0 18.897644l-18.897644 0z" fill-rule="evenodd"/><path fill="#e4003b" d="m536.0525 680.68634l18.897644 0l0 18.897644l-18.897644 0z" fill-rule="evenodd"/><path fill="#e4003b" d="m558.80316 680.68634l18.897644 0l0 18.897644l-18.897644 0z" fill-rule="evenodd"/><path fill="#eeeeee" d="m536.0525 703.3688l18.897644 0l0 18.897644l-18.897644 0z" fill-rule="evenodd"/><path fill="#eeeeee" d="m558.80316 703.3688l18.897644 0l0 18.897644l-18.897644 0z" fill-rule="evenodd"/><path fill="#e4003b" d="m581.55383 680.68634l18.897583 0l0 18.897644l-18.897583 0z" fill-rule="evenodd"/><path fill="#eeeeee" d="m581.55383 703.3688l18.897583 0l0 18.897644l-18.897583 0z" fill-rule="evenodd"/><path fill="#e4003b" d="m396.4882 310.54462l30.236206 0l0 30.236237l-30.236206 0z" fill-rule="evenodd"/><path fill="#e4003b" d="m438.063 312.4344l26.456696 0l0 26.456696l-26.456696 0z" fill-rule="evenodd"/><path fill="#e4003b" d="m471.85828 316.2139l18.897644 0l0 18.897644l-18.897644 0z" fill-rule="evenodd"/><path fill="#e4003b" d="m494.40945 316.2139l18.897614 0l0 18.897644l-18.897614 0z" fill-rule="evenodd"/><path fill="#e4003b" d="m516.96063 316.2139l18.897644 0l0 18.897644l-18.897644 0z" fill-rule="evenodd"/><path fill="#e4003b" d="m539.51184 316.2139l18.897583 0l0 18.897644l-18.897583 0z" fill-rule="evenodd"/><path fill="#e4003b" d="m562.063 316.2139l18.897644 0l0 18.897644l-18.897644 0z" fill-rule="evenodd"/><path fill="#e4003b" d="m584.6142 316.2139l18.897644 0l0 18.897644l-18.897644 0z" fill-rule="evenodd"/><path fill="#e4003b" d="m445.52756 316.2139l18.897644 0l0 18.897644l-18.897644 0z" fill-rule="evenodd"/><path fill="#e4003b" d="m657.5092 467.59842l18.897583 0l0 18.897644l-18.897583 0z" fill-rule="evenodd"/><path fill="#e4003b" d="m680.2598 467.59842l18.897644 0l0 18.897644l-18.897644 0z" fill-rule="evenodd"/><path fill="#e4003b" d="m657.5092 490.28085l18.897583 0l0 18.897614l-18.897583 0z" fill-rule="evenodd"/><path fill="#e4003b" d="m680.2598 490.28085l18.897644 0l0 18.897614l-18.897644 0z" fill-rule="evenodd"/><path fill="#e4003b" d="m703.0105 467.59842l18.897644 0l0 18.897644l-18.897644 0z" fill-rule="evenodd"/><path fill="#e4003b" d="m703.0105 490.28085l18.897644 0l0 18.897614l-18.897644 0z" fill-rule="evenodd"/><path fill="#e4003b" d="m725.76117 467.59842l18.897644 0l0 18.897644l-18.897644 0z" fill-rule="evenodd"/><path fill="#e4003b" d="m748.51184 467.59842l18.897583 0l0 18.897644l-18.897583 0z" fill-rule="evenodd"/><path fill="#e4003b" d="m725.76117 490.28085l18.897644 0l0 18.897614l-18.897644 0z" fill-rule="evenodd"/><path fill="#e4003b" d="m748.51184 490.28085l18.897583 0l0 18.897614l-18.897583 0z" fill-rule="evenodd"/><path fill="#e4003b" d="m657.5092 513.50134l18.897583 0l0 18.897583l-18.897583 0z" fill-rule="evenodd"/><path fill="#e4003b" d="m680.2598 513.50134l18.897644 0l0 18.897583l-18.897644 0z" fill-rule="evenodd"/><path fill="#e4003b" d="m703.0105 513.50134l18.897644 0l0 18.897583l-18.897644 0z" fill-rule="evenodd"/><path fill="#e4003b" d="m725.76117 513.50134l18.897644 0l0 18.897583l-18.897644 0z" fill-rule="evenodd"/><path fill="#ffc0cb" d="m748.51184 513.50134l18.897583 0l0 18.897583l-18.897583 0z" fill-rule="evenodd"/></g></svg>