<svg version="1.1" viewBox="0.0 0.0 1000.0 1000.0" fill="none" stroke="none" stroke-linecap="square" stroke-miterlimit="10" xmlns:xlink="http://www.w3.org/1999/xlink" xmlns="http://www.w3.org/2000/svg"><clipPath id="gc0d745238d_0_261.0"><path d="m0 0l1000.0 0l0 1000.0l-1000.0 0l0 -1000.0z" clip-rule="nonzero"/></clipPath><g clip-path="url(#gc0d745238d_0_261.0)"><path fill="#ffffff" d="m0 0l1000.0 0l0 1000.0l-1000.0 0z" fill-rule="evenodd"/><path fill="#000000" fill-opacity="0.0" d="m18.897638 18.897638l962.2677 0l0 213.32283l-962.2677 0z" fill-rule="evenodd"/><path fill="#2f2f2f" d="m245.87552 49.10388q5.28125 0 10.71875 0.71875q5.4375 0.71875 11.203125 3.03125l0.46875 0.890625q-0.390625 1.265625 -0.796875 4.03125q-0.390625 2.765625 -1.03125 8.203125l-3.125 0l-0.40625 -6.875q-1.109375 -1.359375 -2.953125 -2.40625q-1.84375 -1.046875 -4.09375 -1.71875q-2.234375 -0.6875 -4.75 -1.046875q-2.515625 -0.359375 -5.0 -0.359375q-4.71875 0 -8.484375 1.5625q-3.75 1.5625 -6.390625 4.453125q-2.640625 2.875 -4.046875 6.953125q-1.390625 4.078125 -1.390625 9.109375q0 5.6875 1.46875 10.40625q1.484375 4.71875 4.234375 8.203125q2.765625 3.484375 6.765625 5.40625q4.0 1.90625 9.046875 1.90625q2.640625 0 5.109375 -0.515625q2.484375 -0.515625 5.046875 -1.484375l0 -10.5625q0 -1.828125 -1.328125 -2.34375q-1.3125 -0.53125 -3.234375 -0.609375l-4.234375 -0.15625l0 -3.28125q2.953125 0.078125 5.875 0.15625q2.921875 0.078125 5.890625 0.078125q2.953125 0 5.828125 -0.078125q2.890625 -0.078125 5.84375 -0.15625l0 2.71875q-2.3125 0.40625 -2.796875 1.0q-0.484375 0.59375 -0.484375 1.875l0 13.046875q-5.59375 2.15625 -11.359375 3.46875q-5.75 1.328125 -12.0 1.328125q-7.359375 0 -13.25 -2.078125q-5.875 -2.078125 -9.953125 -5.921875q-4.078125 -3.84375 -6.28125 -9.234375q-2.1875 -5.40625 -2.1875 -12.125q0 -6.484375 2.390625 -11.59375q2.40625 -5.125 6.640625 -8.6875q4.25 -3.5625 10.15625 -5.4375q5.921875 -1.875 12.890625 -1.875zm48.639923 18.390625l0 7.609375l3.515625 -3.84375q1.59375 -1.6875 3.078125 -2.96875q1.484375 -1.28125 3.25 -1.28125q0.953125 0 1.875 0.09375q0.921875 0.078125 1.5625 0.390625l-0.40625 10.328125l-1.921875 0.796875q-1.4375 -2.875 -4.71875 -2.875q-1.03125 0 -2.15625 0.4375q-1.125 0.4375 -2.15625 1.3125q-1.921875 1.6875 -1.921875 3.359375l0 15.53125q0 3.515625 0.390625 4.234375q0.328125 0.5625 1.328125 0.84375q1.0 0.28125 2.125 0.359375l3.109375 0.15625l0 2.953125q-3.03125 -0.078125 -6.390625 -0.15625q-3.359375 -0.078125 -5.609375 -0.078125q-2.234375 0 -5.203125 0.078125q-2.953125 0.078125 -5.1875 0.15625l0 -2.953125l2.71875 -0.15625q1.921875 -0.078125 2.390625 -0.890625q0.25 -0.3125 0.40625 -1.1875q0.15625 -0.890625 0.15625 -2.8125l0 -18.46875q0 -2.328125 -0.15625 -3.15625q-0.15625 -0.84375 -0.5625 -1.25q-0.15625 -0.15625 -0.40625 -0.28125q-0.234375 -0.125 -1.109375 -0.203125l-3.4375 -0.234375l0 -2.875q2.234375 -0.328125 4.46875 -0.640625q2.25 -0.328125 4.328125 -0.96875l5.84375 -1.84375l0.796875 0.484375zm34.63562 -0.484375q3.203125 0 6.03125 0.84375q2.84375 0.84375 4.921875 2.609375q2.09375 1.75 3.328125 4.4375q1.234375 2.671875 1.234375 6.28125l0 4.078125q-3.1875 0.875 -6.671875 1.234375q-3.484375 0.359375 -5.796875 0.359375l-10.640625 0q0 2.96875 0.828125 5.453125q0.84375 2.46875 2.4375 4.28125q1.609375 1.796875 4.0 2.796875q2.40625 1.0 5.453125 1.0q2.0 0 4.359375 -0.84375q2.359375 -0.84375 4.28125 -1.96875l0.953125 1.203125l-1.765625 3.84375q-3.59375 1.921875 -6.4375 2.671875q-2.828125 0.765625 -6.359375 0.765625q-8.5625 0 -13.359375 -4.796875q-4.796875 -4.796875 -4.796875 -13.765625q0 -3.515625 0.4375 -5.953125q0.4375 -2.4375 1.328125 -4.28125q1.359375 -2.71875 3.03125 -4.109375q1.6875 -1.40625 4.0 -2.765625q1.28125 -0.8125 2.3125 -1.40625q1.046875 -0.59375 2.078125 -1.03125q1.046875 -0.453125 2.171875 -0.6875q1.125 -0.25 2.640625 -0.25zm-8.078125 15.609375q0.3125 0 1.078125 0.046875q0.765625 0.03125 1.71875 0.078125q0.96875 0.03125 2.046875 0.078125q1.078125 0.03125 1.953125 0.03125q1.359375 0 3.3125 -0.078125q1.96875 -0.078125 3.328125 -0.15625l0 -0.328125q0 -2.234375 -0.28125 -4.1875q-0.28125 -1.96875 -1.046875 -3.4375q-0.75 -1.484375 -2.03125 -2.328125q-1.28125 -0.84375 -3.203125 -0.84375q-3.4375 0 -5.15625 2.6875q-1.71875 2.671875 -1.71875 8.4375zm47.203064 -15.609375q2.71875 0 5.15625 0.640625q2.4375 0.640625 4.1875 2.046875q1.765625 1.40625 2.8125 3.53125q1.046875 2.109375 1.046875 5.0625q0 0.8125 -0.046875 2.046875q-0.046875 1.234375 -0.09375 2.59375q-0.03125 1.359375 -0.078125 2.84375q-0.03125 1.484375 -0.03125 2.765625q0 1.109375 0 2.078125q0 0.953125 0.03125 2.046875q0.046875 1.078125 0.078125 2.4375q0.046875 1.359375 0.140625 3.28125q0.078125 1.359375 0.4375 2.28125q0.359375 0.90625 1.71875 1.078125l2.390625 0.234375l0 2.953125q-1.75 -0.078125 -3.515625 -0.15625q-1.765625 -0.078125 -3.515625 -0.078125q-1.515625 0 -3.4375 0.078125q-1.921875 0.078125 -3.84375 0.15625l-0.40625 -0.640625l0.40625 -4.953125l-7.125 5.515625q-0.875 0.71875 -1.84375 0.953125q-0.953125 0.25 -2.875 0.25q-4.5625 0 -6.71875 -2.75q-2.15625 -2.765625 -2.15625 -7.015625q0 -2.546875 0.75 -4.59375q0.765625 -2.046875 2.046875 -3.15625q1.515625 -1.359375 4.0 -2.4375q2.484375 -1.09375 6.875 -1.96875l7.046875 -1.4375q0 -4.3125 -1.96875 -6.875q-1.953125 -2.5625 -6.265625 -2.5625q-0.640625 0 -1.40625 0.078125q-0.765625 0.078125 -1.453125 0.25q-0.671875 0.15625 -1.15625 0.359375q-0.46875 0.1875 -0.546875 0.4375l-1.765625 4.0l-2.40625 -0.5625l0 -5.53125l4.40625 -2.640625q2.078125 -1.265625 4.4375 -1.953125q2.359375 -0.6875 4.6875 -0.6875zm-7.53125 27.28125q0 2.484375 1.234375 3.65625q1.25 1.15625 3.09375 1.15625q0.796875 0 1.75 -0.3125q0.96875 -0.328125 1.890625 -0.8125q0.921875 -0.484375 1.71875 -1.125q0.796875 -0.640625 1.28125 -1.359375l0 -9.4375q-1.28125 0.40625 -3.25 0.890625q-1.953125 0.46875 -3.625 1.109375q-2.09375 0.875 -3.09375 2.28125q-1.0 1.40625 -1.0 3.953125zm44.640625 -39.359375q-0.546875 2.71875 -0.75 5.640625q-0.203125 2.921875 -0.203125 4.921875l0 4.96875l9.125 -0.484375l-0.640625 5.203125l-8.484375 0l0 18.953125q0 2.96875 1.03125 4.125q1.046875 1.15625 3.921875 1.15625q1.125 0 1.875 -0.234375q0.765625 -0.25 1.8125 -0.796875l0.640625 1.515625l-3.921875 4.71875q-0.640625 0.71875 -1.96875 1.078125q-1.3125 0.359375 -2.90625 0.359375q-5.6875 0 -7.96875 -2.515625q-2.28125 -2.53125 -2.28125 -7.71875l0 -20.640625l-5.109375 0.3125l0 -1.75l5.28125 -3.453125l0 -4.71875q0 -1.1875 -0.046875 -2.5q-0.046875 -1.328125 -0.125 -2.453125q-0.078125 -1.28125 -0.15625 -2.484375q2.640625 -0.953125 5.234375 -2.03125q2.609375 -1.09375 4.53125 -1.96875l1.109375 0.796875zm30.405579 12.078125q3.203125 0 6.03125 0.84375q2.84375 0.84375 4.921875 2.609375q2.09375 1.75 3.328125 4.4375q1.234375 2.671875 1.234375 6.28125l0 4.078125q-3.1875 0.875 -6.671875 1.234375q-3.484375 0.359375 -5.796875 0.359375l-10.640625 0q0 2.96875 0.828125 5.453125q0.84375 2.46875 2.4375 4.28125q1.609375 1.796875 4.0 2.796875q2.40625 1.0 5.453125 1.0q2.0 0 4.359375 -0.84375q2.359375 -0.84375 4.28125 -1.96875l0.953125 1.203125l-1.765625 3.84375q-3.59375 1.921875 -6.4375 2.671875q-2.828125 0.765625 -6.359375 0.765625q-8.5625 0 -13.359375 -4.796875q-4.796875 -4.796875 -4.796875 -13.765625q0 -3.515625 0.4375 -5.953125q0.4375 -2.4375 1.328125 -4.28125q1.359375 -2.71875 3.03125 -4.109375q1.6875 -1.40625 4.0 -2.765625q1.28125 -0.8125 2.3125 -1.40625q1.046875 -0.59375 2.078125 -1.03125q1.046875 -0.453125 2.171875 -0.6875q1.125 -0.25 2.640625 -0.25zm-8.078125 15.609375q0.3125 0 1.078125 0.046875q0.765625 0.03125 1.71875 0.078125q0.96875 0.03125 2.046875 0.078125q1.078125 0.03125 1.953125 0.03125q1.359375 0 3.3125 -0.078125q1.96875 -0.078125 3.328125 -0.15625l0 -0.328125q0 -2.234375 -0.28125 -4.1875q-0.28125 -1.96875 -1.046875 -3.4375q-0.75 -1.484375 -2.03125 -2.328125q-1.28125 -0.84375 -3.203125 -0.84375q-3.4375 0 -5.15625 2.6875q-1.71875 2.671875 -1.71875 8.4375zm44.56247 -15.125l0 7.609375l3.515625 -3.84375q1.59375 -1.6875 3.078125 -2.96875q1.484375 -1.28125 3.25 -1.28125q0.953125 0 1.875 0.09375q0.921875 0.078125 1.5625 0.390625l-0.40625 10.328125l-1.921875 0.796875q-1.4375 -2.875 -4.71875 -2.875q-1.03125 0 -2.15625 0.4375q-1.125 0.4375 -2.15625 1.3125q-1.921875 1.6875 -1.921875 3.359375l0 15.53125q0 3.515625 0.390625 4.234375q0.328125 0.5625 1.328125 0.84375q1.0 0.28125 2.125 0.359375l3.109375 0.15625l0 2.953125q-3.03125 -0.078125 -6.390625 -0.15625q-3.359375 -0.078125 -5.609375 -0.078125q-2.234375 0 -5.203125 0.078125q-2.953125 0.078125 -5.1875 0.15625l0 -2.953125l2.71875 -0.15625q1.921875 -0.078125 2.390625 -0.890625q0.25 -0.3125 0.40625 -1.1875q0.15625 -0.890625 0.15625 -2.8125l0 -18.46875q0 -2.328125 -0.15625 -3.15625q-0.15625 -0.84375 -0.5625 -1.25q-0.15625 -0.15625 -0.40625 -0.28125q-0.234375 -0.125 -1.109375 -0.203125l-3.4375 -0.234375l0 -2.875q2.234375 -0.328125 4.46875 -0.640625q2.25 -0.328125 4.328125 -0.96875l5.84375 -1.84375l0.796875 0.484375zm49.51053 -17.03125q1.046875 0 2.640625 -0.03125q1.609375 -0.046875 3.25 -0.09375q1.640625 -0.046875 3.1875 -0.078125q1.5625 -0.046875 2.6875 -0.046875l0 3.203125l-2.953125 0.234375q-1.6875 0.171875 -2.328125 0.40625q-0.640625 0.234375 -0.796875 0.484375q-0.40625 0.390625 -0.5625 1.75q-0.15625 1.359375 -0.15625 4.171875l0 39.59375q1.515625 0.078125 3.90625 0.15625q2.40625 0.078125 5.765625 0.078125q1.921875 0 3.765625 -0.109375q1.84375 -0.125 3.28125 -0.328125q1.4375 -0.203125 2.3125 -0.4375q0.890625 -0.234375 0.96875 -0.484375l1.84375 -8.15625l3.109375 0l-0.875 13.28125l-0.40625 0.640625q-2.390625 0.15625 -5.953125 0.234375q-3.5625 0.078125 -7.640625 0.078125q-2.875 0 -5.0 -0.046875q-2.125 -0.03125 -3.890625 -0.109375q-1.75 -0.078125 -3.390625 -0.125q-1.640625 -0.03125 -3.640625 -0.03125q-2.3125 0 -4.84375 0.078125q-2.515625 0.078125 -4.7499695 0.15625l0 -1.828125l1.8280945 -1.046875q0.5625 -0.3125 0.921875 -0.546875q0.359375 -0.25 0.6875 -0.65625q0.71875 -1.03125 0.71875 -3.84375l0 -36.546875q0 -3.046875 -0.203125 -4.328125q-0.203125 -1.28125 -0.59375 -1.671875q-0.328125 -0.328125 -0.96875 -0.484375q-0.640625 -0.15625 -2.0780945 -0.328125l-2.953125 -0.234375l0 -3.203125q2.796875 0.078125 5.8749695 0.171875q3.078125 0.078125 7.234375 0.078125zm55.442505 16.546875q9.203125 0 13.875 4.890625q4.6875 4.875 4.6875 13.84375q0 9.671875 -5.078125 15.0q-5.078125 5.3125 -15.15625 5.3125q-8.71875 0 -13.328125 -5.078125q-4.59375 -5.078125 -4.59375 -14.28125q0 -9.4375 5.0 -14.5625q5.0 -5.125 14.59375 -5.125zm-8.71875 17.375q0 2.953125 0.28125 6.109375q0.28125 3.15625 1.234375 5.765625q0.96875 2.59375 2.6875 4.28125q1.71875 1.671875 4.59375 1.671875q2.890625 0 4.40625 -1.515625q1.515625 -1.515625 2.234375 -3.71875q0.71875 -2.203125 0.84375 -4.59375q0.125 -2.40625 0.125 -4.25q0 -9.359375 -2.25 -13.3125q-2.234375 -3.96875 -6.234375 -3.96875q-2.5625 0 -4.125 1.203125q-1.5625 1.203125 -2.40625 3.125q-0.828125 1.921875 -1.109375 4.359375q-0.28125 2.4375 -0.28125 4.84375zm47.76123 -16.890625l0 6.0l6.40625 -4.953125q1.1875 -0.890625 2.546875 -1.203125q1.375 -0.328125 3.53125 -0.328125q2.875 0 5.15625 0.96875q2.28125 0.953125 3.40625 2.15625q2.078125 2.15625 2.546875 5.15625q0.484375 3.0 0.484375 6.359375l0 15.453125q0 1.75 0.15625 2.59375q0.171875 0.84375 0.328125 1.15625q0.3125 0.484375 0.953125 0.6875q0.640625 0.203125 1.53125 0.28125l2.546875 0.15625l0 2.953125q-1.90625 -0.078125 -4.078125 -0.15625q-2.15625 -0.078125 -3.28125 -0.078125q-2.3125 0 -4.390625 0.078125q-2.078125 0.078125 -3.515625 0.15625l0 -22.078125q0 -4.5625 -1.734375 -6.75q-1.71875 -2.203125 -6.03125 -2.203125q-1.609375 0 -2.6875 0.515625q-1.078125 0.515625 -1.953125 1.328125q-0.96875 0.875 -1.453125 1.84375q-0.46875 0.953125 -0.46875 1.75l0 17.4375q0 1.359375 0.078125 2.53125q0.078125 1.15625 0.484375 1.625q0.484375 0.8125 2.390625 0.890625l2.734375 0.15625l0 2.953125q-0.96875 0 -2.328125 -0.046875q-1.359375 -0.03125 -2.890625 -0.078125q-1.515625 -0.03125 -2.953125 -0.078125q-1.4375 -0.03125 -2.5625 -0.03125q-2.234375 0 -5.125 0.078125q-2.875 0.078125 -5.265625 0.15625l0 -2.953125l2.71875 -0.15625q1.921875 -0.078125 2.40625 -0.890625q0.234375 -0.3125 0.390625 -1.234375q0.15625 -0.921875 0.15625 -2.765625l0 -18.46875q0 -2.328125 -0.15625 -3.15625q-0.15625 -0.84375 -0.5625 -1.25q-0.15625 -0.15625 -0.40625 -0.28125q-0.234375 -0.125 -1.03125 -0.203125l-3.515625 -0.234375l0 -2.875q3.671875 -0.078125 7.03125 -1.0q3.359375 -0.921875 7.921875 -2.453125l0.484375 0.484375zm72.16113 -19.921875l0 49.53125q0 1.75 0.109375 2.5625q0.125 0.796875 0.296875 1.03125q0.3125 0.640625 1.0625 0.84375q0.765625 0.203125 1.484375 0.28125l2.5625 0.15625l0 2.953125q-2.234375 -0.078125 -4.796875 -0.15625q-2.5625 -0.078125 -4.0 -0.078125q-1.125 0 -2.765625 0.078125q-1.640625 0.078125 -3.71875 0.15625l-0.390625 -0.640625l0.390625 -6.0l-8.3125 6.8125q-0.875 0.71875 -2.078125 0.828125q-1.203125 0.125 -2.328125 0.125q-3.59375 0 -6.359375 -1.515625q-2.75 -1.53125 -4.640625 -4.0q-1.875 -2.484375 -2.84375 -5.71875q-0.953125 -3.25 -0.953125 -6.609375q0 -5.75 1.515625 -9.3125q1.53125 -3.5625 4.96875 -5.890625l5.75 -3.75q3.359375 -2.25 7.125 -2.25q2.328125 0 4.125 0.5625q1.796875 0.5625 4.03125 1.4375l0 -10.46875q0 -2.078125 -0.125 -3.0q-0.109375 -0.921875 -0.515625 -1.328125q-0.234375 -0.234375 -0.515625 -0.34375q-0.28125 -0.125 -0.921875 -0.21875l-4.234375 -0.234375l0 -2.875q2.15625 -0.25 4.71875 -0.609375q2.5625 -0.359375 4.953125 -1.078125l5.765625 -1.75l0.640625 0.46875zm-27.203125 37.125q0 2.40625 0.515625 4.890625q0.53125 2.46875 1.609375 4.4375q1.078125 1.953125 2.828125 3.203125q1.765625 1.234375 4.25 1.234375q1.765625 0 3.28125 -0.5625q1.515625 -0.5625 2.640625 -1.4375q1.03125 -0.890625 1.671875 -1.96875q0.640625 -1.078125 0.640625 -2.671875l0 -14.640625q-1.59375 -2.25 -3.921875 -3.640625q-2.3125 -1.40625 -5.03125 -1.40625q-2.71875 0 -4.359375 1.078125q-1.640625 1.078125 -2.5625 2.84375q-0.921875 1.765625 -1.25 4.046875q-0.3125 2.28125 -0.3125 4.59375zm58.23938 -17.6875q9.203125 0 13.875 4.890625q4.6875 4.875 4.6875 13.84375q0 9.671875 -5.078125 15.0q-5.078125 5.3125 -15.15625 5.3125q-8.71875 0 -13.328125 -5.078125q-4.59375 -5.078125 -4.59375 -14.28125q0 -9.4375 5.0 -14.5625q5.0 -5.125 14.59375 -5.125zm-8.71875 17.375q0 2.953125 0.28125 6.109375q0.28125 3.15625 1.234375 5.765625q0.96875 2.59375 2.6875 4.28125q1.71875 1.671875 4.59375 1.671875q2.890625 0 4.40625 -1.515625q1.515625 -1.515625 2.234375 -3.71875q0.71875 -2.203125 0.84375 -4.59375q0.125 -2.40625 0.125 -4.25q0 -9.359375 -2.25 -13.3125q-2.234375 -3.96875 -6.234375 -3.96875q-2.5625 0 -4.125 1.203125q-1.5625 1.203125 -2.40625 3.125q-0.828125 1.921875 -1.109375 4.359375q-0.28125 2.4375 -0.28125 4.84375zm47.76123 -16.890625l0 6.0l6.40625 -4.953125q1.1875 -0.890625 2.546875 -1.203125q1.375 -0.328125 3.53125 -0.328125q2.875 0 5.15625 0.96875q2.28125 0.953125 3.40625 2.15625q2.078125 2.15625 2.546875 5.15625q0.484375 3.0 0.484375 6.359375l0 15.453125q0 1.75 0.15625 2.59375q0.171875 0.84375 0.328125 1.15625q0.3125 0.484375 0.953125 0.6875q0.640625 0.203125 1.53125 0.28125l2.546875 0.15625l0 2.953125q-1.90625 -0.078125 -4.078125 -0.15625q-2.15625 -0.078125 -3.28125 -0.078125q-2.3125 0 -4.390625 0.078125q-2.078125 0.078125 -3.515625 0.15625l0 -22.078125q0 -4.5625 -1.734375 -6.75q-1.71875 -2.203125 -6.03125 -2.203125q-1.609375 0 -2.6875 0.515625q-1.078125 0.515625 -1.953125 1.328125q-0.96875 0.875 -1.453125 1.84375q-0.46875 0.953125 -0.46875 1.75l0 17.4375q0 1.359375 0.078125 2.53125q0.078125 1.15625 0.484375 1.625q0.484375 0.8125 2.390625 0.890625l2.734375 0.15625l0 2.953125q-0.96875 0 -2.328125 -0.046875q-1.359375 -0.03125 -2.890625 -0.078125q-1.515625 -0.03125 -2.953125 -0.078125q-1.4375 -0.03125 -2.5625 -0.03125q-2.234375 0 -5.125 0.078125q-2.875 0.078125 -5.265625 0.15625l0 -2.953125l2.71875 -0.15625q1.921875 -0.078125 2.40625 -0.890625q0.234375 -0.3125 0.390625 -1.234375q0.15625 -0.921875 0.15625 -2.765625l0 -18.46875q0 -2.328125 -0.15625 -3.15625q-0.15625 -0.84375 -0.5625 -1.25q-0.15625 -0.15625 -0.40625 -0.28125q-0.234375 -0.125 -1.03125 -0.203125l-3.515625 -0.234375l0 -2.875q3.671875 -0.078125 7.03125 -1.0q3.359375 -0.921875 7.921875 -2.453125l0.484375 0.484375z" fill-rule="nonzero"/><path fill="#2f2f2f" d="m353.5473 145.82263l20.796875 48.5625q0.890625 1.90625 1.96875 2.546875q1.078125 0.640625 2.359375 0.8125l1.921875 0.234375l0 2.953125q-4.078125 -0.078125 -6.890625 -0.15625q-2.796875 -0.078125 -5.515625 -0.078125q-2.71875 0 -5.796875 0.078125q-3.078125 0.078125 -6.59375 0.15625l0 -2.953125l4.0 -0.234375q1.828125 -0.09375 1.828125 -2.328125q0 -0.953125 -0.640625 -2.484375l-3.4375 -8.71875l-20.078125 0l-3.125 8.328125q-0.234375 0.640625 -0.4375 1.28125q-0.1875 0.640625 -0.1875 1.28125q0 2.46875 2.546875 2.640625l3.765625 0.234375l0 2.953125q-2.484375 -0.078125 -4.96875 -0.15625q-2.46875 -0.078125 -4.078125 -0.078125q-1.90625 0 -4.234375 0.078125q-2.3125 0.078125 -4.796875 0.15625l0 -2.953125l2.3125 -0.234375q1.609375 -0.25 2.8125 -1.6875q0.640625 -0.875 1.109375 -1.828125q0.484375 -0.96875 1.203125 -2.65625l13.4375 -32.5625q0.640625 -1.59375 1.484375 -3.828125q0.84375 -2.25 1.640625 -4.328125q0.875 -2.46875 1.921875 -5.03125l5.671875 0zm-14.15625 33.921875l16.328125 0l-8.328125 -20.328125l-8.0 20.328125zm60.318054 -16.25l0 21.609375q0 2.15625 0.234375 3.921875q0.25 1.75 0.96875 3.078125q0.71875 1.3125 1.953125 2.03125q1.25 0.71875 3.328125 0.71875q2.71875 0 5.03125 -2.078125q1.125 -0.953125 1.765625 -2.109375q0.640625 -1.171875 0.640625 -2.84375l0 -13.359375q0 -2.328125 -0.15625 -3.15625q-0.15625 -0.84375 -0.5625 -1.25q-0.15625 -0.15625 -0.40625 -0.28125q-0.234375 -0.125 -1.109375 -0.203125l-3.4375 -0.234375l0 -2.875q2.3125 -0.328125 4.546875 -0.640625q2.25 -0.328125 4.484375 -1.046875l5.59375 -1.765625l0.8125 0.484375l0 29.609375q0 1.75 0.15625 2.640625q0.15625 0.875 0.40625 1.1875q0.46875 0.8125 2.46875 0.890625l2.484375 0.15625l0 2.953125q-2.40625 -0.078125 -4.6875 -0.15625q-2.265625 -0.078125 -4.109375 -0.078125q-1.125 0 -2.84375 0.078125q-1.71875 0.078125 -4.046875 0.15625l0.40625 -6.640625l-6.078125 5.921875q-2.0 1.84375 -5.203125 1.84375q-6.5625 0 -9.484375 -3.4375q-2.90625 -3.4375 -2.90625 -9.046875l0 -15.109375q0 -2.328125 -0.171875 -3.15625q-0.15625 -0.84375 -0.5625 -1.25q-0.15625 -0.15625 -0.40625 -0.28125q-0.234375 -0.125 -1.109375 -0.203125l-3.4375 -0.234375l0 -2.875q2.3125 -0.328125 4.546875 -0.640625q2.25 -0.328125 4.5 -1.046875l5.59375 -1.765625l0.796875 0.484375zm49.036224 -12.5625q-0.546875 2.71875 -0.75 5.640625q-0.203125 2.921875 -0.203125 4.921875l0 4.96875l9.125 -0.484375l-0.640625 5.203125l-8.484375 0l0 18.953125q0 2.96875 1.03125 4.125q1.046875 1.15625 3.921875 1.15625q1.125 0 1.875 -0.234375q0.765625 -0.25 1.8125 -0.796875l0.640625 1.515625l-3.921875 4.71875q-0.640625 0.71875 -1.96875 1.078125q-1.3125 0.359375 -2.90625 0.359375q-5.6875 0 -7.96875 -2.515625q-2.28125 -2.53125 -2.28125 -7.71875l0 -20.640625l-5.109375 0.3125l0 -1.75l5.28125 -3.453125l0 -4.71875q0 -1.1875 -0.046875 -2.5q-0.046875 -1.328125 -0.125 -2.453125q-0.078125 -1.28125 -0.15625 -2.484375q2.640625 -0.953125 5.234375 -2.03125q2.609375 -1.09375 4.53125 -1.96875l1.109375 0.796875zm26.40561 -7.359375l0 25.921875l6.40625 -4.953125q1.1875 -0.890625 2.546875 -1.203125q1.375 -0.328125 3.53125 -0.328125q2.875 0 5.15625 0.96875q2.28125 0.953125 3.40625 2.15625q2.078125 2.15625 2.546875 5.15625q0.484375 3.0 0.484375 6.359375l0 15.453125q0 1.75 0.15625 2.59375q0.171875 0.84375 0.328125 1.15625q0.3125 0.484375 0.953125 0.6875q0.640625 0.203125 1.53125 0.28125l2.546875 0.15625l0 2.953125q-1.90625 -0.078125 -4.078125 -0.15625q-2.15625 -0.078125 -3.28125 -0.078125q-2.3125 0 -4.390625 0.078125q-2.078125 0.078125 -3.515625 0.15625l0 -22.078125q0 -4.5625 -1.734375 -6.75q-1.71875 -2.203125 -6.03125 -2.203125q-1.609375 0 -2.6875 0.515625q-1.078125 0.515625 -1.953125 1.328125q-0.96875 0.875 -1.453125 1.84375q-0.46875 0.953125 -0.46875 1.75l0 17.4375q0 1.359375 0.078125 2.53125q0.078125 1.15625 0.484375 1.625q0.484375 0.8125 2.390625 0.890625l2.734375 0.15625l0 2.953125q-0.96875 0 -2.328125 -0.046875q-1.359375 -0.03125 -2.890625 -0.078125q-1.515625 -0.03125 -2.953125 -0.078125q-1.4375 -0.03125 -2.5625 -0.03125q-2.234375 0 -5.125 0.078125q-2.875 0.078125 -5.265625 0.15625l0 -2.953125l2.71875 -0.15625q1.921875 -0.078125 2.40625 -0.890625q0.234375 -0.3125 0.390625 -1.234375q0.15625 -0.921875 0.15625 -2.765625l0 -38.390625q0 -2.328125 -0.15625 -3.15625q-0.15625 -0.84375 -0.5625 -1.25q-0.15625 -0.15625 -0.40625 -0.265625q-0.234375 -0.125 -1.03125 -0.21875l-3.515625 -0.234375l0 -2.875q2.3125 -0.328125 4.546875 -0.6875q2.25 -0.359375 4.484375 -1.0l5.765625 -1.75l0.640625 0.46875zm54.317444 19.4375q9.203125 0 13.875 4.890625q4.6875 4.875 4.6875 13.84375q0 9.671875 -5.078125 15.0q-5.078125 5.3125 -15.15625 5.3125q-8.71875 0 -13.328125 -5.078125q-4.59375 -5.078125 -4.59375 -14.28125q0 -9.4375 5.0 -14.5625q5.0 -5.125 14.59375 -5.125zm-8.71875 17.375q0 2.953125 0.28125 6.109375q0.28125 3.15625 1.234375 5.765625q0.96875 2.59375 2.6875 4.28125q1.71875 1.671875 4.59375 1.671875q2.890625 0 4.40625 -1.515625q1.515625 -1.515625 2.234375 -3.71875q0.71875 -2.203125 0.84375 -4.59375q0.125 -2.40625 0.125 -4.25q0 -9.359375 -2.25 -13.3125q-2.234375 -3.96875 -6.234375 -3.96875q-2.5625 0 -4.125 1.203125q-1.5625 1.203125 -2.40625 3.125q-0.828125 1.921875 -1.109375 4.359375q-0.28125 2.4375 -0.28125 4.84375zm48.245605 -16.890625l0 7.609375l3.515625 -3.84375q1.59375 -1.6875 3.078125 -2.96875q1.484375 -1.28125 3.25 -1.28125q0.953125 0 1.875 0.09375q0.921875 0.078125 1.5625 0.390625l-0.40625 10.328125l-1.921875 0.796875q-1.4375 -2.875 -4.71875 -2.875q-1.03125 0 -2.15625 0.4375q-1.125 0.4375 -2.15625 1.3125q-1.921875 1.6875 -1.921875 3.359375l0 15.53125q0 3.515625 0.390625 4.234375q0.328125 0.5625 1.328125 0.84375q1.0 0.28125 2.125 0.359375l3.109375 0.15625l0 2.953125q-3.03125 -0.078125 -6.390625 -0.15625q-3.359375 -0.078125 -5.609375 -0.078125q-2.234375 0 -5.203125 0.078125q-2.953125 0.078125 -5.1875 0.15625l0 -2.953125l2.71875 -0.15625q1.921875 -0.078125 2.390625 -0.890625q0.25 -0.3125 0.40625 -1.1875q0.15625 -0.890625 0.15625 -2.8125l0 -18.46875q0 -2.328125 -0.15625 -3.15625q-0.15625 -0.84375 -0.5625 -1.25q-0.15625 -0.15625 -0.40625 -0.28125q-0.234375 -0.125 -1.109375 -0.203125l-3.4375 -0.234375l0 -2.875q2.234375 -0.328125 4.46875 -0.640625q2.25 -0.328125 4.328125 -0.96875l5.84375 -1.84375l0.796875 0.484375zm26.22931 -19.28125q2.5625 0 4.28125 1.71875q1.71875 1.71875 1.71875 4.359375q0 2.484375 -1.796875 4.203125q-1.796875 1.71875 -4.203125 1.71875q-2.390625 0 -4.203125 -1.71875q-1.796875 -1.71875 -1.796875 -4.203125q0 -2.640625 1.71875 -4.359375q1.734375 -1.71875 4.28125 -1.71875zm5.203125 19.28125l0 29.28125q0 1.359375 0.078125 2.53125q0.078125 1.15625 0.484375 1.625q0.484375 0.8125 2.40625 0.890625l2.71875 0.15625l0 2.953125q-0.96875 0 -2.328125 -0.046875q-1.359375 -0.03125 -2.875 -0.078125q-1.515625 -0.03125 -2.96875 -0.078125q-1.4375 -0.03125 -2.546875 -0.03125q-1.125 0 -2.890625 0.03125q-1.75 0.046875 -3.4375 0.125q-2.0 0.078125 -4.078125 0.078125l0 -2.953125l2.71875 -0.15625q1.921875 -0.078125 2.40625 -0.890625q0.234375 -0.3125 0.390625 -1.234375q0.171875 -0.921875 0.171875 -2.765625l0 -18.46875q0 -2.328125 -0.171875 -3.15625q-0.15625 -0.84375 -0.546875 -1.25q-0.171875 -0.15625 -0.40625 -0.28125q-0.234375 -0.125 -1.125 -0.203125l-3.4375 -0.234375l0 -2.875q2.328125 -0.328125 4.5625 -0.640625q2.234375 -0.328125 4.484375 -1.046875l5.59375 -1.765625l0.796875 0.484375zm26.077454 -12.5625q-0.546875 2.71875 -0.75 5.640625q-0.203125 2.921875 -0.203125 4.921875l0 4.96875l9.125 -0.484375l-0.640625 5.203125l-8.484375 0l0 18.953125q0 2.96875 1.03125 4.125q1.046875 1.15625 3.921875 1.15625q1.125 0 1.875 -0.234375q0.765625 -0.25 1.8125 -0.796875l0.640625 1.515625l-3.921875 4.71875q-0.640625 0.71875 -1.96875 1.078125q-1.3125 0.359375 -2.90625 0.359375q-5.6875 0 -7.96875 -2.515625q-2.28125 -2.53125 -2.28125 -7.71875l0 -20.640625l-5.109375 0.3125l0 -1.75l5.28125 -3.453125l0 -4.71875q0 -1.1875 -0.046875 -2.5q-0.046875 -1.328125 -0.125 -2.453125q-0.078125 -1.28125 -0.15625 -2.484375q2.640625 -0.953125 5.234375 -2.03125q2.609375 -1.09375 4.53125 -1.96875l1.109375 0.796875zm9.843079 13.046875q2.5625 0.078125 5.28125 0.15625q2.71875 0.078125 5.359375 0.078125q2.640625 0 5.28125 -0.078125q2.640625 -0.078125 5.28125 -0.15625l0 3.03125l-2.71875 0.171875q-1.125 0.078125 -1.640625 0.640625q-0.515625 0.5625 -0.515625 1.1875q0 0.890625 0.390625 1.859375q0.40625 0.953125 1.125 2.78125l6.5625 17.046875l7.59375 -18.953125q0.40625 -1.046875 0.59375 -1.6875q0.203125 -0.640625 0.203125 -1.359375q0 -0.5625 -0.5625 -1.0q-0.546875 -0.4375 -1.671875 -0.515625l-2.5625 -0.171875l0 -3.03125q1.84375 0.078125 3.71875 0.15625q1.890625 0.078125 3.71875 0.078125q1.84375 0 3.71875 -0.078125q1.890625 -0.078125 3.734375 -0.15625l0 3.03125l-1.6875 0.328125q-1.28125 0.234375 -2.171875 1.234375q-0.875 1.0 -1.75 3.171875l-16.15625 37.59375q-1.125 2.484375 -2.453125 4.71875q-1.3125 2.234375 -2.984375 4.078125q-1.6875 1.765625 -3.734375 2.796875q-2.03125 1.046875 -4.4375 1.046875q-1.4375 0 -3.0 -0.359375q-1.546875 -0.359375 -2.828125 -1.0l1.4375 -7.609375l0.875 -0.3125q1.125 1.359375 2.515625 2.15625q1.40625 0.796875 3.25 0.796875q1.203125 0 2.3125 -0.6875q1.125 -0.671875 2.046875 -1.796875q0.921875 -1.109375 1.671875 -2.46875q0.765625 -1.359375 1.328125 -2.71875l1.671875 -4.078125l-12.46875 -31.921875q-0.640625 -1.765625 -1.53125 -3.234375q-0.875 -1.484375 -2.0 -1.5625l-2.796875 -0.171875l0 -3.03125z" fill-rule="nonzero"/><path fill="#000000" fill-opacity="0.0" d="m122.708664 616.063l163.43306 -326.866l427.71655 0l163.43304 326.866l-163.43304 326.86597l-427.71655 0z" fill-rule="evenodd"/><path stroke="#e4003b" stroke-width="24.0" stroke-linejoin="round" stroke-linecap="butt" d="m122.708664 616.063l163.43306 -326.866l427.71655 0l163.43304 326.866l-163.43304 326.86597l-427.71655 0z" fill-rule="evenodd"/><path fill="#e4003b" d="m445.04987 742.0906l18.897644 0l0 18.897583l-18.897644 0z" fill-rule="evenodd"/><path fill="#e4003b" d="m467.80054 742.0906l18.897614 0l0 18.897583l-18.897614 0z" fill-rule="evenodd"/><path fill="#e4003b" d="m445.04987 764.77295l18.897644 0l0 18.897644l-18.897644 0z" fill-rule="evenodd"/><path fill="#e4003b" d="m467.80054 764.77295l18.897614 0l0 18.897644l-18.897614 0z" fill-rule="evenodd"/><path fill="#e4003b" d="m490.55118 742.0906l18.897644 0l0 18.897583l-18.897644 0z" fill-rule="evenodd"/><path fill="#e4003b" d="m490.55118 764.77295l18.897644 0l0 18.897644l-18.897644 0z" fill-rule="evenodd"/><path fill="#e4003b" d="m513.3018 742.0906l18.897644 0l0 18.897583l-18.897644 0z" fill-rule="evenodd"/><path fill="#e4003b" d="m536.0525 742.0906l18.897644 0l0 18.897583l-18.897644 0z" fill-rule="evenodd"/><path fill="#e4003b" d="m513.3018 764.77295l18.897644 0l0 18.897644l-18.897644 0z" fill-rule="evenodd"/><path fill="#e4003b" d="m536.0525 764.77295l18.897644 0l0 18.897644l-18.897644 0z" fill-rule="evenodd"/><path fill="#e4003b" d="m445.04987 787.9934l18.897644 0l0 18.897644l-18.897644 0z" fill-rule="evenodd"/><path fill="#e4003b" d="m467.80054 787.9934l18.897614 0l0 18.897644l-18.897614 0z" fill-rule="evenodd"/><path fill="#0087dc" d="m445.04987 810.67584l18.897644 0l0 18.897644l-18.897644 0z" fill-rule="evenodd"/><path fill="#0087dc" d="m467.80054 810.67584l18.897614 0l0 18.897644l-18.897614 0z" fill-rule="evenodd"/><path fill="#0087dc" d="m490.55118 787.9934l18.897644 0l0 18.897644l-18.897644 0z" fill-rule="evenodd"/><path fill="#0087dc" d="m490.55118 810.67584l18.897644 0l0 18.897644l-18.897644 0z" fill-rule="evenodd"/><path fill="#0087dc" d="m513.3018 787.9934l18.897644 0l0 18.897644l-18.897644 0z" fill-rule="evenodd"/><path fill="#0087dc" d="m536.0525 787.9934l18.897644 0l0 18.897644l-18.897644 0z" fill-rule="evenodd"/><path fill="#0087dc" d="m513.3018 810.67584l18.897644 0l0 18.897644l-18.897644 0z" fill-rule="evenodd"/><path fill="#0087dc" d="m536.0525 810.67584l18.897644 0l0 18.897644l-18.897644 0z" fill-rule="evenodd"/><path fill="#6ab023" d="m445.04987 833.3583l18.897644 0l0 18.897644l-18.897644 0z" fill-rule="evenodd"/><path fill="#6ab023" d="m467.80054 833.3583l18.897614 0l0 18.897644l-18.897614 0z" fill-rule="evenodd"/><path fill="#ffc0cb" d="m490.55118 833.3583l18.897644 0l0 18.897644l-18.897644 0z" fill-rule="evenodd"/><path fill="#ffc0cb" d="m513.3018 833.3583l18.897644 0l0 18.897644l-18.897644 0z" fill-rule="evenodd"/><path fill="#faa61a" d="m536.0525 833.3583l18.897644 0l0 18.897644l-18.897644 0z" fill-rule="evenodd"/><path fill="#e4003b" d="m484.8819 472.03806l30.236206 0l0 30.236237l-30.236206 0z" fill-rule="evenodd"/><path fill="#e4003b" d="m445.04987 419.1496l18.897644 0l0 18.897644l-18.897644 0z" fill-rule="evenodd"/><path fill="#e4003b" d="m467.80054 419.1496l18.897614 0l0 18.897644l-18.897614 0z" fill-rule="evenodd"/><path fill="#e4003b" d="m445.04987 441.83203l18.897644 0l0 18.897614l-18.897644 0z" fill-rule="evenodd"/><path fill="#e4003b" d="m467.80054 441.83203l18.897614 0l0 18.897614l-18.897614 0z" fill-rule="evenodd"/><path fill="#e4003b" d="m490.55118 419.1496l18.897644 0l0 18.897644l-18.897644 0z" fill-rule="evenodd"/><path fill="#ffc0cb" d="m490.55118 441.83203l18.897644 0l0 18.897614l-18.897644 0z" fill-rule="evenodd"/><path fill="#e4003b" d="m513.3018 419.1496l18.897644 0l0 18.897644l-18.897644 0z" fill-rule="evenodd"/><path fill="#e4003b" d="m536.0525 419.1496l18.897644 0l0 18.897644l-18.897644 0z" fill-rule="evenodd"/><path fill="#ffc0cb" d="m513.3018 441.83203l18.897644 0l0 18.897614l-18.897644 0z" fill-rule="evenodd"/><path fill="#e4003b" d="m536.0525 441.83203l18.897644 0l0 18.897614l-18.897644 0z" fill-rule="evenodd"/></g></svg>