<svg version="1.1" viewBox="0.0 0.0 1000.0 1000.0" fill="none" stroke="none" stroke-linecap="square" stroke-miterlimit="10" xmlns:xlink="http://www.w3.org/1999/xlink" xmlns="http://www.w3.org/2000/svg"><clipPath id="gbf4cab50c4_0_0.0"><path d="m0 0l1000.0 0l0 1000.0l-1000.0 0l0 -1000.0z" clip-rule="nonzero"/></clipPath><g clip-path="url(#gbf4cab50c4_0_0.0)"><path fill="#ffffff" d="m0 0l1000.0 0l0 1000.0l-1000.0 0z" fill-rule="evenodd"/><path fill="#000000" fill-opacity="0.0" d="m61.417324 500.0l81.72441 -163.44873l213.74803 0l81.724396 163.44873l-81.724396 163.44873l-213.74803 0z" fill-rule="evenodd"/><path stroke="#e4003b" stroke-width="16.0" stroke-linejoin="round" stroke-linecap="butt" d="m61.417324 500.0l81.72441 -163.44873l213.74803 0l81.724396 163.44873l-81.724396 163.44873l-213.74803 0z" fill-rule="evenodd"/><path fill="#000000" fill-opacity="0.0" d="m561.4488 500.0l81.72443 -163.44873l213.74805 0l81.72443 163.44873l-81.72443 163.44873l-213.74805 0z" fill-rule="evenodd"/><path stroke="#e4003b" stroke-width="16.0" stroke-linejoin="round" stroke-linecap="butt" d="m561.4488 500.0l81.72443 -163.44873l213.74805 0l81.72443 163.44873l-81.72443 163.44873l-213.74805 0z" fill-rule="evenodd"/><path fill="#e4003b" d="m150.04724 484.88058l30.236221 0l0 30.236237l-30.236221 0z" fill-rule="evenodd"/><path fill="#e4003b" d="m225.6378 490.54987l18.897629 0l0 18.897644l-18.897629 0z" fill-rule="evenodd"/><path fill="#e4003b" d="m248.18898 490.54987l18.897629 0l0 18.897644l-18.897629 0z" fill-rule="evenodd"/><path fill="#e4003b" d="m270.74014 490.54987l18.897644 0l0 18.897644l-18.897644 0z" fill-rule="evenodd"/><path fill="#e4003b" d="m191.62204 486.77036l26.456696 0l0 26.456696l-26.456696 0z" fill-rule="evenodd"/><path fill="#0087dc" d="m293.29135 490.54987l18.897614 0l0 18.897644l-18.897614 0z" fill-rule="evenodd"/><path fill="#0087dc" d="m315.84253 490.54987l18.897614 0l0 18.897644l-18.897614 0z" fill-rule="evenodd"/><path fill="#e4003b" d="m706.77167 490.54987l18.897644 0l0 18.897644l-18.897644 0z" fill-rule="evenodd"/><path fill="#e4003b" d="m729.3228 490.54987l18.897644 0l0 18.897644l-18.897644 0z" fill-rule="evenodd"/><path fill="#e4003b" d="m751.874 490.54987l18.897644 0l0 18.897644l-18.897644 0z" fill-rule="evenodd"/><path fill="#e4003b" d="m774.4252 490.54987l18.897644 0l0 18.897644l-18.897644 0z" fill-rule="evenodd"/><path fill="#000000" fill-opacity="0.0" d="m18.897638 18.897638l962.2677 0l0 116.34646l-962.2677 0z" fill-rule="evenodd"/><path fill="#2f2f2f" d="m152.3056 49.10388q3.125 0 5.640625 0.203125q2.53125 0.1875 4.796875 0.671875q2.28125 0.484375 4.484375 1.203125q2.203125 0.71875 4.609375 1.671875l0.46875 0.890625q-0.46875 1.828125 -0.875 4.75q-0.40625 2.921875 -0.953125 7.484375l-3.125 0l-0.40625 -6.875q-2.875 -3.046875 -6.515625 -4.28125q-3.640625 -1.25 -7.875 -1.25q-4.640625 0 -8.40625 1.53125q-3.75 1.515625 -6.390625 4.40625q-2.640625 2.875 -4.09375 6.953125q-1.4375 4.078125 -1.4375 9.1875q0 5.6875 1.640625 10.375q1.640625 4.671875 4.671875 7.953125q3.046875 3.28125 7.40625 5.078125q4.359375 1.796875 9.890625 1.796875q1.921875 0 3.953125 -0.3125q2.046875 -0.328125 4.046875 -0.84375q2.0 -0.515625 3.875 -1.28125q1.875 -0.765625 3.40625 -1.640625l0.953125 0.96875l-1.765625 3.90625q-4.15625 2.5625 -8.875 3.484375q-4.71875 0.921875 -9.515625 0.921875q-7.359375 0 -13.203125 -2.03125q-5.84375 -2.046875 -9.96875 -5.890625q-4.1093826 -3.84375 -6.3125076 -9.28125q-2.203125 -5.4375 -2.203125 -12.15625q0 -6.71875 2.515625 -11.875q2.53125 -5.171875 6.8906326 -8.640625q4.359375 -3.484375 10.1875 -5.28125q5.84375 -1.796875 12.484375 -1.796875zm44.963074 17.90625q9.203125 0 13.875 4.890625q4.6875 4.875 4.6875 13.84375q0 9.671875 -5.078125 15.0q-5.078125 5.3125 -15.15625 5.3125q-8.71875 0 -13.328125 -5.078125q-4.59375 -5.078125 -4.59375 -14.28125q0 -9.4375 5.0 -14.5625q5.0 -5.125 14.59375 -5.125zm-8.71875 17.375q0 2.953125 0.28125 6.109375q0.28125 3.15625 1.234375 5.765625q0.96875 2.59375 2.6875 4.28125q1.71875 1.671875 4.59375 1.671875q2.890625 0 4.40625 -1.515625q1.515625 -1.515625 2.234375 -3.71875q0.71875 -2.203125 0.84375 -4.59375q0.125 -2.40625 0.125 -4.25q0 -9.359375 -2.25 -13.3125q-2.234375 -3.96875 -6.234375 -3.96875q-2.5625 0 -4.125 1.203125q-1.5625 1.203125 -2.40625 3.125q-0.828125 1.921875 -1.109375 4.359375q-0.28125 2.4375 -0.28125 4.84375zm70.8862 12.46875q0 1.359375 0.078125 2.484375q0.078125 1.125 0.484375 1.59375q0.46875 0.8125 2.390625 0.890625l2.71875 0.15625l0 2.953125q-1.03125 0 -2.4375 -0.046875q-1.40625 -0.03125 -2.890625 -0.078125q-1.46875 -0.03125 -2.875 -0.078125q-1.3906097 -0.03125 -2.5156097 -0.03125q-2.484375 0 -5.125 0.078125q-2.625 0.078125 -4.953125 0.15625l0 -2.953125l2.40625 -0.15625q1.109375 -0.078125 1.625 -0.28125q0.53125 -0.203125 0.765625 -0.609375q0.25 -0.3125 0.40625 -1.1875q0.15625 -0.890625 0.15625 -2.8125l0 -14.078125q0 -2.5625 -0.484375 -4.203125q-0.46875 -1.640625 -1.359375 -2.671875q-1.828125 -2.078125 -5.28125 -2.078125q-2.3125 0 -4.3125 1.84375q-1.921875 1.828125 -1.921875 3.59375l0 17.515625q0 1.359375 0.078125 2.484375q0.078125 1.125 0.484375 1.59375q0.484375 0.8125 2.390625 0.890625l2.09375 0.15625l0 2.953125q-0.890625 0 -2.171875 -0.046875q-1.28125 -0.03125 -2.6875 -0.078125q-1.390625 -0.03125 -2.75 -0.078125q-1.359375 -0.03125 -2.484375 -0.03125q-2.234375 0 -5.125 0.078125q-2.875 0.078125 -5.265625 0.15625l0 -2.953125l2.71875 -0.15625q1.921875 -0.078125 2.40625 -0.890625q0.234375 -0.3125 0.390625 -1.1875q0.15625 -0.890625 0.15625 -2.8125l0 -18.46875q0 -2.328125 -0.15625 -3.15625q-0.15625 -0.84375 -0.5625 -1.25q-0.15625 -0.15625 -0.40625 -0.28125q-0.234375 -0.125 -1.03125 -0.203125l-3.515625 -0.234375l0 -2.875q4.078125 -0.171875 7.640625 -1.203125q3.5625 -1.046875 7.3125 -2.25l0.484375 0.484375l0 6.0l6.40625 -4.953125q1.1875 -0.890625 2.546875 -1.203125q1.375 -0.328125 3.53125 -0.328125q3.515625 0 6.265625 1.5625q2.7656097 1.5625 3.8906097 4.921875l6.40625 -4.953125q1.109375 -0.890625 2.421875 -1.203125q1.328125 -0.328125 3.65625 -0.328125q3.03125 0 5.1562805 0.765625q2.125 0.765625 3.4375 2.484375q1.328125 1.71875 1.921875 4.484375q0.59375 2.75 0.59375 6.75l0 15.609375q0 1.75 0.15625 2.59375q0.171875 0.84375 0.328125 1.15625q0.328125 0.484375 0.96875 0.6875q0.640625 0.203125 1.515625 0.28125l2.5625 0.15625l0 2.953125q-1.921875 -0.078125 -4.09375 -0.15625q-2.15625 -0.078125 -3.265625 -0.078125q-2.328125 0 -4.40625 0.078125q-2.0781555 0.078125 -3.5156555 0.15625l0 -21.75q0 -1.53125 -0.25 -3.609375q-0.234375 -2.078125 -1.59375 -3.59375q-0.71875 -0.796875 -1.96875 -1.4375q-1.234375 -0.640625 -3.3125 -0.640625q-2.3125 0 -4.3125 1.84375q-1.921875 1.75 -1.921875 3.671875l0 17.4375zm47.51059 -49.28125l0 26.484375l4.890625 -3.921875q1.75 -1.4375 3.625 -2.28125q1.890625 -0.84375 4.6875 -0.84375q3.203125 0 5.84375 1.171875q2.640625 1.15625 4.5625 3.15625q1.921875 2.0 2.953125 4.71875q1.046875 2.71875 1.046875 5.84375q0 4.390625 -1.53125 8.640625q-1.515625 4.234375 -4.796875 7.03125q-1.671875 1.53125 -3.84375 2.9375q-2.15625 1.390625 -4.3125 2.828125q-2.078125 1.359375 -3.96875 2.03125q-1.875 0.6875 -3.953125 0.6875q-3.359375 0 -5.96875 -0.84375q-2.59375 -0.828125 -4.828125 -2.109375l-3.125 2.546875l-1.75 -0.640625q0.46875 -4.234375 0.59375 -7.90625q0.125 -3.6875 0.125 -6.25l0 -32.234375q0 -2.078125 -0.171875 -3.078125q-0.15625 -1.0 -0.546875 -1.40625q-0.328125 -0.3125 -0.890625 -0.390625q-0.5625 -0.09375 -1.921875 -0.171875l-2.796875 -0.15625l0 -2.875q2.640625 -0.328125 4.921875 -0.640625q2.28125 -0.328125 4.765625 -1.046875l5.75 -1.75l0.640625 0.46875zm0 48.640625q1.359375 2.078125 3.484375 3.25q2.125 1.15625 4.6875 1.15625q2.546875 0 4.3125 -1.15625q1.765625 -1.171875 2.875 -3.125q1.125 -1.953125 1.640625 -4.46875q0.53125 -2.53125 0.53125 -5.25q0 -2.484375 -0.609375 -4.765625q-0.59375 -2.28125 -1.796875 -3.953125q-1.203125 -1.6875 -3.078125 -2.6875q-1.875 -1.0 -4.515625 -1.0q-2.171875 0 -4.296875 1.09375q-2.109375 1.078125 -3.234375 2.90625l0 18.0zm44.95807 -48.0q2.5625 0 4.28125 1.71875q1.71875 1.71875 1.71875 4.359375q0 2.484375 -1.796875 4.203125q-1.796875 1.71875 -4.203125 1.71875q-2.390625 0 -4.203125 -1.71875q-1.796875 -1.71875 -1.796875 -4.203125q0 -2.640625 1.71875 -4.359375q1.734375 -1.71875 4.28125 -1.71875zm5.203125 19.28125l0 29.28125q0 1.359375 0.078125 2.53125q0.078125 1.15625 0.484375 1.625q0.484375 0.8125 2.40625 0.890625l2.71875 0.15625l0 2.953125q-0.96875 0 -2.328125 -0.046875q-1.359375 -0.03125 -2.875 -0.078125q-1.515625 -0.03125 -2.96875 -0.078125q-1.4375 -0.03125 -2.546875 -0.03125q-1.125 0 -2.890625 0.03125q-1.75 0.046875 -3.4375 0.125q-2.0 0.078125 -4.078125 0.078125l0 -2.953125l2.71875 -0.15625q1.921875 -0.078125 2.40625 -0.890625q0.234375 -0.3125 0.390625 -1.234375q0.171875 -0.921875 0.171875 -2.765625l0 -18.46875q0 -2.328125 -0.171875 -3.15625q-0.15625 -0.84375 -0.546875 -1.25q-0.171875 -0.15625 -0.40625 -0.28125q-0.234375 -0.125 -1.125 -0.203125l-3.4375 -0.234375l0 -2.875q2.328125 -0.328125 4.5625 -0.640625q2.234375 -0.328125 4.484375 -1.046875l5.59375 -1.765625l0.796875 0.484375zm25.843079 0l0 6.0l6.40625 -4.953125q1.1875 -0.890625 2.546875 -1.203125q1.375 -0.328125 3.53125 -0.328125q2.875 0 5.15625 0.96875q2.28125 0.953125 3.40625 2.15625q2.078125 2.15625 2.546875 5.15625q0.484375 3.0 0.484375 6.359375l0 15.453125q0 1.75 0.15625 2.59375q0.171875 0.84375 0.328125 1.15625q0.3125 0.484375 0.953125 0.6875q0.640625 0.203125 1.53125 0.28125l2.546875 0.15625l0 2.953125q-1.90625 -0.078125 -4.078125 -0.15625q-2.15625 -0.078125 -3.28125 -0.078125q-2.3125 0 -4.390625 0.078125q-2.078125 0.078125 -3.515625 0.15625l0 -22.078125q0 -4.5625 -1.734375 -6.75q-1.71875 -2.203125 -6.03125 -2.203125q-1.609375 0 -2.6875 0.515625q-1.078125 0.515625 -1.953125 1.328125q-0.96875 0.875 -1.453125 1.84375q-0.46875 0.953125 -0.46875 1.75l0 17.4375q0 1.359375 0.078125 2.53125q0.078125 1.15625 0.484375 1.625q0.484375 0.8125 2.390625 0.890625l2.734375 0.15625l0 2.953125q-0.96875 0 -2.328125 -0.046875q-1.359375 -0.03125 -2.890625 -0.078125q-1.515625 -0.03125 -2.953125 -0.078125q-1.4375 -0.03125 -2.5625 -0.03125q-2.234375 0 -5.125 0.078125q-2.875 0.078125 -5.265625 0.15625l0 -2.953125l2.71875 -0.15625q1.921875 -0.078125 2.40625 -0.890625q0.234375 -0.3125 0.390625 -1.234375q0.15625 -0.921875 0.15625 -2.765625l0 -18.46875q0 -2.328125 -0.15625 -3.15625q-0.15625 -0.84375 -0.5625 -1.25q-0.15625 -0.15625 -0.40625 -0.28125q-0.234375 -0.125 -1.03125 -0.203125l-3.515625 -0.234375l0 -2.875q3.671875 -0.078125 7.03125 -1.0q3.359375 -0.921875 7.921875 -2.453125l0.484375 0.484375zm52.879974 -0.484375q3.203125 0 6.03125 0.84375q2.84375 0.84375 4.921875 2.609375q2.09375 1.75 3.328125 4.4375q1.234375 2.671875 1.234375 6.28125l0 4.078125q-3.1875 0.875 -6.671875 1.234375q-3.484375 0.359375 -5.796875 0.359375l-10.640625 0q0 2.96875 0.828125 5.453125q0.84375 2.46875 2.4375 4.28125q1.609375 1.796875 4.0 2.796875q2.40625 1.0 5.453125 1.0q2.0 0 4.359375 -0.84375q2.359375 -0.84375 4.28125 -1.96875l0.953125 1.203125l-1.765625 3.84375q-3.59375 1.921875 -6.4375 2.671875q-2.828125 0.765625 -6.359375 0.765625q-8.5625 0 -13.359375 -4.796875q-4.796875 -4.796875 -4.796875 -13.765625q0 -3.515625 0.4375 -5.953125q0.4375 -2.4375 1.328125 -4.28125q1.359375 -2.71875 3.03125 -4.109375q1.6875 -1.40625 4.0 -2.765625q1.28125 -0.8125 2.3125 -1.40625q1.046875 -0.59375 2.078125 -1.03125q1.046875 -0.453125 2.171875 -0.6875q1.125 -0.25 2.640625 -0.25zm-8.078125 15.609375q0.3125 0 1.078125 0.046875q0.765625 0.03125 1.71875 0.078125q0.96875 0.03125 2.046875 0.078125q1.078125 0.03125 1.953125 0.03125q1.359375 0 3.3125 -0.078125q1.96875 -0.078125 3.328125 -0.15625l0 -0.328125q0 -2.234375 -0.28125 -4.1875q-0.28125 -1.96875 -1.046875 -3.4375q-0.75 -1.484375 -2.03125 -2.328125q-1.28125 -0.84375 -3.203125 -0.84375q-3.4375 0 -5.15625 2.6875q-1.71875 2.671875 -1.71875 8.4375zm67.359344 -35.046875l0 49.53125q0 1.75 0.109375 2.5625q0.125 0.796875 0.296875 1.03125q0.3125 0.640625 1.0625 0.84375q0.765625 0.203125 1.484375 0.28125l2.5625 0.15625l0 2.953125q-2.234375 -0.078125 -4.796875 -0.15625q-2.5625 -0.078125 -4.0 -0.078125q-1.125 0 -2.765625 0.078125q-1.640625 0.078125 -3.71875 0.15625l-0.390625 -0.640625l0.390625 -6.0l-8.3125 6.8125q-0.875 0.71875 -2.078125 0.828125q-1.203125 0.125 -2.328125 0.125q-3.59375 0 -6.359375 -1.515625q-2.75 -1.53125 -4.640625 -4.0q-1.875 -2.484375 -2.84375 -5.71875q-0.953125 -3.25 -0.953125 -6.609375q0 -5.75 1.515625 -9.3125q1.53125 -3.5625 4.96875 -5.890625l5.75 -3.75q3.359375 -2.25 7.125 -2.25q2.328125 0 4.125 0.5625q1.796875 0.5625 4.03125 1.4375l0 -10.46875q0 -2.078125 -0.125 -3.0q-0.109375 -0.921875 -0.515625 -1.328125q-0.234375 -0.234375 -0.515625 -0.34375q-0.28125 -0.125 -0.921875 -0.21875l-4.234375 -0.234375l0 -2.875q2.15625 -0.25 4.71875 -0.609375q2.5625 -0.359375 4.953125 -1.078125l5.765625 -1.75l0.640625 0.46875zm-27.203125 37.125q0 2.40625 0.515625 4.890625q0.53125 2.46875 1.609375 4.4375q1.078125 1.953125 2.828125 3.203125q1.765625 1.234375 4.25 1.234375q1.765625 0 3.28125 -0.5625q1.515625 -0.5625 2.640625 -1.4375q1.03125 -0.890625 1.671875 -1.96875q0.640625 -1.078125 0.640625 -2.671875l0 -14.640625q-1.59375 -2.25 -3.921875 -3.640625q-2.3125 -1.40625 -5.03125 -1.40625q-2.71875 0 -4.359375 1.078125q-1.640625 1.078125 -2.5625 2.84375q-0.921875 1.765625 -1.25 4.046875q-0.3125 2.28125 -0.3125 4.59375zm88.95807 -34.875l20.796875 48.5625q0.890625 1.90625 1.96875 2.546875q1.078125 0.640625 2.359375 0.8125l1.921875 0.234375l0 2.953125q-4.078125 -0.078125 -6.890625 -0.15625q-2.796875 -0.078125 -5.515625 -0.078125q-2.71875 0 -5.796875 0.078125q-3.078125 0.078125 -6.59375 0.15625l0 -2.953125l4.0 -0.234375q1.828125 -0.09375 1.828125 -2.328125q0 -0.953125 -0.640625 -2.484375l-3.4375 -8.71875l-20.078125 0l-3.125 8.328125q-0.234375 0.640625 -0.4375 1.28125q-0.1875 0.640625 -0.1875 1.28125q0 2.46875 2.546875 2.640625l3.765625 0.234375l0 2.953125q-2.484375 -0.078125 -4.96875 -0.15625q-2.46875 -0.078125 -4.078125 -0.078125q-1.90625 0 -4.234375 0.078125q-2.3125 0.078125 -4.796875 0.15625l0 -2.953125l2.3125 -0.234375q1.609375 -0.25 2.8125 -1.6875q0.640625 -0.875 1.109375 -1.828125q0.484375 -0.96875 1.203125 -2.65625l13.4375 -32.5625q0.640625 -1.59375 1.484375 -3.828125q0.84375 -2.25 1.640625 -4.328125q0.875 -2.46875 1.921875 -5.03125l5.671875 0zm-14.15625 33.921875l16.328125 0l-8.328125 -20.328125l-8.0 20.328125zm60.318054 -16.25l0 21.609375q0 2.15625 0.234375 3.921875q0.25 1.75 0.96875 3.078125q0.71875 1.3125 1.953125 2.03125q1.25 0.71875 3.328125 0.71875q2.71875 0 5.03125 -2.078125q1.125 -0.953125 1.765625 -2.109375q0.640625 -1.171875 0.640625 -2.84375l0 -13.359375q0 -2.328125 -0.15625 -3.15625q-0.15625 -0.84375 -0.5625 -1.25q-0.15625 -0.15625 -0.40625 -0.28125q-0.234375 -0.125 -1.109375 -0.203125l-3.4375 -0.234375l0 -2.875q2.3125 -0.328125 4.546875 -0.640625q2.25 -0.328125 4.484375 -1.046875l5.59375 -1.765625l0.8125 0.484375l0 29.609375q0 1.75 0.15625 2.640625q0.15625 0.875 0.40625 1.1875q0.46875 0.8125 2.46875 0.890625l2.484375 0.15625l0 2.953125q-2.40625 -0.078125 -4.6875 -0.15625q-2.265625 -0.078125 -4.109375 -0.078125q-1.125 0 -2.84375 0.078125q-1.71875 0.078125 -4.046875 0.15625l0.40625 -6.640625l-6.078125 5.921875q-2.0 1.84375 -5.203125 1.84375q-6.5625 0 -9.484375 -3.4375q-2.90625 -3.4375 -2.90625 -9.046875l0 -15.109375q0 -2.328125 -0.171875 -3.15625q-0.15625 -0.84375 -0.5625 -1.25q-0.15625 -0.15625 -0.40625 -0.28125q-0.234375 -0.125 -1.109375 -0.203125l-3.4375 -0.234375l0 -2.875q2.3125 -0.328125 4.546875 -0.640625q2.25 -0.328125 4.5 -1.046875l5.59375 -1.765625l0.796875 0.484375zm49.036194 -12.5625q-0.546875 2.71875 -0.75 5.640625q-0.203125 2.921875 -0.203125 4.921875l0 4.96875l9.125 -0.484375l-0.640625 5.203125l-8.484375 0l0 18.953125q0 2.96875 1.03125 4.125q1.046875 1.15625 3.921875 1.15625q1.125 0 1.875 -0.234375q0.765625 -0.25 1.8125 -0.796875l0.640625 1.515625l-3.921875 4.71875q-0.640625 0.71875 -1.96875 1.078125q-1.3125 0.359375 -2.90625 0.359375q-5.6875 0 -7.96875 -2.515625q-2.28125 -2.53125 -2.28125 -7.71875l0 -20.640625l-5.109375 0.3125l0 -1.75l5.28125 -3.453125l0 -4.71875q0 -1.1875 -0.046875 -2.5q-0.046875 -1.328125 -0.125 -2.453125q-0.078125 -1.28125 -0.15625 -2.484375q2.640625 -0.953125 5.234375 -2.03125q2.609375 -1.09375 4.53125 -1.96875l1.109375 0.796875zm26.405579 -7.359375l0 25.921875l6.40625 -4.953125q1.1875 -0.890625 2.546875 -1.203125q1.375 -0.328125 3.53125 -0.328125q2.875 0 5.15625 0.96875q2.28125 0.953125 3.40625 2.15625q2.078125 2.15625 2.546875 5.15625q0.484375 3.0 0.484375 6.359375l0 15.453125q0 1.75 0.15625 2.59375q0.171875 0.84375 0.328125 1.15625q0.3125 0.484375 0.953125 0.6875q0.640625 0.203125 1.53125 0.28125l2.546875 0.15625l0 2.953125q-1.90625 -0.078125 -4.078125 -0.15625q-2.15625 -0.078125 -3.28125 -0.078125q-2.3125 0 -4.390625 0.078125q-2.078125 0.078125 -3.515625 0.15625l0 -22.078125q0 -4.5625 -1.734375 -6.75q-1.71875 -2.203125 -6.03125 -2.203125q-1.609375 0 -2.6875 0.515625q-1.078125 0.515625 -1.953125 1.328125q-0.96875 0.875 -1.453125 1.84375q-0.46875 0.953125 -0.46875 1.75l0 17.4375q0 1.359375 0.078125 2.53125q0.078125 1.15625 0.484375 1.625q0.484375 0.8125 2.390625 0.890625l2.734375 0.15625l0 2.953125q-0.96875 0 -2.328125 -0.046875q-1.359375 -0.03125 -2.890625 -0.078125q-1.515625 -0.03125 -2.953125 -0.078125q-1.4375 -0.03125 -2.5625 -0.03125q-2.234375 0 -5.125 0.078125q-2.875 0.078125 -5.265625 0.15625l0 -2.953125l2.71875 -0.15625q1.921875 -0.078125 2.40625 -0.890625q0.234375 -0.3125 0.390625 -1.234375q0.15625 -0.921875 0.15625 -2.765625l0 -38.390625q0 -2.328125 -0.15625 -3.15625q-0.15625 -0.84375 -0.5625 -1.25q-0.15625 -0.15625 -0.40625 -0.265625q-0.234375 -0.125 -1.03125 -0.21875l-3.515625 -0.234375l0 -2.875q2.3125 -0.328125 4.546875 -0.6875q2.25 -0.359375 4.484375 -1.0l5.765625 -1.75l0.640625 0.46875zm54.317444 19.4375q9.203125 0 13.875 4.890625q4.6875 4.875 4.6875 13.84375q0 9.671875 -5.078125 15.0q-5.078125 5.3125 -15.15625 5.3125q-8.71875 0 -13.328125 -5.078125q-4.59375 -5.078125 -4.59375 -14.28125q0 -9.4375 5.0 -14.5625q5.0 -5.125 14.59375 -5.125zm-8.71875 17.375q0 2.953125 0.28125 6.109375q0.28125 3.15625 1.234375 5.765625q0.96875 2.59375 2.6875 4.28125q1.71875 1.671875 4.59375 1.671875q2.890625 0 4.40625 -1.515625q1.515625 -1.515625 2.234375 -3.71875q0.71875 -2.203125 0.84375 -4.59375q0.125 -2.40625 0.125 -4.25q0 -9.359375 -2.25 -13.3125q-2.234375 -3.96875 -6.234375 -3.96875q-2.5625 0 -4.125 1.203125q-1.5625 1.203125 -2.40625 3.125q-0.828125 1.921875 -1.109375 4.359375q-0.28125 2.4375 -0.28125 4.84375zm48.245605 -16.890625l0 7.609375l3.515625 -3.84375q1.59375 -1.6875 3.078125 -2.96875q1.484375 -1.28125 3.25 -1.28125q0.953125 0 1.875 0.09375q0.921875 0.078125 1.5625 0.390625l-0.40625 10.328125l-1.921875 0.796875q-1.4375 -2.875 -4.71875 -2.875q-1.03125 0 -2.15625 0.4375q-1.125 0.4375 -2.15625 1.3125q-1.921875 1.6875 -1.921875 3.359375l0 15.53125q0 3.515625 0.390625 4.234375q0.328125 0.5625 1.328125 0.84375q1.0 0.28125 2.125 0.359375l3.109375 0.15625l0 2.953125q-3.03125 -0.078125 -6.390625 -0.15625q-3.359375 -0.078125 -5.609375 -0.078125q-2.234375 0 -5.203125 0.078125q-2.953125 0.078125 -5.1875 0.15625l0 -2.953125l2.71875 -0.15625q1.921875 -0.078125 2.390625 -0.890625q0.25 -0.3125 0.40625 -1.1875q0.15625 -0.890625 0.15625 -2.8125l0 -18.46875q0 -2.328125 -0.15625 -3.15625q-0.15625 -0.84375 -0.5625 -1.25q-0.15625 -0.15625 -0.40625 -0.28125q-0.234375 -0.125 -1.109375 -0.203125l-3.4375 -0.234375l0 -2.875q2.234375 -0.328125 4.46875 -0.640625q2.25 -0.328125 4.328125 -0.96875l5.84375 -1.84375l0.796875 0.484375zm26.22937 -19.28125q2.5625 0 4.28125 1.71875q1.71875 1.71875 1.71875 4.359375q0 2.484375 -1.796875 4.203125q-1.796875 1.71875 -4.203125 1.71875q-2.390625 0 -4.203125 -1.71875q-1.796875 -1.71875 -1.796875 -4.203125q0 -2.640625 1.71875 -4.359375q1.734375 -1.71875 4.28125 -1.71875zm5.203125 19.28125l0 29.28125q0 1.359375 0.078125 2.53125q0.078125 1.15625 0.484375 1.625q0.484375 0.8125 2.40625 0.890625l2.71875 0.15625l0 2.953125q-0.96875 0 -2.328125 -0.046875q-1.359375 -0.03125 -2.875 -0.078125q-1.515625 -0.03125 -2.96875 -0.078125q-1.4375 -0.03125 -2.546875 -0.03125q-1.125 0 -2.890625 0.03125q-1.75 0.046875 -3.4375 0.125q-2.0 0.078125 -4.078125 0.078125l0 -2.953125l2.71875 -0.15625q1.921875 -0.078125 2.40625 -0.890625q0.234375 -0.3125 0.390625 -1.234375q0.171875 -0.921875 0.171875 -2.765625l0 -18.46875q0 -2.328125 -0.171875 -3.15625q-0.15625 -0.84375 -0.546875 -1.25q-0.171875 -0.15625 -0.40625 -0.28125q-0.234375 -0.125 -1.125 -0.203125l-3.4375 -0.234375l0 -2.875q2.328125 -0.328125 4.5625 -0.640625q2.234375 -0.328125 4.484375 -1.046875l5.59375 -1.765625l0.796875 0.484375zm26.077454 -12.5625q-0.546875 2.71875 -0.75 5.640625q-0.203125 2.921875 -0.203125 4.921875l0 4.96875l9.125 -0.484375l-0.640625 5.203125l-8.484375 0l0 18.953125q0 2.96875 1.03125 4.125q1.046875 1.15625 3.921875 1.15625q1.125 0 1.875 -0.234375q0.765625 -0.25 1.8125 -0.796875l0.640625 1.515625l-3.921875 4.71875q-0.640625 0.71875 -1.96875 1.078125q-1.3125 0.359375 -2.90625 0.359375q-5.6875 0 -7.96875 -2.515625q-2.28125 -2.53125 -2.28125 -7.71875l0 -20.640625l-5.109375 0.3125l0 -1.75l5.28125 -3.453125l0 -4.71875q0 -1.1875 -0.046875 -2.5q-0.046875 -1.328125 -0.125 -2.453125q-0.078125 -1.28125 -0.15625 -2.484375q2.640625 -0.953125 5.234375 -2.03125q2.609375 -1.09375 4.53125 -1.96875l1.109375 0.796875zm9.843079 13.046875q2.5625 0.078125 5.28125 0.15625q2.71875 0.078125 5.359375 0.078125q2.640625 0 5.28125 -0.078125q2.640625 -0.078125 5.28125 -0.15625l0 3.03125l-2.71875 0.171875q-1.125 0.078125 -1.640625 0.640625q-0.515625 0.5625 -0.515625 1.1875q0 0.890625 0.390625 1.859375q0.40625 0.953125 1.125 2.78125l6.5625 17.046875l7.59375 -18.953125q0.40625 -1.046875 0.59375 -1.6875q0.203125 -0.640625 0.203125 -1.359375q0 -0.5625 -0.5625 -1.0q-0.546875 -0.4375 -1.671875 -0.515625l-2.5625 -0.171875l0 -3.03125q1.84375 0.078125 3.71875 0.15625q1.890625 0.078125 3.71875 0.078125q1.84375 0 3.71875 -0.078125q1.890625 -0.078125 3.734375 -0.15625l0 3.03125l-1.6875 0.328125q-1.28125 0.234375 -2.171875 1.234375q-0.875 1.0 -1.75 3.171875l-16.15625 37.59375q-1.125 2.484375 -2.453125 4.71875q-1.3125 2.234375 -2.984375 4.078125q-1.6875 1.765625 -3.734375 2.796875q-2.03125 1.046875 -4.4375 1.046875q-1.4375 0 -3.0 -0.359375q-1.546875 -0.359375 -2.828125 -1.0l1.4375 -7.609375l0.875 -0.3125q1.125 1.359375 2.515625 2.15625q1.40625 0.796875 3.25 0.796875q1.203125 0 2.3125 -0.6875q1.125 -0.671875 2.046875 -1.796875q0.921875 -1.109375 1.671875 -2.46875q0.765625 -1.359375 1.328125 -2.71875l1.671875 -4.078125l-12.46875 -31.921875q-0.640625 -1.765625 -1.53125 -3.234375q-0.875 -1.484375 -2.0 -1.5625l-2.796875 -0.171875l0 -3.03125z" fill-rule="nonzero"/><path fill="#000000" fill-opacity="0.0" d="m9.448819 683.30707l481.13385 0l0 155.40161l-481.13385 0z" fill-rule="evenodd"/><path fill="#000000" d="m97.83893 716.4004q1.4375 0.046875 2.84375 0.09375q1.421875 0.046875 2.859375 0.046875q1.015625 0 2.046875 -0.046875q1.03125 -0.046875 2.03125 -0.09375q1.25 1.578125 2.296875 3.046875q1.0625 1.46875 2.40625 3.046875l15.21875 17.765625l0 -17.71875q0 -1.96875 -0.140625 -2.703125q-0.140625 -0.75 -0.390625 -0.984375q-0.1875 -0.203125 -0.546875 -0.3125q-0.359375 -0.125 -1.21875 -0.21875l-1.78125 -0.140625l0 -1.78125q1.390625 0.046875 2.75 0.09375q1.375 0.046875 2.765625 0.046875q1.390625 0 2.734375 -0.046875q1.34375 -0.046875 2.734375 -0.09375l0 1.78125l-1.765625 0.140625q-0.96875 0.09375 -1.328125 0.265625q-0.359375 0.15625 -0.546875 0.40625q-0.234375 0.375 -0.34375 1.21875q-0.09375 0.84375 -0.09375 2.515625l0 22.046875q0 1.34375 0.046875 2.5625q0.046875 1.21875 0.109375 2.328125l-0.34375 0.1875l-3.9375 -0.625l-2.34375 -2.640625l-3.3125 -3.78125l-15.75 -18.96875l-0.09375 0l0 19.25q0 1.6875 0.09375 2.453125q0.09375 0.765625 0.28125 1.046875q0.15625 0.25 0.515625 0.4375q0.359375 0.1875 1.40625 0.28125l1.78125 0.15625l0 1.765625q-0.234375 0 -0.796875 -0.03125q-0.546875 -0.015625 -1.3125 -0.046875q-0.765625 -0.015625 -1.640625 -0.046875q-0.859375 -0.015625 -1.71875 -0.015625q-1.390625 0 -2.765625 0.046875q-1.359375 0.046875 -2.75 0.09375l0 -1.765625l1.765625 -0.15625q1.015625 -0.09375 1.375 -0.25q0.359375 -0.171875 0.5 -0.421875q0.234375 -0.28125 0.328125 -1.015625q0.109375 -0.75 0.109375 -2.53125l0 -20.546875q0 -1.921875 -0.15625 -2.6875q-0.140625 -0.765625 -0.375 -1.0q-0.1875 -0.203125 -0.5625 -0.3125q-0.359375 -0.125 -1.171875 -0.21875l-1.8125 -0.140625l0 -1.78125zm51.984085 10.078125q5.515625 0 8.3125 2.9375q2.8125 2.921875 2.8125 8.296875q0 5.8125 -3.046875 9.0q-3.046875 3.1875 -9.09375 3.1875q-5.234375 0 -8.0 -3.046875q-2.75 -3.046875 -2.75 -8.5625q0 -5.671875 3.0 -8.734375q3.0 -3.078125 8.765625 -3.078125zm-5.234375 10.421875q0 1.765625 0.15625 3.671875q0.171875 1.890625 0.75 3.453125q0.578125 1.5625 1.609375 2.578125q1.03125 1.0 2.765625 1.0q1.71875 0 2.625 -0.90625q0.921875 -0.921875 1.34375 -2.234375q0.4375 -1.328125 0.5 -2.765625q0.078125 -1.4375 0.078125 -2.546875q0 -5.609375 -1.34375 -7.984375q-1.34375 -2.375 -3.734375 -2.375q-1.546875 0 -2.484375 0.71875q-0.921875 0.71875 -1.4375 1.875q-0.5 1.140625 -0.671875 2.609375q-0.15625 1.46875 -0.15625 2.90625zm28.93805 -10.125l0 4.546875l2.109375 -2.296875q0.96875 -1.015625 1.84375 -1.78125q0.890625 -0.765625 1.953125 -0.765625q0.578125 0 1.125 0.046875q0.546875 0.046875 0.9375 0.25l-0.234375 6.1875l-1.15625 0.484375q-0.859375 -1.734375 -2.828125 -1.734375q-0.625 0 -1.296875 0.265625q-0.671875 0.265625 -1.296875 0.796875q-1.15625 1.0 -1.15625 2.015625l0 9.3125q0 2.109375 0.234375 2.53125q0.203125 0.34375 0.796875 0.515625q0.609375 0.15625 1.28125 0.203125l1.859375 0.109375l0 1.765625q-1.8125 -0.046875 -3.828125 -0.09375q-2.015625 -0.046875 -3.359375 -0.046875q-1.34375 0 -3.125 0.046875q-1.78125 0.046875 -3.125 0.09375l0 -1.765625l1.640625 -0.109375q1.140625 -0.046875 1.4375 -0.515625q0.140625 -0.203125 0.234375 -0.71875q0.09375 -0.53125 0.09375 -1.6875l0 -11.09375q0 -1.390625 -0.09375 -1.890625q-0.09375 -0.5 -0.328125 -0.75q-0.109375 -0.09375 -0.25 -0.15625q-0.140625 -0.078125 -0.671875 -0.125l-2.0625 -0.140625l0 -1.734375q1.34375 -0.1875 2.6875 -0.375q1.34375 -0.203125 2.59375 -0.578125l3.5 -1.109375l0.484375 0.296875zm18.531418 -7.546875q-0.34375 1.640625 -0.46875 3.390625q-0.109375 1.75 -0.109375 2.953125l0 2.96875l5.46875 -0.28125l-0.375 3.109375l-5.09375 0l0 11.375q0 1.78125 0.625 2.484375q0.625 0.6875 2.34375 0.6875q0.671875 0 1.125 -0.140625q0.46875 -0.140625 1.09375 -0.484375l0.375 0.921875l-2.34375 2.828125q-0.390625 0.4375 -1.1875 0.640625q-0.78125 0.21875 -1.75 0.21875q-3.40625 0 -4.78125 -1.5q-1.359375 -1.515625 -1.359375 -4.640625l0 -12.390625l-3.0625 0.203125l0 -1.0625l3.15625 -2.0625l0 -2.828125q0 -0.71875 -0.03125 -1.515625q-0.015625 -0.796875 -0.0625 -1.46875q-0.046875 -0.765625 -0.09375 -1.484375q1.578125 -0.578125 3.140625 -1.21875q1.5625 -0.65625 2.71875 -1.1875l0.671875 0.484375zm15.843414 -4.40625l0 15.546875l3.828125 -2.984375q0.71875 -0.515625 1.53125 -0.703125q0.828125 -0.203125 2.125 -0.203125q1.71875 0 3.09375 0.578125q1.375 0.578125 2.046875 1.296875q1.234375 1.296875 1.515625 3.09375q0.296875 1.796875 0.296875 3.8125l0 9.265625q0 1.0625 0.09375 1.5625q0.109375 0.5 0.203125 0.703125q0.1875 0.28125 0.5625 0.40625q0.390625 0.109375 0.921875 0.15625l1.53125 0.109375l0 1.765625q-1.140625 -0.046875 -2.4375 -0.09375q-1.296875 -0.046875 -1.96875 -0.046875q-1.390625 0 -2.640625 0.046875q-1.25 0.046875 -2.109375 0.09375l0 -13.25q0 -2.734375 -1.046875 -4.046875q-1.03125 -1.328125 -3.609375 -1.328125q-0.96875 0 -1.625 0.3125q-0.640625 0.3125 -1.171875 0.796875q-0.578125 0.53125 -0.859375 1.109375q-0.28125 0.5625 -0.28125 1.046875l0 10.46875q0 0.8125 0.046875 1.515625q0.046875 0.6875 0.28125 0.984375q0.296875 0.46875 1.4375 0.515625l1.640625 0.109375l0 1.765625q-0.578125 0 -1.40625 -0.03125q-0.8125 -0.015625 -1.71875 -0.046875q-0.90625 -0.015625 -1.78125 -0.046875q-0.859375 -0.015625 -1.53125 -0.015625q-1.34375 0 -3.078125 0.046875q-1.71875 0.046875 -3.15625 0.09375l0 -1.765625l1.625 -0.109375q1.15625 -0.046875 1.4375 -0.515625q0.15625 -0.203125 0.25 -0.75q0.09375 -0.546875 0.09375 -1.65625l0 -23.046875q0 -1.390625 -0.09375 -1.890625q-0.09375 -0.5 -0.34375 -0.75q-0.09375 -0.09375 -0.234375 -0.15625q-0.140625 -0.078125 -0.625 -0.125l-2.109375 -0.140625l0 -1.734375q1.390625 -0.1875 2.734375 -0.40625q1.34375 -0.21875 2.6875 -0.59375l3.453125 -1.0625l0.390625 0.296875zm44.59372 11.65625q5.515625 0 8.3125 2.9375q2.8125 2.921875 2.8125 8.296875q0 5.8125 -3.046875 9.0q-3.046875 3.1875 -9.09375 3.1875q-5.234375 0 -8.0 -3.046875q-2.75 -3.046875 -2.75 -8.5625q0 -5.671875 3.0 -8.734375q3.0 -3.078125 8.765625 -3.078125zm-5.234375 10.421875q0 1.765625 0.15625 3.671875q0.171875 1.890625 0.75 3.453125q0.578125 1.5625 1.609375 2.578125q1.03125 1.0 2.765625 1.0q1.71875 0 2.625 -0.90625q0.921875 -0.921875 1.34375 -2.234375q0.4375 -1.328125 0.5 -2.765625q0.078125 -1.4375 0.078125 -2.546875q0 -5.609375 -1.34375 -7.984375q-1.34375 -2.375 -3.734375 -2.375q-1.546875 0 -2.484375 0.71875q-0.921875 0.71875 -1.4375 1.875q-0.5 1.140625 -0.671875 2.609375q-0.15625 1.46875 -0.15625 2.90625zm29.703674 7.203125q0 2.109375 0.25 2.53125q0.1875 0.34375 0.828125 0.515625q0.65625 0.15625 1.328125 0.203125l2.15625 0.109375l0 1.765625q-2.015625 -0.046875 -4.125 -0.09375q-2.109375 -0.046875 -3.453125 -0.046875q-1.34375 0 -3.25 0.046875q-1.890625 0.046875 -3.578125 0.09375l0 -1.765625l2.015625 -0.109375q1.34375 -0.09375 1.6875 -0.625q0.09375 -0.1875 0.1875 -0.65625q0.09375 -0.484375 0.09375 -1.640625l0 -13.203125l-3.78125 0.25l0 -1.15625q1.0 -0.484375 1.953125 -1.0q0.96875 -0.53125 1.828125 -1.15625l0 -2.3125q0 -1.578125 0.09375 -2.390625q0.109375 -0.828125 0.34375 -1.34375q0.34375 -0.78125 0.859375 -1.34375q0.53125 -0.578125 1.640625 -1.5l3.265625 -2.734375q0.8125 -0.671875 1.40625 -1.046875q0.609375 -0.390625 1.125 -0.609375q0.53125 -0.21875 0.984375 -0.28125q0.46875 -0.078125 0.984375 -0.078125q0.96875 0 1.96875 0.296875l0 4.65625l-0.765625 0.328125q-0.625 -0.375 -1.4375 -0.765625q-0.8125 -0.390625 -1.625 -0.390625q-0.921875 0 -1.421875 0.21875q-0.5 0.21875 -0.796875 0.5q-0.375 0.390625 -0.578125 1.09375q-0.1875 0.6875 -0.1875 2.171875l0 5.625l0.4375 0q0.71875 0 1.546875 -0.015625q0.84375 -0.03125 1.6875 -0.046875q0.84375 -0.03125 1.53125 -0.078125q0.703125 -0.0625 1.09375 -0.0625l0.1875 0.390625l-0.53125 2.78125l-5.953125 0l0 12.875zm38.593964 -1.0625q0 1.828125 0.09375 2.59375q0.09375 0.765625 0.34375 1.0q0.140625 0.203125 0.546875 0.328125q0.40625 0.109375 1.265625 0.203125l1.828125 0.140625l0 1.921875q-1.25 -0.046875 -3.1875 -0.09375q-1.9375 -0.046875 -4.15625 -0.046875q-0.859375 0 -1.921875 0.015625q-1.046875 0.03125 -2.109375 0.046875q-1.046875 0.03125 -1.984375 0.046875q-0.9375 0.03125 -1.5625 0.03125l0 -1.921875l1.828125 -0.140625q0.859375 -0.09375 1.265625 -0.203125q0.40625 -0.125 0.546875 -0.328125q0.25 -0.234375 0.34375 -1.046875q0.09375 -0.8125 0.09375 -2.5l0 -23.71875l-5.671875 0q-1.1875 0 -1.890625 0.078125q-0.6875 0.078125 -0.984375 0.3125q-0.234375 0.1875 -0.34375 0.5q-0.09375 0.3125 -0.140625 0.703125l-0.234375 3.3125l-1.921875 0q-0.09375 -3.125 -0.296875 -4.9375q-0.1875 -1.828125 -0.328125 -2.703125l0.296875 -0.234375q3.734375 0.046875 7.484375 0.09375q3.75 0.046875 7.390625 0.046875q3.75 0 7.46875 -0.046875q3.71875 -0.046875 7.453125 -0.09375l0.296875 0.234375q-0.34375 1.875 -0.4375 3.734375q-0.09375 1.84375 -0.1875 3.90625l-1.921875 0l-0.234375 -3.265625q-0.109375 -1.203125 -0.828125 -1.4375q-0.421875 -0.140625 -1.09375 -0.171875q-0.671875 -0.03125 -1.34375 -0.03125l-5.765625 0l0 23.671875zm8.789795 -15.984375q1.53125 0.046875 3.15625 0.09375q1.640625 0.046875 3.21875 0.046875q1.59375 0 3.171875 -0.046875q1.578125 -0.046875 3.171875 -0.09375l0 1.828125l-1.640625 0.09375q-0.671875 0.046875 -0.984375 0.390625q-0.3125 0.328125 -0.3125 0.703125q0 0.53125 0.234375 1.109375q0.25 0.578125 0.6875 1.6875l3.9375 10.21875l4.5625 -11.375q0.234375 -0.625 0.34375 -1.0q0.125 -0.390625 0.125 -0.828125q0 -0.328125 -0.34375 -0.59375q-0.328125 -0.265625 -1.0 -0.3125l-1.53125 -0.09375l0 -1.828125q1.109375 0.046875 2.234375 0.09375q1.125 0.046875 2.234375 0.046875q1.09375 0 2.21875 -0.046875q1.140625 -0.046875 2.234375 -0.09375l0 1.828125l-1.0 0.1875q-0.765625 0.140625 -1.296875 0.75q-0.53125 0.59375 -1.0625 1.890625l-9.6875 22.5625q-0.671875 1.484375 -1.46875 2.828125q-0.796875 1.34375 -1.796875 2.453125q-1.015625 1.046875 -2.234375 1.671875q-1.21875 0.625 -2.671875 0.625q-0.859375 0 -1.796875 -0.21875q-0.9375 -0.203125 -1.703125 -0.59375l0.875 -4.5625l0.515625 -0.1875q0.671875 0.8125 1.515625 1.28125q0.84375 0.484375 1.953125 0.484375q0.71875 0 1.390625 -0.40625q0.671875 -0.40625 1.21875 -1.078125q0.546875 -0.671875 1.0 -1.484375q0.46875 -0.8125 0.796875 -1.625l1.015625 -2.453125l-7.5 -19.15625q-0.375 -1.046875 -0.90625 -1.9375q-0.53125 -0.890625 -1.203125 -0.9375l-1.671875 -0.09375l0 -1.828125zm36.62555 -0.28125l0 3.59375l3.828125 -2.984375q0.71875 -0.515625 1.53125 -0.703125q0.828125 -0.203125 2.125 -0.203125q1.71875 0 3.09375 0.578125q1.375 0.578125 2.046875 1.296875q1.234375 1.296875 1.515625 3.09375q0.296875 1.796875 0.296875 3.8125l0 9.265625q0 1.0625 0.09375 1.5625q0.109375 0.5 0.203125 0.703125q0.1875 0.28125 0.5625 0.40625q0.390625 0.109375 0.921875 0.15625l1.53125 0.109375l0 1.765625q-1.140625 -0.046875 -2.4375 -0.09375q-1.296875 -0.046875 -1.96875 -0.046875q-1.390625 0 -2.640625 0.046875q-1.25 0.046875 -2.109375 0.09375l0 -13.25q0 -2.734375 -1.046875 -4.046875q-1.03125 -1.328125 -3.609375 -1.328125q-0.96875 0 -1.625 0.3125q-0.640625 0.3125 -1.171875 0.796875q-0.578125 0.53125 -0.859375 1.109375q-0.28125 0.5625 -0.28125 1.046875l0 10.46875q0 0.8125 0.046875 1.515625q0.046875 0.6875 0.28125 0.984375q0.296875 0.46875 1.4375 0.515625l1.640625 0.109375l0 1.765625q-0.578125 0 -1.40625 -0.03125q-0.8125 -0.015625 -1.71875 -0.046875q-0.90625 -0.015625 -1.78125 -0.046875q-0.859375 -0.015625 -1.53125 -0.015625q-1.34375 0 -3.078125 0.046875q-1.71875 0.046875 -3.15625 0.09375l0 -1.765625l1.625 -0.109375q1.15625 -0.046875 1.4375 -0.515625q0.15625 -0.203125 0.25 -0.75q0.09375 -0.546875 0.09375 -1.65625l0 -11.09375q0 -1.390625 -0.09375 -1.890625q-0.09375 -0.5 -0.34375 -0.75q-0.09375 -0.09375 -0.234375 -0.15625q-0.140625 -0.078125 -0.625 -0.125l-2.109375 -0.140625l0 -1.734375q2.203125 -0.046875 4.21875 -0.59375q2.015625 -0.5625 4.75 -1.46875l0.296875 0.296875zm31.718689 -0.296875q1.921875 0 3.625 0.515625q1.703125 0.5 2.953125 1.5625q1.25 1.046875 1.984375 2.65625q0.75 1.609375 0.75 3.765625l0 2.453125q-1.921875 0.515625 -4.015625 0.734375q-2.078125 0.21875 -3.46875 0.21875l-6.390625 0q0 1.78125 0.5 3.265625q0.515625 1.484375 1.46875 2.5625q0.96875 1.078125 2.40625 1.6875q1.4375 0.59375 3.265625 0.59375q1.203125 0 2.609375 -0.5q1.421875 -0.5 2.578125 -1.171875l0.5625 0.71875l-1.046875 2.296875q-2.15625 1.15625 -3.859375 1.609375q-1.703125 0.453125 -3.828125 0.453125q-5.125 0 -8.015625 -2.875q-2.875 -2.875 -2.875 -8.25q0 -2.125 0.265625 -3.578125q0.265625 -1.46875 0.796875 -2.578125q0.8125 -1.625 1.8125 -2.46875q1.015625 -0.84375 2.40625 -1.65625q0.765625 -0.484375 1.390625 -0.84375q0.625 -0.359375 1.25 -0.609375q0.625 -0.265625 1.296875 -0.40625q0.671875 -0.15625 1.578125 -0.15625zm-4.84375 9.359375q0.1875 0 0.640625 0.03125q0.46875 0.015625 1.03125 0.046875q0.578125 0.015625 1.21875 0.046875q0.65625 0.015625 1.1875 0.015625q0.8125 0 1.984375 -0.046875q1.1875 -0.046875 2.0 -0.09375l0 -0.1875q0 -1.34375 -0.171875 -2.515625q-0.15625 -1.1875 -0.625 -2.0625q-0.453125 -0.890625 -1.21875 -1.390625q-0.765625 -0.515625 -1.921875 -0.515625q-2.0625 0 -3.09375 1.609375q-1.03125 1.609375 -1.03125 5.0625z" fill-rule="nonzero"/><path fill="#000000" d="m41.382626 773.7285q1.875 0 3.375 0.125q1.515625 0.109375 2.875 0.40625q1.375 0.28125 2.6875 0.71875q1.328125 0.421875 2.78125 1.0l0.28125 0.53125q-0.28125 1.109375 -0.53125 2.859375q-0.234375 1.75 -0.578125 4.484375l-1.859375 0l-0.25 -4.125q-1.71875 -1.828125 -3.90625 -2.5625q-2.1875 -0.75 -4.734375 -0.75q-2.78125 0 -5.046875 0.921875q-2.25 0.90625 -3.828125 2.640625q-1.578125 1.71875 -2.453125 4.171875q-0.859375 2.4375 -0.859375 5.515625q0 3.40625 0.984375 6.21875q0.984375 2.796875 2.796875 4.765625q1.828125 1.96875 4.4375 3.0625q2.625 1.078125 5.9375 1.078125q1.15625 0 2.375 -0.1875q1.234375 -0.203125 2.421875 -0.515625q1.203125 -0.3125 2.328125 -0.765625q1.140625 -0.453125 2.046875 -0.984375l0.578125 0.578125l-1.0625 2.34375q-2.5 1.546875 -5.328125 2.09375q-2.828125 0.546875 -5.703125 0.546875q-4.421875 0 -7.921875 -1.21875q-3.5 -1.21875 -5.984375 -3.515625q-2.46875 -2.3125 -3.796875 -5.578125q-1.3125 -3.265625 -1.3125 -7.296875q0 -4.03125 1.515625 -7.125q1.515625 -3.109375 4.125 -5.1875q2.625 -2.09375 6.125 -3.171875q3.5 -1.078125 7.484375 -1.078125zm26.984196 10.75q5.515625 0 8.3125 2.9375q2.8125 2.921875 2.8125 8.296875q0 5.8125 -3.046875 9.0q-3.046875 3.1875 -9.09375 3.1875q-5.234379 0 -8.000004 -3.046875q-2.75 -3.046875 -2.75 -8.5625q0 -5.671875 3.0 -8.734375q3.0 -3.078125 8.765629 -3.078125zm-5.234379 10.421875q0 1.765625 0.15625 3.671875q0.171875 1.890625 0.7500038 3.453125q0.578125 1.5625 1.609375 2.578125q1.03125 1.0 2.765625 1.0q1.71875 0 2.625 -0.90625q0.921875 -0.921875 1.34375 -2.234375q0.4375 -1.328125 0.5 -2.765625q0.078125 -1.4375 0.078125 -2.546875q0 -5.609375 -1.34375 -7.984375q-1.34375 -2.375 -3.734375 -2.375q-1.546875 0 -2.484375 0.71875q-0.921875 0.71875 -1.4375038 1.875q-0.5 1.140625 -0.671875 2.609375q-0.15625 1.46875 -0.15625 2.90625zm42.51618 7.484375q0 0.8125 0.046875 1.484375q0.0625 0.671875 0.296875 0.96875q0.28125 0.46875 1.4375 0.515625l1.640625 0.109375l0 1.765625q-0.625 0 -1.46875 -0.03125q-0.84375 -0.015625 -1.734375 -0.046875q-0.890625 -0.015625 -1.734375 -0.046875q-0.828125 -0.015625 -1.5 -0.015625q-1.484375 0 -3.078125 0.046875q-1.578125 0.046875 -2.96875 0.09375l0 -1.765625l1.4375 -0.109375q0.671875 -0.046875 0.984375 -0.15625q0.3125 -0.125 0.453125 -0.359375q0.140625 -0.203125 0.234375 -0.71875q0.109375 -0.53125 0.109375 -1.6875l0 -8.453125q0 -1.53125 -0.296875 -2.515625q-0.28125 -0.984375 -0.8125 -1.609375q-1.109375 -1.25 -3.171875 -1.25q-1.390625 0 -2.59375 1.109375q-1.140625 1.109375 -1.140625 2.15625l0 10.515625q0 0.8125 0.046875 1.484375q0.046875 0.671875 0.28125 0.96875q0.296875 0.46875 1.4375 0.515625l1.25 0.109375l0 1.765625q-0.53125 0 -1.296875 -0.03125q-0.765625 -0.015625 -1.609375 -0.046875q-0.828125 -0.015625 -1.65625 -0.046875q-0.8125 -0.015625 -1.484375 -0.015625q-1.34375 0 -3.078125 0.046875q-1.71875 0.046875 -3.15625 0.09375l0 -1.765625l1.625 -0.109375q1.15625 -0.046875 1.4375 -0.515625q0.15625 -0.203125 0.25 -0.71875q0.09375 -0.53125 0.09375 -1.6875l0 -11.09375q0 -1.390625 -0.09375 -1.890625q-0.09375 -0.5 -0.34375 -0.75q-0.09375 -0.09375 -0.234375 -0.15625q-0.140625 -0.078125 -0.625 -0.125l-2.109375 -0.140625l0 -1.734375q2.4375 -0.09375 4.578125 -0.71875q2.140625 -0.625 4.390625 -1.34375l0.296875 0.296875l0 3.59375l3.828125 -2.984375q0.71875 -0.515625 1.53125 -0.703125q0.828125 -0.203125 2.125 -0.203125q2.109375 0 3.765625 0.9375q1.65625 0.9375 2.328125 2.953125l3.84375 -2.984375q0.671875 -0.515625 1.453125 -0.703125q0.796875 -0.203125 2.1875 -0.203125q1.828125 0 3.09375 0.453125q1.28125 0.453125 2.0625 1.5q0.796875 1.03125 1.15625 2.6875q0.359375 1.65625 0.359375 4.046875l0 9.359375q0 1.0625 0.09375 1.5625q0.109375 0.5 0.203125 0.703125q0.1875 0.28125 0.5625 0.40625q0.390625 0.109375 0.921875 0.15625l1.53125 0.109375l0 1.765625q-1.15625 -0.046875 -2.453125 -0.09375q-1.28125 -0.046875 -1.953125 -0.046875q-1.390625 0 -2.640625 0.046875q-1.25 0.046875 -2.125 0.09375l0 -13.046875q0 -0.921875 -0.140625 -2.15625q-0.140625 -1.25 -0.953125 -2.171875q-0.4375 -0.484375 -1.1875 -0.859375q-0.734375 -0.390625 -1.984375 -0.390625q-1.390625 0 -2.59375 1.109375q-1.15625 1.0625 -1.15625 2.203125l0 10.46875zm28.515839 -29.5625l0 15.875l2.9375 -2.34375q1.046875 -0.859375 2.171875 -1.359375q1.140625 -0.515625 2.8125 -0.515625q1.921875 0 3.5 0.703125q1.59375 0.6875 2.734375 1.890625q1.15625 1.203125 1.78125 2.84375q0.625 1.625 0.625 3.484375q0 2.640625 -0.921875 5.1875q-0.90625 2.546875 -2.875 4.234375q-1.0 0.90625 -2.296875 1.75q-1.296875 0.828125 -2.59375 1.703125q-1.25 0.8125 -2.375 1.21875q-1.125 0.40625 -2.375 0.40625q-2.015625 0 -3.578125 -0.5q-1.5625 -0.5 -2.90625 -1.265625l-1.875 1.53125l-1.046875 -0.390625q0.28125 -2.546875 0.34375 -4.75q0.078125 -2.203125 0.078125 -3.734375l0 -19.34375q0 -1.25 -0.09375 -1.84375q-0.09375 -0.609375 -0.328125 -0.859375q-0.203125 -0.1875 -0.546875 -0.234375q-0.328125 -0.046875 -1.140625 -0.09375l-1.671875 -0.09375l0 -1.734375q1.578125 -0.1875 2.9375 -0.375q1.375 -0.203125 2.859375 -0.625l3.46875 -1.0625l0.375 0.296875zm0 29.171875q0.8125 1.25 2.078125 1.953125q1.28125 0.6875 2.828125 0.6875q1.53125 0 2.578125 -0.6875q1.0625 -0.703125 1.734375 -1.875q0.671875 -1.171875 0.984375 -2.6875q0.3125 -1.515625 0.3125 -3.140625q0 -1.5 -0.359375 -2.859375q-0.359375 -1.375 -1.078125 -2.375q-0.71875 -1.015625 -1.859375 -1.609375q-1.125 -0.59375 -2.703125 -0.59375q-1.296875 0 -2.578125 0.65625q-1.265625 0.640625 -1.9375 1.734375l0 10.796875zm26.984314 -28.796875q1.53125 0 2.5625 1.03125q1.03125 1.03125 1.03125 2.625q0 1.484375 -1.078125 2.515625q-1.078125 1.03125 -2.515625 1.03125q-1.4375 0 -2.53125 -1.03125q-1.078125 -1.03125 -1.078125 -2.515625q0 -1.59375 1.03125 -2.625q1.03125 -1.03125 2.578125 -1.03125zm3.109375 11.578125l0 17.5625q0 0.8125 0.046875 1.515625q0.046875 0.6875 0.296875 0.984375q0.28125 0.46875 1.4375 0.515625l1.625 0.109375l0 1.765625q-0.5625 0 -1.390625 -0.03125q-0.8125 -0.015625 -1.734375 -0.046875q-0.90625 -0.015625 -1.765625 -0.046875q-0.859375 -0.015625 -1.53125 -0.015625q-0.671875 0 -1.734375 0.015625q-1.046875 0.03125 -2.0625 0.078125q-1.203125 0.046875 -2.453125 0.046875l0 -1.765625l1.640625 -0.109375q1.15625 -0.046875 1.4375 -0.515625q0.140625 -0.203125 0.234375 -0.75q0.109375 -0.546875 0.109375 -1.65625l0 -11.09375q0 -1.390625 -0.109375 -1.890625q-0.09375 -0.5 -0.328125 -0.75q-0.09375 -0.09375 -0.25 -0.15625q-0.140625 -0.078125 -0.65625 -0.125l-2.078125 -0.140625l0 -1.734375q1.40625 -0.1875 2.75 -0.375q1.34375 -0.203125 2.6875 -0.625l3.359375 -1.0625l0.46875 0.296875zm15.515289 0l0 3.59375l3.828125 -2.984375q0.71875 -0.515625 1.53125 -0.703125q0.828125 -0.203125 2.125 -0.203125q1.71875 0 3.09375 0.578125q1.375 0.578125 2.046875 1.296875q1.234375 1.296875 1.515625 3.09375q0.296875 1.796875 0.296875 3.8125l0 9.265625q0 1.0625 0.09375 1.5625q0.109375 0.5 0.203125 0.703125q0.1875 0.28125 0.5625 0.40625q0.390625 0.109375 0.921875 0.15625l1.53125 0.109375l0 1.765625q-1.140625 -0.046875 -2.4375 -0.09375q-1.296875 -0.046875 -1.96875 -0.046875q-1.390625 0 -2.640625 0.046875q-1.25 0.046875 -2.109375 0.09375l0 -13.25q0 -2.734375 -1.046875 -4.046875q-1.03125 -1.328125 -3.609375 -1.328125q-0.96875 0 -1.625 0.3125q-0.640625 0.3125 -1.171875 0.796875q-0.578125 0.53125 -0.859375 1.109375q-0.28125 0.5625 -0.28125 1.046875l0 10.46875q0 0.8125 0.046875 1.515625q0.046875 0.6875 0.28125 0.984375q0.296875 0.46875 1.4375 0.515625l1.640625 0.109375l0 1.765625q-0.578125 0 -1.40625 -0.03125q-0.8125 -0.015625 -1.71875 -0.046875q-0.90625 -0.015625 -1.78125 -0.046875q-0.859375 -0.015625 -1.53125 -0.015625q-1.34375 0 -3.078125 0.046875q-1.71875 0.046875 -3.15625 0.09375l0 -1.765625l1.625 -0.109375q1.15625 -0.046875 1.4375 -0.515625q0.15625 -0.203125 0.25 -0.75q0.09375 -0.546875 0.09375 -1.65625l0 -11.09375q0 -1.390625 -0.09375 -1.890625q-0.09375 -0.5 -0.34375 -0.75q-0.09375 -0.09375 -0.234375 -0.15625q-0.140625 -0.078125 -0.625 -0.125l-2.109375 -0.140625l0 -1.734375q2.203125 -0.046875 4.21875 -0.59375q2.015625 -0.5625 4.75 -1.46875l0.296875 0.296875zm31.718689 -0.296875q1.921875 0 3.625 0.515625q1.703125 0.5 2.953125 1.5625q1.25 1.046875 1.984375 2.65625q0.75 1.609375 0.75 3.765625l0 2.453125q-1.921875 0.515625 -4.015625 0.734375q-2.078125 0.21875 -3.46875 0.21875l-6.390625 0q0 1.78125 0.5 3.265625q0.515625 1.484375 1.46875 2.5625q0.96875 1.078125 2.40625 1.6875q1.4375 0.59375 3.265625 0.59375q1.203125 0 2.609375 -0.5q1.421875 -0.5 2.578125 -1.171875l0.5625 0.71875l-1.046875 2.296875q-2.15625 1.15625 -3.859375 1.609375q-1.703125 0.453125 -3.828125 0.453125q-5.125 0 -8.015625 -2.875q-2.875 -2.875 -2.875 -8.25q0 -2.125 0.265625 -3.578125q0.265625 -1.46875 0.796875 -2.578125q0.8125 -1.625 1.8125 -2.46875q1.015625 -0.84375 2.40625 -1.65625q0.765625 -0.484375 1.390625 -0.84375q0.625 -0.359375 1.25 -0.609375q0.625 -0.265625 1.296875 -0.40625q0.671875 -0.15625 1.578125 -0.15625zm-4.84375 9.359375q0.1875 0 0.640625 0.03125q0.46875 0.015625 1.03125 0.046875q0.578125 0.015625 1.21875 0.046875q0.65625 0.015625 1.1875 0.015625q0.8125 0 1.984375 -0.046875q1.1875 -0.046875 2.0 -0.09375l0 -0.1875q0 -1.34375 -0.171875 -2.515625q-0.15625 -1.1875 -0.625 -2.0625q-0.453125 -0.890625 -1.21875 -1.390625q-0.765625 -0.515625 -1.921875 -0.515625q-2.0625 0 -3.09375 1.609375q-1.03125 1.609375 -1.03125 5.0625zm40.42192 -21.015625l0 29.703125q0 1.0625 0.0625 1.546875q0.078125 0.46875 0.171875 0.609375q0.1875 0.390625 0.640625 0.515625q0.46875 0.109375 0.890625 0.15625l1.546875 0.109375l0 1.765625q-1.34375 -0.046875 -2.890625 -0.09375q-1.53125 -0.046875 -2.390625 -0.046875q-0.671875 0 -1.65625 0.046875q-0.984375 0.046875 -2.234375 0.09375l-0.25 -0.375l0.25 -3.609375l-5.0 4.078125q-0.515625 0.4375 -1.25 0.5q-0.71875 0.078125 -1.390625 0.078125q-2.15625 0 -3.8125 -0.90625q-1.65625 -0.921875 -2.78125 -2.40625q-1.125 -1.484375 -1.703125 -3.421875q-0.578125 -1.953125 -0.578125 -3.96875q0 -3.453125 0.90625 -5.578125q0.921875 -2.140625 2.984375 -3.546875l3.453125 -2.25q2.015625 -1.34375 4.265625 -1.34375q1.40625 0 2.484375 0.34375q1.078125 0.328125 2.421875 0.859375l0 -6.296875q0 -1.234375 -0.078125 -1.78125q-0.0625 -0.5625 -0.3125 -0.796875q-0.140625 -0.15625 -0.3125 -0.21875q-0.171875 -0.078125 -0.546875 -0.125l-2.546875 -0.140625l0 -1.734375q1.296875 -0.140625 2.828125 -0.359375q1.546875 -0.21875 2.984375 -0.640625l3.453125 -1.0625l0.390625 0.296875zm-16.328125 22.265625q0 1.4375 0.3125 2.9375q0.3125 1.484375 0.953125 2.65625q0.65625 1.171875 1.703125 1.921875q1.0625 0.734375 2.546875 0.734375q1.0625 0 1.96875 -0.328125q0.921875 -0.34375 1.59375 -0.859375q0.625 -0.53125 1.0 -1.171875q0.390625 -0.65625 0.390625 -1.625l0 -8.78125q-0.96875 -1.34375 -2.359375 -2.171875q-1.390625 -0.84375 -3.015625 -0.84375q-1.640625 0 -2.625 0.65625q-0.984375 0.640625 -1.53125 1.703125q-0.546875 1.046875 -0.75 2.421875q-0.1875 1.359375 -0.1875 2.75zm53.374985 -20.921875l12.484375 29.125q0.53125 1.15625 1.171875 1.546875q0.65625 0.375 1.421875 0.46875l1.15625 0.15625l0 1.765625q-2.453125 -0.046875 -4.140625 -0.09375q-1.671875 -0.046875 -3.3125 -0.046875q-1.625 0 -3.484375 0.046875q-1.84375 0.046875 -3.953125 0.09375l0 -1.765625l2.40625 -0.15625q1.09375 -0.046875 1.09375 -1.390625q0 -0.578125 -0.375 -1.484375l-2.0625 -5.234375l-12.046875 0l-1.875 5.0q-0.140625 0.375 -0.265625 0.765625q-0.125 0.375 -0.125 0.765625q0 1.484375 1.546875 1.578125l2.25 0.15625l0 1.765625q-1.484375 -0.046875 -2.984375 -0.09375q-1.484375 -0.046875 -2.4375 -0.046875q-1.15625 0 -2.546875 0.046875q-1.390625 0.046875 -2.8750305 0.09375l0 -1.765625l1.3906555 -0.15625q0.953125 -0.140625 1.671875 -1.0q0.390625 -0.53125 0.671875 -1.109375q0.296875 -0.578125 0.71875 -1.578125l8.078125 -19.546875q0.375 -0.953125 0.875 -2.296875q0.515625 -1.34375 0.984375 -2.59375q0.53125 -1.484375 1.15625 -3.015625l3.40625 0zm-8.5 20.34375l9.796875 0l-4.984375 -12.1875l-4.8125 12.1875zm36.20343 -9.734375l0 12.953125q0 1.296875 0.140625 2.359375q0.140625 1.046875 0.5625 1.84375q0.4375 0.78125 1.1875 1.21875q0.75 0.4375 2.0 0.4375q1.625 0 3.015625 -1.25q0.671875 -0.578125 1.046875 -1.265625q0.390625 -0.703125 0.390625 -1.71875l0 -8.015625q0 -1.390625 -0.09375 -1.890625q-0.09375 -0.5 -0.328125 -0.75q-0.109375 -0.09375 -0.25 -0.15625q-0.140625 -0.078125 -0.671875 -0.125l-2.0625 -0.140625l0 -1.734375q1.390625 -0.1875 2.734375 -0.375q1.34375 -0.203125 2.6875 -0.625l3.359375 -1.0625l0.484375 0.296875l0 17.75q0 1.0625 0.09375 1.59375q0.09375 0.515625 0.25 0.71875q0.28125 0.46875 1.484375 0.515625l1.484375 0.109375l0 1.765625q-1.4375 -0.046875 -2.8125 -0.09375q-1.359375 -0.046875 -2.46875 -0.046875q-0.671875 0 -1.703125 0.046875q-1.03125 0.046875 -2.421875 0.09375l0.234375 -3.984375l-3.640625 3.5625q-1.203125 1.09375 -3.125 1.09375q-3.9375 0 -5.6875 -2.0625q-1.75 -2.0625 -1.75 -5.421875l0 -9.078125q0 -1.390625 -0.09375 -1.890625q-0.09375 -0.5 -0.34375 -0.75q-0.09375 -0.09375 -0.234375 -0.15625q-0.140625 -0.078125 -0.671875 -0.125l-2.0625 -0.140625l0 -1.734375q1.390625 -0.1875 2.734375 -0.375q1.34375 -0.203125 2.6875 -0.625l3.359375 -1.0625l0.484375 0.296875zm29.421814 -7.546875q-0.34375 1.640625 -0.46875 3.390625q-0.109375 1.75 -0.109375 2.953125l0 2.96875l5.46875 -0.28125l-0.375 3.109375l-5.09375 0l0 11.375q0 1.78125 0.625 2.484375q0.625 0.6875 2.34375 0.6875q0.671875 0 1.125 -0.140625q0.46875 -0.140625 1.09375 -0.484375l0.375 0.921875l-2.34375 2.828125q-0.390625 0.4375 -1.1875 0.640625q-0.78125 0.21875 -1.75 0.21875q-3.40625 0 -4.78125 -1.5q-1.359375 -1.515625 -1.359375 -4.640625l0 -12.390625l-3.0625 0.203125l0 -1.0625l3.15625 -2.0625l0 -2.828125q0 -0.71875 -0.03125 -1.515625q-0.015625 -0.796875 -0.0625 -1.46875q-0.046875 -0.765625 -0.09375 -1.484375q1.578125 -0.578125 3.140625 -1.21875q1.5625 -0.65625 2.71875 -1.1875l0.671875 0.484375zm15.843414 -4.40625l0 15.546875l3.828125 -2.984375q0.71875 -0.515625 1.53125 -0.703125q0.828125 -0.203125 2.125 -0.203125q1.71875 0 3.09375 0.578125q1.375 0.578125 2.046875 1.296875q1.234375 1.296875 1.515625 3.09375q0.296875 1.796875 0.296875 3.8125l0 9.265625q0 1.0625 0.09375 1.5625q0.109375 0.5 0.203125 0.703125q0.1875 0.28125 0.5625 0.40625q0.390625 0.109375 0.921875 0.15625l1.53125 0.109375l0 1.765625q-1.140625 -0.046875 -2.4375 -0.09375q-1.296875 -0.046875 -1.96875 -0.046875q-1.390625 0 -2.640625 0.046875q-1.25 0.046875 -2.109375 0.09375l0 -13.25q0 -2.734375 -1.046875 -4.046875q-1.03125 -1.328125 -3.609375 -1.328125q-0.96875 0 -1.625 0.3125q-0.640625 0.3125 -1.171875 0.796875q-0.578125 0.53125 -0.859375 1.109375q-0.28125 0.5625 -0.28125 1.046875l0 10.46875q0 0.8125 0.046875 1.515625q0.046875 0.6875 0.28125 0.984375q0.296875 0.46875 1.4375 0.515625l1.640625 0.109375l0 1.765625q-0.578125 0 -1.40625 -0.03125q-0.8125 -0.015625 -1.71875 -0.046875q-0.90625 -0.015625 -1.78125 -0.046875q-0.859375 -0.015625 -1.53125 -0.015625q-1.34375 0 -3.078125 0.046875q-1.71875 0.046875 -3.15625 0.09375l0 -1.765625l1.625 -0.109375q1.15625 -0.046875 1.4375 -0.515625q0.15625 -0.203125 0.25 -0.75q0.09375 -0.546875 0.09375 -1.65625l0 -23.046875q0 -1.390625 -0.09375 -1.890625q-0.09375 -0.5 -0.34375 -0.75q-0.09375 -0.09375 -0.234375 -0.15625q-0.140625 -0.078125 -0.625 -0.125l-2.109375 -0.140625l0 -1.734375q1.390625 -0.1875 2.734375 -0.40625q1.34375 -0.21875 2.6875 -0.59375l3.453125 -1.0625l0.390625 0.296875zm32.59369 11.65625q5.515625 0 8.3125 2.9375q2.8125 2.921875 2.8125 8.296875q0 5.8125 -3.046875 9.0q-3.046875 3.1875 -9.09375 3.1875q-5.234375 0 -8.0 -3.046875q-2.75 -3.046875 -2.75 -8.5625q0 -5.671875 3.0 -8.734375q3.0 -3.078125 8.765625 -3.078125zm-5.234375 10.421875q0 1.765625 0.15625 3.671875q0.171875 1.890625 0.75 3.453125q0.578125 1.5625 1.609375 2.578125q1.03125 1.0 2.765625 1.0q1.71875 0 2.625 -0.90625q0.921875 -0.921875 1.34375 -2.234375q0.4375 -1.328125 0.5 -2.765625q0.078125 -1.4375 0.078125 -2.546875q0 -5.609375 -1.34375 -7.984375q-1.34375 -2.375 -3.734375 -2.375q-1.546875 0 -2.484375 0.71875q-0.921875 0.71875 -1.4375 1.875q-0.5 1.140625 -0.671875 2.609375q-0.15625 1.46875 -0.15625 2.90625zm28.93805 -10.125l0 4.546875l2.109375 -2.296875q0.96875 -1.015625 1.84375 -1.78125q0.890625 -0.765625 1.953125 -0.765625q0.578125 0 1.125 0.046875q0.546875 0.046875 0.9375 0.25l-0.234375 6.1875l-1.15625 0.484375q-0.859375 -1.734375 -2.828125 -1.734375q-0.625 0 -1.296875 0.265625q-0.671875 0.265625 -1.296875 0.796875q-1.15625 1.0 -1.15625 2.015625l0 9.3125q0 2.109375 0.234375 2.53125q0.203125 0.34375 0.796875 0.515625q0.609375 0.15625 1.28125 0.203125l1.859375 0.109375l0 1.765625q-1.8125 -0.046875 -3.828125 -0.09375q-2.015625 -0.046875 -3.359375 -0.046875q-1.34375 0 -3.125 0.046875q-1.78125 0.046875 -3.125 0.09375l0 -1.765625l1.640625 -0.109375q1.140625 -0.046875 1.4375 -0.515625q0.140625 -0.203125 0.234375 -0.71875q0.09375 -0.53125 0.09375 -1.6875l0 -11.09375q0 -1.390625 -0.09375 -1.890625q-0.09375 -0.5 -0.328125 -0.75q-0.109375 -0.09375 -0.25 -0.15625q-0.140625 -0.078125 -0.671875 -0.125l-2.0625 -0.140625l0 -1.734375q1.34375 -0.1875 2.6875 -0.375q1.34375 -0.203125 2.59375 -0.578125l3.5 -1.109375l0.484375 0.296875zm15.750183 -11.578125q1.53125 0 2.5625 1.03125q1.03125 1.03125 1.03125 2.625q0 1.484375 -1.078125 2.515625q-1.078125 1.03125 -2.515625 1.03125q-1.4375 0 -2.53125 -1.03125q-1.078125 -1.03125 -1.078125 -2.515625q0 -1.59375 1.03125 -2.625q1.03125 -1.03125 2.578125 -1.03125zm3.109375 11.578125l0 17.5625q0 0.8125 0.046875 1.515625q0.046875 0.6875 0.296875 0.984375q0.28125 0.46875 1.4375 0.515625l1.625 0.109375l0 1.765625q-0.5625 0 -1.390625 -0.03125q-0.8125 -0.015625 -1.734375 -0.046875q-0.90625 -0.015625 -1.765625 -0.046875q-0.859375 -0.015625 -1.53125 -0.015625q-0.671875 0 -1.734375 0.015625q-1.046875 0.03125 -2.0625 0.078125q-1.203125 0.046875 -2.453125 0.046875l0 -1.765625l1.640625 -0.109375q1.15625 -0.046875 1.4375 -0.515625q0.140625 -0.203125 0.234375 -0.75q0.109375 -0.546875 0.109375 -1.65625l0 -11.09375q0 -1.390625 -0.109375 -1.890625q-0.09375 -0.5 -0.328125 -0.75q-0.09375 -0.09375 -0.25 -0.15625q-0.140625 -0.078125 -0.65625 -0.125l-2.078125 -0.140625l0 -1.734375q1.40625 -0.1875 2.75 -0.375q1.34375 -0.203125 2.6875 -0.625l3.359375 -1.0625l0.46875 0.296875zm15.655914 -7.546875q-0.34375 1.640625 -0.46875 3.390625q-0.109375 1.75 -0.109375 2.953125l0 2.96875l5.46875 -0.28125l-0.375 3.109375l-5.09375 0l0 11.375q0 1.78125 0.625 2.484375q0.625 0.6875 2.34375 0.6875q0.671875 0 1.125 -0.140625q0.46875 -0.140625 1.09375 -0.484375l0.375 0.921875l-2.34375 2.828125q-0.390625 0.4375 -1.1875 0.640625q-0.78125 0.21875 -1.75 0.21875q-3.40625 0 -4.78125 -1.5q-1.359375 -1.515625 -1.359375 -4.640625l0 -12.390625l-3.0625 0.203125l0 -1.0625l3.15625 -2.0625l0 -2.828125q0 -0.71875 -0.03125 -1.515625q-0.015625 -0.796875 -0.0625 -1.46875q-0.046875 -0.765625 -0.09375 -1.484375q1.578125 -0.578125 3.140625 -1.21875q1.5625 -0.65625 2.71875 -1.1875l0.671875 0.484375zm5.9059143 7.828125q1.53125 0.046875 3.15625 0.09375q1.640625 0.046875 3.21875 0.046875q1.59375 0 3.171875 -0.046875q1.578125 -0.046875 3.171875 -0.09375l0 1.828125l-1.640625 0.09375q-0.671875 0.046875 -0.984375 0.390625q-0.3125 0.328125 -0.3125 0.703125q0 0.53125 0.234375 1.109375q0.25 0.578125 0.6875 1.6875l3.9375 10.21875l4.5625 -11.375q0.234375 -0.625 0.34375 -1.0q0.125 -0.390625 0.125 -0.828125q0 -0.328125 -0.34375 -0.59375q-0.328125 -0.265625 -1.0 -0.3125l-1.53125 -0.09375l0 -1.828125q1.109375 0.046875 2.234375 0.09375q1.125 0.046875 2.234375 0.046875q1.09375 0 2.21875 -0.046875q1.140625 -0.046875 2.234375 -0.09375l0 1.828125l-1.0 0.1875q-0.765625 0.140625 -1.296875 0.75q-0.53125 0.59375 -1.0625 1.890625l-9.6875 22.5625q-0.671875 1.484375 -1.46875 2.828125q-0.796875 1.34375 -1.796875 2.453125q-1.015625 1.046875 -2.234375 1.671875q-1.21875 0.625 -2.671875 0.625q-0.859375 0 -1.796875 -0.21875q-0.9375 -0.203125 -1.703125 -0.59375l0.875 -4.5625l0.515625 -0.1875q0.671875 0.8125 1.515625 1.28125q0.84375 0.484375 1.953125 0.484375q0.71875 0 1.390625 -0.40625q0.671875 -0.40625 1.21875 -1.078125q0.546875 -0.671875 1.0 -1.484375q0.46875 -0.8125 0.796875 -1.625l1.015625 -2.453125l-7.5 -19.15625q-0.375 -1.046875 -0.90625 -1.9375q-0.53125 -0.890625 -1.203125 -0.9375l-1.671875 -0.09375l0 -1.828125z" fill-rule="nonzero"/><path fill="#000000" fill-opacity="0.0" d="m509.48032 683.30707l481.13388 0l0 155.40161l-481.13388 0z" fill-rule="evenodd"/><path fill="#000000" d="m635.0945 716.4004q1.4375 0.046875 2.84375 0.09375q1.421875 0.046875 2.859375 0.046875q1.015625 0 2.046875 -0.046875q1.03125 -0.046875 2.03125 -0.09375q1.25 1.578125 2.296875 3.046875q1.0625 1.46875 2.40625 3.046875l15.21875 17.765625l0 -17.71875q0 -1.96875 -0.140625 -2.703125q-0.140625 -0.75 -0.390625 -0.984375q-0.1875 -0.203125 -0.546875 -0.3125q-0.359375 -0.125 -1.21875 -0.21875l-1.78125 -0.140625l0 -1.78125q1.390625 0.046875 2.75 0.09375q1.375 0.046875 2.765625 0.046875q1.390625 0 2.734375 -0.046875q1.34375 -0.046875 2.734375 -0.09375l0 1.78125l-1.765625 0.140625q-0.96875 0.09375 -1.328125 0.265625q-0.359375 0.15625 -0.546875 0.40625q-0.234375 0.375 -0.34375 1.21875q-0.09375 0.84375 -0.09375 2.515625l0 22.046875q0 1.34375 0.046875 2.5625q0.046875 1.21875 0.109375 2.328125l-0.34375 0.1875l-3.9375 -0.625l-2.34375 -2.640625l-3.3125 -3.78125l-15.75 -18.96875l-0.09375 0l0 19.25q0 1.6875 0.09375 2.453125q0.09375 0.765625 0.28125 1.046875q0.15625 0.25 0.515625 0.4375q0.359375 0.1875 1.40625 0.28125l1.78125 0.15625l0 1.765625q-0.234375 0 -0.796875 -0.03125q-0.546875 -0.015625 -1.3125 -0.046875q-0.765625 -0.015625 -1.640625 -0.046875q-0.859375 -0.015625 -1.71875 -0.015625q-1.390625 0 -2.765625 0.046875q-1.359375 0.046875 -2.75 0.09375l0 -1.765625l1.765625 -0.15625q1.015625 -0.09375 1.375 -0.25q0.359375 -0.171875 0.5 -0.421875q0.234375 -0.28125 0.328125 -1.015625q0.109375 -0.75 0.109375 -2.53125l0 -20.546875q0 -1.921875 -0.15625 -2.6875q-0.140625 -0.765625 -0.375 -1.0q-0.1875 -0.203125 -0.5625 -0.3125q-0.359375 -0.125 -1.171875 -0.21875l-1.8125 -0.140625l0 -1.78125zm51.98407 10.078125q5.515625 0 8.3125 2.9375q2.8125 2.921875 2.8125 8.296875q0 5.8125 -3.046875 9.0q-3.046875 3.1875 -9.09375 3.1875q-5.234375 0 -8.0 -3.046875q-2.75 -3.046875 -2.75 -8.5625q0 -5.671875 3.0 -8.734375q3.0 -3.078125 8.765625 -3.078125zm-5.234375 10.421875q0 1.765625 0.15625 3.671875q0.171875 1.890625 0.75 3.453125q0.578125 1.5625 1.609375 2.578125q1.03125 1.0 2.765625 1.0q1.71875 0 2.625 -0.90625q0.921875 -0.921875 1.34375 -2.234375q0.4375 -1.328125 0.5 -2.765625q0.078125 -1.4375 0.078125 -2.546875q0 -5.609375 -1.34375 -7.984375q-1.34375 -2.375 -3.734375 -2.375q-1.546875 0 -2.484375 0.71875q-0.921875 0.71875 -1.4375 1.875q-0.5 1.140625 -0.671875 2.609375q-0.15625 1.46875 -0.15625 2.90625zm28.93805 -10.125l0 4.546875l2.109375 -2.296875q0.96875 -1.015625 1.84375 -1.78125q0.890625 -0.765625 1.953125 -0.765625q0.578125 0 1.125 0.046875q0.546875 0.046875 0.9375 0.25l-0.234375 6.1875l-1.15625 0.484375q-0.859375 -1.734375 -2.828125 -1.734375q-0.625 0 -1.296875 0.265625q-0.671875 0.265625 -1.296875 0.796875q-1.15625 1.0 -1.15625 2.015625l0 9.3125q0 2.109375 0.234375 2.53125q0.203125 0.34375 0.796875 0.515625q0.609375 0.15625 1.28125 0.203125l1.859375 0.109375l0 1.765625q-1.8125 -0.046875 -3.828125 -0.09375q-2.015625 -0.046875 -3.359375 -0.046875q-1.34375 0 -3.125 0.046875q-1.78125 0.046875 -3.125 0.09375l0 -1.765625l1.640625 -0.109375q1.140625 -0.046875 1.4375 -0.515625q0.140625 -0.203125 0.234375 -0.71875q0.09375 -0.53125 0.09375 -1.6875l0 -11.09375q0 -1.390625 -0.09375 -1.890625q-0.09375 -0.5 -0.328125 -0.75q-0.109375 -0.09375 -0.25 -0.15625q-0.140625 -0.078125 -0.671875 -0.125l-2.0625 -0.140625l0 -1.734375q1.34375 -0.1875 2.6875 -0.375q1.34375 -0.203125 2.59375 -0.578125l3.5 -1.109375l0.484375 0.296875zm18.531433 -7.546875q-0.34375 1.640625 -0.46875 3.390625q-0.109375 1.75 -0.109375 2.953125l0 2.96875l5.46875 -0.28125l-0.375 3.109375l-5.09375 0l0 11.375q0 1.78125 0.625 2.484375q0.625 0.6875 2.34375 0.6875q0.671875 0 1.125 -0.140625q0.46875 -0.140625 1.09375 -0.484375l0.375 0.921875l-2.34375 2.828125q-0.390625 0.4375 -1.1875 0.640625q-0.78125 0.21875 -1.75 0.21875q-3.40625 0 -4.78125 -1.5q-1.359375 -1.515625 -1.359375 -4.640625l0 -12.390625l-3.0625 0.203125l0 -1.0625l3.15625 -2.0625l0 -2.828125q0 -0.71875 -0.03125 -1.515625q-0.015625 -0.796875 -0.0625 -1.46875q-0.046875 -0.765625 -0.09375 -1.484375q1.578125 -0.578125 3.140625 -1.21875q1.5625 -0.65625 2.71875 -1.1875l0.671875 0.484375zm15.843384 -4.40625l0 15.546875l3.828125 -2.984375q0.71875 -0.515625 1.53125 -0.703125q0.828125 -0.203125 2.125 -0.203125q1.71875 0 3.09375 0.578125q1.375 0.578125 2.046875 1.296875q1.234375 1.296875 1.515625 3.09375q0.296875 1.796875 0.296875 3.8125l0 9.265625q0 1.0625 0.09375 1.5625q0.109375 0.5 0.203125 0.703125q0.1875 0.28125 0.5625 0.40625q0.390625 0.109375 0.921875 0.15625l1.53125 0.109375l0 1.765625q-1.140625 -0.046875 -2.4375 -0.09375q-1.296875 -0.046875 -1.96875 -0.046875q-1.390625 0 -2.640625 0.046875q-1.25 0.046875 -2.109375 0.09375l0 -13.25q0 -2.734375 -1.046875 -4.046875q-1.03125 -1.328125 -3.609375 -1.328125q-0.96875 0 -1.625 0.3125q-0.640625 0.3125 -1.171875 0.796875q-0.578125 0.53125 -0.859375 1.109375q-0.28125 0.5625 -0.28125 1.046875l0 10.46875q0 0.8125 0.046875 1.515625q0.046875 0.6875 0.28125 0.984375q0.296875 0.46875 1.4375 0.515625l1.640625 0.109375l0 1.765625q-0.578125 0 -1.40625 -0.03125q-0.8125 -0.015625 -1.71875 -0.046875q-0.90625 -0.015625 -1.78125 -0.046875q-0.859375 -0.015625 -1.53125 -0.015625q-1.34375 0 -3.078125 0.046875q-1.71875 0.046875 -3.15625 0.09375l0 -1.765625l1.625 -0.109375q1.15625 -0.046875 1.4375 -0.515625q0.15625 -0.203125 0.25 -0.75q0.09375 -0.546875 0.09375 -1.65625l0 -23.046875q0 -1.390625 -0.09375 -1.890625q-0.09375 -0.5 -0.34375 -0.75q-0.09375 -0.09375 -0.234375 -0.15625q-0.140625 -0.078125 -0.625 -0.125l-2.109375 -0.140625l0 -1.734375q1.390625 -0.1875 2.734375 -0.40625q1.34375 -0.21875 2.6875 -0.59375l3.453125 -1.0625l0.390625 0.296875zm53.375 1.53125q0.765625 0 1.796875 0.03125q1.03125 0.015625 2.609375 0.15625l0.296875 0.34375l-0.671875 6.8125l-1.734375 0l-0.375 -3.59375q-0.046875 -0.25 -0.5625 -0.4375q-0.5 -0.1875 -1.359375 -0.296875q-0.875 -0.09375 -1.828125 -0.140625q-0.953125 -0.046875 -1.921875 -0.046875q-2.0625 0 -3.625 0.046875q-1.5625 0.046875 -2.375 0.09375l0 11.53125q0.53125 0.046875 1.046875 0.078125q0.53125 0.015625 1.78125 0.015625l3.46875 0q1.390625 0 2.0625 -0.171875q0.671875 -0.171875 0.765625 -0.84375l0.28125 -2.734375l1.921875 0q-0.046875 1.296875 -0.09375 2.578125q-0.046875 1.265625 -0.046875 2.5625q0 1.296875 0.046875 2.59375q0.046875 1.296875 0.09375 2.59375l-1.921875 0l-0.28125 -2.40625q-0.09375 -1.0625 -0.828125 -1.421875q-0.71875 -0.359375 -1.953125 -0.359375l-3.265625 0q-1.0625 0 -1.8125 0.0625q-0.734375 0.046875 -1.265625 0.09375l0 12.8125q0.34375 0 0.984375 0.03125q0.65625 0.015625 1.4375 0.046875q0.796875 0.015625 1.703125 0.046875q0.921875 0.015625 1.828125 0.015625q0.953125 0 2.015625 -0.0625q1.0625 -0.078125 1.9375 -0.203125q0.890625 -0.125 1.46875 -0.265625q0.578125 -0.140625 0.625 -0.28125l1.109375 -4.515625l1.875 0l-0.53125 7.578125l-0.25 0.390625q-1.484375 0.09375 -3.546875 0.140625q-2.0625 0.046875 -4.46875 0.046875q-1.859375 0 -2.921875 -0.03125q-1.0625 -0.015625 -2.296875 -0.0625q-1.296875 -0.046875 -2.40625 -0.078125q-1.109375 -0.015625 -2.0625 -0.015625q-1.390625 0 -2.90625 0.046875q-1.515625 0.046875 -2.859375 0.09375l0 -1.09375l1.109375 -0.625q0.375 -0.25 0.59375 -0.359375q0.21875 -0.125 0.359375 -0.359375q0.25 -0.390625 0.34375 -0.890625q0.09375 -0.515625 0.09375 -1.421875l0 -21.984375q0 -1.921875 -0.15625 -2.65625q-0.140625 -0.75 -0.375 -0.984375q-0.1875 -0.203125 -0.546875 -0.3125q-0.359375 -0.125 -1.234375 -0.21875l-1.765625 -0.140625l0 -1.78125q2.015625 0 3.9375 0.078125q1.921875 0.0625 3.9375 0.0625q1.765625 0 3.828125 -0.015625q2.0625 -0.03125 3.890625 -0.078125q1.828125 -0.046875 3.1875 -0.0625q1.375 -0.03125 1.8125 -0.03125zm19.140564 10.125q1.640625 0 3.09375 0.390625q1.46875 0.375 2.515625 1.21875q1.0625 0.84375 1.6875 2.125q0.625 1.265625 0.625 3.03125q0 0.484375 -0.03125 1.234375q-0.015625 0.734375 -0.046875 1.5625q-0.015625 0.8125 -0.046875 1.703125q-0.015625 0.875 -0.015625 1.640625q0 0.671875 0 1.25q0 0.578125 0.015625 1.234375q0.03125 0.640625 0.046875 1.46875q0.03125 0.8125 0.078125 1.953125q0.046875 0.828125 0.265625 1.375q0.21875 0.546875 1.03125 0.640625l1.4375 0.15625l0 1.765625q-1.046875 -0.046875 -2.109375 -0.09375q-1.046875 -0.046875 -2.109375 -0.046875q-0.90625 0 -2.0625 0.046875q-1.15625 0.046875 -2.296875 0.09375l-0.25 -0.375l0.25 -2.984375l-4.28125 3.3125q-0.53125 0.4375 -1.109375 0.578125q-0.5625 0.140625 -1.71875 0.140625q-2.734375 0 -4.03125 -1.65625q-1.296875 -1.65625 -1.296875 -4.203125q0 -1.53125 0.453125 -2.75q0.453125 -1.234375 1.21875 -1.90625q0.921875 -0.8125 2.40625 -1.453125q1.484375 -0.65625 4.125 -1.1875l4.234375 -0.859375q0 -2.59375 -1.1875 -4.125q-1.171875 -1.53125 -3.765625 -1.53125q-0.375 0 -0.84375 0.046875q-0.453125 0.046875 -0.859375 0.140625q-0.40625 0.09375 -0.703125 0.21875q-0.28125 0.109375 -0.328125 0.265625l-1.0625 2.390625l-1.4375 -0.328125l0 -3.3125l2.640625 -1.59375q1.25 -0.765625 2.65625 -1.171875q1.421875 -0.40625 2.8125 -0.40625zm-4.5 16.375q0 1.484375 0.734375 2.1875q0.75 0.6875 1.859375 0.6875q0.46875 0 1.046875 -0.1875q0.578125 -0.203125 1.125 -0.484375q0.5625 -0.28125 1.03125 -0.671875q0.484375 -0.390625 0.78125 -0.8125l0 -5.671875q-0.78125 0.25 -1.953125 0.53125q-1.171875 0.28125 -2.1875 0.671875q-1.25 0.53125 -1.84375 1.375q-0.59375 0.828125 -0.59375 2.375zm27.984436 -16.375q1.625 0 3.15625 0.21875q1.546875 0.21875 2.84375 0.890625l-0.390625 5.859375l-1.734375 0l-0.46875 -2.796875q-0.046875 -0.328125 -0.46875 -0.6875q-0.40625 -0.359375 -0.984375 -0.59375q-0.5625 -0.25 -1.234375 -0.40625q-0.671875 -0.171875 -1.296875 -0.171875q-2.0625 0 -3.25 0.796875q-1.171875 0.78125 -1.171875 2.3125q0 1.15625 0.625 1.78125q0.625 0.625 1.828125 0.859375l4.3125 0.96875q3.359375 0.765625 4.625 2.296875q1.28125 1.53125 1.28125 3.9375q0 3.640625 -2.828125 5.90625q-2.828125 2.25 -7.25 2.25q-3.796875 0 -7.484375 -1.34375l0.328125 -6.765625l1.875 0l0.234375 3.3125q1.015625 1.34375 2.46875 1.921875q1.46875 0.578125 3.203125 0.578125q1.625 0 2.875 -0.9375q1.25 -0.9375 1.25 -2.671875q0 -0.859375 -0.265625 -1.40625q-0.265625 -0.5625 -0.703125 -0.875q-0.421875 -0.3125 -0.953125 -0.5q-0.53125 -0.1875 -1.09375 -0.328125l-4.140625 -1.015625q-2.734375 -0.671875 -3.90625 -2.234375q-1.171875 -1.5625 -1.171875 -3.671875q0 -3.734375 2.5625 -5.609375q2.578125 -1.875 7.328125 -1.875zm20.108887 -7.25q-0.34375 1.640625 -0.46875 3.390625q-0.109375 1.75 -0.109375 2.953125l0 2.96875l5.46875 -0.28125l-0.375 3.109375l-5.09375 0l0 11.375q0 1.78125 0.625 2.484375q0.625 0.6875 2.34375 0.6875q0.671875 0 1.125 -0.140625q0.46875 -0.140625 1.09375 -0.484375l0.375 0.921875l-2.34375 2.828125q-0.390625 0.4375 -1.1875 0.640625q-0.78125 0.21875 -1.75 0.21875q-3.40625 0 -4.78125 -1.5q-1.359375 -1.515625 -1.359375 -4.640625l0 -12.390625l-3.0625 0.203125l0 -1.0625l3.15625 -2.0625l0 -2.828125q0 -0.71875 -0.03125 -1.515625q-0.015625 -0.796875 -0.0625 -1.46875q-0.046875 -0.765625 -0.09375 -1.484375q1.578125 -0.578125 3.140625 -1.21875q1.5625 -0.65625 2.71875 -1.1875l0.671875 0.484375z" fill-rule="nonzero"/><path fill="#000000" d="m541.4141 773.7285q1.875 0 3.375 0.125q1.515625 0.109375 2.875 0.40625q1.375 0.28125 2.6875 0.71875q1.328125 0.421875 2.78125 1.0l0.28125 0.53125q-0.28125 1.109375 -0.53125 2.859375q-0.234375 1.75 -0.578125 4.484375l-1.859375 0l-0.25 -4.125q-1.71875 -1.828125 -3.90625 -2.5625q-2.1875 -0.75 -4.734375 -0.75q-2.78125 0 -5.046875 0.921875q-2.25 0.90625 -3.828125 2.640625q-1.578125 1.71875 -2.453125 4.171875q-0.859375 2.4375 -0.859375 5.515625q0 3.40625 0.984375 6.21875q0.984375 2.796875 2.796875 4.765625q1.828125 1.96875 4.4375 3.0625q2.625 1.078125 5.9375 1.078125q1.15625 0 2.375 -0.1875q1.234375 -0.203125 2.421875 -0.515625q1.203125 -0.3125 2.328125 -0.765625q1.140625 -0.453125 2.046875 -0.984375l0.578125 0.578125l-1.0625 2.34375q-2.5 1.546875 -5.328125 2.09375q-2.828125 0.546875 -5.703125 0.546875q-4.421875 0 -7.921875 -1.21875q-3.5 -1.21875 -5.984375 -3.515625q-2.46875 -2.3125 -3.796875 -5.578125q-1.3125 -3.265625 -1.3125 -7.296875q0 -4.03125 1.515625 -7.125q1.515625 -3.109375 4.125 -5.1875q2.625 -2.09375 6.125 -3.171875q3.5 -1.078125 7.484375 -1.078125zm26.984192 10.75q5.515625 0 8.3125 2.9375q2.8125 2.921875 2.8125 8.296875q0 5.8125 -3.046875 9.0q-3.046875 3.1875 -9.09375 3.1875q-5.234375 0 -8.0 -3.046875q-2.75 -3.046875 -2.75 -8.5625q0 -5.671875 3.0 -8.734375q3.0 -3.078125 8.765625 -3.078125zm-5.234375 10.421875q0 1.765625 0.15625 3.671875q0.171875 1.890625 0.75 3.453125q0.578125 1.5625 1.609375 2.578125q1.03125 1.0 2.765625 1.0q1.71875 0 2.625 -0.90625q0.921875 -0.921875 1.34375 -2.234375q0.4375 -1.328125 0.5 -2.765625q0.078125 -1.4375 0.078125 -2.546875q0 -5.609375 -1.34375 -7.984375q-1.34375 -2.375 -3.734375 -2.375q-1.546875 0 -2.484375 0.71875q-0.921875 0.71875 -1.4375 1.875q-0.5 1.140625 -0.671875 2.609375q-0.15625 1.46875 -0.15625 2.90625zm42.516174 7.484375q0 0.8125 0.046875 1.484375q0.0625 0.671875 0.296875 0.96875q0.28125 0.46875 1.4375 0.515625l1.640625 0.109375l0 1.765625q-0.625 0 -1.46875 -0.03125q-0.84375 -0.015625 -1.734375 -0.046875q-0.890625 -0.015625 -1.734375 -0.046875q-0.828125 -0.015625 -1.5 -0.015625q-1.484375 0 -3.078125 0.046875q-1.578125 0.046875 -2.96875 0.09375l0 -1.765625l1.4375 -0.109375q0.671875 -0.046875 0.984375 -0.15625q0.3125 -0.125 0.453125 -0.359375q0.140625 -0.203125 0.234375 -0.71875q0.109375 -0.53125 0.109375 -1.6875l0 -8.453125q0 -1.53125 -0.296875 -2.515625q-0.28125 -0.984375 -0.8125 -1.609375q-1.109375 -1.25 -3.171875 -1.25q-1.390625 0 -2.59375 1.109375q-1.140625 1.109375 -1.140625 2.15625l0 10.515625q0 0.8125 0.046875 1.484375q0.046875 0.671875 0.28125 0.96875q0.296875 0.46875 1.4375 0.515625l1.25 0.109375l0 1.765625q-0.53125 0 -1.296875 -0.03125q-0.765625 -0.015625 -1.609375 -0.046875q-0.828125 -0.015625 -1.65625 -0.046875q-0.8125 -0.015625 -1.484375 -0.015625q-1.34375 0 -3.078125 0.046875q-1.71875 0.046875 -3.15625 0.09375l0 -1.765625l1.625 -0.109375q1.15625 -0.046875 1.4375 -0.515625q0.15625 -0.203125 0.25 -0.71875q0.09375 -0.53125 0.09375 -1.6875l0 -11.09375q0 -1.390625 -0.09375 -1.890625q-0.09375 -0.5 -0.34375 -0.75q-0.09375 -0.09375 -0.234375 -0.15625q-0.140625 -0.078125 -0.625 -0.125l-2.109375 -0.140625l0 -1.734375q2.4375 -0.09375 4.578125 -0.71875q2.140625 -0.625 4.390625 -1.34375l0.296875 0.296875l0 3.59375l3.828125 -2.984375q0.71875 -0.515625 1.53125 -0.703125q0.828125 -0.203125 2.125 -0.203125q2.109375 0 3.765625 0.9375q1.65625 0.9375 2.328125 2.953125l3.84375 -2.984375q0.671875 -0.515625 1.453125 -0.703125q0.796875 -0.203125 2.1875 -0.203125q1.828125 0 3.09375 0.453125q1.28125 0.453125 2.0625 1.5q0.796875 1.03125 1.15625 2.6875q0.359375 1.65625 0.359375 4.046875l0 9.359375q0 1.0625 0.09375 1.5625q0.109375 0.5 0.203125 0.703125q0.1875 0.28125 0.5625 0.40625q0.390625 0.109375 0.921875 0.15625l1.53125 0.109375l0 1.765625q-1.15625 -0.046875 -2.453125 -0.09375q-1.28125 -0.046875 -1.953125 -0.046875q-1.390625 0 -2.640625 0.046875q-1.25 0.046875 -2.125 0.09375l0 -13.046875q0 -0.921875 -0.140625 -2.15625q-0.140625 -1.25 -0.953125 -2.171875q-0.4375 -0.484375 -1.1875 -0.859375q-0.734375 -0.390625 -1.984375 -0.390625q-1.390625 0 -2.59375 1.109375q-1.15625 1.0625 -1.15625 2.203125l0 10.46875zm28.515808 -29.5625l0 15.875l2.9375 -2.34375q1.046875 -0.859375 2.171875 -1.359375q1.140625 -0.515625 2.8125 -0.515625q1.921875 0 3.5 0.703125q1.59375 0.6875 2.734375 1.890625q1.15625 1.203125 1.78125 2.84375q0.625 1.625 0.625 3.484375q0 2.640625 -0.921875 5.1875q-0.90625 2.546875 -2.875 4.234375q-1.0 0.90625 -2.296875 1.75q-1.296875 0.828125 -2.59375 1.703125q-1.25 0.8125 -2.375 1.21875q-1.125 0.40625 -2.375 0.40625q-2.015625 0 -3.578125 -0.5q-1.5625 -0.5 -2.90625 -1.265625l-1.875 1.53125l-1.046875 -0.390625q0.28125 -2.546875 0.34375 -4.75q0.078125 -2.203125 0.078125 -3.734375l0 -19.34375q0 -1.25 -0.09375 -1.84375q-0.09375 -0.609375 -0.328125 -0.859375q-0.203125 -0.1875 -0.546875 -0.234375q-0.328125 -0.046875 -1.140625 -0.09375l-1.671875 -0.09375l0 -1.734375q1.578125 -0.1875 2.9375 -0.375q1.375 -0.203125 2.859375 -0.625l3.46875 -1.0625l0.375 0.296875zm0 29.171875q0.8125 1.25 2.078125 1.953125q1.28125 0.6875 2.828125 0.6875q1.53125 0 2.578125 -0.6875q1.0625 -0.703125 1.734375 -1.875q0.671875 -1.171875 0.984375 -2.6875q0.3125 -1.515625 0.3125 -3.140625q0 -1.5 -0.359375 -2.859375q-0.359375 -1.375 -1.078125 -2.375q-0.71875 -1.015625 -1.859375 -1.609375q-1.125 -0.59375 -2.703125 -0.59375q-1.296875 0 -2.578125 0.65625q-1.265625 0.640625 -1.9375 1.734375l0 10.796875zm26.984314 -28.796875q1.53125 0 2.5625 1.03125q1.03125 1.03125 1.03125 2.625q0 1.484375 -1.078125 2.515625q-1.078125 1.03125 -2.515625 1.03125q-1.4375 0 -2.53125 -1.03125q-1.078125 -1.03125 -1.078125 -2.515625q0 -1.59375 1.03125 -2.625q1.03125 -1.03125 2.578125 -1.03125zm3.109375 11.578125l0 17.5625q0 0.8125 0.046875 1.515625q0.046875 0.6875 0.296875 0.984375q0.28125 0.46875 1.4375 0.515625l1.625 0.109375l0 1.765625q-0.5625 0 -1.390625 -0.03125q-0.8125 -0.015625 -1.734375 -0.046875q-0.90625 -0.015625 -1.765625 -0.046875q-0.859375 -0.015625 -1.53125 -0.015625q-0.671875 0 -1.734375 0.015625q-1.046875 0.03125 -2.0625 0.078125q-1.203125 0.046875 -2.453125 0.046875l0 -1.765625l1.640625 -0.109375q1.15625 -0.046875 1.4375 -0.515625q0.140625 -0.203125 0.234375 -0.75q0.109375 -0.546875 0.109375 -1.65625l0 -11.09375q0 -1.390625 -0.109375 -1.890625q-0.09375 -0.5 -0.328125 -0.75q-0.09375 -0.09375 -0.25 -0.15625q-0.140625 -0.078125 -0.65625 -0.125l-2.078125 -0.140625l0 -1.734375q1.40625 -0.1875 2.75 -0.375q1.34375 -0.203125 2.6875 -0.625l3.359375 -1.0625l0.46875 0.296875zm15.51532 0l0 3.59375l3.828125 -2.984375q0.71875 -0.515625 1.53125 -0.703125q0.828125 -0.203125 2.125 -0.203125q1.71875 0 3.09375 0.578125q1.375 0.578125 2.046875 1.296875q1.234375 1.296875 1.515625 3.09375q0.296875 1.796875 0.296875 3.8125l0 9.265625q0 1.0625 0.09375 1.5625q0.109375 0.5 0.203125 0.703125q0.1875 0.28125 0.5625 0.40625q0.390625 0.109375 0.921875 0.15625l1.53125 0.109375l0 1.765625q-1.140625 -0.046875 -2.4375 -0.09375q-1.296875 -0.046875 -1.96875 -0.046875q-1.390625 0 -2.640625 0.046875q-1.25 0.046875 -2.109375 0.09375l0 -13.25q0 -2.734375 -1.046875 -4.046875q-1.03125 -1.328125 -3.609375 -1.328125q-0.96875 0 -1.625 0.3125q-0.640625 0.3125 -1.171875 0.796875q-0.578125 0.53125 -0.859375 1.109375q-0.28125 0.5625 -0.28125 1.046875l0 10.46875q0 0.8125 0.046875 1.515625q0.046875 0.6875 0.28125 0.984375q0.296875 0.46875 1.4375 0.515625l1.640625 0.109375l0 1.765625q-0.578125 0 -1.40625 -0.03125q-0.8125 -0.015625 -1.71875 -0.046875q-0.90625 -0.015625 -1.78125 -0.046875q-0.859375 -0.015625 -1.53125 -0.015625q-1.34375 0 -3.078125 0.046875q-1.71875 0.046875 -3.15625 0.09375l0 -1.765625l1.625 -0.109375q1.15625 -0.046875 1.4375 -0.515625q0.15625 -0.203125 0.25 -0.75q0.09375 -0.546875 0.09375 -1.65625l0 -11.09375q0 -1.390625 -0.09375 -1.890625q-0.09375 -0.5 -0.34375 -0.75q-0.09375 -0.09375 -0.234375 -0.15625q-0.140625 -0.078125 -0.625 -0.125l-2.109375 -0.140625l0 -1.734375q2.203125 -0.046875 4.21875 -0.59375q2.015625 -0.5625 4.75 -1.46875l0.296875 0.296875zm31.718689 -0.296875q1.921875 0 3.625 0.515625q1.703125 0.5 2.953125 1.5625q1.25 1.046875 1.984375 2.65625q0.75 1.609375 0.75 3.765625l0 2.453125q-1.921875 0.515625 -4.015625 0.734375q-2.078125 0.21875 -3.46875 0.21875l-6.390625 0q0 1.78125 0.5 3.265625q0.515625 1.484375 1.46875 2.5625q0.96875 1.078125 2.40625 1.6875q1.4375 0.59375 3.265625 0.59375q1.203125 0 2.609375 -0.5q1.421875 -0.5 2.578125 -1.171875l0.5625 0.71875l-1.046875 2.296875q-2.15625 1.15625 -3.859375 1.609375q-1.703125 0.453125 -3.828125 0.453125q-5.125 0 -8.015625 -2.875q-2.875 -2.875 -2.875 -8.25q0 -2.125 0.265625 -3.578125q0.265625 -1.46875 0.796875 -2.578125q0.8125 -1.625 1.8125 -2.46875q1.015625 -0.84375 2.40625 -1.65625q0.765625 -0.484375 1.390625 -0.84375q0.625 -0.359375 1.25 -0.609375q0.625 -0.265625 1.296875 -0.40625q0.671875 -0.15625 1.578125 -0.15625zm-4.84375 9.359375q0.1875 0 0.640625 0.03125q0.46875 0.015625 1.03125 0.046875q0.578125 0.015625 1.21875 0.046875q0.65625 0.015625 1.1875 0.015625q0.8125 0 1.984375 -0.046875q1.1875 -0.046875 2.0 -0.09375l0 -0.1875q0 -1.34375 -0.171875 -2.515625q-0.15625 -1.1875 -0.625 -2.0625q-0.453125 -0.890625 -1.21875 -1.390625q-0.765625 -0.515625 -1.921875 -0.515625q-2.0625 0 -3.09375 1.609375q-1.03125 1.609375 -1.03125 5.0625zm40.421936 -21.015625l0 29.703125q0 1.0625 0.0625 1.546875q0.078125 0.46875 0.171875 0.609375q0.1875 0.390625 0.640625 0.515625q0.46875 0.109375 0.890625 0.15625l1.546875 0.109375l0 1.765625q-1.34375 -0.046875 -2.890625 -0.09375q-1.53125 -0.046875 -2.390625 -0.046875q-0.671875 0 -1.65625 0.046875q-0.984375 0.046875 -2.234375 0.09375l-0.25 -0.375l0.25 -3.609375l-5.0 4.078125q-0.515625 0.4375 -1.25 0.5q-0.71875 0.078125 -1.390625 0.078125q-2.15625 0 -3.8125 -0.90625q-1.65625 -0.921875 -2.78125 -2.40625q-1.125 -1.484375 -1.703125 -3.421875q-0.578125 -1.953125 -0.578125 -3.96875q0 -3.453125 0.90625 -5.578125q0.921875 -2.140625 2.984375 -3.546875l3.453125 -2.25q2.015625 -1.34375 4.265625 -1.34375q1.40625 0 2.484375 0.34375q1.078125 0.328125 2.421875 0.859375l0 -6.296875q0 -1.234375 -0.078125 -1.78125q-0.0625 -0.5625 -0.3125 -0.796875q-0.140625 -0.15625 -0.3125 -0.21875q-0.171875 -0.078125 -0.546875 -0.125l-2.546875 -0.140625l0 -1.734375q1.296875 -0.140625 2.828125 -0.359375q1.546875 -0.21875 2.984375 -0.640625l3.453125 -1.0625l0.390625 0.296875zm-16.328125 22.265625q0 1.4375 0.3125 2.9375q0.3125 1.484375 0.953125 2.65625q0.65625 1.171875 1.703125 1.921875q1.0625 0.734375 2.546875 0.734375q1.0625 0 1.96875 -0.328125q0.921875 -0.34375 1.59375 -0.859375q0.625 -0.53125 1.0 -1.171875q0.390625 -0.65625 0.390625 -1.625l0 -8.78125q-0.96875 -1.34375 -2.359375 -2.171875q-1.390625 -0.84375 -3.015625 -0.84375q-1.640625 0 -2.625 0.65625q-0.984375 0.640625 -1.53125 1.703125q-0.546875 1.046875 -0.75 2.421875q-0.1875 1.359375 -0.1875 2.75zm53.37494 -20.921875l12.484375 29.125q0.53125 1.15625 1.171875 1.546875q0.65625 0.375 1.421875 0.46875l1.15625 0.15625l0 1.765625q-2.453125 -0.046875 -4.140625 -0.09375q-1.671875 -0.046875 -3.3125 -0.046875q-1.625 0 -3.484375 0.046875q-1.84375 0.046875 -3.953125 0.09375l0 -1.765625l2.40625 -0.15625q1.09375 -0.046875 1.09375 -1.390625q0 -0.578125 -0.375 -1.484375l-2.0625 -5.234375l-12.046875 0l-1.875 5.0q-0.140625 0.375 -0.265625 0.765625q-0.125 0.375 -0.125 0.765625q0 1.484375 1.546875 1.578125l2.25 0.15625l0 1.765625q-1.484375 -0.046875 -2.984375 -0.09375q-1.484375 -0.046875 -2.4375 -0.046875q-1.15625 0 -2.546875 0.046875q-1.390625 0.046875 -2.875 0.09375l0 -1.765625l1.390625 -0.15625q0.953125 -0.140625 1.671875 -1.0q0.390625 -0.53125 0.671875 -1.109375q0.296875 -0.578125 0.71875 -1.578125l8.078125 -19.546875q0.375 -0.953125 0.875 -2.296875q0.515625 -1.34375 0.984375 -2.59375q0.53125 -1.484375 1.15625 -3.015625l3.40625 0zm-8.5 20.34375l9.796875 0l-4.984375 -12.1875l-4.8125 12.1875zm36.20343 -9.734375l0 12.953125q0 1.296875 0.140625 2.359375q0.140625 1.046875 0.5625 1.84375q0.4375 0.78125 1.1875 1.21875q0.75 0.4375 2.0 0.4375q1.625 0 3.015625 -1.25q0.671875 -0.578125 1.046875 -1.265625q0.390625 -0.703125 0.390625 -1.71875l0 -8.015625q0 -1.390625 -0.09375 -1.890625q-0.09375 -0.5 -0.328125 -0.75q-0.109375 -0.09375 -0.25 -0.15625q-0.140625 -0.078125 -0.671875 -0.125l-2.0625 -0.140625l0 -1.734375q1.390625 -0.1875 2.734375 -0.375q1.34375 -0.203125 2.6875 -0.625l3.359375 -1.0625l0.484375 0.296875l0 17.75q0 1.0625 0.09375 1.59375q0.09375 0.515625 0.25 0.71875q0.28125 0.46875 1.484375 0.515625l1.484375 0.109375l0 1.765625q-1.4375 -0.046875 -2.8125 -0.09375q-1.359375 -0.046875 -2.46875 -0.046875q-0.671875 0 -1.703125 0.046875q-1.03125 0.046875 -2.421875 0.09375l0.234375 -3.984375l-3.640625 3.5625q-1.203125 1.09375 -3.125 1.09375q-3.9375 0 -5.6875 -2.0625q-1.75 -2.0625 -1.75 -5.421875l0 -9.078125q0 -1.390625 -0.09375 -1.890625q-0.09375 -0.5 -0.34375 -0.75q-0.09375 -0.09375 -0.234375 -0.15625q-0.140625 -0.078125 -0.671875 -0.125l-2.0625 -0.140625l0 -1.734375q1.390625 -0.1875 2.734375 -0.375q1.34375 -0.203125 2.6875 -0.625l3.359375 -1.0625l0.484375 0.296875zm29.421814 -7.546875q-0.34375 1.640625 -0.46875 3.390625q-0.109375 1.75 -0.109375 2.953125l0 2.96875l5.46875 -0.28125l-0.375 3.109375l-5.09375 0l0 11.375q0 1.78125 0.625 2.484375q0.625 0.6875 2.34375 0.6875q0.671875 0 1.125 -0.140625q0.46875 -0.140625 1.09375 -0.484375l0.375 0.921875l-2.34375 2.828125q-0.390625 0.4375 -1.1875 0.640625q-0.78125 0.21875 -1.75 0.21875q-3.40625 0 -4.78125 -1.5q-1.359375 -1.515625 -1.359375 -4.640625l0 -12.390625l-3.0625 0.203125l0 -1.0625l3.15625 -2.0625l0 -2.828125q0 -0.71875 -0.03125 -1.515625q-0.015625 -0.796875 -0.0625 -1.46875q-0.046875 -0.765625 -0.09375 -1.484375q1.578125 -0.578125 3.140625 -1.21875q1.5625 -0.65625 2.71875 -1.1875l0.671875 0.484375zm15.843445 -4.40625l0 15.546875l3.828125 -2.984375q0.71875 -0.515625 1.53125 -0.703125q0.828125 -0.203125 2.125 -0.203125q1.71875 0 3.09375 0.578125q1.375 0.578125 2.046875 1.296875q1.234375 1.296875 1.515625 3.09375q0.296875 1.796875 0.296875 3.8125l0 9.265625q0 1.0625 0.09375 1.5625q0.109375 0.5 0.203125 0.703125q0.1875 0.28125 0.5625 0.40625q0.390625 0.109375 0.921875 0.15625l1.53125 0.109375l0 1.765625q-1.140625 -0.046875 -2.4375 -0.09375q-1.296875 -0.046875 -1.96875 -0.046875q-1.390625 0 -2.640625 0.046875q-1.25 0.046875 -2.109375 0.09375l0 -13.25q0 -2.734375 -1.046875 -4.046875q-1.03125 -1.328125 -3.609375 -1.328125q-0.96875 0 -1.625 0.3125q-0.640625 0.3125 -1.171875 0.796875q-0.578125 0.53125 -0.859375 1.109375q-0.28125 0.5625 -0.28125 1.046875l0 10.46875q0 0.8125 0.046875 1.515625q0.046875 0.6875 0.28125 0.984375q0.296875 0.46875 1.4375 0.515625l1.640625 0.109375l0 1.765625q-0.578125 0 -1.40625 -0.03125q-0.8125 -0.015625 -1.71875 -0.046875q-0.90625 -0.015625 -1.78125 -0.046875q-0.859375 -0.015625 -1.53125 -0.015625q-1.34375 0 -3.078125 0.046875q-1.71875 0.046875 -3.15625 0.09375l0 -1.765625l1.625 -0.109375q1.15625 -0.046875 1.4375 -0.515625q0.15625 -0.203125 0.25 -0.75q0.09375 -0.546875 0.09375 -1.65625l0 -23.046875q0 -1.390625 -0.09375 -1.890625q-0.09375 -0.5 -0.34375 -0.75q-0.09375 -0.09375 -0.234375 -0.15625q-0.140625 -0.078125 -0.625 -0.125l-2.109375 -0.140625l0 -1.734375q1.390625 -0.1875 2.734375 -0.40625q1.34375 -0.21875 2.6875 -0.59375l3.453125 -1.0625l0.390625 0.296875zm32.59369 11.65625q5.515625 0 8.3125 2.9375q2.8125 2.921875 2.8125 8.296875q0 5.8125 -3.046875 9.0q-3.046875 3.1875 -9.09375 3.1875q-5.234375 0 -8.0 -3.046875q-2.75 -3.046875 -2.75 -8.5625q0 -5.671875 3.0 -8.734375q3.0 -3.078125 8.765625 -3.078125zm-5.234375 10.421875q0 1.765625 0.15625 3.671875q0.171875 1.890625 0.75 3.453125q0.578125 1.5625 1.609375 2.578125q1.03125 1.0 2.765625 1.0q1.71875 0 2.625 -0.90625q0.921875 -0.921875 1.34375 -2.234375q0.4375 -1.328125 0.5 -2.765625q0.078125 -1.4375 0.078125 -2.546875q0 -5.609375 -1.34375 -7.984375q-1.34375 -2.375 -3.734375 -2.375q-1.546875 0 -2.484375 0.71875q-0.921875 0.71875 -1.4375 1.875q-0.5 1.140625 -0.671875 2.609375q-0.15625 1.46875 -0.15625 2.90625zm28.93805 -10.125l0 4.546875l2.109375 -2.296875q0.96875 -1.015625 1.84375 -1.78125q0.890625 -0.765625 1.953125 -0.765625q0.578125 0 1.125 0.046875q0.546875 0.046875 0.9375 0.25l-0.234375 6.1875l-1.15625 0.484375q-0.859375 -1.734375 -2.828125 -1.734375q-0.625 0 -1.296875 0.265625q-0.671875 0.265625 -1.296875 0.796875q-1.15625 1.0 -1.15625 2.015625l0 9.3125q0 2.109375 0.234375 2.53125q0.203125 0.34375 0.796875 0.515625q0.609375 0.15625 1.28125 0.203125l1.859375 0.109375l0 1.765625q-1.8125 -0.046875 -3.828125 -0.09375q-2.015625 -0.046875 -3.359375 -0.046875q-1.34375 0 -3.125 0.046875q-1.78125 0.046875 -3.125 0.09375l0 -1.765625l1.640625 -0.109375q1.140625 -0.046875 1.4375 -0.515625q0.140625 -0.203125 0.234375 -0.71875q0.09375 -0.53125 0.09375 -1.6875l0 -11.09375q0 -1.390625 -0.09375 -1.890625q-0.09375 -0.5 -0.328125 -0.75q-0.109375 -0.09375 -0.25 -0.15625q-0.140625 -0.078125 -0.671875 -0.125l-2.0625 -0.140625l0 -1.734375q1.34375 -0.1875 2.6875 -0.375q1.34375 -0.203125 2.59375 -0.578125l3.5 -1.109375l0.484375 0.296875zm15.750183 -11.578125q1.53125 0 2.5625 1.03125q1.03125 1.03125 1.03125 2.625q0 1.484375 -1.078125 2.515625q-1.078125 1.03125 -2.515625 1.03125q-1.4375 0 -2.53125 -1.03125q-1.078125 -1.03125 -1.078125 -2.515625q0 -1.59375 1.03125 -2.625q1.03125 -1.03125 2.578125 -1.03125zm3.109375 11.578125l0 17.5625q0 0.8125 0.046875 1.515625q0.046875 0.6875 0.296875 0.984375q0.28125 0.46875 1.4375 0.515625l1.625 0.109375l0 1.765625q-0.5625 0 -1.390625 -0.03125q-0.8125 -0.015625 -1.734375 -0.046875q-0.90625 -0.015625 -1.765625 -0.046875q-0.859375 -0.015625 -1.53125 -0.015625q-0.671875 0 -1.734375 0.015625q-1.046875 0.03125 -2.0625 0.078125q-1.203125 0.046875 -2.453125 0.046875l0 -1.765625l1.640625 -0.109375q1.15625 -0.046875 1.4375 -0.515625q0.140625 -0.203125 0.234375 -0.75q0.109375 -0.546875 0.109375 -1.65625l0 -11.09375q0 -1.390625 -0.109375 -1.890625q-0.09375 -0.5 -0.328125 -0.75q-0.09375 -0.09375 -0.25 -0.15625q-0.140625 -0.078125 -0.65625 -0.125l-2.078125 -0.140625l0 -1.734375q1.40625 -0.1875 2.75 -0.375q1.34375 -0.203125 2.6875 -0.625l3.359375 -1.0625l0.46875 0.296875zm15.655884 -7.546875q-0.34375 1.640625 -0.46875 3.390625q-0.109375 1.75 -0.109375 2.953125l0 2.96875l5.46875 -0.28125l-0.375 3.109375l-5.09375 0l0 11.375q0 1.78125 0.625 2.484375q0.625 0.6875 2.34375 0.6875q0.671875 0 1.125 -0.140625q0.46875 -0.140625 1.09375 -0.484375l0.375 0.921875l-2.34375 2.828125q-0.390625 0.4375 -1.1875 0.640625q-0.78125 0.21875 -1.75 0.21875q-3.40625 0 -4.78125 -1.5q-1.359375 -1.515625 -1.359375 -4.640625l0 -12.390625l-3.0625 0.203125l0 -1.0625l3.15625 -2.0625l0 -2.828125q0 -0.71875 -0.03125 -1.515625q-0.015625 -0.796875 -0.0625 -1.46875q-0.046875 -0.765625 -0.09375 -1.484375q1.578125 -0.578125 3.140625 -1.21875q1.5625 -0.65625 2.71875 -1.1875l0.671875 0.484375zm5.905945 7.828125q1.53125 0.046875 3.15625 0.09375q1.640625 0.046875 3.21875 0.046875q1.59375 0 3.171875 -0.046875q1.578125 -0.046875 3.171875 -0.09375l0 1.828125l-1.640625 0.09375q-0.671875 0.046875 -0.984375 0.390625q-0.3125 0.328125 -0.3125 0.703125q0 0.53125 0.234375 1.109375q0.25 0.578125 0.6875 1.6875l3.9375 10.21875l4.5625 -11.375q0.234375 -0.625 0.34375 -1.0q0.125 -0.390625 0.125 -0.828125q0 -0.328125 -0.34375 -0.59375q-0.328125 -0.265625 -1.0 -0.3125l-1.53125 -0.09375l0 -1.828125q1.109375 0.046875 2.234375 0.09375q1.125 0.046875 2.234375 0.046875q1.09375 0 2.21875 -0.046875q1.140625 -0.046875 2.234375 -0.09375l0 1.828125l-1.0 0.1875q-0.765625 0.140625 -1.296875 0.75q-0.53125 0.59375 -1.0625 1.890625l-9.6875 22.5625q-0.671875 1.484375 -1.46875 2.828125q-0.796875 1.34375 -1.796875 2.453125q-1.015625 1.046875 -2.234375 1.671875q-1.21875 0.625 -2.671875 0.625q-0.859375 0 -1.796875 -0.21875q-0.9375 -0.203125 -1.703125 -0.59375l0.875 -4.5625l0.515625 -0.1875q0.671875 0.8125 1.515625 1.28125q0.84375 0.484375 1.953125 0.484375q0.71875 0 1.390625 -0.40625q0.671875 -0.40625 1.21875 -1.078125q0.546875 -0.671875 1.0 -1.484375q0.46875 -0.8125 0.796875 -1.625l1.015625 -2.453125l-7.5 -19.15625q-0.375 -1.046875 -0.90625 -1.9375q-0.53125 -0.890625 -1.203125 -0.9375l-1.671875 -0.09375l0 -1.828125z" fill-rule="nonzero"/></g></svg>