<svg version="1.1" viewBox="0.0 0.0 1000.0 1000.0" fill="none" stroke="none" stroke-linecap="square" stroke-miterlimit="10" xmlns:xlink="http://www.w3.org/1999/xlink" xmlns="http://www.w3.org/2000/svg"><clipPath id="gba4c916805_0_611.0"><path d="m0 0l1000.0 0l0 1000.0l-1000.0 0l0 -1000.0z" clip-rule="nonzero"/></clipPath><g clip-path="url(#gba4c916805_0_611.0)"><path fill="#ffffff" d="m0 0l1000.0 0l0 1000.0l-1000.0 0z" fill-rule="evenodd"/><path fill="#000000" fill-opacity="0.0" d="m18.897638 18.897638l962.2677 0l0 116.34646l-962.2677 0z" fill-rule="evenodd"/><path fill="#2f2f2f" d="m172.10992 50.213257q1.84375 0.078125 5.3125 0.171875q3.484375 0.078125 7.5625 0.078125q3.125 0 6.203125 -0.078125q3.078125 -0.09375 5.796875 -0.171875l0 2.96875l-3.03125 0.234375q-1.28125 0.15625 -1.890625 0.328125q-0.59375 0.15625 -0.984375 0.546875q-0.5625 0.5625 -0.734375 2.09375q-0.15625 1.515625 -0.15625 4.3125l0 20.078125q0 4.15625 0.28125 7.609375q0.28125 3.4375 1.640625 5.921875q1.359375 2.46875 4.234375 3.828125q2.890625 1.359375 8.09375 1.359375q4.796875 0 7.71875 -1.234375q2.921875 -1.25 4.515625 -3.5625q1.59375 -2.3125 2.109375 -5.75q0.53125 -3.453125 0.53125 -7.84375l0 -20.640625q0 -3.28125 -0.25 -4.515625q-0.234375 -1.25 -0.625 -1.65625q-0.328125 -0.3125 -0.9375 -0.515625q-0.59375 -0.203125 -1.953125 -0.359375l-3.03125 -0.234375l0 -2.96875q2.3125 0.078125 4.671875 0.171875q2.359375 0.078125 4.53125 0.078125q2.3125 0 4.546875 -0.078125q2.25 -0.09375 4.5625 -0.171875l0 2.96875l-2.953125 0.234375q-1.4375 0.15625 -2.046875 0.359375q-0.59375 0.203125 -0.921875 0.515625q-0.640625 0.640625 -0.765625 2.375q-0.109375 1.71875 -0.109375 4.34375l0 24.0q0 10.25 -5.484375 15.65625q-5.46875 5.390625 -16.75 5.390625q-11.125 0 -17.015625 -4.234375q-5.875 -4.25 -5.875 -11.28125l0 -30.078125q0 -3.203125 -0.234375 -4.484375q-0.234375 -1.28125 -0.640625 -1.6875q-0.3125 -0.3125 -0.921875 -0.515625q-0.59375 -0.203125 -2.03125 -0.359375l-2.96875 -0.234375l0 -2.96875zm77.521194 17.28125l0 6.0l6.4062347 -4.953125q1.1875 -0.890625 2.546875 -1.203125q1.375 -0.328125 3.53125 -0.328125q2.875 0 5.15625 0.96875q2.28125 0.953125 3.40625 2.15625q2.078125 2.15625 2.546875 5.15625q0.484375 3.0 0.484375 6.359375l0 15.453125q0 1.75 0.15625 2.59375q0.171875 0.84375 0.328125 1.15625q0.3125 0.484375 0.953125 0.6875q0.640625 0.203125 1.53125 0.28125l2.546875 0.15625l0 2.953125q-1.90625 -0.078125 -4.078125 -0.15625q-2.15625 -0.078125 -3.28125 -0.078125q-2.3125 0 -4.390625 0.078125q-2.078125 0.078125 -3.515625 0.15625l0 -22.078125q0 -4.5625 -1.734375 -6.75q-1.71875 -2.203125 -6.03125 -2.203125q-1.6093597 0 -2.6874847 0.515625q-1.078125 0.515625 -1.953125 1.328125q-0.96875 0.875 -1.453125 1.84375q-0.46875 0.953125 -0.46875 1.75l0 17.4375q0 1.359375 0.078125 2.53125q0.078125 1.15625 0.484375 1.625q0.484375 0.8125 2.390625 0.890625l2.734375 0.15625l0 2.953125q-0.96875 0 -2.328125 -0.046875q-1.359375 -0.03125 -2.890625 -0.078125q-1.515625 -0.03125 -2.953125 -0.078125q-1.4375 -0.03125 -2.5625 -0.03125q-2.234375 0 -5.125 0.078125q-2.875 0.078125 -5.265625 0.15625l0 -2.953125l2.71875 -0.15625q1.921875 -0.078125 2.40625 -0.890625q0.234375 -0.3125 0.390625 -1.234375q0.15625 -0.921875 0.15625 -2.765625l0 -18.46875q0 -2.328125 -0.15625 -3.15625q-0.15625 -0.84375 -0.5625 -1.25q-0.15625 -0.15625 -0.40625 -0.28125q-0.234375 -0.125 -1.03125 -0.203125l-3.515625 -0.234375l0 -2.875q3.671875 -0.078125 7.03125 -1.0q3.359375 -0.921875 7.921875 -2.453125l0.484375 0.484375zm44.47371 -19.28125q2.5625 0 4.28125 1.71875q1.71875 1.71875 1.71875 4.359375q0 2.484375 -1.796875 4.203125q-1.796875 1.71875 -4.203125 1.71875q-2.390625 0 -4.203125 -1.71875q-1.796875 -1.71875 -1.796875 -4.203125q0 -2.640625 1.71875 -4.359375q1.734375 -1.71875 4.28125 -1.71875zm5.203125 19.28125l0 29.28125q0 1.359375 0.078125 2.53125q0.078125 1.15625 0.484375 1.625q0.484375 0.8125 2.40625 0.890625l2.71875 0.15625l0 2.953125q-0.96875 0 -2.328125 -0.046875q-1.359375 -0.03125 -2.875 -0.078125q-1.515625 -0.03125 -2.96875 -0.078125q-1.4375 -0.03125 -2.546875 -0.03125q-1.125 0 -2.890625 0.03125q-1.75 0.046875 -3.4375 0.125q-2.0 0.078125 -4.078125 0.078125l0 -2.953125l2.71875 -0.15625q1.921875 -0.078125 2.40625 -0.890625q0.234375 -0.3125 0.390625 -1.234375q0.171875 -0.921875 0.171875 -2.765625l0 -18.46875q0 -2.328125 -0.171875 -3.15625q-0.15625 -0.84375 -0.546875 -1.25q-0.171875 -0.15625 -0.40625 -0.28125q-0.234375 -0.125 -1.125 -0.203125l-3.4375 -0.234375l0 -2.875q2.328125 -0.328125 4.5625 -0.640625q2.234375 -0.328125 4.484375 -1.046875l5.59375 -1.765625l0.796875 0.484375zm26.077484 -12.5625q-0.546875 2.71875 -0.75 5.640625q-0.203125 2.921875 -0.203125 4.921875l0 4.96875l9.125 -0.484375l-0.640625 5.203125l-8.484375 0l0 18.953125q0 2.96875 1.03125 4.125q1.046875 1.15625 3.921875 1.15625q1.125 0 1.875 -0.234375q0.765625 -0.25 1.8125 -0.796875l0.640625 1.515625l-3.921875 4.71875q-0.640625 0.71875 -1.96875 1.078125q-1.3125 0.359375 -2.90625 0.359375q-5.6875 0 -7.96875 -2.515625q-2.28125 -2.53125 -2.28125 -7.71875l0 -20.640625l-5.109375 0.3125l0 -1.75l5.28125 -3.453125l0 -4.71875q0 -1.1875 -0.046875 -2.5q-0.046875 -1.328125 -0.125 -2.453125q-0.078125 -1.28125 -0.15625 -2.484375q2.640625 -0.953125 5.234375 -2.03125q2.609375 -1.09375 4.53125 -1.96875l1.109375 0.796875zm29.530579 12.078125q2.71875 0 5.15625 0.640625q2.4375 0.640625 4.1875 2.046875q1.765625 1.40625 2.8125 3.53125q1.046875 2.109375 1.046875 5.0625q0 0.8125 -0.046875 2.046875q-0.046875 1.234375 -0.09375 2.59375q-0.03125 1.359375 -0.078125 2.84375q-0.03125 1.484375 -0.03125 2.765625q0 1.109375 0 2.078125q0 0.953125 0.03125 2.046875q0.046875 1.078125 0.078125 2.4375q0.046875 1.359375 0.140625 3.28125q0.078125 1.359375 0.4375 2.28125q0.359375 0.90625 1.71875 1.078125l2.390625 0.234375l0 2.953125q-1.75 -0.078125 -3.515625 -0.15625q-1.765625 -0.078125 -3.515625 -0.078125q-1.515625 0 -3.4375 0.078125q-1.921875 0.078125 -3.84375 0.15625l-0.40625 -0.640625l0.40625 -4.953125l-7.125 5.515625q-0.875 0.71875 -1.84375 0.953125q-0.953125 0.25 -2.875 0.25q-4.5625 0 -6.71875 -2.75q-2.15625 -2.765625 -2.15625 -7.015625q0 -2.546875 0.75 -4.59375q0.765625 -2.046875 2.046875 -3.15625q1.515625 -1.359375 4.0 -2.4375q2.484375 -1.09375 6.875 -1.96875l7.046875 -1.4375q0 -4.3125 -1.96875 -6.875q-1.953125 -2.5625 -6.265625 -2.5625q-0.640625 0 -1.40625 0.078125q-0.765625 0.078125 -1.453125 0.25q-0.671875 0.15625 -1.15625 0.359375q-0.46875 0.1875 -0.546875 0.4375l-1.765625 4.0l-2.40625 -0.5625l0 -5.53125l4.40625 -2.640625q2.078125 -1.265625 4.4375 -1.953125q2.359375 -0.6875 4.6875 -0.6875zm-7.53125 27.28125q0 2.484375 1.234375 3.65625q1.25 1.15625 3.09375 1.15625q0.796875 0 1.75 -0.3125q0.96875 -0.328125 1.890625 -0.8125q0.921875 -0.484375 1.71875 -1.125q0.796875 -0.640625 1.28125 -1.359375l0 -9.4375q-1.28125 0.40625 -3.25 0.890625q-1.953125 0.46875 -3.625 1.109375q-2.09375 0.875 -3.09375 2.28125q-1.0 1.40625 -1.0 3.953125zm44.890594 -26.796875l0 7.609375l3.515625 -3.84375q1.59375 -1.6875 3.078125 -2.96875q1.484375 -1.28125 3.25 -1.28125q0.953125 0 1.875 0.09375q0.921875 0.078125 1.5625 0.390625l-0.40625 10.328125l-1.921875 0.796875q-1.4375 -2.875 -4.71875 -2.875q-1.03125 0 -2.15625 0.4375q-1.125 0.4375 -2.15625 1.3125q-1.921875 1.6875 -1.921875 3.359375l0 15.53125q0 3.515625 0.390625 4.234375q0.328125 0.5625 1.328125 0.84375q1.0 0.28125 2.125 0.359375l3.109375 0.15625l0 2.953125q-3.03125 -0.078125 -6.390625 -0.15625q-3.359375 -0.078125 -5.609375 -0.078125q-2.234375 0 -5.203125 0.078125q-2.953125 0.078125 -5.1875 0.15625l0 -2.953125l2.71875 -0.15625q1.921875 -0.078125 2.390625 -0.890625q0.25 -0.3125 0.40625 -1.1875q0.15625 -0.890625 0.15625 -2.8125l0 -18.46875q0 -2.328125 -0.15625 -3.15625q-0.15625 -0.84375 -0.5625 -1.25q-0.15625 -0.15625 -0.40625 -0.28125q-0.234375 -0.125 -1.109375 -0.203125l-3.4375 -0.234375l0 -2.875q2.234375 -0.328125 4.46875 -0.640625q2.25 -0.328125 4.328125 -0.96875l5.84375 -1.84375l0.796875 0.484375zm14.07309 0.484375q2.5625 0.078125 5.28125 0.15625q2.71875 0.078125 5.359375 0.078125q2.640625 0 5.28125 -0.078125q2.640625 -0.078125 5.28125 -0.15625l0 3.03125l-2.71875 0.171875q-1.125 0.078125 -1.640625 0.640625q-0.515625 0.5625 -0.515625 1.1875q0 0.890625 0.390625 1.859375q0.40625 0.953125 1.125 2.78125l6.5625 17.046875l7.59375 -18.953125q0.40625 -1.046875 0.59375 -1.6875q0.203125 -0.640625 0.203125 -1.359375q0 -0.5625 -0.5625 -1.0q-0.546875 -0.4375 -1.671875 -0.515625l-2.5625 -0.171875l0 -3.03125q1.84375 0.078125 3.71875 0.15625q1.890625 0.078125 3.71875 0.078125q1.84375 0 3.71875 -0.078125q1.890625 -0.078125 3.734375 -0.15625l0 3.03125l-1.6875 0.328125q-1.28125 0.234375 -2.171875 1.234375q-0.875 1.0 -1.75 3.171875l-16.15625 37.59375q-1.125 2.484375 -2.453125 4.71875q-1.3125 2.234375 -2.984375 4.078125q-1.6875 1.765625 -3.734375 2.796875q-2.03125 1.046875 -4.4375 1.046875q-1.4375 0 -3.0 -0.359375q-1.546875 -0.359375 -2.828125 -1.0l1.4375 -7.609375l0.875 -0.3125q1.125 1.359375 2.515625 2.15625q1.40625 0.796875 3.25 0.796875q1.203125 0 2.3125 -0.6875q1.125 -0.671875 2.046875 -1.796875q0.921875 -1.109375 1.671875 -2.46875q0.765625 -1.359375 1.328125 -2.71875l1.671875 -4.078125l-12.46875 -31.921875q-0.640625 -1.765625 -1.53125 -3.234375q-0.875 -1.484375 -2.0 -1.5625l-2.796875 -0.171875l0 -3.03125zm97.19873 -18.15625l20.796875 48.5625q0.890625 1.90625 1.96875 2.546875q1.078125 0.640625 2.359375 0.8125l1.921875 0.234375l0 2.953125q-4.078125 -0.078125 -6.890625 -0.15625q-2.796875 -0.078125 -5.515625 -0.078125q-2.71875 0 -5.796875 0.078125q-3.078125 0.078125 -6.59375 0.15625l0 -2.953125l4.0 -0.234375q1.828125 -0.09375 1.828125 -2.328125q0 -0.953125 -0.640625 -2.484375l-3.4375 -8.71875l-20.078125 0l-3.125 8.328125q-0.234375 0.640625 -0.4375 1.28125q-0.1875 0.640625 -0.1875 1.28125q0 2.46875 2.546875 2.640625l3.765625 0.234375l0 2.953125q-2.484375 -0.078125 -4.96875 -0.15625q-2.46875 -0.078125 -4.078125 -0.078125q-1.90625 0 -4.234375 0.078125q-2.3125 0.078125 -4.796875 0.15625l0 -2.953125l2.3125 -0.234375q1.609375 -0.25 2.8125 -1.6875q0.640625 -0.875 1.109375 -1.828125q0.484375 -0.96875 1.203125 -2.65625l13.4375 -32.5625q0.640625 -1.59375 1.484375 -3.828125q0.84375 -2.25 1.640625 -4.328125q0.875 -2.46875 1.921875 -5.03125l5.671875 0zm-14.15625 33.921875l16.328125 0l-8.328125 -20.328125l-8.0 20.328125zm60.318054 -16.25l0 21.609375q0 2.15625 0.234375 3.921875q0.25 1.75 0.96875 3.078125q0.71875 1.3125 1.953125 2.03125q1.25 0.71875 3.328125 0.71875q2.71875 0 5.03125 -2.078125q1.125 -0.953125 1.765625 -2.109375q0.640625 -1.171875 0.640625 -2.84375l0 -13.359375q0 -2.328125 -0.15625 -3.15625q-0.15625 -0.84375 -0.5625 -1.25q-0.15625 -0.15625 -0.40625 -0.28125q-0.234375 -0.125 -1.109375 -0.203125l-3.4375 -0.234375l0 -2.875q2.3125 -0.328125 4.546875 -0.640625q2.25 -0.328125 4.484375 -1.046875l5.59375 -1.765625l0.8125 0.484375l0 29.609375q0 1.75 0.15625 2.640625q0.15625 0.875 0.40625 1.1875q0.46875 0.8125 2.46875 0.890625l2.484375 0.15625l0 2.953125q-2.40625 -0.078125 -4.6875 -0.15625q-2.265625 -0.078125 -4.109375 -0.078125q-1.125 0 -2.84375 0.078125q-1.71875 0.078125 -4.046875 0.15625l0.40625 -6.640625l-6.078125 5.921875q-2.0 1.84375 -5.203125 1.84375q-6.5625 0 -9.484375 -3.4375q-2.90625 -3.4375 -2.90625 -9.046875l0 -15.109375q0 -2.328125 -0.171875 -3.15625q-0.15625 -0.84375 -0.5625 -1.25q-0.15625 -0.15625 -0.40625 -0.28125q-0.234375 -0.125 -1.109375 -0.203125l-3.4375 -0.234375l0 -2.875q2.3125 -0.328125 4.546875 -0.640625q2.25 -0.328125 4.5 -1.046875l5.59375 -1.765625l0.796875 0.484375zm49.036194 -12.5625q-0.546875 2.71875 -0.75 5.640625q-0.203125 2.921875 -0.203125 4.921875l0 4.96875l9.125 -0.484375l-0.640625 5.203125l-8.484375 0l0 18.953125q0 2.96875 1.03125 4.125q1.046875 1.15625 3.921875 1.15625q1.125 0 1.875 -0.234375q0.765625 -0.25 1.8125 -0.796875l0.640625 1.515625l-3.921875 4.71875q-0.640625 0.71875 -1.96875 1.078125q-1.3125 0.359375 -2.90625 0.359375q-5.6875 0 -7.96875 -2.515625q-2.28125 -2.53125 -2.28125 -7.71875l0 -20.640625l-5.109375 0.3125l0 -1.75l5.28125 -3.453125l0 -4.71875q0 -1.1875 -0.046875 -2.5q-0.046875 -1.328125 -0.125 -2.453125q-0.078125 -1.28125 -0.15625 -2.484375q2.640625 -0.953125 5.234375 -2.03125q2.609375 -1.09375 4.53125 -1.96875l1.109375 0.796875zm26.405579 -7.359375l0 25.921875l6.40625 -4.953125q1.1875 -0.890625 2.546875 -1.203125q1.375 -0.328125 3.53125 -0.328125q2.875 0 5.15625 0.96875q2.28125 0.953125 3.40625 2.15625q2.078125 2.15625 2.546875 5.15625q0.484375 3.0 0.484375 6.359375l0 15.453125q0 1.75 0.15625 2.59375q0.171875 0.84375 0.328125 1.15625q0.3125 0.484375 0.953125 0.6875q0.640625 0.203125 1.53125 0.28125l2.546875 0.15625l0 2.953125q-1.90625 -0.078125 -4.078125 -0.15625q-2.15625 -0.078125 -3.28125 -0.078125q-2.3125 0 -4.390625 0.078125q-2.078125 0.078125 -3.515625 0.15625l0 -22.078125q0 -4.5625 -1.734375 -6.75q-1.71875 -2.203125 -6.03125 -2.203125q-1.609375 0 -2.6875 0.515625q-1.078125 0.515625 -1.953125 1.328125q-0.96875 0.875 -1.453125 1.84375q-0.46875 0.953125 -0.46875 1.75l0 17.4375q0 1.359375 0.078125 2.53125q0.078125 1.15625 0.484375 1.625q0.484375 0.8125 2.390625 0.890625l2.734375 0.15625l0 2.953125q-0.96875 0 -2.328125 -0.046875q-1.359375 -0.03125 -2.890625 -0.078125q-1.515625 -0.03125 -2.953125 -0.078125q-1.4375 -0.03125 -2.5625 -0.03125q-2.234375 0 -5.125 0.078125q-2.875 0.078125 -5.265625 0.15625l0 -2.953125l2.71875 -0.15625q1.921875 -0.078125 2.40625 -0.890625q0.234375 -0.3125 0.390625 -1.234375q0.15625 -0.921875 0.15625 -2.765625l0 -38.390625q0 -2.328125 -0.15625 -3.15625q-0.15625 -0.84375 -0.5625 -1.25q-0.15625 -0.15625 -0.40625 -0.265625q-0.234375 -0.125 -1.03125 -0.21875l-3.515625 -0.234375l0 -2.875q2.3125 -0.328125 4.546875 -0.6875q2.25 -0.359375 4.484375 -1.0l5.765625 -1.75l0.640625 0.46875zm54.317444 19.4375q9.203125 0 13.875 4.890625q4.6875 4.875 4.6875 13.84375q0 9.671875 -5.078125 15.0q-5.078125 5.3125 -15.15625 5.3125q-8.71875 0 -13.328125 -5.078125q-4.59375 -5.078125 -4.59375 -14.28125q0 -9.4375 5.0 -14.5625q5.0 -5.125 14.59375 -5.125zm-8.71875 17.375q0 2.953125 0.28125 6.109375q0.28125 3.15625 1.234375 5.765625q0.96875 2.59375 2.6875 4.28125q1.71875 1.671875 4.59375 1.671875q2.890625 0 4.40625 -1.515625q1.515625 -1.515625 2.234375 -3.71875q0.71875 -2.203125 0.84375 -4.59375q0.125 -2.40625 0.125 -4.25q0 -9.359375 -2.25 -13.3125q-2.234375 -3.96875 -6.234375 -3.96875q-2.5625 0 -4.125 1.203125q-1.5625 1.203125 -2.40625 3.125q-0.828125 1.921875 -1.109375 4.359375q-0.28125 2.4375 -0.28125 4.84375zm48.245605 -16.890625l0 7.609375l3.515625 -3.84375q1.59375 -1.6875 3.078125 -2.96875q1.484375 -1.28125 3.25 -1.28125q0.953125 0 1.875 0.09375q0.921875 0.078125 1.5625 0.390625l-0.40625 10.328125l-1.921875 0.796875q-1.4375 -2.875 -4.71875 -2.875q-1.03125 0 -2.15625 0.4375q-1.125 0.4375 -2.15625 1.3125q-1.921875 1.6875 -1.921875 3.359375l0 15.53125q0 3.515625 0.390625 4.234375q0.328125 0.5625 1.328125 0.84375q1.0 0.28125 2.125 0.359375l3.109375 0.15625l0 2.953125q-3.03125 -0.078125 -6.390625 -0.15625q-3.359375 -0.078125 -5.609375 -0.078125q-2.234375 0 -5.203125 0.078125q-2.953125 0.078125 -5.1875 0.15625l0 -2.953125l2.71875 -0.15625q1.921875 -0.078125 2.390625 -0.890625q0.25 -0.3125 0.40625 -1.1875q0.15625 -0.890625 0.15625 -2.8125l0 -18.46875q0 -2.328125 -0.15625 -3.15625q-0.15625 -0.84375 -0.5625 -1.25q-0.15625 -0.15625 -0.40625 -0.28125q-0.234375 -0.125 -1.109375 -0.203125l-3.4375 -0.234375l0 -2.875q2.234375 -0.328125 4.46875 -0.640625q2.25 -0.328125 4.328125 -0.96875l5.84375 -1.84375l0.796875 0.484375zm26.22937 -19.28125q2.5625 0 4.28125 1.71875q1.71875 1.71875 1.71875 4.359375q0 2.484375 -1.796875 4.203125q-1.796875 1.71875 -4.203125 1.71875q-2.390625 0 -4.203125 -1.71875q-1.796875 -1.71875 -1.796875 -4.203125q0 -2.640625 1.71875 -4.359375q1.734375 -1.71875 4.28125 -1.71875zm5.203125 19.28125l0 29.28125q0 1.359375 0.078125 2.53125q0.078125 1.15625 0.484375 1.625q0.484375 0.8125 2.40625 0.890625l2.71875 0.15625l0 2.953125q-0.96875 0 -2.328125 -0.046875q-1.359375 -0.03125 -2.875 -0.078125q-1.515625 -0.03125 -2.96875 -0.078125q-1.4375 -0.03125 -2.546875 -0.03125q-1.125 0 -2.890625 0.03125q-1.75 0.046875 -3.4375 0.125q-2.0 0.078125 -4.078125 0.078125l0 -2.953125l2.71875 -0.15625q1.921875 -0.078125 2.40625 -0.890625q0.234375 -0.3125 0.390625 -1.234375q0.171875 -0.921875 0.171875 -2.765625l0 -18.46875q0 -2.328125 -0.171875 -3.15625q-0.15625 -0.84375 -0.546875 -1.25q-0.171875 -0.15625 -0.40625 -0.28125q-0.234375 -0.125 -1.125 -0.203125l-3.4375 -0.234375l0 -2.875q2.328125 -0.328125 4.5625 -0.640625q2.234375 -0.328125 4.484375 -1.046875l5.59375 -1.765625l0.796875 0.484375zm26.077454 -12.5625q-0.546875 2.71875 -0.75 5.640625q-0.203125 2.921875 -0.203125 4.921875l0 4.96875l9.125 -0.484375l-0.640625 5.203125l-8.484375 0l0 18.953125q0 2.96875 1.03125 4.125q1.046875 1.15625 3.921875 1.15625q1.125 0 1.875 -0.234375q0.765625 -0.25 1.8125 -0.796875l0.640625 1.515625l-3.921875 4.71875q-0.640625 0.71875 -1.96875 1.078125q-1.3125 0.359375 -2.90625 0.359375q-5.6875 0 -7.96875 -2.515625q-2.28125 -2.53125 -2.28125 -7.71875l0 -20.640625l-5.109375 0.3125l0 -1.75l5.28125 -3.453125l0 -4.71875q0 -1.1875 -0.046875 -2.5q-0.046875 -1.328125 -0.125 -2.453125q-0.078125 -1.28125 -0.15625 -2.484375q2.640625 -0.953125 5.234375 -2.03125q2.609375 -1.09375 4.53125 -1.96875l1.109375 0.796875zm9.843079 13.046875q2.5625 0.078125 5.28125 0.15625q2.71875 0.078125 5.359375 0.078125q2.640625 0 5.28125 -0.078125q2.640625 -0.078125 5.28125 -0.15625l0 3.03125l-2.71875 0.171875q-1.125 0.078125 -1.640625 0.640625q-0.515625 0.5625 -0.515625 1.1875q0 0.890625 0.390625 1.859375q0.40625 0.953125 1.125 2.78125l6.5625 17.046875l7.59375 -18.953125q0.40625 -1.046875 0.59375 -1.6875q0.203125 -0.640625 0.203125 -1.359375q0 -0.5625 -0.5625 -1.0q-0.546875 -0.4375 -1.671875 -0.515625l-2.5625 -0.171875l0 -3.03125q1.84375 0.078125 3.71875 0.15625q1.890625 0.078125 3.71875 0.078125q1.84375 0 3.71875 -0.078125q1.890625 -0.078125 3.734375 -0.15625l0 3.03125l-1.6875 0.328125q-1.28125 0.234375 -2.171875 1.234375q-0.875 1.0 -1.75 3.171875l-16.15625 37.59375q-1.125 2.484375 -2.453125 4.71875q-1.3125 2.234375 -2.984375 4.078125q-1.6875 1.765625 -3.734375 2.796875q-2.03125 1.046875 -4.4375 1.046875q-1.4375 0 -3.0 -0.359375q-1.546875 -0.359375 -2.828125 -1.0l1.4375 -7.609375l0.875 -0.3125q1.125 1.359375 2.515625 2.15625q1.40625 0.796875 3.25 0.796875q1.203125 0 2.3125 -0.6875q1.125 -0.671875 2.046875 -1.796875q0.921875 -1.109375 1.671875 -2.46875q0.765625 -1.359375 1.328125 -2.71875l1.671875 -4.078125l-12.46875 -31.921875q-0.640625 -1.765625 -1.53125 -3.234375q-0.875 -1.484375 -2.0 -1.5625l-2.796875 -0.171875l0 -3.03125z" fill-rule="nonzero"/><path fill="#e4003b" d="m364.30594 574.1108l58.290344 -116.5806l154.76505 0l58.290344 116.5806l-58.290344 116.58063l-154.76505 0z" fill-rule="evenodd"/><path fill="#ffffff" d="m377.82254 574.1108l52.49298 -104.9859l139.2421 0l52.49298 104.9859l-52.49298 104.9859l-139.2421 0z" fill-rule="evenodd"/><path fill="#000000" fill-opacity="0.0" d="m364.34818 545.8949l271.34573 0l0 56.34729l-271.34573 0z" fill-rule="evenodd"/><path fill="#000000" d="m473.33194 585.58856l-3.125 0l0 -10.4375l-12.34375 0l0 10.4375l-3.125 0l0 -22.921875l3.125 0l0 10.21875l12.34375 0l0 -10.21875l3.125 0l0 22.921875zm17.051422 0l-1.265625 0q-0.40625 0 -0.671875 -0.125q-0.25 -0.125 -0.328125 -0.546875l-0.328125 -1.5q-0.625 0.578125 -1.234375 1.03125q-0.609375 0.453125 -1.28125 0.765625q-0.671875 0.3125 -1.4375 0.46875q-0.765625 0.15625 -1.6875 0.15625q-0.9375 0 -1.765625 -0.25q-0.828125 -0.265625 -1.4375 -0.796875q-0.609375 -0.53125 -0.96875 -1.328125q-0.359375 -0.8125 -0.359375 -1.921875q0 -0.96875 0.53125 -1.84375q0.53125 -0.890625 1.703125 -1.578125q1.171875 -0.6875 3.078125 -1.125q1.90625 -0.453125 4.65625 -0.515625l0 -1.265625q0 -1.875 -0.8125 -2.84375q-0.796875 -0.96875 -2.390625 -0.96875q-1.03125 0 -1.75 0.265625q-0.703125 0.265625 -1.234375 0.59375q-0.515625 0.3125 -0.890625 0.578125q-0.375 0.265625 -0.75 0.265625q-0.28125 0 -0.5 -0.140625q-0.21875 -0.15625 -0.34375 -0.390625l-0.515625 -0.90625q1.34375 -1.296875 2.890625 -1.9375q1.5625 -0.640625 3.453125 -0.640625q1.359375 0 2.40625 0.453125q1.0625 0.453125 1.78125 1.25q0.71875 0.796875 1.078125 1.9375q0.375 1.125 0.375 2.484375l0 10.375zm-7.390625 -1.75q0.75 0 1.375 -0.140625q0.625 -0.15625 1.171875 -0.4375q0.5625 -0.28125 1.0625 -0.671875q0.5 -0.40625 0.984375 -0.921875l0 -3.375q-1.96875 0.0625 -3.34375 0.3125q-1.375 0.25 -2.25 0.65625q-0.859375 0.390625 -1.25 0.9375q-0.390625 0.546875 -0.390625 1.21875q0 0.640625 0.203125 1.109375q0.21875 0.453125 0.5625 0.75q0.359375 0.296875 0.828125 0.4375q0.484375 0.125 1.046875 0.125zm14.88028 -21.8125l0 23.5625l-2.84375 0l0 -23.5625l2.84375 0zm9.942017 23.8125q-1.921875 0 -2.953125 -1.0625q-1.03125 -1.078125 -1.03125 -3.09375l0 -9.921875l-1.953125 0q-0.25 0 -0.4375 -0.140625q-0.171875 -0.15625 -0.171875 -0.484375l0 -1.125l2.65625 -0.34375l0.65625 -5.0q0.03125 -0.25 0.203125 -0.390625q0.1875 -0.15625 0.453125 -0.15625l1.4375 0l0 5.578125l4.640625 0l0 2.0625l-4.640625 0l0 9.734375q0 1.015625 0.5 1.515625q0.5 0.5 1.28125 0.5q0.453125 0 0.765625 -0.109375q0.328125 -0.125 0.5625 -0.265625q0.25 -0.15625 0.421875 -0.265625q0.171875 -0.125 0.296875 -0.125q0.21875 0 0.40625 0.265625l0.828125 1.359375q-0.734375 0.6875 -1.78125 1.078125q-1.03125 0.390625 -2.140625 0.390625zm13.57663 -16.71875q1.78125 0 3.203125 0.59375q1.4375 0.59375 2.4375 1.6875q1.0 1.078125 1.53125 2.625q0.546875 1.546875 0.546875 3.453125q0 1.921875 -0.546875 3.453125q-0.53125 1.53125 -1.53125 2.625q-1.0 1.09375 -2.4375 1.671875q-1.421875 0.578125 -3.203125 0.578125q-1.765625 0 -3.203125 -0.578125q-1.4375 -0.578125 -2.453125 -1.671875q-1.0 -1.09375 -1.546875 -2.625q-0.53125 -1.53125 -0.53125 -3.453125q0 -1.90625 0.53125 -3.453125q0.546875 -1.546875 1.546875 -2.625q1.015625 -1.09375 2.453125 -1.6875q1.4375 -0.59375 3.203125 -0.59375zm0 14.46875q2.40625 0 3.578125 -1.609375q1.1875 -1.609375 1.1875 -4.484375q0 -2.890625 -1.1875 -4.5q-1.171875 -1.625 -3.578125 -1.625q-1.203125 0 -2.109375 0.421875q-0.890625 0.40625 -1.5 1.1875q-0.59375 0.78125 -0.890625 1.9375q-0.296875 1.140625 -0.296875 2.578125q0 1.4375 0.296875 2.578125q0.296875 1.125 0.890625 1.90625q0.609375 0.78125 1.5 1.203125q0.90625 0.40625 2.109375 0.40625zm11.245178 2.0l0 -16.203125l1.6875 0q0.609375 0 0.765625 0.59375l0.234375 1.75q1.046875 -1.171875 2.34375 -1.890625q1.3125 -0.71875 3.03125 -0.71875q1.328125 0 2.34375 0.453125q1.015625 0.4375 1.6875 1.25q0.6875 0.796875 1.03125 1.9375q0.359375 1.125 0.359375 2.515625l0 10.3125l-2.859375 0l0 -10.3125q0 -1.84375 -0.84375 -2.859375q-0.828125 -1.015625 -2.5625 -1.015625q-1.265625 0 -2.359375 0.609375q-1.09375 0.609375 -2.015625 1.640625l0 11.9375l-2.84375 0z" fill-rule="nonzero"/><path fill="#0087dc" d="m46.48819 574.1128l58.291336 -116.58261l154.7559 0l58.29135 116.58261l-58.29135 116.58264l-154.7559 0z" fill-rule="evenodd"/><path fill="#ffffff" d="m60.004787 574.1108l52.492977 -104.9859l139.2421 0l52.492966 104.9859l-52.492966 104.9859l-139.2421 0z" fill-rule="evenodd"/><path fill="#000000" fill-opacity="0.0" d="m46.53043 545.8949l271.3457 0l0 56.34729l-271.3457 0z" fill-rule="evenodd"/><path fill="#000000" d="m90.518585 577.01044l0 8.578125l-3.078125 0l0 -22.921875l6.765625 0q2.171875 0 3.78125 0.5q1.609375 0.5 2.65625 1.4375q1.0625 0.921875 1.578125 2.234375q0.53125 1.3125 0.53125 2.921875q0 1.609375 -0.5625 2.9375q-0.5625 1.328125 -1.640625 2.296875q-1.078125 0.953125 -2.6875 1.484375q-1.59375 0.53125 -3.65625 0.53125l-3.6875 0zm0 -2.46875l3.6875 0q1.328125 0 2.34375 -0.34375q1.015625 -0.359375 1.703125 -0.984375q0.6875 -0.640625 1.03125 -1.515625q0.359375 -0.875 0.359375 -1.9375q0 -2.1875 -1.359375 -3.421875q-1.34375 -1.234375 -4.078125 -1.234375l-3.6875 0l0 9.4375zm21.634537 -5.421875q1.453125 0 2.6875 0.5q1.234375 0.484375 2.125 1.40625q0.90625 0.921875 1.40625 2.28125q0.5 1.34375 0.5 3.0625q0 0.671875 -0.140625 0.90625q-0.140625 0.21875 -0.546875 0.21875l-10.78125 0q0.03125 1.53125 0.40625 2.671875q0.390625 1.140625 1.0625 1.90625q0.671875 0.75 1.59375 1.125q0.9375 0.375 2.09375 0.375q1.0625 0 1.84375 -0.25q0.78125 -0.25 1.328125 -0.53125q0.5625 -0.296875 0.9375 -0.53125q0.375 -0.25 0.65625 -0.25q0.34375 0 0.546875 0.265625l0.796875 1.046875q-0.53125 0.640625 -1.265625 1.109375q-0.734375 0.46875 -1.578125 0.78125q-0.84375 0.296875 -1.734375 0.4375q-0.890625 0.15625 -1.78125 0.15625q-1.671875 0 -3.09375 -0.5625q-1.40625 -0.5625 -2.4375 -1.65625q-1.03125 -1.109375 -1.609375 -2.71875q-0.578125 -1.625 -0.578125 -3.71875q0 -1.6875 0.515625 -3.15625q0.515625 -1.484375 1.484375 -2.5625q0.984375 -1.078125 2.390625 -1.6875q1.40625 -0.625 3.171875 -0.625zm0.0625 2.09375q-2.0625 0 -3.25 1.203125q-1.171875 1.1875 -1.46875 3.296875l8.8125 0q0 -0.984375 -0.265625 -1.8125q-0.265625 -0.828125 -0.796875 -1.421875q-0.53125 -0.609375 -1.296875 -0.9375q-0.75 -0.328125 -1.734375 -0.328125zm15.205536 14.625q-1.921875 0 -2.953125 -1.0625q-1.03125 -1.078125 -1.03125 -3.09375l0 -9.921875l-1.953125 0q-0.25 0 -0.4375 -0.140625q-0.171875 -0.15625 -0.171875 -0.484375l0 -1.125l2.65625 -0.34375l0.65625 -5.0q0.03125 -0.25 0.203125 -0.390625q0.1875 -0.15625 0.453125 -0.15625l1.4375 0l0 5.578125l4.640625 0l0 2.0625l-4.640625 0l0 9.734375q0 1.015625 0.5 1.515625q0.5 0.5 1.28125 0.5q0.453125 0 0.765625 -0.109375q0.328125 -0.125 0.5625 -0.265625q0.25 -0.15625 0.421875 -0.265625q0.171875 -0.125 0.296875 -0.125q0.21875 0 0.40625 0.265625l0.828125 1.359375q-0.734375 0.6875 -1.78125 1.078125q-1.03125 0.390625 -2.140625 0.390625zm13.43602 -16.71875q1.453125 0 2.6875 0.5q1.234375 0.484375 2.125 1.40625q0.90625 0.921875 1.40625 2.28125q0.5 1.34375 0.5 3.0625q0 0.671875 -0.140625 0.90625q-0.140625 0.21875 -0.546875 0.21875l-10.78125 0q0.03125 1.53125 0.40625 2.671875q0.390625 1.140625 1.0625 1.90625q0.671875 0.75 1.59375 1.125q0.9375 0.375 2.09375 0.375q1.0625 0 1.84375 -0.25q0.78125 -0.25 1.328125 -0.53125q0.5625 -0.296875 0.9375 -0.53125q0.375 -0.25 0.65625 -0.25q0.34375 0 0.546875 0.265625l0.796875 1.046875q-0.53125 0.640625 -1.265625 1.109375q-0.734375 0.46875 -1.578125 0.78125q-0.84375 0.296875 -1.734375 0.4375q-0.890625 0.15625 -1.78125 0.15625q-1.671875 0 -3.09375 -0.5625q-1.40625 -0.5625 -2.4375 -1.65625q-1.03125 -1.109375 -1.609375 -2.71875q-0.578125 -1.625 -0.578125 -3.71875q0 -1.6875 0.515625 -3.15625q0.515625 -1.484375 1.484375 -2.5625q0.984375 -1.078125 2.390625 -1.6875q1.40625 -0.625 3.171875 -0.625zm0.0625 2.09375q-2.0625 0 -3.25 1.203125q-1.171875 1.1875 -1.46875 3.296875l8.8125 0q0 -0.984375 -0.265625 -1.8125q-0.265625 -0.828125 -0.796875 -1.421875q-0.53125 -0.609375 -1.296875 -0.9375q-0.75 -0.328125 -1.734375 -0.328125zm10.299286 14.375l0 -16.203125l1.625 0q0.46875 0 0.640625 0.171875q0.171875 0.171875 0.234375 0.609375l0.203125 2.53125q0.828125 -1.703125 2.046875 -2.65625q1.21875 -0.953125 2.875 -0.953125q0.671875 0 1.21875 0.15625q0.546875 0.15625 1.0 0.421875l-0.359375 2.125q-0.109375 0.40625 -0.5 0.40625q-0.21875 0 -0.6875 -0.15625q-0.46875 -0.15625 -1.296875 -0.15625q-1.484375 0 -2.484375 0.875q-1.0 0.859375 -1.671875 2.515625l0 10.3125l-2.84375 0zm12.989777 0l0 -23.5625l2.859375 0l0 9.6875q1.0 -1.171875 2.296875 -1.875q1.3125 -0.71875 3.0 -0.71875q1.40625 0 2.53125 0.53125q1.140625 0.53125 1.9375 1.578125q0.8125 1.046875 1.234375 2.59375q0.4375 1.546875 0.4375 3.5625q0 1.78125 -0.484375 3.328125q-0.46875 1.546875 -1.375 2.671875q-0.90625 1.125 -2.21875 1.78125q-1.296875 0.640625 -2.921875 0.640625q-1.578125 0 -2.671875 -0.59375q-1.09375 -0.609375 -1.90625 -1.703125l-0.140625 1.46875q-0.140625 0.609375 -0.75 0.609375l-1.828125 0zm7.21875 -14.1875q-1.390625 0 -2.4375 0.640625q-1.046875 0.640625 -1.921875 1.796875l0 7.84375q0.765625 1.0625 1.703125 1.5q0.9375 0.421875 2.09375 0.421875q2.265625 0 3.484375 -1.609375q1.21875 -1.625 1.21875 -4.609375q0 -1.59375 -0.28125 -2.71875q-0.28125 -1.140625 -0.8125 -1.859375q-0.53125 -0.734375 -1.296875 -1.0625q-0.765625 -0.34375 -1.75 -0.34375zm17.122406 -2.28125q1.78125 0 3.203125 0.59375q1.4375 0.59375 2.4375 1.6875q1.0 1.078125 1.53125 2.625q0.546875 1.546875 0.546875 3.453125q0 1.921875 -0.546875 3.453125q-0.53125 1.53125 -1.53125 2.625q-1.0 1.09375 -2.4375 1.671875q-1.421875 0.578125 -3.203125 0.578125q-1.765625 0 -3.203125 -0.578125q-1.4375 -0.578125 -2.453125 -1.671875q-1.0 -1.09375 -1.546875 -2.625q-0.53125 -1.53125 -0.53125 -3.453125q0 -1.90625 0.53125 -3.453125q0.546875 -1.546875 1.546875 -2.625q1.015625 -1.09375 2.453125 -1.6875q1.4375 -0.59375 3.203125 -0.59375zm0 14.46875q2.40625 0 3.578125 -1.609375q1.1875 -1.609375 1.1875 -4.484375q0 -2.890625 -1.1875 -4.5q-1.171875 -1.625 -3.578125 -1.625q-1.203125 0 -2.109375 0.421875q-0.890625 0.40625 -1.5 1.1875q-0.59375 0.78125 -0.890625 1.9375q-0.296875 1.140625 -0.296875 2.578125q0 1.4375 0.296875 2.578125q0.296875 1.125 0.890625 1.90625q0.609375 0.78125 1.5 1.203125q0.90625 0.40625 2.109375 0.40625zm11.245163 2.0l0 -16.203125l1.625 0q0.46875 0 0.640625 0.171875q0.171875 0.171875 0.234375 0.609375l0.203125 2.53125q0.828125 -1.703125 2.046875 -2.65625q1.21875 -0.953125 2.875 -0.953125q0.671875 0 1.21875 0.15625q0.546875 0.15625 1.0 0.421875l-0.359375 2.125q-0.109375 0.40625 -0.5 0.40625q-0.21875 0 -0.6875 -0.15625q-0.46875 -0.15625 -1.296875 -0.15625q-1.484375 0 -2.484375 0.875q-1.0 0.859375 -1.671875 2.515625l0 10.3125l-2.84375 0zm19.442902 -16.46875q1.78125 0 3.203125 0.59375q1.4375 0.59375 2.4375 1.6875q1.0 1.078125 1.53125 2.625q0.546875 1.546875 0.546875 3.453125q0 1.921875 -0.546875 3.453125q-0.53125 1.53125 -1.53125 2.625q-1.0 1.09375 -2.4375 1.671875q-1.421875 0.578125 -3.203125 0.578125q-1.765625 0 -3.203125 -0.578125q-1.4375 -0.578125 -2.453125 -1.671875q-1.0 -1.09375 -1.546875 -2.625q-0.53125 -1.53125 -0.53125 -3.453125q0 -1.90625 0.53125 -3.453125q0.546875 -1.546875 1.546875 -2.625q1.015625 -1.09375 2.453125 -1.6875q1.4375 -0.59375 3.203125 -0.59375zm0 14.46875q2.40625 0 3.578125 -1.609375q1.1875 -1.609375 1.1875 -4.484375q0 -2.890625 -1.1875 -4.5q-1.171875 -1.625 -3.578125 -1.625q-1.203125 0 -2.109375 0.421875q-0.890625 0.40625 -1.5 1.1875q-0.59375 0.78125 -0.890625 1.9375q-0.296875 1.140625 -0.296875 2.578125q0 1.4375 0.296875 2.578125q0.296875 1.125 0.890625 1.90625q0.609375 0.78125 1.5 1.203125q0.90625 0.40625 2.109375 0.40625zm13.698288 -14.203125l0 10.328125q0 1.84375 0.84375 2.859375q0.859375 1.0 2.5625 1.0q1.25 0 2.34375 -0.59375q1.109375 -0.59375 2.046875 -1.640625l0 -11.953125l2.84375 0l0 16.203125l-1.6875 0q-0.609375 0 -0.78125 -0.59375l-0.21875 -1.75q-1.046875 1.171875 -2.359375 1.890625q-1.3125 0.703125 -3.015625 0.703125q-1.328125 0 -2.34375 -0.4375q-1.015625 -0.4375 -1.703125 -1.234375q-0.6875 -0.796875 -1.03125 -1.9375q-0.34375 -1.140625 -0.34375 -2.515625l0 -10.328125l2.84375 0zm20.792038 -0.28125q1.046875 0 1.96875 0.234375q0.92189026 0.234375 1.6718903 0.6875l4.40625 0l0 1.046875q0 0.53125 -0.671875 0.671875l-1.84375 0.265625q0.546875 1.03125 0.546875 2.3125q0 1.1875 -0.46875 2.15625q-0.453125 0.96875 -1.265625 1.65625q-0.796875 0.6875 -1.90625 1.0625q-1.1093903 0.359375 -2.4375153 0.359375q-1.140625 0 -2.15625 -0.265625q-0.5 0.3125 -0.765625 0.6875q-0.265625 0.359375 -0.265625 0.71875q0 0.578125 0.453125 0.875q0.46875 0.28125 1.234375 0.421875q0.78125 0.125 1.75 0.15625q0.984375 0.03125 2.0 0.109375q1.0156403 0.0625 1.9843903 0.25q0.984375 0.171875 1.75 0.578125q0.765625 0.390625 1.21875 1.09375q0.46875 0.703125 0.46875 1.828125q0 1.03125 -0.515625 2.0q-0.515625 0.984375 -1.5 1.734375q-0.96875 0.765625 -2.390625 1.21875q-1.4062653 0.46875 -3.1718903 0.46875q-1.78125 0 -3.125 -0.359375q-1.328125 -0.34375 -2.203125 -0.9375q-0.875 -0.59375 -1.328125 -1.375q-0.4375 -0.765625 -0.4375 -1.625q0 -1.1875 0.75 -2.03125q0.765625 -0.84375 2.09375 -1.34375q-0.6875 -0.3125 -1.09375 -0.84375q-0.40625 -0.546875 -0.40625 -1.4375q0 -0.359375 0.125 -0.734375q0.140625 -0.375 0.390625 -0.734375q0.265625 -0.375 0.65625 -0.703125q0.390625 -0.34375 0.890625 -0.59375q-1.1875 -0.671875 -1.875 -1.78125q-0.6875 -1.125 -0.6875 -2.609375q0 -1.1875 0.453125 -2.15625q0.46875 -0.96875 1.28125 -1.640625q0.8125 -0.6875 1.9375 -1.046875q1.140625 -0.375 2.484375 -0.375zm5.0468903 17.359375q0 -0.609375 -0.34375 -0.96875q-0.328125 -0.375 -0.90625 -0.5625q-0.5625 -0.203125 -1.328125 -0.296875q-0.75001526 -0.109375 -1.5781403 -0.140625q-0.828125 -0.046875 -1.703125 -0.09375q-0.859375 -0.046875 -1.640625 -0.171875q-0.90625 0.4375 -1.484375 1.0625q-0.5625 0.609375 -0.5625 1.484375q0 0.546875 0.28125 1.015625q0.28125 0.46875 0.859375 0.8125q0.578125 0.34375 1.4375 0.546875q0.875 0.203125 2.0625 0.203125q1.15625 0 2.0625 -0.21875q0.90626526 -0.203125 1.5312653 -0.59375q0.640625 -0.375 0.96875 -0.90625q0.34375 -0.53125 0.34375 -1.171875zm-5.0468903 -8.796875q0.859375 0 1.515625 -0.234375q0.671875 -0.25 1.1093903 -0.671875q0.453125 -0.4375 0.671875 -1.03125q0.234375 -0.609375 0.234375 -1.328125q0 -1.484375 -0.90625 -2.359375q-0.90626526 -0.890625 -2.6250153 -0.890625q-1.71875 0 -2.625 0.890625q-0.90625 0.875 -0.90625 2.359375q0 0.71875 0.234375 1.328125q0.234375 0.59375 0.671875 1.03125q0.453125 0.421875 1.109375 0.671875q0.65625 0.234375 1.515625 0.234375zm10.8989105 7.921875l0 -23.5625l2.84375 0l0 9.53125q1.03125 -1.109375 2.296875 -1.765625q1.265625 -0.671875 2.921875 -0.671875q1.328125 0 2.34375 0.453125q1.015625 0.4375 1.6875 1.25q0.6875 0.796875 1.03125 1.9375q0.359375 1.125 0.359375 2.515625l0 10.3125l-2.859375 0l0 -10.3125q0 -1.84375 -0.84375 -2.859375q-0.828125 -1.015625 -2.5625 -1.015625q-1.265625 0 -2.359375 0.609375q-1.09375 0.609375 -2.015625 1.640625l0 11.9375l-2.84375 0z" fill-rule="nonzero"/><path fill="#e4003b" d="m682.2047 574.1108l58.290344 -116.5806l154.76508 0l58.290283 116.5806l-58.290283 116.58063l-154.76508 0z" fill-rule="evenodd"/><path fill="#ffffff" d="m695.7213 574.1108l52.49298 -104.9859l139.24207 0l52.49298 104.9859l-52.49298 104.9859l-139.24207 0z" fill-rule="evenodd"/><path fill="#000000" fill-opacity="0.0" d="m695.72284 545.895l244.22803 0l0 56.34729l-244.22803 0z" fill-rule="evenodd"/><path fill="#000000" d="m736.8966 562.1774q0.234375 0 0.4375 0.1875l1.171875 1.28125q-1.359375 1.5625 -3.28125 2.4375q-1.921875 0.875 -4.640625 0.875q-2.375 0 -4.3125 -0.8125q-1.921875 -0.828125 -3.296875 -2.3125q-1.359375 -1.484375 -2.109375 -3.546875q-0.75 -2.0625 -0.75 -4.546875q0 -2.484375 0.796875 -4.546875q0.8125 -2.078125 2.265625 -3.5625q1.46875 -1.5 3.5 -2.3125q2.03125 -0.8125 4.484375 -0.8125q2.421875 0 4.171875 0.75q1.75 0.75 3.125 2.03125l-0.96875 1.359375q-0.109375 0.15625 -0.25 0.265625q-0.140625 0.09375 -0.390625 0.09375q-0.203125 0 -0.4375 -0.140625q-0.21875 -0.15625 -0.53125 -0.359375q-0.296875 -0.21875 -0.71875 -0.46875q-0.40625 -0.25 -0.96875 -0.453125q-0.5625 -0.21875 -1.328125 -0.359375q-0.75 -0.15625 -1.71875 -0.15625q-1.765625 0 -3.234375 0.609375q-1.46875 0.609375 -2.53125 1.734375q-1.046875 1.109375 -1.640625 2.71875q-0.578125 1.609375 -0.578125 3.609375q0 2.046875 0.578125 3.65625q0.59375 1.609375 1.609375 2.71875q1.03125 1.109375 2.421875 1.703125q1.390625 0.578125 3.0 0.578125q0.984375 0 1.765625 -0.109375q0.78125 -0.125 1.4375 -0.359375q0.671875 -0.25 1.25 -0.625q0.578125 -0.375 1.15625 -0.90625q0.265625 -0.21875 0.515625 -0.21875zm5.0776978 4.53125l0 -22.578125l2.734375 0l0 9.140625q1.0 -1.0625 2.203125 -1.6875q1.21875 -0.640625 2.796875 -0.640625q1.265625 0 2.234375 0.421875q0.984375 0.421875 1.625 1.203125q0.65625 0.765625 0.984375 1.859375q0.34375 1.078125 0.34375 2.390625l0 9.890625l-2.71875 0l0 -9.890625q0 -1.765625 -0.8125 -2.734375q-0.796875 -0.96875 -2.453125 -0.96875q-1.21875 0 -2.265625 0.578125q-1.046875 0.578125 -1.9375 1.578125l0 11.4375l-2.734375 0zm23.201172 -15.765625q1.390625 0 2.5625 0.46875q1.1875 0.453125 2.046875 1.34375q0.859375 0.875 1.34375 2.171875q0.484375 1.296875 0.484375 2.953125q0 0.640625 -0.140625 0.859375q-0.140625 0.21875 -0.53125 0.21875l-10.328125 0q0.03125 1.46875 0.390625 2.5625q0.375 1.078125 1.015625 1.8125q0.65625 0.71875 1.546875 1.078125q0.890625 0.359375 1.984375 0.359375q1.03125 0 1.765625 -0.234375q0.75 -0.234375 1.28125 -0.5q0.546875 -0.28125 0.90625 -0.515625q0.359375 -0.25 0.609375 -0.25q0.34375 0 0.53125 0.265625l0.765625 1.0q-0.5 0.609375 -1.21875 1.0625q-0.703125 0.453125 -1.515625 0.75q-0.796875 0.28125 -1.65625 0.421875q-0.859375 0.15625 -1.703125 0.15625q-1.609375 0 -2.96875 -0.546875q-1.34375 -0.546875 -2.34375 -1.59375q-0.984375 -1.046875 -1.53125 -2.59375q-0.546875 -1.546875 -0.546875 -3.5625q0 -1.625 0.484375 -3.03125q0.5 -1.40625 1.4375 -2.4375q0.9375 -1.046875 2.28125 -1.625q1.359375 -0.59375 3.046875 -0.59375zm0.0625 2.0q-1.984375 0 -3.125 1.140625q-1.125 1.140625 -1.40625 3.171875l8.453125 0q0 -0.953125 -0.265625 -1.734375q-0.265625 -0.796875 -0.765625 -1.375q-0.5 -0.578125 -1.234375 -0.890625q-0.734375 -0.3125 -1.65625 -0.3125zm18.735779 0.796875q-0.1875 0.34375 -0.5625 0.34375q-0.234375 0 -0.53125 -0.171875q-0.28125 -0.171875 -0.703125 -0.375q-0.421875 -0.203125 -1.015625 -0.375q-0.578125 -0.1875 -1.375 -0.1875q-0.6875 0 -1.234375 0.1875q-0.546875 0.171875 -0.9375 0.484375q-0.390625 0.296875 -0.609375 0.703125q-0.203125 0.40625 -0.203125 0.875q0 0.59375 0.34375 1.0q0.34375 0.40625 0.90625 0.703125q0.578125 0.28125 1.296875 0.5q0.71875 0.21875 1.46875 0.484375q0.765625 0.25 1.484375 0.5625q0.71875 0.296875 1.28125 0.765625q0.578125 0.453125 0.921875 1.125q0.34375 0.65625 0.34375 1.59375q0 1.078125 -0.390625 1.984375q-0.375 0.90625 -1.125 1.578125q-0.75 0.671875 -1.84375 1.0625q-1.078125 0.375 -2.515625 0.375q-1.625 0 -2.9375 -0.53125q-1.3125 -0.53125 -2.234375 -1.359375l0.640625 -1.046875q0.125 -0.1875 0.28125 -0.296875q0.171875 -0.109375 0.453125 -0.109375q0.28125 0 0.578125 0.21875q0.3125 0.203125 0.75 0.46875q0.4375 0.265625 1.046875 0.484375q0.625 0.203125 1.5625 0.203125q0.796875 0 1.390625 -0.203125q0.609375 -0.203125 1.0 -0.546875q0.40625 -0.359375 0.59375 -0.8125q0.1875 -0.46875 0.1875 -1.0q0 -0.640625 -0.34375 -1.0625q-0.34375 -0.421875 -0.90625 -0.71875q-0.5625 -0.296875 -1.296875 -0.515625q-0.734375 -0.234375 -1.5 -0.46875q-0.75 -0.25 -1.484375 -0.5625q-0.71875 -0.3125 -1.296875 -0.78125q-0.5625 -0.484375 -0.90625 -1.171875q-0.34375 -0.703125 -0.34375 -1.703125q0 -0.890625 0.359375 -1.703125q0.375 -0.828125 1.078125 -1.4375q0.71875 -0.625 1.734375 -0.984375q1.03125 -0.375 2.34375 -0.375q1.546875 0 2.765625 0.484375q1.21875 0.46875 2.09375 1.3125l-0.609375 1.0zm4.4142456 12.96875l0 -22.578125l2.734375 0l0 9.140625q1.0 -1.0625 2.203125 -1.6875q1.21875 -0.640625 2.796875 -0.640625q1.265625 0 2.234375 0.421875q0.984375 0.421875 1.625 1.203125q0.65625 0.765625 0.984375 1.859375q0.34375 1.078125 0.34375 2.390625l0 9.890625l-2.71875 0l0 -9.890625q0 -1.765625 -0.8125 -2.734375q-0.796875 -0.96875 -2.453125 -0.96875q-1.21875 0 -2.265625 0.578125q-1.046875 0.578125 -1.9375 1.578125l0 11.4375l-2.734375 0zm20.076172 -15.53125l0 15.53125l-2.71875 0l0 -15.53125l2.71875 0zm0.625 -4.875q0 0.40625 -0.171875 0.75q-0.15625 0.34375 -0.421875 0.609375q-0.265625 0.265625 -0.625 0.421875q-0.34375 0.15625 -0.75 0.15625q-0.390625 0 -0.75 -0.15625q-0.34375 -0.15625 -0.609375 -0.421875q-0.265625 -0.265625 -0.421875 -0.609375q-0.140625 -0.34375 -0.140625 -0.75q0 -0.390625 0.140625 -0.75q0.15625 -0.359375 0.421875 -0.625q0.265625 -0.28125 0.609375 -0.421875q0.359375 -0.15625 0.75 -0.15625q0.40625 0 0.75 0.15625q0.359375 0.140625 0.625 0.421875q0.265625 0.265625 0.421875 0.625q0.171875 0.359375 0.171875 0.75zm4.1917725 20.40625l0 -15.53125l1.5625 0q0.453125 0 0.609375 0.171875q0.171875 0.171875 0.234375 0.578125l0.1875 2.421875q0.796875 -1.625 1.96875 -2.53125q1.171875 -0.90625 2.75 -0.90625q0.640625 0 1.15625 0.140625q0.53125 0.140625 0.984375 0.40625l-0.359375 2.03125q-0.109375 0.390625 -0.46875 0.390625q-0.21875 0 -0.671875 -0.140625q-0.4375 -0.15625 -1.234375 -0.15625q-1.421875 0 -2.390625 0.828125q-0.953125 0.828125 -1.59375 2.40625l0 9.890625l-2.734375 0zm18.510742 -15.765625q1.390625 0 2.5625 0.46875q1.1875 0.453125 2.046875 1.34375q0.859375 0.875 1.34375 2.171875q0.484375 1.296875 0.484375 2.953125q0 0.640625 -0.140625 0.859375q-0.140625 0.21875 -0.53125 0.21875l-10.328125 0q0.03125 1.46875 0.390625 2.5625q0.375 1.078125 1.015625 1.8125q0.65625 0.71875 1.546875 1.078125q0.890625 0.359375 1.984375 0.359375q1.03125 0 1.765625 -0.234375q0.75 -0.234375 1.28125 -0.5q0.546875 -0.28125 0.90625 -0.515625q0.359375 -0.25 0.609375 -0.25q0.34375 0 0.53125 0.265625l0.765625 1.0q-0.5 0.609375 -1.21875 1.0625q-0.703125 0.453125 -1.515625 0.75q-0.796875 0.28125 -1.65625 0.421875q-0.859375 0.15625 -1.703125 0.15625q-1.609375 0 -2.96875 -0.546875q-1.34375 -0.546875 -2.34375 -1.59375q-0.984375 -1.046875 -1.53125 -2.59375q-0.546875 -1.546875 -0.546875 -3.5625q0 -1.625 0.484375 -3.03125q0.5 -1.40625 1.4375 -2.4375q0.9375 -1.046875 2.28125 -1.625q1.359375 -0.59375 3.046875 -0.59375zm0.0625 2.0q-1.984375 0 -3.125 1.140625q-1.125 1.140625 -1.40625 3.171875l8.453125 0q0 -0.953125 -0.265625 -1.734375q-0.265625 -0.796875 -0.765625 -1.375q-0.5 -0.578125 -1.234375 -0.890625q-0.734375 -0.3125 -1.65625 -0.3125zm13.746216 -8.203125l2.46875 0q0.390625 0 0.65625 0.203125q0.265625 0.203125 0.34375 0.5l4.546875 15.265625q0.125 0.421875 0.21875 0.90625q0.09375 0.46875 0.1875 0.984375q0.109375 -0.515625 0.21875 -1.0q0.109375 -0.484375 0.25 -0.890625l5.15625 -15.265625q0.09375 -0.25 0.359375 -0.46875q0.28125 -0.234375 0.65625 -0.234375l0.859375 0q0.40625 0 0.65625 0.203125q0.25 0.203125 0.359375 0.5l5.125 15.265625q0.28125 0.796875 0.5 1.828125q0.09375 -0.5 0.15625 -0.953125q0.078125 -0.46875 0.203125 -0.875l4.5625 -15.265625q0.078125 -0.265625 0.34375 -0.484375q0.265625 -0.21875 0.640625 -0.21875l2.328125 0l-6.859375 21.96875l-2.671875 0l-5.5625 -16.75q-0.171875 -0.484375 -0.296875 -1.109375q-0.078125 0.3125 -0.15625 0.59375q-0.0625 0.28125 -0.140625 0.515625l-5.59375 16.75l-2.671875 0l-6.84375 -21.96875zm38.920044 6.203125q1.390625 0 2.5625 0.46875q1.1875 0.453125 2.046875 1.34375q0.859375 0.875 1.34375 2.171875q0.484375 1.296875 0.484375 2.953125q0 0.640625 -0.140625 0.859375q-0.140625 0.21875 -0.53125 0.21875l-10.328125 0q0.03125 1.46875 0.390625 2.5625q0.375 1.078125 1.015625 1.8125q0.65625 0.71875 1.546875 1.078125q0.890625 0.359375 1.984375 0.359375q1.03125 0 1.765625 -0.234375q0.75 -0.234375 1.28125 -0.5q0.546875 -0.28125 0.90625 -0.515625q0.359375 -0.25 0.609375 -0.25q0.34375 0 0.53125 0.265625l0.765625 1.0q-0.5 0.609375 -1.21875 1.0625q-0.703125 0.453125 -1.515625 0.75q-0.796875 0.28125 -1.65625 0.421875q-0.859375 0.15625 -1.703125 0.15625q-1.609375 0 -2.96875 -0.546875q-1.34375 -0.546875 -2.34375 -1.59375q-0.984375 -1.046875 -1.53125 -2.59375q-0.546875 -1.546875 -0.546875 -3.5625q0 -1.625 0.484375 -3.03125q0.5 -1.40625 1.4375 -2.4375q0.9375 -1.046875 2.28125 -1.625q1.359375 -0.59375 3.046875 -0.59375zm0.0625 2.0q-1.984375 0 -3.125 1.140625q-1.125 1.140625 -1.40625 3.171875l8.453125 0q0 -0.953125 -0.265625 -1.734375q-0.265625 -0.796875 -0.765625 -1.375q-0.5 -0.578125 -1.234375 -0.890625q-0.734375 -0.3125 -1.65625 -0.3125zm18.735779 0.796875q-0.1875 0.34375 -0.5625 0.34375q-0.234375 0 -0.53125 -0.171875q-0.28125 -0.171875 -0.703125 -0.375q-0.421875 -0.203125 -1.015625 -0.375q-0.578125 -0.1875 -1.375 -0.1875q-0.6875 0 -1.234375 0.1875q-0.546875 0.171875 -0.9375 0.484375q-0.390625 0.296875 -0.609375 0.703125q-0.203125 0.40625 -0.203125 0.875q0 0.59375 0.34375 1.0q0.34375 0.40625 0.90625 0.703125q0.578125 0.28125 1.296875 0.5q0.71875 0.21875 1.46875 0.484375q0.765625 0.25 1.484375 0.5625q0.71875 0.296875 1.28125 0.765625q0.578125 0.453125 0.921875 1.125q0.34375 0.65625 0.34375 1.59375q0 1.078125 -0.390625 1.984375q-0.375 0.90625 -1.125 1.578125q-0.75 0.671875 -1.84375 1.0625q-1.078125 0.375 -2.515625 0.375q-1.625 0 -2.9375 -0.53125q-1.3125 -0.53125 -2.234375 -1.359375l0.640625 -1.046875q0.125 -0.1875 0.28125 -0.296875q0.171875 -0.109375 0.453125 -0.109375q0.28125 0 0.578125 0.21875q0.3125 0.203125 0.75 0.46875q0.4375 0.265625 1.046875 0.484375q0.625 0.203125 1.5625 0.203125q0.796875 0 1.390625 -0.203125q0.609375 -0.203125 1.0 -0.546875q0.40625 -0.359375 0.59375 -0.8125q0.1875 -0.46875 0.1875 -1.0q0 -0.640625 -0.34375 -1.0625q-0.34375 -0.421875 -0.90625 -0.71875q-0.5625 -0.296875 -1.296875 -0.515625q-0.734375 -0.234375 -1.5 -0.46875q-0.75 -0.25 -1.484375 -0.5625q-0.71875 -0.3125 -1.296875 -0.78125q-0.5625 -0.484375 -0.90625 -1.171875q-0.34375 -0.703125 -0.34375 -1.703125q0 -0.890625 0.359375 -1.703125q0.375 -0.828125 1.078125 -1.4375q0.71875 -0.625 1.734375 -0.984375q1.03125 -0.375 2.34375 -0.375q1.546875 0 2.765625 0.484375q1.21875 0.46875 2.09375 1.3125l-0.609375 1.0zm9.117371 13.21875q-1.828125 0 -2.828125 -1.03125q-0.984375 -1.03125 -0.984375 -2.953125l0 -9.515625l-1.875 0q-0.234375 0 -0.40625 -0.140625q-0.171875 -0.140625 -0.171875 -0.453125l0 -1.078125l2.546875 -0.328125l0.625 -4.796875q0.03125 -0.234375 0.203125 -0.375q0.171875 -0.15625 0.421875 -0.15625l1.390625 0l0 5.359375l4.4375 0l0 1.96875l-4.4375 0l0 9.328125q0 0.984375 0.46875 1.453125q0.484375 0.46875 1.234375 0.46875q0.421875 0 0.734375 -0.109375q0.3125 -0.109375 0.546875 -0.25q0.234375 -0.140625 0.390625 -0.25q0.15625 -0.125 0.28125 -0.125q0.21875 0 0.390625 0.265625l0.796875 1.296875q-0.703125 0.671875 -1.703125 1.046875q-1.0 0.375 -2.0625 0.375z" fill-rule="nonzero"/><path fill="#000000" d="m750.0236 603.50867l-1.203125 0q-0.40625 0 -0.65625 -0.125q-0.234375 -0.125 -0.3125 -0.515625l-0.3125 -1.4375q-0.609375 0.546875 -1.203125 0.984375q-0.578125 0.4375 -1.21875 0.734375q-0.640625 0.296875 -1.375 0.453125q-0.71875 0.15625 -1.609375 0.15625q-0.90625 0 -1.703125 -0.25q-0.78125 -0.265625 -1.375 -0.765625q-0.578125 -0.5 -0.921875 -1.28125q-0.34375 -0.78125 -0.34375 -1.828125q0 -0.921875 0.5 -1.765625q0.515625 -0.859375 1.640625 -1.515625q1.125 -0.65625 2.953125 -1.078125q1.828125 -0.421875 4.453125 -0.484375l0 -1.21875q0 -1.796875 -0.78125 -2.71875q-0.765625 -0.9375 -2.28125 -0.9375q-1.0 0 -1.6875 0.25q-0.671875 0.25 -1.171875 0.5625q-0.5 0.3125 -0.859375 0.578125q-0.359375 0.25 -0.703125 0.25q-0.28125 0 -0.484375 -0.140625q-0.203125 -0.15625 -0.328125 -0.375l-0.5 -0.859375q1.296875 -1.25 2.78125 -1.859375q1.484375 -0.609375 3.296875 -0.609375q1.296875 0 2.3125 0.4375q1.015625 0.421875 1.703125 1.1875q0.6875 0.765625 1.03125 1.859375q0.359375 1.078125 0.359375 2.375l0 9.9375zm-7.078125 -1.671875q0.71875 0 1.3125 -0.140625q0.59375 -0.15625 1.125 -0.421875q0.53125 -0.265625 1.015625 -0.640625q0.484375 -0.390625 0.9375 -0.875l0 -3.234375q-1.875 0.0625 -3.203125 0.296875q-1.3125 0.234375 -2.140625 0.625q-0.828125 0.375 -1.203125 0.90625q-0.375 0.515625 -0.375 1.15625q0 0.609375 0.203125 1.0625q0.203125 0.4375 0.53125 0.71875q0.34375 0.28125 0.796875 0.421875q0.46875 0.125 1.0 0.125zm11.214661 1.671875l0 -15.53125l1.625 0q0.578125 0 0.734375 0.578125l0.21875 1.671875q1.015625 -1.109375 2.265625 -1.796875q1.25 -0.6875 2.890625 -0.6875q1.265625 0 2.234375 0.421875q0.984375 0.421875 1.625 1.203125q0.65625 0.765625 0.984375 1.859375q0.34375 1.078125 0.34375 2.390625l0 9.890625l-2.71875 0l0 -9.890625q0 -1.765625 -0.8125 -2.734375q-0.796875 -0.96875 -2.453125 -0.96875q-1.21875 0 -2.265625 0.578125q-1.046875 0.578125 -1.9375 1.578125l0 11.4375l-2.734375 0zm27.982422 0q-0.59375 0 -0.734375 -0.5625l-0.25 -1.890625q-1.0 1.21875 -2.28125 1.953125q-1.28125 0.71875 -2.9375 0.71875q-1.328125 0 -2.421875 -0.515625q-1.078125 -0.515625 -1.84375 -1.515625q-0.765625 -1.0 -1.1875 -2.484375q-0.40625 -1.484375 -0.40625 -3.40625q0 -1.71875 0.453125 -3.203125q0.453125 -1.484375 1.3125 -2.5625q0.875 -1.09375 2.109375 -1.703125q1.25 -0.625 2.828125 -0.625q1.4375 0 2.4375 0.484375q1.015625 0.46875 1.8125 1.34375l0 -8.609375l2.734375 0l0 22.578125l-1.625 0zm-5.296875 -2.0q1.34375 0 2.34375 -0.609375q1.0 -0.609375 1.84375 -1.734375l0 -7.5q-0.75 -1.015625 -1.65625 -1.421875q-0.890625 -0.40625 -1.96875 -0.40625q-2.1875 0 -3.359375 1.546875q-1.15625 1.546875 -1.15625 4.421875q0 1.515625 0.25 2.59375q0.265625 1.078125 0.765625 1.78125q0.515625 0.6875 1.25 1.015625q0.734375 0.3125 1.6875 0.3125zm33.334778 -2.53125q0.234375 0 0.4375 0.1875l1.171875 1.28125q-1.359375 1.5625 -3.28125 2.4375q-1.921875 0.875 -4.640625 0.875q-2.375 0 -4.3125 -0.8125q-1.921875 -0.828125 -3.296875 -2.3125q-1.359375 -1.484375 -2.109375 -3.546875q-0.75 -2.0625 -0.75 -4.546875q0 -2.484375 0.796875 -4.546875q0.8125 -2.078125 2.265625 -3.5625q1.46875 -1.5 3.5 -2.3125q2.03125 -0.8125 4.484375 -0.8125q2.421875 0 4.171875 0.75q1.75 0.75 3.125 2.03125l-0.96875 1.359375q-0.109375 0.15625 -0.25 0.265625q-0.140625 0.09375 -0.390625 0.09375q-0.203125 0 -0.4375 -0.140625q-0.21875 -0.15625 -0.53125 -0.359375q-0.296875 -0.21875 -0.71875 -0.46875q-0.40625 -0.25 -0.96875 -0.453125q-0.5625 -0.21875 -1.328125 -0.359375q-0.75 -0.15625 -1.71875 -0.15625q-1.765625 0 -3.234375 0.609375q-1.46875 0.609375 -2.53125 1.734375q-1.046875 1.109375 -1.640625 2.71875q-0.578125 1.609375 -0.578125 3.609375q0 2.046875 0.578125 3.65625q0.59375 1.609375 1.609375 2.71875q1.03125 1.109375 2.421875 1.703125q1.390625 0.578125 3.0 0.578125q0.984375 0 1.765625 -0.109375q0.78125 -0.125 1.4375 -0.359375q0.671875 -0.25 1.25 -0.625q0.578125 -0.375 1.15625 -0.90625q0.265625 -0.21875 0.515625 -0.21875zm5.0776978 4.53125l0 -22.578125l2.734375 0l0 9.140625q1.0 -1.0625 2.203125 -1.6875q1.21875 -0.640625 2.796875 -0.640625q1.265625 0 2.234375 0.421875q0.984375 0.421875 1.625 1.203125q0.65625 0.765625 0.984375 1.859375q0.34375 1.078125 0.34375 2.390625l0 9.890625l-2.71875 0l0 -9.890625q0 -1.765625 -0.8125 -2.734375q-0.796875 -0.96875 -2.453125 -0.96875q-1.21875 0 -2.265625 0.578125q-1.046875 0.578125 -1.9375 1.578125l0 11.4375l-2.734375 0zm23.201172 -15.765625q1.390625 0 2.5625 0.46875q1.1875 0.453125 2.046875 1.34375q0.859375 0.875 1.34375 2.171875q0.484375 1.296875 0.484375 2.953125q0 0.640625 -0.140625 0.859375q-0.140625 0.21875 -0.53125 0.21875l-10.328125 0q0.03125 1.46875 0.390625 2.5625q0.375 1.078125 1.015625 1.8125q0.65625 0.71875 1.546875 1.078125q0.890625 0.359375 1.984375 0.359375q1.03125 0 1.765625 -0.234375q0.75 -0.234375 1.28125 -0.5q0.546875 -0.28125 0.90625 -0.515625q0.359375 -0.25 0.609375 -0.25q0.34375 0 0.53125 0.265625l0.765625 1.0q-0.5 0.609375 -1.21875 1.0625q-0.703125 0.453125 -1.515625 0.75q-0.796875 0.28125 -1.65625 0.421875q-0.859375 0.15625 -1.703125 0.15625q-1.609375 0 -2.96875 -0.546875q-1.34375 -0.546875 -2.34375 -1.59375q-0.984375 -1.046875 -1.53125 -2.59375q-0.546875 -1.546875 -0.546875 -3.5625q0 -1.625 0.484375 -3.03125q0.5 -1.40625 1.4375 -2.4375q0.9375 -1.046875 2.28125 -1.625q1.359375 -0.59375 3.046875 -0.59375zm0.0625 2.0q-1.984375 0 -3.125 1.140625q-1.125 1.140625 -1.40625 3.171875l8.453125 0q0 -0.953125 -0.265625 -1.734375q-0.265625 -0.796875 -0.765625 -1.375q-0.5 -0.578125 -1.234375 -0.890625q-0.734375 -0.3125 -1.65625 -0.3125zm18.73584 0.796875q-0.1875 0.34375 -0.5625 0.34375q-0.234375 0 -0.53125 -0.171875q-0.28125 -0.171875 -0.703125 -0.375q-0.421875 -0.203125 -1.015625 -0.375q-0.578125 -0.1875 -1.375 -0.1875q-0.6875 0 -1.234375 0.1875q-0.546875 0.171875 -0.9375 0.484375q-0.390625 0.296875 -0.609375 0.703125q-0.203125 0.40625 -0.203125 0.875q0 0.59375 0.34375 1.0q0.34375 0.40625 0.90625 0.703125q0.578125 0.28125 1.296875 0.5q0.71875 0.21875 1.46875 0.484375q0.765625 0.25 1.484375 0.5625q0.71875 0.296875 1.28125 0.765625q0.578125 0.453125 0.921875 1.125q0.34375 0.65625 0.34375 1.59375q0 1.078125 -0.390625 1.984375q-0.375 0.90625 -1.125 1.578125q-0.75 0.671875 -1.84375 1.0625q-1.078125 0.375 -2.515625 0.375q-1.625 0 -2.9375 -0.53125q-1.3125 -0.53125 -2.234375 -1.359375l0.640625 -1.046875q0.125 -0.1875 0.28125 -0.296875q0.171875 -0.109375 0.453125 -0.109375q0.28125 0 0.578125 0.21875q0.3125 0.203125 0.75 0.46875q0.4375 0.265625 1.046875 0.484375q0.625 0.203125 1.5625 0.203125q0.796875 0 1.390625 -0.203125q0.609375 -0.203125 1.0 -0.546875q0.40625 -0.359375 0.59375 -0.8125q0.1875 -0.46875 0.1875 -1.0q0 -0.640625 -0.34375 -1.0625q-0.34375 -0.421875 -0.90625 -0.71875q-0.5625 -0.296875 -1.296875 -0.515625q-0.734375 -0.234375 -1.5 -0.46875q-0.75 -0.25 -1.484375 -0.5625q-0.71875 -0.3125 -1.296875 -0.78125q-0.5625 -0.484375 -0.90625 -1.171875q-0.34375 -0.703125 -0.34375 -1.703125q0 -0.890625 0.359375 -1.703125q0.375 -0.828125 1.078125 -1.4375q0.71875 -0.625 1.734375 -0.984375q1.03125 -0.375 2.34375 -0.375q1.546875 0 2.765625 0.484375q1.21875 0.46875 2.09375 1.3125l-0.609375 1.0zm9.11731 13.21875q-1.828125 0 -2.828125 -1.03125q-0.984375 -1.03125 -0.984375 -2.953125l0 -9.515625l-1.875 0q-0.234375 0 -0.40625 -0.140625q-0.171875 -0.140625 -0.171875 -0.453125l0 -1.078125l2.546875 -0.328125l0.625 -4.796875q0.03125 -0.234375 0.203125 -0.375q0.171875 -0.15625 0.421875 -0.15625l1.390625 0l0 5.359375l4.4375 0l0 1.96875l-4.4375 0l0 9.328125q0 0.984375 0.46875 1.453125q0.484375 0.46875 1.234375 0.46875q0.421875 0 0.734375 -0.109375q0.3125 -0.109375 0.546875 -0.25q0.234375 -0.140625 0.390625 -0.25q0.15625 -0.125 0.28125 -0.125q0.21875 0 0.390625 0.265625l0.796875 1.296875q-0.703125 0.671875 -1.703125 1.046875q-1.0 0.375 -2.0625 0.375zm12.887939 -16.015625q1.390625 0 2.5625 0.46875q1.1875 0.453125 2.046875 1.34375q0.859375 0.875 1.34375 2.171875q0.484375 1.296875 0.484375 2.953125q0 0.640625 -0.140625 0.859375q-0.140625 0.21875 -0.53125 0.21875l-10.328125 0q0.03125 1.46875 0.390625 2.5625q0.375 1.078125 1.015625 1.8125q0.65625 0.71875 1.546875 1.078125q0.890625 0.359375 1.984375 0.359375q1.03125 0 1.765625 -0.234375q0.75 -0.234375 1.28125 -0.5q0.546875 -0.28125 0.90625 -0.515625q0.359375 -0.25 0.609375 -0.25q0.34375 0 0.53125 0.265625l0.765625 1.0q-0.5 0.609375 -1.21875 1.0625q-0.703125 0.453125 -1.515625 0.75q-0.796875 0.28125 -1.65625 0.421875q-0.859375 0.15625 -1.703125 0.15625q-1.609375 0 -2.96875 -0.546875q-1.34375 -0.546875 -2.34375 -1.59375q-0.984375 -1.046875 -1.53125 -2.59375q-0.546875 -1.546875 -0.546875 -3.5625q0 -1.625 0.484375 -3.03125q0.5 -1.40625 1.4375 -2.4375q0.9375 -1.046875 2.28125 -1.625q1.359375 -0.59375 3.046875 -0.59375zm0.0625 2.0q-1.984375 0 -3.125 1.140625q-1.125 1.140625 -1.40625 3.171875l8.453125 0q0 -0.953125 -0.265625 -1.734375q-0.265625 -0.796875 -0.765625 -1.375q-0.5 -0.578125 -1.234375 -0.890625q-0.734375 -0.3125 -1.65625 -0.3125zm9.845215 13.765625l0 -15.53125l1.5625 0q0.453125 0 0.609375 0.171875q0.171875 0.171875 0.234375 0.578125l0.1875 2.421875q0.796875 -1.625 1.96875 -2.53125q1.171875 -0.90625 2.75 -0.90625q0.640625 0 1.15625 0.140625q0.53125 0.140625 0.984375 0.40625l-0.359375 2.03125q-0.109375 0.390625 -0.46875 0.390625q-0.21875 0 -0.671875 -0.140625q-0.4375 -0.15625 -1.234375 -0.15625q-1.421875 0 -2.390625 0.828125q-0.953125 0.828125 -1.59375 2.40625l0 9.890625l-2.734375 0z" fill-rule="nonzero"/></g></svg>